<svg width="20" height="19" viewBox="0 0 20 19" fill="none" xmlns="http://www.w3.org/2000/svg">
<path d="M1 14.5H0.5V15H1V14.5ZM19.8536 14.8536C20.0488 14.6583 20.0488 14.3417 19.8536 14.1464L16.6716 10.9645C16.4763 10.7692 16.1597 10.7692 15.9645 10.9645C15.7692 11.1597 15.7692 11.4763 15.9645 11.6716L18.7929 14.5L15.9645 17.3284C15.7692 17.5237 15.7692 17.8403 15.9645 18.0355C16.1597 18.2308 16.4763 18.2308 16.6716 18.0355L19.8536 14.8536ZM1 0H0.5V14.5H1H1.5V0H1ZM1 14.5V15H19.5V14.5V14H1V14.5Z" fill="#F3FFC9"/>
</svg>
