<svg width="83" height="26" viewBox="0 0 83 26" fill="none" xmlns="http://www.w3.org/2000/svg">
<path d="M44.6794 20.461L39.0256 13.3884L44.3198 7.13489H40.8236L36.1084 13.0887V7.13489H33.2715V20.461H36.1084V16.3652L37.1475 15.1265L41.1833 20.461H44.6794Z" fill="#585E44"/>
<path d="M51.3511 20.7006C55.3869 20.7006 58.3237 17.8236 58.3237 13.8078C58.3237 9.79203 55.3869 6.91504 51.3511 6.91504C47.3353 6.91504 44.3984 9.79203 44.3984 13.8078C44.3984 17.8236 47.3353 20.7006 51.3511 20.7006ZM51.3511 18.1832C48.8938 18.1832 47.3153 16.2852 47.3153 13.8078C47.3153 11.3104 48.8938 9.43239 51.3511 9.43239C53.8087 9.43239 55.4068 11.3104 55.4068 13.8078C55.4068 16.2852 53.8087 18.1832 51.3511 18.1832Z" fill="#585E44"/>
<path d="M67.5468 20.461C70.0841 20.461 71.4228 18.8626 71.4228 16.8647C71.4228 15.1865 70.284 13.8079 68.8656 13.5881C70.1243 13.3284 71.1631 12.2096 71.1631 10.5313C71.1631 8.75319 69.8645 7.13489 67.3269 7.13489H60.3145V20.461H67.5468ZM66.7079 12.4693H63.1513V9.57233H66.7079C67.6667 9.57233 68.2661 10.1917 68.2661 11.0308C68.2661 11.8699 67.6667 12.4693 66.7079 12.4693ZM66.8075 18.0035H63.1513V14.9068H66.8075C67.9264 14.9068 68.5258 15.626 68.5258 16.4651C68.5258 17.4241 67.8865 18.0035 66.8075 18.0035Z" fill="#585E44"/>
<path d="M82.9927 20.461V17.9636H76.3994V14.9467H82.8529V12.4493H76.3994V9.63227H82.9927V7.13489H73.5625V20.461H82.9927Z" fill="#585E44"/>
<path d="M25.2524 6.81151V3.59958H14.2598V0H10.7433V3.59958H0V6.81151H10.771V9.71886H2.60277V22.6496H5.92546V12.9308H10.771V26H14.2045V12.9308H19.4931V19.0224C19.4931 19.327 19.3546 19.4654 18.9116 19.4654C18.4686 19.4654 16.8349 19.4654 15.4505 19.41C15.9212 20.2961 16.4196 21.7082 16.558 22.6496C18.7178 22.6496 20.2961 22.5943 21.459 22.0958C22.5943 21.5975 22.9265 20.656 22.9265 19.0777V9.71886H14.2045V6.81151H25.2524Z" fill="#585E44"/>
</svg>
