<svg width="124" height="26" viewBox="0 0 124 26" fill="none" xmlns="http://www.w3.org/2000/svg">
<path d="M9.42624 25.4128C6.88951 25.329 4.97256 24.7559 3.67536 23.6935C2.37818 22.6032 1.44132 21.3871 0.864792 20.0451C0.288264 18.6752 0 17.2913 0 15.8935C0 14.4397 0.273851 13.0419 0.821554 11.7C1.39808 10.3301 2.33494 9.11394 3.63214 8.05158C4.95814 6.96125 6.63009 6.40211 8.64792 6.37415H22.6576C24.6754 6.40211 26.3329 6.96125 27.6301 8.05158C28.9562 9.11394 29.8931 10.3301 30.4408 11.7C31.0171 13.0419 31.3054 14.4397 31.3054 15.8935C31.3054 17.2913 31.0171 18.6752 30.4408 20.0451C29.8642 21.3871 28.9273 22.6032 27.6301 23.6935C26.3329 24.7559 24.416 25.329 21.8793 25.4128H9.42624ZM8.47496 11.9935C7.92726 11.9935 7.45163 12.2172 7.04805 12.6645C6.6445 13.0838 6.3418 13.5871 6.14004 14.1741C5.96706 14.7333 5.88059 15.2924 5.88059 15.8516C5.88059 16.4387 5.96706 17.0258 6.14004 17.6128C6.3418 18.172 6.6445 18.6752 7.04805 19.1226C7.45163 19.5419 7.92726 19.7655 8.47496 19.7935H22.8305C23.3782 19.7655 23.8539 19.5419 24.2575 19.1226C24.661 18.6752 24.9493 18.172 25.1222 17.6128C25.324 17.0258 25.4249 16.4387 25.4249 15.8516C25.4249 15.2924 25.324 14.7333 25.1222 14.1741C24.9493 13.5871 24.661 13.0838 24.2575 12.6645C23.8539 12.2172 23.3782 11.9935 22.8305 11.9935H8.47496Z" fill="#585E44"/>
<path d="M63.7365 8.80646C63.7365 9.50537 63.4482 10.0925 62.8716 10.5677C62.3241 11.015 61.6467 11.2387 60.8395 11.2387H42.5491C42.1744 11.2387 41.8717 11.3086 41.6411 11.4484C41.4103 11.5882 41.2375 11.7419 41.1223 11.9097C41.0067 12.0495 40.9492 12.1753 40.9492 12.2871C40.9492 12.4269 41.0067 12.5807 41.1223 12.7484C41.2375 12.8882 41.4103 13.028 41.6411 13.1677C41.8717 13.2796 42.1744 13.3495 42.5491 13.3774H56.6885C58.5044 13.4054 60.0035 13.7548 61.1853 14.4258C62.3672 15.0688 63.2032 15.8376 63.6932 16.7323C64.212 17.5989 64.4714 18.4796 64.4714 19.3742C64.4714 20.2409 64.212 21.1215 63.6932 22.0161C63.1743 22.8828 62.3241 23.6516 61.142 24.3226C59.989 24.9656 58.5044 25.2871 56.6885 25.2871C56.3713 25.315 56.1407 25.329 55.9966 25.329H39.2196C38.4125 25.329 37.7206 25.1054 37.144 24.6581C36.5965 24.1828 36.3227 23.6097 36.3227 22.9387C36.3227 22.2398 36.6107 21.6527 37.1873 21.1774C37.735 20.7301 38.4125 20.5065 39.2196 20.5065H57.0343C57.4667 20.5344 57.8125 20.4785 58.072 20.3387C58.3603 20.1989 58.5766 20.0452 58.7208 19.8774C58.865 19.7097 58.9369 19.5419 58.9369 19.3742C58.9369 19.2903 58.865 19.1505 58.7208 18.9548C58.5766 18.7312 58.3603 18.5635 58.072 18.4516C57.8125 18.3118 57.4667 18.228 57.0343 18.2H42.8518C41.1798 18.172 39.7963 17.8366 38.7008 17.1935C37.6053 16.5226 36.8271 15.7538 36.3657 14.8871C35.9046 14.0204 35.6738 13.1538 35.6738 12.2871C35.6738 11.4204 35.9046 10.5677 36.3657 9.72903C36.856 8.86236 37.6342 8.12151 38.7008 7.50646C39.7963 6.86345 41.1798 6.51398 42.8518 6.45806C43.1399 6.43012 43.3563 6.41614 43.5004 6.41614H60.8395C61.6467 6.41614 62.3241 6.65378 62.8716 7.12903C63.4482 7.57634 63.7365 8.13549 63.7365 8.80646Z" fill="#585E44"/>
<path d="M72.2532 0C73.0314 0.027957 73.6944 0.307528 74.2422 0.838711C74.7899 1.34194 75.0782 1.97097 75.1071 2.72581V23.2742C74.9341 24.9516 73.9828 25.8602 72.2532 26C71.446 26 70.7397 25.7484 70.1345 25.2452C69.5578 24.714 69.2695 24.057 69.2695 23.2742V2.72581C69.2984 1.94301 69.6012 1.3 70.1778 0.796773C70.7541 0.265591 71.446 0 72.2532 0Z" fill="#585E44"/>
<path d="M89.5492 25.4128C87.0125 25.329 85.0957 24.7559 83.7986 23.6935C82.5012 22.6032 81.5643 21.3871 80.988 20.0451C80.4114 18.6752 80.123 17.2913 80.123 15.8935C80.123 14.4397 80.3969 13.0419 80.9446 11.7C81.5213 10.3301 82.4581 9.11394 83.7552 8.05158C85.0812 6.96125 86.753 6.40211 88.7709 6.37415H102.781C104.798 6.40211 106.456 6.96125 107.753 8.05158C109.079 9.11394 110.016 10.3301 110.564 11.7C111.14 13.0419 111.428 14.4397 111.428 15.8935C111.428 17.2913 111.14 18.6752 110.564 20.0451C109.987 21.3871 109.05 22.6032 107.753 23.6935C106.456 24.7559 104.539 25.329 102.002 25.4128H89.5492ZM88.5982 11.9935C88.0504 11.9935 87.5746 12.2172 87.1711 12.6645C86.7675 13.0838 86.465 13.5871 86.2631 14.1741C86.09 14.7333 86.0037 15.2924 86.0037 15.8516C86.0037 16.4387 86.09 17.0258 86.2631 17.6128C86.465 18.172 86.7675 18.6752 87.1711 19.1226C87.5746 19.5419 88.0504 19.7655 88.5982 19.7935H102.954C103.501 19.7655 103.977 19.5419 104.38 19.1226C104.784 18.6752 105.072 18.172 105.245 17.6128C105.447 17.0258 105.548 16.4387 105.548 15.8516C105.548 15.2924 105.447 14.7333 105.245 14.1741C105.072 13.5871 104.784 13.0838 104.38 12.6645C103.977 12.2172 103.501 11.9935 102.954 11.9935H88.5982Z" fill="#585E44"/>
<path d="M120.714 25.9999C122.424 25.9999 123.81 24.6141 123.81 22.9047C123.81 21.1952 122.424 19.8094 120.714 19.8094C119.005 19.8094 117.619 21.1952 117.619 22.9047C117.619 24.6141 119.005 25.9999 120.714 25.9999Z" fill="#585E44"/>
</svg>
