<svg width="93" height="21" viewBox="0 0 93 21" fill="none" xmlns="http://www.w3.org/2000/svg">
<path d="M31.7459 19.6163C29.5992 19.6163 27.925 19.0226 26.723 17.8347C25.5354 16.6471 24.9414 14.9513 24.9414 12.7476V4.33337H28.4188V12.6189C28.4188 15.3092 29.535 16.6543 31.7673 16.6543C32.8549 16.6543 33.6849 16.3322 34.2572 15.6883C34.8295 15.0302 35.1158 14.0069 35.1158 12.6189V4.33337H38.5501V12.7476C38.5501 14.9513 37.9492 16.6471 36.7471 17.8347C35.5595 19.0226 33.8923 19.6163 31.7459 19.6163Z" fill="#585E44"/>
<path d="M40.2461 11.9749H46.3208V14.6581H40.2461V11.9749Z" fill="#585E44"/>
<path d="M50.4548 7.16674H45.6465V4.33337H58.7404V7.16674H53.9321V19.3589H50.4548V7.16674Z" fill="#585E44"/>
<path d="M70.6865 7.81067V19.3589H67.5099V17.9852C67.0662 18.4858 66.5367 18.8724 65.9213 19.1442C65.306 19.4016 64.6407 19.5305 63.9251 19.5305C62.4084 19.5305 61.2064 19.0939 60.3192 18.2212C59.432 17.3482 58.9883 16.0531 58.9883 14.3359V7.81067H62.3368V13.8423C62.3368 15.7027 63.1168 16.6329 64.6765 16.6329C65.4779 16.6329 66.1218 16.3752 66.6083 15.8601C67.0948 15.3306 67.338 14.5506 67.338 13.5204V7.81067H70.6865Z" fill="#585E44"/>
<path d="M75.9131 9.33464C76.3138 8.77656 76.8503 8.35441 77.5228 8.0682C78.2098 7.782 78.9967 7.63892 79.8839 7.63892V10.7299C79.5121 10.7013 79.2616 10.6869 79.1328 10.6869C78.174 10.6869 77.4229 10.9588 76.8789 11.5026C76.3352 12.0321 76.0634 12.8334 76.0634 13.9067V19.3588H72.7148V7.81063H75.9131V9.33464Z" fill="#585E44"/>
<path d="M87.8199 7.63892C89.2511 7.63892 90.4029 8.0682 91.2759 8.92681C92.1631 9.78542 92.6065 11.059 92.6065 12.7476V19.3588H89.258V13.2627C89.258 12.3469 89.0578 11.6672 88.6571 11.2236C88.2564 10.7656 87.6769 10.5367 86.9183 10.5367C86.0742 10.5367 85.4016 10.8014 84.9007 11.3309C84.3998 11.846 84.1493 12.6188 84.1493 13.6491V19.3588H80.8008V7.81063H83.9991V9.16292C84.4428 8.67637 84.9937 8.30431 85.6521 8.04674C86.3102 7.77487 87.033 7.63892 87.8199 7.63892Z" fill="#585E44"/>
<path fill-rule="evenodd" clip-rule="evenodd" d="M9.98154 0.428285C10.5526 -0.142762 11.4784 -0.142762 12.0495 0.428285L17.3969 5.77579L12.0251 10.9035C11.441 11.4611 10.5154 11.4395 9.9578 10.8554C9.40018 10.2712 9.42171 9.34565 10.0059 8.78804L11.6552 7.21371H8.09103C5.23761 7.21371 2.92445 9.52687 2.92445 12.3803C2.92445 15.2338 5.23761 17.5469 8.09103 17.5469H15.3048C16.1122 17.5469 16.7671 18.2016 16.7671 19.009C16.7671 19.8167 16.1122 20.4714 15.3048 20.4714H8.09103C3.62246 20.4714 0 16.849 0 12.3803C0 7.91172 3.62246 4.28923 8.09103 4.28923H11.7746L9.98154 2.49621C9.41053 1.92516 9.41053 0.999332 9.98154 0.428285Z" fill="#585E44"/>
</svg>
