<svg width="69" height="22" viewBox="0 0 69 22" fill="none" xmlns="http://www.w3.org/2000/svg">
<path d="M40.9648 19.0318C40.9648 19.2632 41.1581 19.4475 41.3895 19.4366L44.8186 19.2728C45.0347 19.2624 45.2046 19.0841 45.2046 18.8677V8.03145C45.2046 7.80121 45.013 7.61721 44.7831 7.62643L41.354 7.76359C41.1364 7.77229 40.9648 7.95105 40.9648 8.16862V19.0318Z" fill="#585E44"/>
<path d="M41.4992 5.59859C41.919 6.01852 42.4439 6.22852 43.0739 6.22852C43.7361 6.22852 44.2691 6.01852 44.6729 5.59859C45.093 5.16249 45.303 4.6214 45.303 3.97533C45.303 3.34541 45.093 2.81241 44.6729 2.3763C44.2691 1.94022 43.7361 1.72217 43.0739 1.72217C42.4439 1.72217 41.919 1.94022 41.4992 2.3763C41.0792 2.81241 40.8691 3.34541 40.8691 3.97533C40.8691 4.6214 41.0792 5.16249 41.4992 5.59859Z" fill="#585E44"/>
<path fill-rule="evenodd" clip-rule="evenodd" d="M30.7626 12.5035V18.3933C30.7626 18.5886 30.6236 18.7559 30.4318 18.792L26.9056 19.4509C26.6563 19.4977 26.4258 19.3062 26.4258 19.0526V2.68476C26.4258 2.4609 26.6075 2.27942 26.8314 2.27942H33.7428C34.9055 2.27942 35.9233 2.49747 36.7954 2.93355C37.6838 3.36966 38.3783 3.96728 38.8789 4.72639C39.3796 5.48554 39.63 6.3739 39.63 7.39145C39.63 8.40901 39.3715 9.30543 38.8547 10.0807C38.354 10.8399 37.6514 11.4375 36.7469 11.8736C36.3558 12.0552 35.9357 12.1976 35.4868 12.3007L40.0862 18.5609C40.3101 18.8657 40.0316 19.284 39.6641 19.195L35.8623 18.2731C35.776 18.2521 35.6991 18.2035 35.6431 18.1345L31.0728 12.5035H30.7626ZM30.7626 9.40235H33.137C33.8476 9.40235 34.3887 9.23274 34.7602 8.89356C35.1479 8.53822 35.3418 8.06176 35.3418 7.46414C35.3418 6.88266 35.1479 6.41426 34.7602 6.05892C34.3887 5.68744 33.8476 5.50169 33.137 5.50169H30.7626V9.40235Z" fill="#585E44"/>
<path d="M50.9552 19.7959C50.2284 19.7959 49.5096 19.6991 48.799 19.5053C48.1045 19.3114 47.4501 19.0532 46.8365 18.7299C46.3671 18.4635 45.9525 18.1671 45.5926 17.841C45.4302 17.6939 45.4323 17.4426 45.5857 17.2857L47.3193 15.5157C47.4793 15.3522 47.7416 15.3553 47.9161 15.5032C48.2342 15.7727 48.593 15.9923 48.9928 16.1619C49.542 16.388 50.1232 16.5011 50.7371 16.5011C51.0925 16.5011 51.3591 16.4526 51.5368 16.3557C51.7306 16.2588 51.8274 16.1215 51.8274 15.9438C51.8274 15.6854 51.6902 15.4916 51.4154 15.3624C51.1572 15.217 50.8099 15.0959 50.3737 14.9989C49.9537 14.8859 49.5096 14.7567 49.0413 14.6113C48.5728 14.4498 48.1207 14.2398 47.6844 13.9814C47.2482 13.723 46.8929 13.3595 46.6184 12.8912C46.3599 12.4228 46.2307 11.8251 46.2307 11.0983C46.2307 10.3392 46.4327 9.67695 46.8365 9.11162C47.2563 8.53018 47.8378 8.07792 48.5809 7.75488C49.3239 7.4157 50.196 7.24609 51.1973 7.24609C52.2151 7.24609 53.184 7.42376 54.1047 7.77909C54.8879 8.06758 55.6742 8.62643 56.2399 9.21435C56.3979 9.37885 56.367 9.64066 56.1859 9.77982L54.1807 11.3223C54.012 11.452 53.7748 11.4257 53.6168 11.2834C53.3415 11.0356 53.0812 10.9065 52.7238 10.7833C52.2555 10.6057 51.8274 10.5168 51.4397 10.5168C51.0682 10.5168 50.8018 10.5734 50.6403 10.6864C50.4789 10.7833 50.398 10.9206 50.398 11.0983C50.398 11.3083 50.5271 11.4779 50.7857 11.6071C51.0601 11.7363 51.4073 11.8574 51.8274 11.9705C52.2636 12.0674 52.7076 12.1966 53.16 12.3581C53.6283 12.5196 54.0723 12.7458 54.4924 13.0365C54.9286 13.3111 55.2759 13.6826 55.5341 14.151C55.8089 14.6194 55.9461 15.2251 55.9461 15.9681C55.9461 17.1471 55.494 18.0839 54.5895 18.7784C53.6849 19.4567 52.4733 19.7959 50.9552 19.7959Z" fill="#585E44"/>
<path fill-rule="evenodd" clip-rule="evenodd" d="M59.1143 18.9479C60.132 19.4648 61.3029 19.7233 62.6274 19.7233C63.6773 19.7233 64.6141 19.5537 65.4377 19.2146C66.1565 18.9243 66.7805 18.5158 67.3098 17.9891C67.4614 17.8386 67.4525 17.5948 67.3014 17.4437L65.6706 15.8132C65.5051 15.6477 65.2358 15.6585 65.0625 15.8157C64.7852 16.0672 64.4821 16.2633 64.1536 16.4041C63.7177 16.5979 63.209 16.6948 62.6274 16.6948C62.0135 16.6948 61.4967 16.5737 61.077 16.3314C60.6569 16.0891 60.334 15.7338 60.1078 15.2654C60.0523 15.1468 60.0038 15.0224 59.9619 14.8921L67.9574 14.855C68.1429 14.8541 68.3056 14.728 68.342 14.5463C68.3818 14.348 68.407 14.1677 68.4179 14.0055C68.45 13.7471 68.4662 13.4968 68.4662 13.2545C68.4662 12.1077 68.1998 11.0902 67.6668 10.2018C67.15 9.29732 66.4231 8.59472 65.4863 8.09402C64.5656 7.57717 63.5077 7.31873 62.3125 7.31873C61.0848 7.31873 59.9786 7.59331 58.9932 8.14246C58.0243 8.67546 57.257 9.4104 56.6916 10.3472C56.1263 11.2678 55.8438 12.3258 55.8438 13.521C55.8438 14.7324 56.1344 15.8065 56.7159 16.7433C57.2974 17.68 58.0968 18.4149 59.1143 18.9479ZM59.9529 12.1709C59.9907 12.0503 60.0341 11.935 60.0835 11.8251C60.2935 11.3567 60.5922 10.9932 60.9799 10.7348C61.3676 10.4764 61.8278 10.3472 62.3608 10.3472C62.8776 10.3472 63.3057 10.4602 63.6449 10.6864C63.9841 10.9125 64.2426 11.2436 64.4203 11.6797C64.4786 11.8176 64.5283 11.9686 64.5691 12.1327L59.9529 12.1709Z" fill="#585E44"/>
<path d="M63.466 5.63612V2.50913H64.261V5.63612H63.466ZM62.502 3.17097V2.48694H65.2247V3.17097H62.502ZM65.3643 5.63612V2.48694H65.9374L67.1456 4.31248H66.8746L68.0784 2.48694H68.6512V5.63612H67.8652V3.80167L67.9894 3.83721L67.2654 4.92545H66.7501L66.0307 3.83721L66.155 3.80167V5.63612H65.3643Z" fill="#585E44"/>
<path d="M5.7207 0.834335C5.7207 0.593921 5.89973 0.391121 6.13829 0.361308L8.99861 0.00375057C9.28314 -0.0318117 9.53444 0.190055 9.53444 0.476806V9.88462C9.53444 10.1714 9.28314 10.3932 8.99861 10.3576L6.13829 10.0001C5.89973 9.97027 5.7207 9.7675 5.7207 9.52706V0.834335Z" fill="#585E44"/>
<path d="M0 2.02611C0 1.78569 0.179024 1.58289 0.417589 1.55305L3.27791 1.19552C3.56246 1.15996 3.81377 1.38183 3.81377 1.66858V9.16949C3.81377 9.45624 3.56246 9.67808 3.27791 9.64252L0.417589 9.28499C0.179024 9.25518 0 9.05238 0 8.81194V2.02611Z" fill="#585E44"/>
<path d="M14.8961 0.799992C15.1081 0.853032 15.2572 1.04373 15.2572 1.26247V5.23663C15.2572 5.47704 15.0781 5.67985 14.8395 5.70966L11.9792 6.06719C11.6947 6.10278 11.4434 5.88091 11.4434 5.59416V0.547388C11.4434 0.237236 11.7348 0.00967905 12.0357 0.0849057L14.8961 0.799992Z" fill="#585E44"/>
<path d="M20.4995 2.45422C20.4995 2.23547 20.3504 2.04481 20.1383 1.99174L17.2781 1.27668C16.977 1.20145 16.6855 1.42901 16.6855 1.73916V5.35576C16.6855 5.64251 16.9369 5.86438 17.2214 5.82879L20.0817 5.47126C20.3203 5.44144 20.4995 5.23864 20.4995 4.99823V2.45422Z" fill="#585E44"/>
<path d="M20.499 7.32593L11.2029 7.56429C11.3374 9.31279 12.7955 10.663 14.5491 10.663H16.6851V12.6918L0 11.1397V21.0783L20.499 19.648V7.32593Z" fill="#585E44"/>
</svg>
