<svg width="84" height="26" viewBox="0 0 84 26" fill="none" xmlns="http://www.w3.org/2000/svg">
<path d="M34.6346 21.1784H28.8613V4.71326H34.3113C36.2665 4.71326 37.6598 5.06735 38.4909 5.77553C39.3377 6.46831 39.7612 7.43823 39.7612 8.68522V9.19326C39.7612 10.1324 39.5763 10.8944 39.2068 11.4794C38.8373 12.0491 38.2907 12.4724 37.5674 12.7496C38.3832 13.0113 38.9991 13.4269 39.4148 13.9966C39.8305 14.5508 40.0382 15.282 40.0382 16.1904V16.8139C40.0382 18.184 39.6072 19.254 38.7452 20.0238C37.8984 20.7935 36.5282 21.1784 34.6346 21.1784ZM34.3575 6.93016H31.4938V11.6411H34.3344C35.2889 11.6411 35.9892 11.4641 36.4358 11.11C36.8821 10.7559 37.1054 10.1786 37.1054 9.378V8.96235C37.1054 8.26956 36.8821 7.76152 36.4358 7.43823C36.0048 7.09954 35.312 6.93016 34.3575 6.93016ZM34.242 13.8811H31.4938V18.846H34.2882C35.3811 18.846 36.1509 18.669 36.5973 18.3149C37.0592 17.9454 37.2903 17.3758 37.2903 16.6061V16.098C37.2903 15.3282 37.0439 14.7663 36.5513 14.4122C36.0585 14.0581 35.2889 13.8811 34.242 13.8811Z" fill="#585E44"/>
<path d="M45.6953 19.354C46.0492 19.354 46.3802 19.3155 46.6882 19.2386C47.0115 19.1462 47.3041 19.0076 47.5658 18.8229C48.0893 18.4842 48.4894 18.03 48.7665 17.4604C49.0591 16.8908 49.2053 16.2904 49.2053 15.6592V14.2274C48.9898 14.4122 48.6896 14.5738 48.3048 14.7124C47.9197 14.8509 47.4503 14.9818 46.8959 15.105C46.2031 15.2589 45.6797 15.4052 45.3258 15.5437C44.9716 15.6823 44.6637 15.8593 44.4019 16.0748C44.1864 16.2596 44.0171 16.4751 43.8941 16.7214C43.7863 16.9678 43.7323 17.2526 43.7323 17.5759V17.6682C43.7323 18.1917 43.8941 18.6074 44.2173 18.9153C44.5559 19.2078 45.0487 19.354 45.6953 19.354ZM49.5979 21.1784L49.2977 18.7767C48.9129 19.5772 48.3354 20.2238 47.5658 20.7165C46.8113 21.2091 45.8646 21.4555 44.7252 21.4555C43.463 21.4555 42.5007 21.1552 41.8386 20.5548C41.1768 19.9544 40.8457 19.1154 40.8457 18.0377V17.8299C40.8457 17.1525 40.9766 16.5675 41.2383 16.0748C41.5 15.5668 41.8695 15.1434 42.3468 14.8047C42.5007 14.697 42.6547 14.6046 42.8087 14.5276C42.978 14.4353 43.1395 14.3506 43.2935 14.2736C43.6323 14.135 44.0324 14.0119 44.4944 13.9041C44.9716 13.781 45.5644 13.6424 46.2725 13.4885C47.3656 13.2575 48.1199 13.0266 48.5356 12.7957C48.9667 12.5494 49.1822 12.1645 49.1822 11.641V11.5948C49.1822 11.0098 48.9898 10.5557 48.605 10.2324C48.2355 9.90909 47.6121 9.74743 46.7344 9.74743C45.8105 9.74743 45.1178 9.95526 44.6561 10.3709C44.2095 10.7866 43.9709 11.3716 43.9403 12.126V12.7033H41.2152V12.1029C41.2923 10.7481 41.7927 9.67044 42.7163 8.8699C43.6554 8.05396 44.9638 7.646 46.642 7.646C48.4741 7.646 49.7828 8.03088 50.5677 8.80063C51.3685 9.555 51.7686 10.6019 51.7686 11.9413V21.1784H49.5979Z" fill="#585E44"/>
<path d="M56.0584 21.1783H53.4258V7.90001H55.5734L55.9429 10.7635C56.1431 9.70124 56.5432 8.93918 57.1438 8.47733C57.7594 8.01548 58.637 7.78455 59.7764 7.78455H60.4923V10.5557H59.4069C58.9603 10.5557 58.5602 10.5865 58.206 10.648C57.8672 10.7096 57.5748 10.802 57.3284 10.9252C56.8511 11.1715 56.5204 11.5718 56.3355 12.126C56.1509 12.6802 56.0584 13.4192 56.0584 14.3429V21.1783Z" fill="#585E44"/>
<path d="M66.2259 21.4786C64.3632 21.4786 62.9467 20.9782 61.9767 19.9776C61.0222 18.9615 60.5449 17.5066 60.5449 15.613V13.604C60.5449 12.942 60.6067 12.3415 60.7298 11.8027C60.8529 11.2485 61.03 10.7482 61.2608 10.3017C61.7536 9.42417 62.4311 8.76219 63.2931 8.31571C64.1552 7.85386 65.1481 7.62292 66.2721 7.62292C67.9194 7.62292 69.2356 8.03861 70.221 8.86994C71.2061 9.70128 71.7451 10.9945 71.8373 12.7495V13.1883H69.0201V12.7495C68.9432 11.7642 68.6815 11.0484 68.2349 10.6019C67.7885 10.1554 67.1342 9.93221 66.2721 9.93221C65.3483 9.93221 64.6171 10.2401 64.0783 10.8559C63.5549 11.4717 63.2931 12.3955 63.2931 13.627V15.5668C63.2931 16.6907 63.5471 17.5605 64.0552 18.1763C64.5787 18.7921 65.3099 19.1 66.249 19.1C67.1111 19.1 67.7654 18.8691 68.2117 18.4073C68.6737 17.9454 68.9507 17.2295 69.0432 16.2596V15.7285H71.8604V16.3058C71.7682 18.0762 71.2139 19.3849 70.1978 20.2316C69.1971 21.0629 67.8732 21.4786 66.2259 21.4786Z" fill="#585E44"/>
<path d="M77.3942 19.354C77.7484 19.354 78.0794 19.3155 78.3871 19.2386C78.7107 19.1462 79.003 19.0076 79.2648 18.8229C79.7882 18.4842 80.1886 18.03 80.4657 17.4604C80.758 16.8908 80.9045 16.2904 80.9045 15.6592V14.2274C80.6887 14.4122 80.3885 14.5738 80.0037 14.7124C79.6189 14.8509 79.1492 14.9818 78.5951 15.105C77.9024 15.2589 77.3789 15.4052 77.0247 15.5437C76.6705 15.6823 76.3629 15.8593 76.1011 16.0748C75.8856 16.2596 75.7161 16.4751 75.593 16.7214C75.4852 16.9678 75.4315 17.2526 75.4315 17.5759V17.6682C75.4315 18.1917 75.593 18.6074 75.9162 18.9153C76.2551 19.2078 76.7477 19.354 77.3942 19.354ZM81.2968 21.1784L80.9966 18.7767C80.6118 19.5772 80.0346 20.2238 79.2648 20.7165C78.5105 21.2091 77.5635 21.4555 76.4244 21.4555C75.162 21.4555 74.1997 21.1552 73.5378 20.5548C72.8757 19.9544 72.5449 19.1154 72.5449 18.0377V17.8299C72.5449 17.1525 72.6758 16.5675 72.9372 16.0748C73.199 15.5668 73.5685 15.1434 74.0457 14.8047C74.1997 14.697 74.3537 14.6046 74.5076 14.5276C74.6769 14.4353 74.8387 14.3506 74.9927 14.2736C75.3313 14.135 75.7317 14.0119 76.1933 13.9041C76.6708 13.781 77.2633 13.6424 77.9717 13.4885C79.0646 13.2575 79.8191 13.0266 80.2346 12.7957C80.6659 12.5494 80.8814 12.1645 80.8814 11.641V11.5948C80.8814 11.0098 80.6887 10.5557 80.3039 10.2324C79.9344 9.90909 79.311 9.74743 78.4333 9.74743C77.5098 9.74743 76.817 9.95526 76.3551 10.3709C75.9087 10.7866 75.6701 11.3716 75.6392 12.126V12.7033H72.9144V12.1029C72.9913 10.7481 73.4916 9.67044 74.4152 8.8699C75.3544 8.05396 76.663 7.646 78.3412 7.646C80.173 7.646 81.4817 8.03088 82.2669 8.80063C83.0674 9.555 83.4675 10.6019 83.4675 11.9413V21.1784H81.2968Z" fill="#585E44"/>
<path fill-rule="evenodd" clip-rule="evenodd" d="M2.33371 0.60324C2.71996 0.216993 3.24383 0 3.79006 0H15.5367L22.7741 7.23744V22.7451C22.7741 23.2913 22.5571 23.8152 22.1709 24.2014C21.7847 24.5877 21.2608 24.8047 20.7146 24.8047H17.8938V22.566H20.5354V8.16475L14.6094 2.23869H3.96915V10.5218H1.73047V2.05959C1.73047 1.51336 1.94746 0.98949 2.33371 0.60324Z" fill="#585E44"/>
<path fill-rule="evenodd" clip-rule="evenodd" d="M13.9551 1.11938H16.1938V6.58179H21.6562V8.82048H13.9551V1.11938Z" fill="#585E44"/>
<path fill-rule="evenodd" clip-rule="evenodd" d="M8.49292 10.5172L10.8219 15.9149L16.9858 16.3899L12.2874 20.2696L13.7064 26L8.49292 22.932L3.27946 26L4.69843 20.2696L0 16.3899L6.16393 15.9149L8.49292 10.5172ZM8.49292 16.168L7.68383 18.0431L5.70287 18.1958L7.21008 19.4403L6.73209 21.3707L8.49292 20.3345L10.2538 21.3707L9.77576 19.4403L11.283 18.1958L9.30201 18.0431L8.49292 16.168Z" fill="#585E44"/>
</svg>
