<svg width="108" height="26" viewBox="0 0 108 26" fill="none" xmlns="http://www.w3.org/2000/svg">
<g clip-path="url(#clip0_201_33273)">
<path d="M54.7751 4.04485C52.8451 5.17354 51.0311 6.51626 49.3328 8.07303C47.6344 9.59091 45.9744 11.1477 44.3535 12.7434C43.427 13.6385 42.5199 14.5532 41.6321 15.4872C40.7444 16.4213 39.8566 17.3553 38.9689 18.2894C38.5055 18.8343 38.0037 19.3792 37.4635 19.9241C36.9617 20.43 36.4599 20.9749 35.9581 21.5587C36.7687 21.3641 37.56 21.1305 38.3319 20.8581C39.1425 20.5857 39.876 20.3522 40.532 20.1576C41.111 20.0408 41.7286 19.8851 42.3847 19.6905C43.041 19.4959 43.6971 19.3402 44.3535 19.2235C45.0095 19.0678 45.6656 18.99 46.322 18.99C47.0167 18.9511 47.6535 19.0484 48.2327 19.2819C48.9659 19.5543 49.4099 20.0214 49.5642 20.683C49.68 21.1111 49.6413 21.5198 49.4483 21.909C50.1047 21.7144 50.7414 21.5003 51.359 21.2668C52.0154 21.0332 52.6327 20.8192 53.212 20.6246C54.3311 20.2743 55.4506 19.9241 56.57 19.5738C57.6894 19.1846 58.828 18.8732 59.9861 18.6397C60.2949 18.5619 60.6615 18.5229 61.0862 18.5229C61.5493 18.484 61.9546 18.5229 62.3019 18.6397C62.6494 18.7565 62.9001 18.9705 63.0547 19.2819C63.2477 19.5543 63.267 19.963 63.1125 20.5078C62.9966 20.8581 62.7652 21.15 62.4177 21.3835C62.0704 21.5781 61.6651 21.7338 61.2018 21.8506C60.7387 21.9673 60.2756 22.0646 59.8122 22.1425C59.3491 22.1814 58.9825 22.2398 58.7121 22.3176C57.4 22.7068 56.1069 23.1154 54.8329 23.5436C53.5592 23.9328 52.2855 24.322 51.0118 24.7111C50.3554 24.9057 49.6413 25.1004 48.8694 25.295C48.0975 25.5285 47.364 25.5674 46.6692 25.4117C46.3991 25.3728 46.1096 25.256 45.8008 25.0614C45.1447 24.5555 44.8359 24.0884 44.8743 23.6603C44.9131 23.2322 45.0867 22.8041 45.3955 22.376H44.7007C43.3112 22.6095 41.9216 22.9014 40.532 23.2517C39.4126 23.563 38.2741 23.9133 37.1159 24.3025C35.9965 24.6917 34.8386 24.9447 33.642 25.0614C33.2174 25.1003 32.793 25.0225 32.3683 24.8279C31.9437 24.6722 31.6348 24.3414 31.4419 23.8355C31.2876 23.4074 31.2876 22.9987 31.4419 22.6095C31.5964 22.1814 31.8085 21.7727 32.0789 21.3835C30.9594 22.0452 29.898 22.6095 28.8944 23.0765C27.9294 23.5047 27.196 23.816 26.6942 24.0106C25.6906 24.4387 24.6098 24.8863 23.4519 25.3533C22.2939 25.8204 21.1359 26.0344 19.978 25.9955C18.7042 25.9177 17.9322 25.5674 17.662 24.9447C17.3918 24.322 17.4497 23.5436 17.8357 22.6095C18.1831 21.6365 18.7428 20.6051 19.5148 19.5154C20.2867 18.3867 21.0973 17.3164 21.9465 16.3045C22.8343 15.2926 23.6449 14.4169 24.3783 13.6774C25.1116 12.8991 25.5942 12.3931 25.8257 12.1596L26.6363 11.3423C25.5169 11.3423 24.4169 11.3423 23.3361 11.3423C22.2553 11.3423 21.1552 11.3617 20.0358 11.4007C17.7971 11.4785 15.5777 11.5952 13.3775 11.7509C11.1387 11.8677 8.89998 12.0428 6.66124 12.2764C5.85065 12.3931 5.05938 12.5099 4.28738 12.6266C3.47679 12.7045 2.66622 12.8407 1.85563 13.0353C1.66264 13.0742 1.45034 13.1326 1.21875 13.2104C0.98715 13.2883 0.774855 13.2883 0.58186 13.2104C0.157268 13.0547 -0.035728 12.7823 0.00287194 12.3931C0.00287194 11.965 0.195868 11.6925 0.58186 11.5758C5.21376 10.3693 9.98078 9.61035 14.8829 9.29902C19.785 8.94874 24.6291 8.73467 29.4156 8.65682C30.4189 7.72275 31.4225 6.80816 32.4261 5.91301C33.4297 5.01786 34.4527 4.1227 35.4947 3.22755C35.9965 2.76051 36.5757 2.17672 37.2318 1.47616C37.9266 0.736693 38.6213 0.269657 39.3161 0.0750599C39.7021 -0.0416997 40.0302 -0.02224 40.3004 0.133439C40.6092 0.250197 40.8409 0.464256 40.9951 0.775612C41.1497 1.04805 41.2075 1.35941 41.169 1.70968C41.1303 2.05996 40.9758 2.37132 40.7057 2.64375C39.5091 3.65566 38.3319 4.66758 37.174 5.67947C36.0159 6.65248 34.8773 7.66437 33.7579 8.7152C34.3368 8.7152 34.8773 8.79306 35.3791 8.94874C35.8422 9.06548 36.2475 9.26007 36.5948 9.53252C36.981 9.80495 37.2511 10.2136 37.4054 10.7585C37.5212 11.2255 37.4635 11.6342 37.2318 11.9845C37.0001 12.2958 36.7106 12.5293 36.3634 12.685C36.0158 12.8018 35.6492 12.8212 35.2633 12.7434C34.9158 12.6266 34.6456 12.3737 34.4527 11.9845C33.9509 11.7898 33.3719 11.6536 32.7156 11.5758C32.0595 11.459 31.4419 11.4007 30.8629 11.4007L30.284 11.9261C28.7014 13.4439 27.0223 15.0786 25.2467 16.8299C23.5098 18.5813 22.1395 20.4689 21.1359 22.4927C22.4869 22.2203 23.8765 21.8311 25.3047 21.3251C26.7328 20.8192 28.1417 20.2549 29.5312 19.6322C30.9207 19.0094 32.2912 18.3478 33.642 17.6473C34.9932 16.9078 36.2475 16.1489 37.4054 15.3704C38.8724 13.8526 40.3584 12.3737 41.8638 10.9336C43.4076 9.45467 44.9708 8.03411 46.5536 6.67192C47.5185 5.81571 48.5028 4.97894 49.5064 4.16162C50.51 3.34429 51.5329 2.58537 52.575 1.88482C52.9996 1.57347 53.4627 1.37887 53.9645 1.30103C54.505 1.18427 54.9488 1.39833 55.2963 1.9432C55.4893 2.29348 55.5277 2.68267 55.4121 3.11078C55.3347 3.49998 55.1224 3.81134 54.7751 4.04485Z" fill="#585E44"/>
<path d="M88.6404 21.6171C87.7526 21.6949 86.8648 21.8506 85.9771 22.0841C85.1278 22.2787 84.2594 22.4733 83.3716 22.6679C81.0556 23.2128 78.7589 23.7382 76.4816 24.2441C74.2043 24.7112 71.8883 25.0614 69.5338 25.295C68.9162 25.3728 68.2598 25.4312 67.565 25.4701C66.909 25.509 66.2336 25.4896 65.5388 25.4117C64.8824 25.3339 64.2457 25.1782 63.6281 24.9447C63.0104 24.7501 62.4508 24.4387 61.949 24.0106C61.5244 23.6604 61.1962 23.2517 60.9648 22.7846C60.6944 22.3176 60.5401 21.8311 60.5014 21.3252C60.4243 20.8192 60.463 20.3327 60.6173 19.8657C60.7718 19.3597 61.0613 18.9121 61.4857 18.523C61.7561 18.2505 62.1804 18.0365 62.7597 17.8808C63.377 17.6862 64.0527 17.55 64.7859 17.4721C65.5194 17.3943 66.2529 17.3748 66.9861 17.4137C67.7196 17.4527 68.3563 17.5889 68.8968 17.8224C69.4373 18.0559 69.8039 18.3867 69.9969 18.8149C70.2286 19.204 70.2092 19.71 69.9391 20.3327C69.7074 20.7997 69.3599 21.1306 68.8968 21.3252C68.4337 21.5198 67.9126 21.656 67.3336 21.7338C66.7544 21.7727 66.1561 21.7727 65.5388 21.7338C64.9211 21.656 64.3806 21.5781 63.9175 21.5003C64.0718 21.656 64.3806 21.7922 64.844 21.909C65.3071 21.9868 65.7895 22.0452 66.2913 22.0841C66.8318 22.123 67.3143 22.1425 67.739 22.1425C68.202 22.1425 68.4915 22.1425 68.6074 22.1425C70.4987 21.9868 72.3707 21.7144 74.2236 21.3252C76.115 20.936 77.987 20.5273 79.8396 20.0992C81.1908 19.7878 82.5223 19.4765 83.8347 19.1651C85.1855 18.8149 86.5367 18.5619 87.8875 18.4062C88.4667 18.3673 88.9492 18.5035 89.3351 18.8149C89.7211 19.1262 89.9718 19.4959 90.0877 19.9241C90.2035 20.3133 90.1458 20.683 89.9141 21.0333C89.7211 21.3835 89.2964 21.5781 88.6404 21.6171Z" fill="#585E44"/>
<path d="M106.114 21.6171C104.145 21.656 102.138 21.7144 100.093 21.7922C98.0467 21.8311 96.0395 21.5976 94.071 21.0916C93.9167 21.0916 93.7622 21.0527 93.6079 20.9749C93.3762 21.6365 93.029 22.2787 92.5656 22.9014C92.1412 23.4852 91.6585 23.9912 91.1183 24.4193C90.5778 24.8474 89.9795 25.1587 89.3234 25.3533C88.7057 25.548 88.0881 25.5674 87.4705 25.4117C86.8915 25.256 86.4669 24.9641 86.1967 24.536C85.8879 24.1079 85.7143 23.6214 85.6756 23.0765C85.6372 22.5317 85.7143 21.9868 85.9073 21.4419C86.0618 20.897 86.2932 20.4106 86.6021 19.9825C87.1039 19.3597 87.7409 18.8927 88.5128 18.5813C89.2847 18.27 90.0566 18.2311 90.8288 18.4646C90.9059 17.9197 91.2148 17.4916 91.755 17.1802C92.2955 16.8689 92.8744 16.9078 93.4921 17.297C94.071 17.6473 94.6886 17.9197 95.3447 18.1143C96.0395 18.27 96.7536 18.3673 97.4871 18.4062C98.2206 18.4451 98.9344 18.4646 99.6292 18.4646C100.363 18.4257 101.057 18.4062 101.714 18.4062C102.486 18.4062 103.315 18.3673 104.203 18.2895C105.091 18.1727 105.902 18.2311 106.635 18.4646C107.06 18.6203 107.349 18.8732 107.503 19.2235C107.696 19.5738 107.755 19.9241 107.677 20.2743C107.639 20.6246 107.484 20.936 107.214 21.2084C106.944 21.4808 106.577 21.6171 106.114 21.6171ZM88.8022 22.376C88.9181 22.2592 89.1498 22.2009 89.497 22.2009V21.6754C89.4199 21.7533 89.304 21.8506 89.1498 21.9674C88.9952 22.0452 88.8794 22.1814 88.8022 22.376Z" fill="#585E44"/>
</g>
<defs>
<clipPath id="clip0_201_33273">
<rect width="107.756" height="26" fill="white"/>
</clipPath>
</defs>
</svg>
