<svg width="126" height="26" viewBox="0 0 126 26" fill="none" xmlns="http://www.w3.org/2000/svg">
<path d="M6.84575 11.3888H10.0682C10.0682 14.1529 12.3275 16.5805 14.9019 16.5805C17.4763 16.5805 19.7356 14.1529 19.7356 11.3888H22.958C22.958 15.9503 19.2701 19.803 14.9019 19.803C10.5337 19.803 6.84575 15.9503 6.84575 11.3888Z" fill="#F3FFC9"/>
<path d="M0.490234 11.4317H3.71269C3.71269 17.6009 8.73257 22.6208 14.9018 22.6208C21.071 22.6208 26.0909 17.6009 26.0909 11.4317H29.3133C29.3133 19.3768 22.8469 25.8432 14.9018 25.8432C6.95664 25.8432 0.490234 19.3804 0.490234 11.4317Z" fill="#F3FFC9"/>
<path d="M14.9023 0.246216C21.0715 0.246216 26.0914 5.26609 26.0914 11.4353H22.8689C22.8689 7.04203 19.2955 3.46868 14.9023 3.46868C10.509 3.46868 6.93562 7.04203 6.93562 11.4353H3.71316C3.71316 5.26251 8.73304 0.246216 14.9023 0.246216Z" fill="#F3FFC9"/>
<path d="M14.9015 6.52641C17.6156 6.52641 19.8247 8.73558 19.8247 11.4496H16.6023C16.6023 10.5115 15.8396 9.74887 14.9015 9.74887C13.9634 9.74887 13.2008 10.5115 13.2008 11.4496H9.97833C9.97833 8.732 12.1875 6.52641 14.9015 6.52641Z" fill="#F3FFC9"/>
<path d="M41.0323 24V3.51946H48.8808C50.122 3.51946 51.2105 3.74861 52.1462 4.20692C53.0819 4.64613 53.8076 5.26675 54.3232 6.06879C54.8388 6.87082 55.0966 7.81608 55.0966 8.90455C55.0966 9.84026 54.8674 10.6805 54.4091 11.4252C53.9508 12.1509 53.3206 12.7333 52.5186 13.1725C53.588 13.5926 54.4187 14.2419 55.0106 15.1203C55.6217 15.9796 55.9272 17.0013 55.9272 18.1852C55.9272 19.3501 55.6503 20.3717 55.0966 21.2502C54.5428 22.1095 53.7694 22.7874 52.7764 23.2839C51.7834 23.7613 50.6185 24 49.2818 24H41.0323ZM48.7662 6.04014H43.9827V12.2273H48.7662C49.8165 12.2273 50.6376 11.9504 51.2296 11.3966C51.8216 10.8428 52.1176 10.079 52.1176 9.10506C52.1176 8.16935 51.8216 7.42461 51.2296 6.87082C50.6376 6.31704 49.8165 6.04014 48.7662 6.04014ZM43.9827 21.4793H49.3105C50.4371 21.4793 51.3251 21.1738 51.9744 20.5627C52.6236 19.9516 52.9483 19.1209 52.9483 18.0707C52.9483 17.0395 52.6236 16.2279 51.9744 15.6359C51.3251 15.0248 50.4371 14.7193 49.3105 14.7193H43.9827V21.4793Z" fill="#F3FFC9"/>
<path d="M72.3893 24H59.1557V21.6225L66.1163 14.7193C66.9565 13.8791 67.6153 13.1439 68.0927 12.5137C68.5892 11.8644 68.9425 11.2629 69.1525 10.7091C69.3626 10.1362 69.4676 9.54427 69.4676 8.9332C69.4676 7.90201 69.1525 7.08088 68.5224 6.4698C67.8922 5.85873 67.0329 5.55319 65.9444 5.55319C64.8941 5.55319 63.9584 5.82054 63.1373 6.35523C62.3352 6.88992 61.5905 7.73014 60.903 8.87591L58.9552 7.01404C60.7121 4.37878 63.0513 3.06116 65.973 3.06116C67.2525 3.06116 68.36 3.29986 69.2958 3.77726C70.2506 4.25466 70.9953 4.92302 71.53 5.78235C72.0647 6.64167 72.332 7.65376 72.332 8.81862C72.332 9.69704 72.1888 10.5182 71.9024 11.282C71.6159 12.0459 71.1194 12.867 70.4129 13.7454C69.7254 14.6238 68.7611 15.6741 67.5198 16.8963L62.8795 21.5652H72.3893V24Z" fill="#F3FFC9"/>
<path d="M78.5129 24H75.6771V3.37624H78.5415V12.084C79.0189 11.2247 79.6777 10.5468 80.518 10.0503C81.3773 9.55382 82.3512 9.30557 83.4397 9.30557C84.7191 9.30557 85.8553 9.6302 86.8483 10.2795C87.8604 10.9287 88.6529 11.8262 89.2258 12.972C89.8178 14.1178 90.1137 15.4259 90.1137 16.8963C90.1137 18.3667 89.8082 19.6747 89.1971 20.8205C88.6052 21.9663 87.7936 22.8638 86.7624 23.513C85.7503 24.1432 84.6045 24.4583 83.3251 24.4583C82.2557 24.4583 81.3009 24.2291 80.4607 23.7708C79.6395 23.3125 78.9903 22.7015 78.5129 21.9376V24ZM78.5415 17.1541V18.9873C78.8471 19.8848 79.3722 20.62 80.117 21.1929C80.8808 21.7467 81.7497 22.0235 82.7236 22.0235C83.602 22.0235 84.3658 21.8039 85.0151 21.3647C85.6835 20.9255 86.199 20.324 86.5619 19.5602C86.9438 18.7772 87.1348 17.8892 87.1348 16.8963C87.1348 15.3877 86.7433 14.156 85.9604 13.2012C85.1965 12.2464 84.1844 11.769 82.9241 11.769C82.0838 11.769 81.3295 11.9981 80.6612 12.4564C79.9928 12.8956 79.4677 13.5258 79.0858 14.3469C78.7229 15.149 78.5415 16.0847 78.5415 17.1541Z" fill="#F3FFC9"/>
<path d="M97.0975 4.72251C97.0975 5.2572 96.9161 5.69641 96.5533 6.04014C96.2096 6.38387 95.7704 6.55574 95.2357 6.55574C94.701 6.55574 94.2522 6.38387 93.8894 6.04014C93.5266 5.69641 93.3452 5.2572 93.3452 4.72251C93.3452 4.16873 93.5266 3.71997 93.8894 3.37624C94.2522 3.03251 94.701 2.86065 95.2357 2.86065C95.7704 2.86065 96.2096 3.03251 96.5533 3.37624C96.9161 3.71997 97.0975 4.16873 97.0975 4.72251ZM96.6679 24H93.8035V9.76388H96.6679V24Z" fill="#F3FFC9"/>
<path d="M111.615 24H100.071V21.6512L107.92 12.1413H100.329V9.76388H111.328V12.1413L103.508 21.6512H111.615V24Z" fill="#F3FFC9"/>
<path d="M125.433 24H113.89V21.6512L121.738 12.1413H114.147V9.76388H125.147V12.1413L117.327 21.6512H125.433V24Z" fill="#F3FFC9"/>
</svg>
