<svg width="50" height="51" viewBox="0 0 50 51" fill="none" xmlns="http://www.w3.org/2000/svg">
<path d="M25.9662 19.8919L24.9995 0.5L24.0328 19.8919C21.7303 13.4465 15.5704 8.83309 8.3331 8.83309C8.3331 16.0706 12.946 22.2303 19.3923 24.5331L0 25.5L19.3923 26.4669C12.9462 28.7697 8.3331 34.9294 8.3331 42.166C15.5706 42.166 21.7303 37.5535 24.0328 31.1072L24.9995 50.5L25.9662 31.1072C28.2687 37.5535 34.4287 42.166 41.666 42.166C41.666 34.9294 37.053 28.7697 30.6067 26.4669L49.9991 25.5L30.6067 24.5331C37.0528 22.2303 41.666 16.0706 41.666 8.83309C34.4285 8.83286 28.2687 13.4462 25.9662 19.8919Z" fill="#F9FFE5"/>
</svg>
