<svg width="12" height="20" viewBox="0 0 12 20" fill="none" xmlns="http://www.w3.org/2000/svg">
<path d="M3.69641 11.2481C3.62441 11.2481 2.04041 11.2481 1.32041 11.2481C0.936406 11.2481 0.816406 11.1041 0.816406 10.7441C0.816406 9.78407 0.816406 8.80007 0.816406 7.84007C0.816406 7.45607 0.960406 7.33607 1.32041 7.33607H3.69641C3.69641 7.26407 3.69641 5.87207 3.69641 5.22407C3.69641 4.26407 3.86441 3.35207 4.34441 2.51207C4.84841 1.64807 5.56841 1.07207 6.48041 0.736072C7.08041 0.520072 7.68041 0.424072 8.32841 0.424072H10.6804C11.0164 0.424072 11.1604 0.568072 11.1604 0.904072V3.64007C11.1604 3.97607 11.0164 4.12007 10.6804 4.12007C10.0324 4.12007 9.38441 4.12007 8.73641 4.14407C8.08841 4.14407 7.75241 4.45607 7.75241 5.12807C7.72841 5.84807 7.75241 6.54407 7.75241 7.28807H10.5364C10.9204 7.28807 11.0644 7.43207 11.0644 7.81607V10.7201C11.0644 11.1041 10.9444 11.2241 10.5364 11.2241C9.67241 11.2241 7.82441 11.2241 7.75241 11.2241V19.0481C7.75241 19.4561 7.63241 19.6001 7.20041 19.6001C6.19241 19.6001 5.20841 19.6001 4.20041 19.6001C3.84041 19.6001 3.69641 19.4561 3.69641 19.0961C3.69641 16.5761 3.69641 11.3201 3.69641 11.2481Z" fill="#F3FFC9"/>
</svg>
