<svg width="25" height="26" viewBox="0 0 25 26" fill="none" xmlns="http://www.w3.org/2000/svg">
<path d="M22.4545 11.287V10.0455C22.4545 4.50627 17.9483 0 12.4091 0C6.86991 0 2.36364 4.50627 2.36364 10.0455V11.287C1.01666 11.5614 0 12.7551 0 14.1818V17.4318C0 19.061 1.32541 20.3864 2.95455 20.3864H5.31818C5.96995 20.3864 6.5 19.8563 6.5 19.2045V12.4091C6.5 11.7573 5.96995 11.2273 5.31818 11.2273H3.54545V10.0455C3.54545 8.2683 4.07314 6.61286 4.97752 5.22393L5.25614 5.50284C5.59325 5.83995 6.03968 6.02491 6.51536 6.02491H6.52511C6.99607 6.02255 7.4357 5.837 7.76277 5.50225C8.996 4.24066 10.6461 3.54545 12.4091 3.54545C14.1721 3.54545 15.8222 4.24066 17.0557 5.50255C17.3825 5.837 17.8224 6.02255 18.2931 6.02491H18.3028C18.7782 6.02491 19.2252 5.83966 19.562 5.50284L19.8407 5.22393C20.745 6.61286 21.2727 8.2683 21.2727 10.0455V11.2273H19.5C18.8482 11.2273 18.3182 11.7573 18.3182 12.4091V19.2045C18.3182 19.8563 18.8482 20.3864 19.5 20.3864H21.2727V21.5682C21.2727 22.5458 20.4777 23.3409 19.5 23.3409H14.981C14.726 22.4876 13.9348 21.8636 13 21.8636H11.8182C10.678 21.8636 9.75 22.7917 9.75 23.9318C9.75 25.072 10.678 26 11.8182 26H13C13.9348 26 14.726 25.3757 14.981 24.5227H19.5C21.1291 24.5227 22.4545 23.1973 22.4545 21.5682V20.3267C23.8015 20.0522 24.8182 18.8583 24.8182 17.4318V14.1818C24.8182 12.7551 23.8015 11.5614 22.4545 11.287Z" fill="#8D9180"/>
</svg>
