<svg width="21" height="26" viewBox="0 0 21 26" fill="none" xmlns="http://www.w3.org/2000/svg">
<path d="M10.7635 10.2613C13.5926 10.2613 15.8941 7.95976 15.8941 5.13067C15.8941 2.30157 13.5926 0 10.7635 0C7.93438 0 5.63281 2.30157 5.63281 5.13067C5.63281 7.95976 7.93438 10.2613 10.7635 10.2613Z" fill="#8D9180"/>
<path d="M17.6487 12.7477C17.6465 12.747 17.6423 12.7455 17.6401 12.7449C16.9721 12.5818 14.9264 12.2956 14.9264 12.2956C14.6954 12.2245 14.4487 12.3468 14.3656 12.5747L11.2864 21.0233C11.1088 21.5106 10.4194 21.5106 10.2418 21.0233L7.16262 12.5747C7.09556 12.3907 6.92187 12.2753 6.73576 12.2753C6.69164 12.2753 4.58826 12.5702 3.88802 12.7443C1.97452 13.2201 0.767578 15.1017 0.767578 17.0627V24.0925C0.767578 25.146 1.62164 26 2.67512 26H18.8513C19.9048 26 20.7589 25.146 20.7589 24.0925V17.0393C20.7588 15.0869 19.5046 13.3541 17.6487 12.7477Z" fill="#8D9180"/>
<path d="M11.9247 12.1345C11.8018 12.0005 11.6221 11.9332 11.4404 11.9332H10.0848C9.90305 11.9332 9.72333 12.0006 9.60051 12.1345C9.41028 12.3418 9.38262 12.6413 9.51769 12.8753L10.2424 13.9677L9.90314 16.8295L10.5712 18.6066C10.6363 18.7853 10.889 18.7853 10.9542 18.6066L11.6222 16.8295L11.283 13.9677L12.0077 12.8753C12.1426 12.6413 12.1149 12.3418 11.9247 12.1345Z" fill="#8D9180"/>
</svg>
