<svg width="24" height="25" viewBox="0 0 24 25" fill="none" xmlns="http://www.w3.org/2000/svg">
<path d="M24 3.3501C24 1.5 22.49 0 20.6399 0H3.34998C1.5 1e-07 0 1.5 0 3.3501V16.7C0 18.5 1.45996 19.97 3.26001 19.97H8.85999V20.22C8.85999 20.29 8.83997 20.36 8.81006 20.42L7.79004 22.29H6.80005C6.25 22.29 5.80005 22.74 5.80005 23.29C5.80005 23.8401 6.25 24.29 6.80005 24.29H17.79C18.34 24.29 18.79 23.8401 18.79 23.29C18.79 22.74 18.34 22.29 17.79 22.29H16.8001L15.77 20.42C15.74 20.36 15.72 20.29 15.72 20.22V19.97H20.73C22.53 19.97 24 18.5 24 16.7C24 13.3027 24 6.74414 24 3.3501ZM22 13.9H2V3.3501C2 2.6001 2.59998 2 3.34998 2H20.6399C21.3899 2 22 2.6001 22 3.3501V13.9Z" fill="#8D9180"/>
<path d="M12.0013 3.69922C8.73132 3.69922 6.25134 7.22925 6.14124 7.37927C5.91125 7.71924 5.91125 8.16931 6.14124 8.51929C6.25134 8.66931 8.73132 12.1992 12.0013 12.1992C15.2614 12.1992 17.7413 8.66931 17.8513 8.51929C18.0813 8.16931 18.0813 7.71924 17.8513 7.37927C17.7413 7.22925 15.2614 3.69922 12.0013 3.69922ZM13.3213 9.25928C12.5531 10.0275 11.4055 9.98327 10.6813 9.25928C9.81379 8.48323 10.0562 7.23435 10.6813 6.60925C11.3713 5.91931 12.6312 5.91931 13.3213 6.60925C14.0902 7.37812 13.9979 8.65441 13.3213 9.25928Z" fill="#8D9180"/>
</svg>
