<svg width="24" height="23" viewBox="0 0 24 23" fill="none" xmlns="http://www.w3.org/2000/svg">
<path d="M18.9704 0H4.14073C1.85851 0 0 1.85851 0 4.15037V14.9067C0 17.1889 1.85851 19.0474 4.14073 19.0474L7.7422 19.0859L9.42739 21.8978C10.2045 23.2065 12.0965 23.2087 12.8748 21.8978L14.6274 19.0474H18.9704C21.2526 19.0474 23.1111 17.1889 23.1111 14.9067V4.15037C23.1111 1.85851 21.2526 0 18.9704 0ZM16.2246 10.4466H15.3347C15.241 10.813 15.0958 11.1562 14.9072 11.4733L15.5381 12.1045C15.9143 12.4807 15.9143 13.09 15.5381 13.4662C15.35 13.6543 15.1037 13.7483 14.8573 13.7483C14.6109 13.7483 14.3645 13.6543 14.1764 13.4662L13.5473 12.8368C13.2297 13.0268 12.8857 13.1729 12.5185 13.2669V14.1527C12.5185 14.6849 12.0873 15.1156 11.5556 15.1156C11.0238 15.1156 10.5926 14.6849 10.5926 14.1527V13.2669C10.2255 13.1729 9.88177 13.0269 9.56427 12.8371L8.93562 13.4662C8.74754 13.6543 8.50069 13.7483 8.2543 13.7483C8.00792 13.7483 7.76154 13.6543 7.57346 13.4662C7.1973 13.091 7.1973 12.4807 7.57299 12.1045L8.20382 11.4732C8.01521 11.1561 7.87004 10.8129 7.77641 10.4466H6.8865C6.35471 10.4466 5.92354 10.0159 5.92354 9.48363C5.92354 8.95137 6.35471 8.52067 6.8865 8.52067H7.77459C7.86792 8.15374 8.0135 7.8102 8.20246 7.4927L7.57299 6.86276C7.1973 6.4866 7.1973 5.87628 7.57346 5.50107C7.94962 5.12491 8.55946 5.12491 8.93562 5.50107L9.56351 6.12943C9.88124 5.93976 10.2253 5.79388 10.5926 5.70008V4.81458C10.5926 4.28232 11.0238 3.85162 11.5556 3.85162C12.0873 3.85162 12.5185 4.28232 12.5185 4.81458V5.70008C12.886 5.79394 13.2302 5.93982 13.5481 6.12966L14.1764 5.50107C14.5516 5.12491 15.162 5.12491 15.5381 5.50107C15.9143 5.87722 15.9143 6.4866 15.5381 6.86276L14.9086 7.49253C15.0976 7.81009 15.2432 8.15368 15.3365 8.52067H16.2246C16.7564 8.52067 17.1876 8.95137 17.1876 9.48363C17.1876 10.0159 16.7564 10.4466 16.2246 10.4466Z" fill="#8D9180"/>
<path d="M13.5424 9.48018C13.5424 8.38368 12.6504 7.49219 11.5544 7.49219C10.4584 7.49219 9.56641 8.38368 9.56641 9.48018C9.56641 10.5804 10.4584 11.4757 11.5544 11.4757C12.6504 11.4757 13.5424 10.5804 13.5424 9.48018Z" fill="#8D9180"/>
</svg>
