<svg width="26" height="27" viewBox="0 0 26 27" fill="none" xmlns="http://www.w3.org/2000/svg">
<path d="M11.0391 10.7338V10.9752H15.868V10.7338C15.8305 7.47155 11.0766 7.47155 11.0391 10.7338Z" fill="#8D9180"/>
<path d="M24.7059 5.02987C20.1773 5.07548 15.8205 2.27735 14.1545 1.07011C13.95 0.922321 13.704 0.842773 13.4517 0.842773C13.1993 0.842773 12.9533 0.922321 12.7488 1.07011C11.0828 2.27735 6.71523 5.06475 2.19746 5.02987C2.03701 5.02828 1.87783 5.05844 1.72909 5.11861C1.58035 5.17879 1.44498 5.26779 1.33078 5.3805C1.21658 5.49321 1.12579 5.62739 1.06366 5.77533C1.00153 5.92326 0.969273 6.08203 0.96875 6.24248C0.971433 12.437 2.21087 21.2982 12.9071 26.712C13.0757 26.798 13.2623 26.8428 13.4517 26.8428C13.641 26.8428 13.8276 26.798 13.9963 26.712C24.6924 21.2982 25.9319 12.437 25.9346 6.24248C25.9322 5.91883 25.8014 5.60936 25.571 5.38201C25.3407 5.15466 25.0295 5.02801 24.7059 5.02987ZM17.8782 17.2794C17.8782 17.813 17.6662 18.3248 17.2889 18.7021C16.9116 19.0795 16.3998 19.2915 15.8661 19.2915H11.0372C10.5035 19.2915 9.99175 19.0795 9.61442 18.7021C9.23708 18.3248 9.02509 17.813 9.02509 17.2794V12.987C9.0253 12.5956 9.13961 12.2128 9.35403 11.8855C9.56845 11.5581 9.87368 11.3004 10.2323 11.1439V10.7281C10.2806 6.42223 16.6227 6.42223 16.671 10.7281V11.1439C17.0296 11.3004 17.3349 11.5581 17.5493 11.8855C17.7637 12.2128 17.878 12.5956 17.8782 12.987V17.2794Z" fill="#8D9180"/>
<path d="M14.1126 14.6719C14.1066 14.6359 14.1083 14.599 14.1175 14.5637C14.1268 14.5284 14.1434 14.4954 14.1662 14.467C14.2561 14.337 14.3087 14.1849 14.3183 14.0272C14.328 13.8695 14.2943 13.7122 14.2209 13.5723C14.1476 13.4323 14.0373 13.3152 13.9021 13.2334C13.7669 13.1516 13.6119 13.1084 13.4539 13.1084C13.296 13.1084 13.141 13.1516 13.0058 13.2334C12.8706 13.3152 12.7603 13.4323 12.687 13.5723C12.6136 13.7122 12.5799 13.8695 12.5896 14.0272C12.5992 14.1849 12.6518 14.337 12.7417 14.467C12.7644 14.4951 12.7809 14.5278 12.7902 14.5628C12.7994 14.5978 12.8012 14.6343 12.7953 14.67C12.7323 14.9842 12.5539 15.8824 12.4281 16.5059C12.4128 16.5836 12.4149 16.6638 12.4343 16.7407C12.4537 16.8175 12.4898 16.8891 12.5402 16.9503C12.5905 17.0115 12.6538 17.0608 12.7255 17.0946C12.7972 17.1285 12.8754 17.146 12.9547 17.146H13.9527C14.0321 17.146 14.1105 17.1284 14.1823 17.0945C14.254 17.0605 14.3174 17.0111 14.3677 16.9497C14.4181 16.8883 14.4542 16.8165 14.4734 16.7395C14.4927 16.6624 14.4946 16.5821 14.479 16.5042L14.1126 14.6719Z" fill="#8D9180"/>
</svg>
