<svg width="27" height="26" viewBox="0 0 27 26" fill="none" xmlns="http://www.w3.org/2000/svg">
<path d="M13.1484 1.40436C17.1167 1.40436 20.5374 4.18731 21.3491 8.07185C19.6806 5.52081 16.8397 3.98117 13.7926 3.98117H5.03788V5.38553L0.818359 2.69277L5.03788 0V1.40436H13.1484Z" fill="#8D9180"/>
<path d="M17.2985 6.10706C19.8689 7.42123 21.5245 10.1204 21.5245 13C21.5245 18.1085 16.4353 21.8836 11.5458 20.3955C8.81438 19.5709 6.70784 17.2195 6.19248 14.4108C5.66423 11.5506 6.8238 8.56791 9.14937 6.82212C11.4814 5.06345 14.7024 4.78 17.2985 6.10706ZM16.854 15.0099V14.2111C16.854 13.1868 16.023 12.3558 15.0052 12.3558H12.583C12.2737 12.3558 12.0225 12.1046 12.0225 11.7889V10.9901C12.0225 10.6745 12.2737 10.4232 12.583 10.4232H15.0052C15.3144 10.4232 15.5656 10.6745 15.5656 10.9901C15.5656 11.8211 16.854 11.8211 16.854 10.9901C16.854 9.96583 16.023 9.13481 15.0052 9.13481H14.4383V8.97376C14.4383 8.14274 13.1499 8.14274 13.1499 8.97376V9.13481H12.583C11.5651 9.13481 10.7341 9.96583 10.7341 10.9901V11.7889C10.7341 12.8132 11.5651 13.6442 12.583 13.6442H15.0052C15.3144 13.6442 15.5656 13.8955 15.5656 14.2111V15.0099C15.5656 15.3256 15.3144 15.5768 15.0052 15.5768H12.583C12.2737 15.5768 12.0225 15.3256 12.0225 15.0099C12.0225 14.1789 10.7341 14.1789 10.7341 15.0099C10.7341 16.0342 11.5651 16.8652 12.583 16.8652H13.1499V17.0263C13.1499 17.8573 14.4383 17.8573 14.4383 17.0263V16.8652H15.0052C16.023 16.8652 16.854 16.0342 16.854 15.0099Z" fill="#8D9180"/>
<path d="M26.767 23.3072L22.5475 26V24.5957H14.437C10.4687 24.5957 7.04802 21.8127 6.23633 17.9282C7.90481 20.4792 10.7457 22.0188 13.7928 22.0188H22.5475V20.6145L26.767 23.3072Z" fill="#8D9180"/>
</svg>
