<svg width="20" height="20" viewBox="0 0 20 20" fill="none" xmlns="http://www.w3.org/2000/svg">
<path d="M19.6014 19.6V12.568C19.6014 9.11202 18.8574 6.47202 14.8254 6.47202C12.8814 6.47202 11.5854 7.52802 11.0574 8.53602H11.0094V6.78402H7.19336V19.6H11.1774V13.24C11.1774 11.56 11.4894 9.95202 13.5534 9.95202C15.5934 9.95202 15.6174 11.848 15.6174 13.336V19.576H19.6014V19.6Z" fill="#F3FFC9"/>
<path d="M0.712891 6.784H4.69689V19.6H0.712891V6.784Z" fill="#F3FFC9"/>
<path d="M2.70439 0.399994C1.43239 0.399994 0.400391 1.43199 0.400391 2.70399C0.400391 3.97599 1.43239 5.03199 2.70439 5.03199C3.97639 5.03199 5.00839 3.97599 5.00839 2.70399C5.00839 1.43199 3.97639 0.399994 2.70439 0.399994Z" fill="#F3FFC9"/>
</svg>
