<svg width="725" height="501" viewBox="0 0 725 501" fill="none" xmlns="http://www.w3.org/2000/svg">
<g clip-path="url(#clip0_642_90)">
<path d="M0.423828 24.1441C0.423828 10.8267 11.2198 0.0307617 24.5372 0.0307617H700.729C714.047 0.0307617 724.842 10.8267 724.842 24.1441V475.917C724.842 489.235 714.047 500.031 700.729 500.031H24.5372C11.2198 500.031 0.423828 489.235 0.423828 475.917V24.1441Z" fill="#F9FFE5"/>
<path d="M0.423828 11.6587C0.423828 5.23674 5.62982 0.0307617 12.0517 0.0307617H713.215C719.636 0.0307617 724.842 5.23675 724.842 11.6587V94.5424H0.423828V11.6587Z" fill="#585E44"/>
<path d="M277.649 61.2866H273.817V34.682H277.649V61.2866ZM295.324 61.2866H289.928L276.793 47.482H277.314L288.998 34.682H293.872L281.37 48.0029V46.961L295.324 61.2866ZM310.933 55.8541L313.128 58.1982C312.161 59.4386 311.008 60.3688 309.668 60.9889C308.353 61.5843 306.915 61.882 305.352 61.882C303.417 61.882 301.718 61.4603 300.254 60.6169C298.815 59.7734 297.687 58.6076 296.868 57.1192C296.049 55.6308 295.64 53.944 295.64 52.0587C295.64 50.1734 296.037 48.4866 296.831 46.9982C297.649 45.5099 298.741 44.344 300.105 43.5006C301.494 42.6324 303.057 42.1982 304.794 42.1982C306.48 42.1982 307.969 42.62 309.259 43.4634C310.549 44.282 311.553 45.4231 312.273 46.8866C313.017 48.3502 313.389 50.0246 313.389 51.9099V52.1331H309.705V51.761C309.705 49.7765 309.259 48.2013 308.366 47.0355C307.497 45.8696 306.294 45.2866 304.756 45.2866C303.715 45.2866 302.797 45.5595 302.003 46.1052C301.209 46.651 300.589 47.4324 300.142 48.4494C299.696 49.4665 299.473 50.6448 299.473 51.9843C299.473 53.3486 299.708 54.5393 300.18 55.5564C300.676 56.5486 301.37 57.3424 302.263 57.9378C303.181 58.5083 304.273 58.7936 305.538 58.7936C306.654 58.7936 307.659 58.5455 308.552 58.0494C309.445 57.5533 310.239 56.8215 310.933 55.8541ZM313.389 53.2494H298.282V50.5703H312.831L313.389 51.9099V53.2494ZM329.862 42.7936H333.62L325.062 64.0401C324.491 65.4789 323.76 66.5827 322.867 67.3517C321.998 68.1207 320.721 68.5052 319.034 68.5052H316.727V65.3796H318.922C319.766 65.3796 320.411 65.1936 320.857 64.8215C321.304 64.4494 321.651 63.8913 321.899 63.1471L322.569 61.361L315.09 42.7936H318.997L325.025 59.1285H323.76L329.862 42.7936ZM355.36 61.2866H351.156C349.692 61.2866 348.588 60.9021 347.844 60.1331C347.125 59.3641 346.765 58.2355 346.765 56.7471V37.6215H350.486V56.2634C350.486 56.8835 350.635 57.3548 350.933 57.6773C351.23 57.9998 351.677 58.161 352.272 58.161H355.36V61.2866ZM355.137 45.9192H343.491V42.7936H355.137V45.9192ZM369.86 42.4959V45.9936H369.078C367.962 45.9936 366.945 46.2665 366.027 46.8122C365.109 47.3331 364.378 48.1517 363.832 49.268C363.311 50.3595 363.051 51.7734 363.051 53.5099V61.2866H359.33V42.7936H363.013V48.7471H362.492C362.716 47.1595 363.187 45.9192 363.906 45.0262C364.626 44.1083 365.457 43.4634 366.399 43.0913C367.342 42.6944 368.272 42.4959 369.19 42.4959H369.86ZM386.98 55.8541L389.175 58.1982C388.208 59.4386 387.054 60.3688 385.715 60.9889C384.4 61.5843 382.961 61.882 381.398 61.882C379.463 61.882 377.764 61.4603 376.301 60.6169C374.862 59.7734 373.733 58.6076 372.915 57.1192C372.096 55.6308 371.687 53.944 371.687 52.0587C371.687 50.1734 372.083 48.4866 372.877 46.9982C373.696 45.5099 374.787 44.344 376.152 43.5006C377.541 42.6324 379.104 42.1982 380.84 42.1982C382.527 42.1982 384.015 42.62 385.305 43.4634C386.595 44.282 387.6 45.4231 388.319 46.8866C389.063 48.3502 389.435 50.0246 389.435 51.9099V52.1331H385.752V51.761C385.752 49.7765 385.305 48.2013 384.412 47.0355C383.544 45.8696 382.341 45.2866 380.803 45.2866C379.761 45.2866 378.843 45.5595 378.049 46.1052C377.256 46.651 376.635 47.4324 376.189 48.4494C375.742 49.4665 375.519 50.6448 375.519 51.9843C375.519 53.3486 375.755 54.5393 376.226 55.5564C376.722 56.5486 377.417 57.3424 378.31 57.9378C379.228 58.5083 380.319 58.7936 381.584 58.7936C382.701 58.7936 383.705 58.5455 384.598 58.0494C385.491 57.5533 386.285 56.8215 386.98 55.8541ZM389.435 53.2494H374.328V50.5703H388.877L389.435 51.9099V53.2494ZM410.389 61.2866H406.668V50.6448C406.668 48.9083 406.308 47.606 405.589 46.7378C404.894 45.8448 403.939 45.3982 402.724 45.3982C401.831 45.3982 401 45.6463 400.231 46.1424C399.462 46.6386 398.829 47.4324 398.333 48.5238C397.862 49.5905 397.626 50.9796 397.626 52.6913V61.2866H393.905V42.7936H397.589V48.4866H397.068C397.291 46.899 397.738 45.6463 398.408 44.7285C399.102 43.8107 399.908 43.1657 400.826 42.7936C401.744 42.3967 402.687 42.1982 403.654 42.1982C405.738 42.1982 407.375 42.8928 408.566 44.282C409.781 45.6463 410.389 47.6308 410.389 50.2355V61.2866ZM429.617 61.2866V56.561L429.58 56.4122V52.3936C429.58 51.0044 429.344 49.7889 428.873 48.7471C428.401 47.6804 427.744 46.8618 426.901 46.2913C426.082 45.6959 425.127 45.3982 424.035 45.3982C422.944 45.3982 421.977 45.6835 421.133 46.2541C420.29 46.8246 419.632 47.606 419.161 48.5982C418.69 49.5905 418.454 50.744 418.454 52.0587C418.454 53.3486 418.69 54.5021 419.161 55.5192C419.657 56.5114 420.327 57.2928 421.17 57.8634C422.039 58.4339 423.031 58.7192 424.147 58.7192C425.139 58.7192 426.045 58.4959 426.863 58.0494C427.707 57.5781 428.389 56.9455 428.91 56.1517C429.456 55.3579 429.778 54.4401 429.877 53.3982L430.659 54.1052C430.783 55.5688 430.535 56.8959 429.915 58.0866C429.319 59.2525 428.451 60.1827 427.31 60.8773C426.194 61.5471 424.879 61.882 423.366 61.882C421.704 61.882 420.203 61.4603 418.863 60.6169C417.549 59.7734 416.494 58.62 415.701 57.1564C414.932 55.668 414.547 53.9688 414.547 52.0587C414.547 50.1486 414.932 48.4494 415.701 46.961C416.494 45.4727 417.549 44.3068 418.863 43.4634C420.203 42.62 421.691 42.1982 423.328 42.1982C424.618 42.1982 425.772 42.4711 426.789 43.0169C427.806 43.5378 428.637 44.2696 429.282 45.2122C429.952 46.1548 430.361 47.2339 430.51 48.4494H429.58V34.4959H433.301V61.2866H429.617ZM436.828 58.4959L438.912 56.0773C439.706 56.9455 440.611 57.6401 441.628 58.161C442.67 58.682 443.836 58.9424 445.126 58.9424C446.342 58.9424 447.321 58.682 448.066 58.161C448.835 57.6153 449.219 56.9207 449.219 56.0773C449.219 55.3579 448.897 54.7874 448.252 54.3657C447.607 53.9192 446.478 53.5843 444.866 53.361C442.261 52.9641 440.401 52.344 439.284 51.5006C438.193 50.6324 437.647 49.4541 437.647 47.9657C437.647 46.7998 437.957 45.7951 438.577 44.9517C439.197 44.0835 440.053 43.4138 441.145 42.9424C442.261 42.4463 443.539 42.1982 444.977 42.1982C446.565 42.1982 448.004 42.4959 449.294 43.0913C450.584 43.6618 451.712 44.4928 452.68 45.5843L450.521 48.0029C449.827 47.1099 449.021 46.4153 448.103 45.9192C447.185 45.3982 446.156 45.1378 445.015 45.1378C443.923 45.1378 443.03 45.3858 442.335 45.882C441.641 46.3533 441.294 46.9734 441.294 47.7424C441.294 48.1641 441.418 48.5238 441.666 48.8215C441.914 49.1192 442.335 49.3672 442.931 49.5657C443.526 49.7393 444.357 49.913 445.424 50.0866C448.152 50.5083 450.075 51.1781 451.191 52.0959C452.332 52.9889 452.903 54.2789 452.903 55.9657C452.903 57.1316 452.568 58.161 451.898 59.0541C451.253 59.9471 450.335 60.6417 449.145 61.1378C447.979 61.6339 446.627 61.882 445.089 61.882C443.328 61.882 441.752 61.5843 440.363 60.9889C438.999 60.3936 437.821 59.5626 436.828 58.4959Z" fill="#F9FFE5"/>
<path d="M597.426 477.544C597.426 610.695 489.486 718.636 356.334 718.636C223.183 718.636 115.242 610.695 115.242 477.544C115.242 344.392 223.183 236.451 356.334 236.451C489.486 236.451 597.426 344.392 597.426 477.544ZM205.921 477.544C205.921 560.615 273.263 627.957 356.334 627.957C439.405 627.957 506.748 560.615 506.748 477.544C506.748 394.472 439.405 327.13 356.334 327.13C273.263 327.13 205.921 394.472 205.921 477.544Z" fill="#8D9180" fill-opacity="0.1"/>
<path d="M46.745 408.774L47.6807 409.693C47.2017 410.395 46.5612 410.952 45.7592 411.364C44.9571 411.765 44.1216 411.965 43.2527 411.965C42.4396 411.965 41.6876 411.809 40.997 411.497C40.3063 411.186 39.6992 410.746 39.1757 410.177C38.6632 409.609 38.2622 408.947 37.9726 408.189C37.6941 407.432 37.5549 406.613 37.5549 405.733C37.5549 404.842 37.6997 404.017 37.9893 403.26C38.2789 402.502 38.68 401.839 39.1924 401.271C39.7048 400.703 40.3119 400.263 41.0137 399.951C41.7155 399.639 42.473 399.483 43.2862 399.483C44.1996 399.483 45.0295 399.678 45.7759 400.068C46.5334 400.458 47.1683 401.021 47.6807 401.756L46.745 402.675C46.3328 402.018 45.8316 401.522 45.2412 401.188C44.6619 400.854 43.9991 400.687 43.2527 400.687C42.4284 400.687 41.6876 400.904 41.0304 401.338C40.3843 401.773 39.8719 402.369 39.4931 403.126C39.1255 403.884 38.9417 404.752 38.9417 405.733C38.9417 406.691 39.1255 407.554 39.4931 408.323C39.8719 409.08 40.3843 409.676 41.0304 410.111C41.6876 410.545 42.4284 410.762 43.2527 410.762C43.988 410.762 44.6508 410.595 45.2412 410.261C45.8427 409.916 46.344 409.42 46.745 408.774ZM51.1855 411.698H49.8989V399.667H51.1855V411.698ZM57.6198 411.965C56.8289 411.965 56.1215 411.776 55.4977 411.397C54.8739 411.018 54.3837 410.5 54.0273 409.843C53.6819 409.186 53.5093 408.434 53.5093 407.587C53.5093 406.741 53.6819 405.989 54.0273 405.332C54.3837 404.674 54.8739 404.157 55.4977 403.778C56.1215 403.399 56.8289 403.21 57.6198 403.21C58.4218 403.21 59.1348 403.399 59.7586 403.778C60.3824 404.157 60.867 404.674 61.2123 405.332C61.5688 405.989 61.747 406.741 61.747 407.587C61.747 408.434 61.5688 409.186 61.2123 409.843C60.867 410.5 60.3824 411.018 59.7586 411.397C59.1348 411.776 58.4218 411.965 57.6198 411.965ZM57.6198 410.846C58.1768 410.846 58.6613 410.707 59.0735 410.428C59.4857 410.15 59.8087 409.765 60.0426 409.275C60.2766 408.785 60.3935 408.222 60.3935 407.587C60.3935 406.941 60.2766 406.379 60.0426 405.9C59.8087 405.41 59.4857 405.025 59.0735 404.747C58.6613 404.468 58.1768 404.329 57.6198 404.329C57.0739 404.329 56.5949 404.468 56.1828 404.747C55.7706 405.025 55.4476 405.41 55.2136 405.9C54.9797 406.379 54.8627 406.941 54.8627 407.587C54.8627 408.222 54.9797 408.785 55.2136 409.275C55.4476 409.765 55.7706 410.15 56.1828 410.428C56.5949 410.707 57.0739 410.846 57.6198 410.846ZM71.0305 411.698H69.7606V410.094L69.7439 409.626V403.477H71.0305V411.698ZM69.8942 408.139L70.1616 408.49C70.2062 409.158 70.0892 409.754 69.8107 410.278C69.5433 410.801 69.1646 411.213 68.6745 411.514C68.1843 411.815 67.6162 411.965 66.9701 411.965C66.0455 411.965 65.3047 411.67 64.7478 411.08C64.1908 410.489 63.9123 409.637 63.9123 408.523V403.477H65.1989V408.39C65.1989 409.192 65.3771 409.804 65.7336 410.228C66.0901 410.64 66.5914 410.846 67.2375 410.846C67.6942 410.846 68.1119 410.734 68.4907 410.512C68.8805 410.278 69.198 409.96 69.4431 409.559C69.6993 409.147 69.8497 408.674 69.8942 408.139ZM80.2526 411.698V409.476L80.2359 409.442V407.821C80.2359 407.131 80.1189 406.524 79.885 406C79.6511 405.477 79.3225 405.07 78.8991 404.78C78.487 404.48 78.008 404.329 77.4621 404.329C76.9274 404.329 76.4484 404.468 76.0251 404.747C75.613 405.025 75.2899 405.41 75.056 405.9C74.8221 406.39 74.7051 406.953 74.7051 407.587C74.7051 408.222 74.8221 408.785 75.056 409.275C75.3011 409.765 75.6353 410.15 76.0586 410.428C76.4819 410.707 76.9664 410.846 77.5123 410.846C78.0247 410.846 78.487 410.729 78.8991 410.495C79.3225 410.261 79.6622 409.944 79.9184 409.542C80.1858 409.13 80.3417 408.662 80.3863 408.139L80.6369 408.473C80.7149 409.13 80.6091 409.726 80.3194 410.261C80.041 410.785 79.6399 411.202 79.1164 411.514C78.5928 411.815 77.9968 411.965 77.3285 411.965C76.5598 411.965 75.8748 411.776 75.2732 411.397C74.6828 411.018 74.215 410.5 73.8696 409.843C73.5243 409.186 73.3516 408.434 73.3516 407.587C73.3516 406.752 73.5187 406.006 73.8529 405.348C74.1982 404.68 74.6661 404.157 75.2565 403.778C75.858 403.399 76.532 403.21 77.2783 403.21C77.8353 403.21 78.3477 403.327 78.8156 403.561C79.2835 403.794 79.6733 404.118 79.9853 404.53C80.2972 404.942 80.4921 405.421 80.5701 405.967H80.2359V399.667H81.5225V411.698H80.2526Z" fill="#585E44"/>
<path d="M90.1777 410.231L139.112 423.343" stroke="#8D9180" stroke-opacity="0.4" stroke-width="1.19353" stroke-dasharray="2.39 2.39"/>
<circle cx="170.145" cy="440.052" r="29.8381" fill="#2F3126" fill-opacity="0.1"/>
<g clip-path="url(#clip1_642_90)">
<path d="M179.126 435.696C177.802 430.422 172.453 427.22 167.18 428.544C163.058 429.578 160.065 433.14 159.757 437.379C156.831 437.861 154.85 440.625 155.332 443.551C155.761 446.153 158.015 448.058 160.652 448.048H165.127V446.257H160.652C158.675 446.257 157.072 444.654 157.072 442.677C157.072 440.7 158.675 439.097 160.652 439.097C161.146 439.097 161.547 438.696 161.547 438.202C161.543 433.753 165.146 430.143 169.595 430.139C173.446 430.135 176.761 432.857 177.506 436.636C177.579 437.013 177.886 437.301 178.267 437.352C180.714 437.7 182.415 439.966 182.066 442.413C181.753 444.61 179.877 446.246 177.658 446.257H174.078V448.048H177.658C181.118 448.037 183.915 445.223 183.904 441.763C183.896 438.883 181.924 436.379 179.126 435.696Z" fill="#585E44"/>
<path d="M168.963 439.356L165.383 442.937L166.645 444.199L168.703 442.149V450.733H170.494V442.149L172.543 444.199L173.805 442.937L170.225 439.356C169.876 439.009 169.312 439.009 168.963 439.356Z" fill="#585E44"/>
</g>
<path d="M138.963 261.771H132.797V260.601H138.963V261.771ZM141.168 265.079H139.765L135.621 253.951H136.172L132.028 265.079H130.675L135.203 253.132H136.64L141.168 265.079ZM144.897 265.079H143.56V253.132H144.897V265.079Z" fill="#585E44"/>
<path d="M150.346 270.756L201.071 308.352" stroke="#8D9180" stroke-opacity="0.4" stroke-width="1.19353" stroke-dasharray="2.39 2.39"/>
<circle cx="224.346" cy="332.819" r="29.8381" fill="#2F3126" fill-opacity="0.1"/>
<g clip-path="url(#clip2_642_90)">
<path d="M235.981 328.567H233.967V327.448C233.967 323.129 230.453 319.616 226.135 319.616H222.554C218.236 319.616 214.722 323.129 214.722 327.448V328.567H212.708C211.351 328.567 210.246 329.671 210.246 331.029V336.4C210.246 337.757 211.351 338.861 212.708 338.861H214.79C215.129 341.874 217.662 344.232 220.764 344.232H221.093C221.387 345.262 222.327 346.022 223.449 346.022H225.24C226.596 346.022 227.701 344.918 227.701 343.561C227.701 342.203 226.596 341.099 225.24 341.099H223.449C222.327 341.099 221.387 341.859 221.093 342.889H220.764C218.173 342.889 216.065 340.781 216.065 338.19V327.448C216.065 323.869 218.975 320.958 222.554 320.958H226.135C229.714 320.958 232.625 323.869 232.625 327.448V338.19C232.625 338.561 232.925 338.861 233.296 338.861H235.981C237.338 338.861 238.443 337.757 238.443 336.4V331.029C238.443 329.671 237.338 328.567 235.981 328.567ZM223.449 342.442H225.24C225.857 342.442 226.359 342.944 226.359 343.561C226.359 344.178 225.857 344.68 225.24 344.68H223.449C222.832 344.68 222.331 344.178 222.331 343.561C222.331 342.944 222.832 342.442 223.449 342.442ZM211.589 336.4V331.029C211.589 330.412 212.091 329.91 212.708 329.91H214.722V337.519H212.708C212.091 337.519 211.589 337.017 211.589 336.4ZM237.1 336.4C237.1 337.017 236.599 337.519 235.981 337.519H233.967V329.91H235.981C236.599 329.91 237.1 330.412 237.1 331.029V336.4Z" fill="#585E44"/>
<path d="M223.452 327.672H222.556C222.263 327.672 222.004 327.863 221.915 328.143L219.677 335.304C219.567 335.658 219.764 336.035 220.118 336.145C220.479 336.258 220.848 336.059 220.96 335.705L221.372 334.386H224.636L225.048 335.705C225.139 335.992 225.403 336.176 225.689 336.176C225.756 336.176 225.822 336.166 225.891 336.145C226.244 336.035 226.441 335.658 226.331 335.304L224.093 328.143C224.004 327.863 223.745 327.672 223.452 327.672ZM221.792 333.043L223.004 329.162L224.216 333.043H221.792Z" fill="#585E44"/>
<path d="M228.373 327.672C228.002 327.672 227.701 327.973 227.701 328.343V335.505C227.701 335.875 228.002 336.176 228.373 336.176C228.743 336.176 229.044 335.875 229.044 335.505V328.343C229.044 327.973 228.743 327.672 228.373 327.672Z" fill="#585E44"/>
</g>
<path d="M325.67 190.466H319.504V189.297H325.67V190.466ZM327.875 193.775H326.472L322.328 182.646H322.879L318.735 193.775H317.382L321.91 181.828H323.347L327.875 193.775ZM336.558 193.775H335.288V192.171L335.271 191.703V185.554H336.558V193.775ZM335.422 190.216L335.689 190.567C335.734 191.235 335.617 191.831 335.338 192.355C335.071 192.878 334.692 193.29 334.202 193.591C333.712 193.892 333.144 194.042 332.497 194.042C331.573 194.042 330.832 193.747 330.275 193.157C329.718 192.566 329.44 191.714 329.44 190.6V185.554H330.726V190.466C330.726 191.268 330.905 191.881 331.261 192.304C331.617 192.717 332.119 192.923 332.765 192.923C333.222 192.923 333.639 192.811 334.018 192.589C334.408 192.355 334.725 192.037 334.97 191.636C335.227 191.224 335.377 190.751 335.422 190.216ZM343.675 193.775H341.837C341.257 193.775 340.817 193.619 340.517 193.307C340.216 192.984 340.065 192.527 340.065 191.937V183.148H341.352V191.82C341.352 192.087 341.419 192.299 341.553 192.455C341.686 192.6 341.887 192.672 342.154 192.672H343.675V193.775ZM343.558 186.657H338.495V185.554H343.558V186.657ZM348.994 194.042C348.204 194.042 347.496 193.853 346.872 193.474C346.249 193.095 345.758 192.577 345.402 191.92C345.057 191.263 344.884 190.511 344.884 189.664C344.884 188.818 345.057 188.066 345.402 187.409C345.758 186.751 346.249 186.233 346.872 185.855C347.496 185.476 348.204 185.287 348.994 185.287C349.796 185.287 350.509 185.476 351.133 185.855C351.757 186.233 352.242 186.751 352.587 187.409C352.943 188.066 353.122 188.818 353.122 189.664C353.122 190.511 352.943 191.263 352.587 191.92C352.242 192.577 351.757 193.095 351.133 193.474C350.509 193.853 349.796 194.042 348.994 194.042ZM348.994 192.923C349.551 192.923 350.036 192.783 350.448 192.505C350.86 192.227 351.183 191.842 351.417 191.352C351.651 190.862 351.768 190.299 351.768 189.664C351.768 189.018 351.651 188.456 351.417 187.977C351.183 187.487 350.86 187.102 350.448 186.824C350.036 186.545 349.551 186.406 348.994 186.406C348.449 186.406 347.97 186.545 347.557 186.824C347.145 187.102 346.822 187.487 346.588 187.977C346.354 188.456 346.237 189.018 346.237 189.664C346.237 190.299 346.354 190.862 346.588 191.352C346.822 191.842 347.145 192.227 347.557 192.505C347.97 192.783 348.449 192.923 348.994 192.923ZM367.836 193.775H366.549V189.029C366.549 188.205 366.388 187.565 366.064 187.108C365.741 186.651 365.285 186.423 364.694 186.423C363.948 186.423 363.358 186.751 362.923 187.409C362.489 188.066 362.271 188.957 362.271 190.082V193.775H360.985V189.029C360.985 188.205 360.823 187.565 360.5 187.108C360.177 186.651 359.721 186.423 359.13 186.423C358.395 186.423 357.81 186.751 357.376 187.409C356.941 188.066 356.724 188.957 356.724 190.082V193.775H355.437V185.554H356.707V187.626L356.59 187.609C356.713 187.119 356.902 186.701 357.158 186.356C357.426 186.011 357.749 185.749 358.128 185.571C358.506 185.381 358.93 185.287 359.397 185.287C360.122 185.287 360.706 185.504 361.152 185.938C361.609 186.373 361.909 186.991 362.054 187.793H361.854C361.976 187.258 362.177 186.807 362.455 186.439C362.734 186.061 363.079 185.777 363.491 185.587C363.903 185.387 364.366 185.287 364.878 185.287C365.825 185.287 366.555 185.598 367.067 186.222C367.579 186.846 367.836 187.737 367.836 188.896V193.775ZM376.914 193.775H375.694V192.171L375.678 191.703V188.645C375.678 187.954 375.466 187.409 375.043 187.008C374.631 186.595 374.062 186.389 373.338 186.389C372.392 186.389 371.589 186.785 370.932 187.576L370.097 186.757C371.033 185.777 372.141 185.287 373.422 185.287C374.124 185.287 374.736 185.426 375.26 185.704C375.784 185.972 376.19 186.356 376.48 186.857C376.769 187.347 376.914 187.927 376.914 188.595V193.775ZM372.787 194.042C372.208 194.042 371.695 193.931 371.25 193.708C370.804 193.485 370.453 193.179 370.197 192.789C369.952 192.388 369.829 191.937 369.829 191.436C369.829 190.6 370.147 189.937 370.782 189.447C371.428 188.957 372.291 188.712 373.372 188.712H375.828V189.748H373.522C372.776 189.748 372.197 189.893 371.784 190.182C371.372 190.461 371.166 190.862 371.166 191.385C371.166 191.864 371.328 192.249 371.651 192.538C371.985 192.828 372.425 192.973 372.971 192.973C373.505 192.973 373.985 192.861 374.408 192.639C374.831 192.405 375.171 192.087 375.427 191.686C375.683 191.274 375.828 190.806 375.862 190.283L376.346 190.567C376.346 191.235 376.19 191.831 375.878 192.355C375.577 192.878 375.16 193.29 374.625 193.591C374.09 193.892 373.478 194.042 372.787 194.042ZM383.881 193.775H382.043C381.464 193.775 381.024 193.619 380.723 193.307C380.423 192.984 380.272 192.527 380.272 191.937V183.148H381.559V191.82C381.559 192.087 381.626 192.299 381.759 192.455C381.893 192.6 382.094 192.672 382.361 192.672H383.881V193.775ZM383.765 186.657H378.702V185.554H383.765V186.657ZM387.222 193.775H385.935V185.554H387.222V193.775ZM387.472 182.446C387.472 182.713 387.383 182.936 387.205 183.114C387.038 183.281 386.826 183.365 386.57 183.365C386.314 183.365 386.097 183.281 385.918 183.114C385.751 182.936 385.668 182.713 385.668 182.446C385.668 182.179 385.751 181.961 385.918 181.794C386.097 181.616 386.314 181.527 386.57 181.527C386.826 181.527 387.038 181.616 387.205 181.794C387.383 181.961 387.472 182.179 387.472 182.446ZM393.656 194.042C392.865 194.042 392.158 193.853 391.534 193.474C390.91 193.095 390.42 192.577 390.064 191.92C389.718 191.263 389.546 190.511 389.546 189.664C389.546 188.818 389.718 188.066 390.064 187.409C390.42 186.751 390.91 186.233 391.534 185.855C392.158 185.476 392.865 185.287 393.656 185.287C394.458 185.287 395.171 185.476 395.795 185.855C396.419 186.233 396.903 186.751 397.249 187.409C397.605 188.066 397.783 188.818 397.783 189.664C397.783 190.511 397.605 191.263 397.249 191.92C396.903 192.577 396.419 193.095 395.795 193.474C395.171 193.853 394.458 194.042 393.656 194.042ZM393.656 192.923C394.213 192.923 394.698 192.783 395.11 192.505C395.522 192.227 395.845 191.842 396.079 191.352C396.313 190.862 396.43 190.299 396.43 189.664C396.43 189.018 396.313 188.456 396.079 187.977C395.845 187.487 395.522 187.102 395.11 186.824C394.698 186.545 394.213 186.406 393.656 186.406C393.11 186.406 392.631 186.545 392.219 186.824C391.807 187.102 391.484 187.487 391.25 187.977C391.016 188.456 390.899 189.018 390.899 189.664C390.899 190.299 391.016 190.862 391.25 191.352C391.484 191.842 391.807 192.227 392.219 192.505C392.631 192.783 393.11 192.923 393.656 192.923ZM407.251 193.775H405.964V189.046C405.964 188.177 405.78 187.526 405.413 187.091C405.056 186.646 404.571 186.423 403.959 186.423C403.513 186.423 403.096 186.551 402.706 186.807C402.316 187.052 401.998 187.448 401.753 187.993C401.508 188.528 401.386 189.224 401.386 190.082V193.775H400.099V185.554H401.369V188.06H401.152C401.274 187.381 401.486 186.841 401.787 186.439C402.099 186.027 402.466 185.732 402.889 185.554C403.313 185.376 403.753 185.287 404.209 185.287C405.156 185.287 405.897 185.598 406.432 186.222C406.978 186.835 407.251 187.726 407.251 188.896V193.775Z" fill="#585E44"/>
<path d="M362.715 198.855V248.386" stroke="#8D9180" stroke-opacity="0.4" stroke-width="1.19353" stroke-dasharray="2.39 2.39"/>
<circle cx="363.311" cy="281.805" r="29.8381" fill="#585E44"/>
<path d="M364.27 290.399H362.151C361.062 290.399 360.174 289.544 360.174 288.494C360.174 288.165 360.002 287.873 359.701 287.692C359.367 287.496 358.971 287.491 358.632 287.673C357.696 288.188 356.488 287.878 355.944 286.981L354.884 285.233C354.617 284.794 354.545 284.288 354.679 283.796C354.813 283.295 355.147 282.875 355.615 282.617C355.93 282.445 356.116 282.139 356.116 281.8C356.116 281.462 355.93 281.156 355.615 280.984C355.147 280.726 354.813 280.306 354.679 279.805C354.545 279.313 354.622 278.807 354.884 278.368L355.944 276.62C356.488 275.723 357.691 275.413 358.632 275.928C358.971 276.114 359.367 276.105 359.701 275.909C360.002 275.732 360.174 275.441 360.174 275.107C360.174 274.057 361.062 273.202 362.151 273.202H364.27C365.359 273.202 366.247 274.057 366.247 275.107C366.247 275.436 366.419 275.728 366.719 275.909C367.054 276.105 367.45 276.11 367.789 275.928C368.725 275.413 369.932 275.723 370.477 276.62L371.537 278.368C371.804 278.807 371.876 279.313 371.742 279.805C371.608 280.306 371.274 280.726 370.806 280.984C370.491 281.156 370.305 281.462 370.305 281.8C370.305 282.139 370.491 282.445 370.806 282.617C371.274 282.875 371.608 283.295 371.742 283.796C371.876 284.288 371.799 284.794 371.537 285.233L370.477 286.981C369.932 287.878 368.729 288.188 367.789 287.673C367.45 287.487 367.054 287.491 366.719 287.692C366.419 287.869 366.247 288.16 366.247 288.494C366.247 289.544 365.359 290.399 364.27 290.399ZM359.152 286.584C359.51 286.584 359.864 286.68 360.188 286.871C360.776 287.219 361.129 287.826 361.129 288.494C361.129 289.019 361.587 289.444 362.151 289.444H364.27C364.834 289.444 365.292 289.019 365.292 288.494C365.292 287.826 365.645 287.219 366.232 286.871C366.858 286.503 367.612 286.489 368.247 286.837C368.744 287.109 369.374 286.952 369.656 286.484L370.715 284.737C370.844 284.527 370.878 284.278 370.816 284.04C370.749 283.791 370.582 283.581 370.343 283.452C369.718 283.109 369.345 282.493 369.345 281.796C369.345 281.099 369.718 280.483 370.343 280.144C370.582 280.015 370.749 279.805 370.816 279.557C370.878 279.323 370.844 279.074 370.715 278.86L369.656 277.112C369.374 276.644 368.739 276.487 368.247 276.759C367.607 277.107 366.858 277.098 366.232 276.726C365.645 276.377 365.292 275.771 365.292 275.102C365.292 274.577 364.834 274.152 364.27 274.152H362.151C361.587 274.152 361.129 274.577 361.129 275.102C361.129 275.771 360.776 276.377 360.188 276.726C359.563 277.098 358.809 277.107 358.174 276.759C357.677 276.487 357.047 276.644 356.765 277.112L355.705 278.86C355.576 279.07 355.543 279.318 355.605 279.557C355.672 279.805 355.839 280.015 356.078 280.144C356.703 280.488 357.076 281.103 357.076 281.8C357.076 282.498 356.703 283.113 356.078 283.452C355.839 283.581 355.672 283.791 355.605 284.04C355.543 284.274 355.576 284.522 355.705 284.737L356.765 286.484C357.047 286.952 357.682 287.109 358.174 286.837C358.484 286.665 358.818 286.584 359.152 286.584Z" fill="#F9FFE5"/>
<path d="M363.211 285.147C361.368 285.147 359.869 283.648 359.869 281.805C359.869 279.962 361.368 278.463 363.211 278.463C365.054 278.463 366.553 279.962 366.553 281.805C366.553 283.648 365.054 285.147 363.211 285.147ZM363.211 279.418C361.893 279.418 360.824 280.487 360.824 281.805C360.824 283.123 361.893 284.192 363.211 284.192C364.529 284.192 365.598 283.123 365.598 281.805C365.598 280.487 364.529 279.418 363.211 279.418Z" fill="#F9FFE5"/>
<path d="M364.546 268.986L365.405 268.342C365.616 268.184 365.658 267.883 365.501 267.673C365.343 267.463 365.043 267.42 364.833 267.578L362.923 269.01C362.713 269.168 362.67 269.468 362.827 269.679L364.26 271.588C364.355 271.712 364.498 271.779 364.642 271.779C364.742 271.779 364.842 271.746 364.928 271.684C365.138 271.526 365.181 271.225 365.024 271.015L364.193 269.912C370.375 270.414 375.145 275.541 375.145 281.805C375.145 282.068 375.36 282.282 375.622 282.282C375.885 282.282 376.1 282.068 376.1 281.805C376.1 275.131 371.087 269.655 364.546 268.986Z" fill="#F9FFE5"/>
<path d="M363.591 293.932L362.158 292.022C362.001 291.812 361.7 291.769 361.49 291.927C361.28 292.084 361.237 292.385 361.395 292.595L362.225 293.698C356.043 293.197 351.273 288.069 351.273 281.805C351.273 281.543 351.058 281.328 350.796 281.328C350.533 281.328 350.318 281.543 350.318 281.805C350.318 288.48 355.331 293.956 361.872 294.624L361.013 295.269C360.803 295.426 360.76 295.727 360.917 295.937C361.013 296.061 361.156 296.128 361.299 296.128C361.399 296.128 361.5 296.094 361.585 296.032L363.495 294.6C363.705 294.443 363.748 294.142 363.591 293.932Z" fill="#F9FFE5"/>
<path d="M544.212 279.867L545.165 278.914C545.521 279.349 545.9 279.711 546.301 280C546.702 280.279 547.125 280.491 547.571 280.635C548.028 280.78 548.507 280.853 549.008 280.853C549.944 280.853 550.69 280.635 551.247 280.201C551.815 279.766 552.099 279.187 552.099 278.463C552.099 277.839 551.854 277.36 551.364 277.026C550.885 276.681 550.066 276.413 548.908 276.224C547.393 275.979 546.306 275.611 545.649 275.121C544.992 274.62 544.663 273.913 544.663 272.999C544.663 272.331 544.842 271.74 545.198 271.228C545.566 270.716 546.067 270.315 546.702 270.025C547.348 269.724 548.078 269.574 548.891 269.574C549.815 269.574 550.651 269.746 551.397 270.092C552.144 270.426 552.823 270.944 553.436 271.646L552.5 272.581C551.976 271.958 551.425 271.501 550.846 271.211C550.278 270.922 549.626 270.777 548.891 270.777C548.011 270.777 547.315 270.972 546.802 271.362C546.301 271.752 546.05 272.292 546.05 272.983C546.05 273.517 546.279 273.935 546.735 274.236C547.192 274.536 547.955 274.77 549.024 274.937C550.617 275.183 551.754 275.578 552.433 276.124C553.124 276.659 553.469 277.433 553.469 278.446C553.469 279.148 553.28 279.772 552.901 280.318C552.522 280.864 551.993 281.293 551.314 281.605C550.645 281.905 549.877 282.056 549.008 282.056C548.061 282.056 547.181 281.872 546.368 281.504C545.566 281.137 544.847 280.591 544.212 279.867ZM562.127 279.432L562.996 280.268C562.561 280.869 562.049 281.32 561.458 281.621C560.879 281.911 560.239 282.056 559.537 282.056C558.713 282.056 557.983 281.866 557.348 281.488C556.724 281.109 556.234 280.591 555.878 279.934C555.532 279.265 555.36 278.513 555.36 277.678C555.36 276.842 555.532 276.096 555.878 275.439C556.234 274.77 556.713 274.247 557.315 273.868C557.927 273.489 558.612 273.3 559.37 273.3C560.116 273.3 560.773 273.484 561.342 273.851C561.921 274.219 562.372 274.731 562.695 275.389C563.018 276.035 563.18 276.781 563.18 277.628V277.728H561.876V277.611C561.876 276.653 561.648 275.884 561.191 275.305C560.734 274.715 560.127 274.42 559.37 274.42C558.857 274.42 558.395 274.559 557.983 274.837C557.582 275.105 557.264 275.483 557.03 275.973C556.808 276.464 556.696 277.026 556.696 277.661C556.696 278.296 556.813 278.859 557.047 279.349C557.292 279.839 557.632 280.229 558.066 280.518C558.512 280.797 559.03 280.936 559.62 280.936C560.133 280.936 560.595 280.814 561.007 280.569C561.419 280.323 561.793 279.945 562.127 279.432ZM563.18 278.129H556.379V277.076H562.929L563.18 277.628V278.129ZM571.47 279.599L572.373 280.452C571.994 280.964 571.526 281.359 570.969 281.638C570.412 281.916 569.788 282.056 569.098 282.056C568.295 282.056 567.583 281.872 566.959 281.504C566.346 281.126 565.861 280.608 565.505 279.95C565.16 279.293 564.987 278.536 564.987 277.678C564.987 276.82 565.165 276.063 565.522 275.405C565.878 274.748 566.368 274.236 566.992 273.868C567.616 273.489 568.329 273.3 569.131 273.3C570.523 273.3 571.609 273.835 572.389 274.904L571.47 275.756C571.236 275.333 570.913 275.004 570.501 274.77C570.089 274.536 569.621 274.42 569.098 274.42C568.284 274.42 567.622 274.715 567.109 275.305C566.597 275.895 566.34 276.686 566.34 277.678C566.34 278.658 566.597 279.449 567.109 280.051C567.633 280.641 568.312 280.936 569.148 280.936C569.649 280.936 570.095 280.825 570.484 280.602C570.874 280.368 571.203 280.034 571.47 279.599ZM581.431 281.788H580.161V280.184L580.145 279.716V273.567H581.431V281.788ZM580.295 278.229L580.562 278.58C580.607 279.249 580.49 279.844 580.211 280.368C579.944 280.892 579.565 281.304 579.075 281.605C578.585 281.905 578.017 282.056 577.371 282.056C576.446 282.056 575.706 281.76 575.149 281.17C574.592 280.58 574.313 279.728 574.313 278.614V273.567H575.6V278.48C575.6 279.282 575.778 279.895 576.134 280.318C576.491 280.73 576.992 280.936 577.638 280.936C578.095 280.936 578.513 280.825 578.891 280.602C579.281 280.368 579.599 280.051 579.844 279.65C580.1 279.237 580.25 278.764 580.295 278.229ZM588.732 273.434V274.67H588.448C587.935 274.67 587.456 274.804 587.011 275.071C586.576 275.327 586.225 275.728 585.958 276.274C585.691 276.809 585.557 277.5 585.557 278.346V281.788H584.27V273.567H585.54V276.191H585.323C585.446 275.511 585.668 274.971 585.991 274.57C586.326 274.169 586.71 273.879 587.144 273.701C587.579 273.523 588.019 273.434 588.464 273.434H588.732ZM591.839 281.788H590.553V273.567H591.839V281.788ZM592.09 270.459C592.09 270.727 592.001 270.95 591.823 271.128C591.656 271.295 591.444 271.378 591.188 271.378C590.931 271.378 590.714 271.295 590.536 271.128C590.369 270.95 590.285 270.727 590.285 270.459C590.285 270.192 590.369 269.975 590.536 269.808C590.714 269.629 590.931 269.54 591.188 269.54C591.444 269.54 591.656 269.629 591.823 269.808C592.001 269.975 592.09 270.192 592.09 270.459ZM598.959 281.788H597.121C596.541 281.788 596.101 281.632 595.801 281.32C595.5 280.997 595.349 280.541 595.349 279.95V271.161H596.636V279.833C596.636 280.101 596.703 280.312 596.837 280.468C596.97 280.613 597.171 280.686 597.438 280.686H598.959V281.788ZM598.842 274.67H593.779V273.567H598.842V274.67ZM606.744 273.567H608.047L604.137 283.242C603.914 283.799 603.63 284.233 603.285 284.545C602.951 284.868 602.422 285.03 601.697 285.03H600.728V283.927H601.697C602.076 283.927 602.371 283.838 602.583 283.66C602.795 283.482 602.962 283.22 603.084 282.874L603.469 281.822L600.127 273.567H601.497L604.354 281.087H603.87L606.744 273.567Z" fill="#585E44"/>
<path d="M536.25 278.514L507.605 303.578" stroke="#8D9180" stroke-opacity="0.4" stroke-width="1.19353" stroke-dasharray="2.39 2.39"/>
<circle cx="486.121" cy="332.82" r="29.8381" fill="#2F3126" fill-opacity="0.1"/>
<path fill-rule="evenodd" clip-rule="evenodd" d="M489.741 329.199C489.025 328.483 488.113 327.995 487.119 327.797C486.126 327.6 485.097 327.701 484.161 328.089C483.226 328.476 482.426 329.133 481.863 329.975C481.301 330.817 481 331.807 481 332.819C481 333.832 481.301 334.822 481.863 335.664C482.426 336.506 483.226 337.162 484.161 337.55C485.097 337.937 486.126 338.039 487.119 337.841C488.113 337.644 489.025 337.156 489.741 336.44C490.701 335.48 491.241 334.177 491.241 332.819C491.241 331.461 490.701 330.159 489.741 329.199ZM486.12 326.593C487.352 326.593 488.556 326.958 489.58 327.642C490.604 328.326 491.402 329.299 491.873 330.437C492.344 331.575 492.468 332.827 492.227 334.035C491.987 335.243 491.394 336.352 490.523 337.223C489.652 338.094 488.543 338.687 487.335 338.927C486.127 339.167 484.875 339.044 483.737 338.572C482.599 338.101 481.627 337.303 480.943 336.279C480.258 335.255 479.893 334.051 479.893 332.819C479.894 331.168 480.55 329.584 481.717 328.416C482.885 327.249 484.469 326.593 486.12 326.593ZM480.513 321.587C482.366 321.073 484.158 320.36 485.857 319.461C485.937 319.418 486.026 319.395 486.117 319.395C486.208 319.394 486.297 319.416 486.378 319.458C488.079 320.359 489.872 321.073 491.727 321.588C493.601 322.106 495.523 322.427 497.463 322.546C497.536 322.545 497.608 322.559 497.676 322.587C497.743 322.615 497.804 322.655 497.856 322.707C497.907 322.758 497.948 322.819 497.976 322.886C498.004 322.953 498.018 323.026 498.018 323.098V329.952V329.956C497.977 334.167 496.99 337.575 495.038 340.264C493.086 342.954 490.178 344.912 486.298 346.216C486.184 346.254 486.061 346.254 485.947 346.216C482.067 344.912 479.16 342.956 477.207 340.264C475.26 337.586 474.274 334.195 474.225 330.009C474.224 329.99 474.224 329.972 474.225 329.953V323.098C474.225 322.958 474.279 322.822 474.376 322.72C474.472 322.617 474.604 322.556 474.745 322.547C476.696 322.43 478.629 322.108 480.513 321.587ZM486.12 320.567C489.497 322.308 493.131 323.312 496.912 323.611V329.952C496.872 333.92 495.954 337.114 494.139 339.616C492.353 342.078 489.686 343.882 486.118 345.111C482.55 343.882 479.883 342.077 478.097 339.616C476.29 337.124 475.373 333.942 475.327 329.994C475.327 329.98 475.327 329.966 475.327 329.952V323.613C479.109 323.313 482.744 322.31 486.12 320.567ZM488.104 330.693C488.203 330.586 488.341 330.523 488.488 330.518C488.634 330.512 488.776 330.565 488.883 330.665C488.991 330.765 489.054 330.903 489.059 331.049C489.064 331.196 489.011 331.338 488.911 331.445L485.651 334.951C485.597 335.01 485.531 335.056 485.457 335.087C485.383 335.117 485.304 335.131 485.224 335.128C485.144 335.125 485.066 335.104 484.995 335.068C484.924 335.031 484.861 334.98 484.812 334.917L483.323 333.267C483.274 333.213 483.237 333.15 483.213 333.082C483.188 333.014 483.178 332.942 483.181 332.87C483.185 332.797 483.203 332.727 483.234 332.661C483.265 332.596 483.308 332.537 483.362 332.489C483.47 332.391 483.613 332.34 483.759 332.347C483.831 332.351 483.902 332.368 483.967 332.399C484.033 332.43 484.091 332.474 484.14 332.528L485.25 333.754L488.104 330.693Z" fill="#585E44"/>
<path d="M621.978 414.551L622.93 413.598C623.287 414.033 623.665 414.395 624.066 414.685C624.468 414.963 624.891 415.175 625.336 415.319C625.793 415.464 626.272 415.537 626.773 415.537C627.709 415.537 628.455 415.319 629.012 414.885C629.581 414.451 629.865 413.871 629.865 413.147C629.865 412.523 629.62 412.044 629.129 411.71C628.65 411.365 627.832 411.098 626.673 410.908C625.158 410.663 624.072 410.296 623.415 409.805C622.758 409.304 622.429 408.597 622.429 407.683C622.429 407.015 622.607 406.425 622.964 405.912C623.331 405.4 623.833 404.999 624.468 404.709C625.114 404.408 625.843 404.258 626.656 404.258C627.581 404.258 628.417 404.431 629.163 404.776C629.909 405.11 630.589 405.628 631.201 406.33L630.266 407.266C629.742 406.642 629.191 406.185 628.611 405.895C628.043 405.606 627.392 405.461 626.656 405.461C625.776 405.461 625.08 405.656 624.568 406.046C624.066 406.436 623.816 406.976 623.816 407.667C623.816 408.201 624.044 408.619 624.501 408.92C624.958 409.221 625.721 409.454 626.79 409.622C628.383 409.867 629.519 410.262 630.199 410.808C630.889 411.343 631.235 412.117 631.235 413.131C631.235 413.832 631.045 414.456 630.667 415.002C630.288 415.548 629.759 415.977 629.079 416.289C628.411 416.589 627.642 416.74 626.773 416.74C625.827 416.74 624.947 416.556 624.133 416.188C623.331 415.821 622.613 415.275 621.978 414.551ZM637.594 416.472H635.756C635.177 416.472 634.737 416.316 634.436 416.005C634.136 415.682 633.985 415.225 633.985 414.634V405.845H635.272V414.517C635.272 414.785 635.339 414.996 635.472 415.152C635.606 415.297 635.807 415.37 636.074 415.37H637.594V416.472ZM637.477 409.354H632.415V408.251H637.477V409.354ZM644.109 408.118V409.354H643.825C643.313 409.354 642.834 409.488 642.388 409.755C641.954 410.011 641.603 410.412 641.336 410.958C641.068 411.493 640.935 412.184 640.935 413.03V416.472H639.648V408.251H640.918V410.875H640.701C640.823 410.195 641.046 409.655 641.369 409.254C641.703 408.853 642.088 408.563 642.522 408.385C642.957 408.207 643.397 408.118 643.842 408.118H644.109ZM652.313 416.472H651.094V414.868L651.077 414.4V411.343C651.077 410.652 650.865 410.106 650.442 409.705C650.03 409.293 649.462 409.087 648.738 409.087C647.791 409.087 646.989 409.482 646.331 410.273L645.496 409.454C646.432 408.474 647.54 407.984 648.821 407.984C649.523 407.984 650.136 408.123 650.659 408.402C651.183 408.669 651.589 409.053 651.879 409.555C652.169 410.045 652.313 410.624 652.313 411.293V416.472ZM648.186 416.74C647.607 416.74 647.095 416.628 646.649 416.406C646.203 416.183 645.852 415.876 645.596 415.487C645.351 415.086 645.229 414.634 645.229 414.133C645.229 413.298 645.546 412.635 646.181 412.145C646.827 411.655 647.69 411.409 648.771 411.409H651.227V412.445H648.921C648.175 412.445 647.596 412.59 647.184 412.88C646.771 413.158 646.565 413.559 646.565 414.083C646.565 414.562 646.727 414.946 647.05 415.236C647.384 415.526 647.824 415.67 648.37 415.67C648.905 415.67 649.384 415.559 649.807 415.336C650.23 415.102 650.57 414.785 650.826 414.384C651.082 413.972 651.227 413.504 651.261 412.98L651.745 413.264C651.745 413.933 651.589 414.529 651.277 415.052C650.977 415.576 650.559 415.988 650.024 416.289C649.49 416.589 648.877 416.74 648.186 416.74ZM659.281 416.472H657.443C656.863 416.472 656.423 416.316 656.123 416.005C655.822 415.682 655.671 415.225 655.671 414.634V405.845H656.958V414.517C656.958 414.785 657.025 414.996 657.159 415.152C657.292 415.297 657.493 415.37 657.76 415.37H659.281V416.472ZM659.164 409.354H654.101V408.251H659.164V409.354ZM667.257 414.116L668.126 414.952C667.692 415.553 667.179 416.005 666.589 416.305C666.01 416.595 665.369 416.74 664.667 416.74C663.843 416.74 663.113 416.55 662.478 416.172C661.855 415.793 661.364 415.275 661.008 414.618C660.663 413.949 660.49 413.197 660.49 412.362C660.49 411.526 660.663 410.78 661.008 410.123C661.364 409.454 661.843 408.931 662.445 408.552C663.058 408.173 663.743 407.984 664.5 407.984C665.247 407.984 665.904 408.168 666.472 408.535C667.051 408.903 667.502 409.415 667.825 410.073C668.148 410.719 668.31 411.465 668.31 412.312V412.412H667.007V412.295C667.007 411.337 666.778 410.568 666.322 409.989C665.865 409.399 665.258 409.104 664.5 409.104C663.988 409.104 663.526 409.243 663.113 409.521C662.712 409.789 662.395 410.167 662.161 410.658C661.938 411.148 661.827 411.71 661.827 412.345C661.827 412.98 661.944 413.543 662.178 414.033C662.423 414.523 662.762 414.913 663.197 415.203C663.643 415.481 664.161 415.62 664.751 415.62C665.263 415.62 665.726 415.498 666.138 415.253C666.55 415.008 666.923 414.629 667.257 414.116ZM668.31 412.813H661.509V411.76H668.059L668.31 412.312V412.813ZM678.288 415.754C678.288 416.567 678.11 417.291 677.754 417.926C677.408 418.561 676.924 419.062 676.3 419.43C675.687 419.798 674.985 419.981 674.195 419.981C673.482 419.981 672.824 419.842 672.223 419.564C671.632 419.296 671.131 418.912 670.719 418.411L671.571 417.542C672.217 418.422 673.086 418.862 674.178 418.862C674.735 418.862 675.225 418.728 675.648 418.461C676.072 418.205 676.4 417.843 676.634 417.375C676.879 416.907 677.002 416.367 677.002 415.754V412.596C677.002 411.905 676.885 411.298 676.651 410.775C676.417 410.251 676.088 409.844 675.665 409.555C675.253 409.254 674.774 409.104 674.228 409.104C673.693 409.104 673.214 409.243 672.791 409.521C672.379 409.789 672.056 410.162 671.822 410.641C671.588 411.12 671.471 411.671 671.471 412.295C671.471 412.919 671.588 413.47 671.822 413.949C672.067 414.417 672.401 414.785 672.824 415.052C673.248 415.319 673.732 415.453 674.278 415.453C674.791 415.453 675.253 415.336 675.665 415.102C676.088 414.868 676.428 414.545 676.684 414.133C676.952 413.721 677.108 413.259 677.152 412.746L677.419 413.08C677.497 413.738 677.397 414.334 677.119 414.868C676.851 415.392 676.456 415.81 675.932 416.122C675.409 416.422 674.796 416.573 674.094 416.573C673.326 416.573 672.641 416.389 672.039 416.021C671.438 415.654 670.964 415.147 670.619 414.501C670.285 413.855 670.117 413.119 670.117 412.295C670.117 411.482 670.29 410.752 670.635 410.106C670.981 409.449 671.449 408.931 672.039 408.552C672.629 408.173 673.298 407.984 674.044 407.984C674.924 407.984 675.659 408.235 676.25 408.736C676.84 409.226 677.202 409.894 677.336 410.741H677.018V408.251H678.288V415.754ZM682.414 416.472H681.128V408.251H682.414V416.472ZM682.665 405.143C682.665 405.411 682.576 405.634 682.398 405.812C682.231 405.979 682.019 406.062 681.763 406.062C681.507 406.062 681.289 405.979 681.111 405.812C680.944 405.634 680.86 405.411 680.86 405.143C680.86 404.876 680.944 404.659 681.111 404.492C681.289 404.314 681.507 404.224 681.763 404.224C682.019 404.224 682.231 404.314 682.398 404.492C682.576 404.659 682.665 404.876 682.665 405.143ZM691.221 414.283L692.124 415.136C691.745 415.648 691.277 416.044 690.72 416.322C690.163 416.601 689.539 416.74 688.849 416.74C688.047 416.74 687.334 416.556 686.71 416.188C686.097 415.81 685.613 415.292 685.256 414.634C684.911 413.977 684.738 413.22 684.738 412.362C684.738 411.504 684.916 410.747 685.273 410.089C685.629 409.432 686.119 408.92 686.743 408.552C687.367 408.173 688.08 407.984 688.882 407.984C690.275 407.984 691.361 408.519 692.14 409.588L691.221 410.44C690.987 410.017 690.664 409.688 690.252 409.454C689.84 409.221 689.372 409.104 688.849 409.104C688.035 409.104 687.373 409.399 686.86 409.989C686.348 410.58 686.092 411.37 686.092 412.362C686.092 413.342 686.348 414.133 686.86 414.735C687.384 415.325 688.063 415.62 688.899 415.62C689.4 415.62 689.846 415.509 690.236 415.286C690.625 415.052 690.954 414.718 691.221 414.283Z" fill="#585E44"/>
<path d="M619.385 412.601L577.611 420.956" stroke="#8D9180" stroke-opacity="0.4" stroke-width="1.19353" stroke-dasharray="2.39 2.39"/>
<circle cx="547.174" cy="440.052" r="29.8381" fill="#2F3126" fill-opacity="0.1"/>
<path d="M559.706 428.484H534.642C534.197 428.484 533.836 428.845 533.836 429.29C533.836 429.735 534.197 430.095 534.642 430.095H535.587V442.823C535.587 444.254 536.752 445.418 538.183 445.418H546.368V447.12C545.427 447.454 544.748 448.344 544.748 449.397C544.748 450.735 545.836 451.823 547.174 451.823C548.511 451.823 549.599 450.735 549.599 449.397C549.599 448.344 548.92 447.454 547.979 447.12V445.418H556.164C557.596 445.418 558.76 444.254 558.76 442.823V430.094H559.706C560.15 430.094 560.511 429.734 560.511 429.289C560.511 428.844 560.15 428.484 559.706 428.484ZM547.174 450.212C546.724 450.212 546.36 449.847 546.36 449.397C546.36 448.949 546.724 448.583 547.174 448.583C547.623 448.583 547.987 448.948 547.987 449.397C547.987 449.847 547.623 450.212 547.174 450.212ZM557.149 442.823C557.149 443.365 556.708 443.807 556.164 443.807H538.183C537.64 443.807 537.198 443.365 537.198 442.823V430.094H557.148L557.149 442.823Z" fill="#585E44"/>
<path d="M544.296 440.637C544.502 440.637 544.708 440.558 544.866 440.401L549.252 436.015V436.949C549.252 437.394 549.613 437.755 550.058 437.755C550.503 437.755 550.863 437.394 550.863 436.949V434.07C550.863 433.625 550.503 433.264 550.058 433.264H547.177C546.732 433.264 546.372 433.625 546.372 434.07C546.372 434.514 546.732 434.875 547.177 434.875H548.113L543.725 439.262C543.41 439.576 543.41 440.087 543.725 440.401C543.883 440.558 544.09 440.637 544.296 440.637Z" fill="#585E44"/>
</g>
<defs>
<clipPath id="clip0_642_90">
<path d="M0.423828 24.1441C0.423828 10.8267 11.2198 0.0307617 24.5372 0.0307617H700.729C714.047 0.0307617 724.842 10.8267 724.842 24.1441V475.917C724.842 489.235 714.047 500.031 700.729 500.031H24.5372C11.2198 500.031 0.423828 489.235 0.423828 475.917V24.1441Z" fill="white"/>
</clipPath>
<clipPath id="clip1_642_90">
<rect width="28.6446" height="28.6446" fill="white" transform="translate(155.26 425.166)"/>
</clipPath>
<clipPath id="clip2_642_90">
<rect width="28.6446" height="28.6446" fill="white" transform="translate(210.023 318.497)"/>
</clipPath>
</defs>
</svg>
