<svg width="24" height="24" viewBox="0 0 24 24" fill="none" xmlns="http://www.w3.org/2000/svg">
<path d="M9.47916 7.44421L9.40695 7.76669L7.70999 2.53085L7.71549 2.50669C7.91955 1.59686 8.27936 0.755578 8.78439 0C6.62766 0.960725 5.08889 2.90029 4.64507 5.25104C4.18232 7.69855 4.99612 10.1744 6.82181 11.8735L7.06374 12.0986L1.68729 10.9213L1.66904 10.9046C0.986144 10.2686 0.440939 9.53253 0.0433348 8.71472C-0.17396 10.6871 0.431642 12.6627 1.73161 14.1782C3.116 15.7922 5.10755 16.7176 7.19567 16.7176C7.9013 16.7176 8.61086 16.6116 9.30469 16.4029L9.62106 16.3078L5.89183 20.3554L5.86808 20.3624C5.16014 20.5755 4.4349 20.6834 3.7125 20.6834C3.52575 20.6834 3.33831 20.6736 3.15121 20.6593C4.39696 21.5891 5.86605 22.079 7.41961 22.0788C10.7839 22.0786 13.6821 19.8033 14.468 16.5455L14.5453 16.2243L16.1579 21.4866L16.1521 21.5107C15.9333 22.4173 15.5597 23.2526 15.043 24C17.215 23.0741 18.7848 21.1595 19.2668 18.8161C19.7687 16.3764 18.9947 13.8881 17.197 12.1596L16.9589 11.9309L22.3155 13.1944L22.3331 13.2113C23.0057 13.858 23.5388 14.6027 23.9235 15.4273C24.1757 13.4371 23.5885 11.4354 22.286 9.89199C20.9009 8.25054 18.8965 7.30895 16.7866 7.30895C16.1194 7.30895 15.4468 7.40369 14.788 7.59038L14.4702 7.68031L18.2636 3.69387L18.2874 3.68696C18.9626 3.49572 19.6519 3.39868 20.3358 3.39868C20.5959 3.39868 20.8543 3.41408 21.1101 3.44096C19.8037 2.36405 18.2354 1.79508 16.5564 1.79508C13.1356 1.79515 10.2252 4.11802 9.47916 7.44421Z" fill="#F9FFE5"/>
</svg>
