<svg width="799" height="500" viewBox="0 0 799 500" fill="none" xmlns="http://www.w3.org/2000/svg">
<rect x="0.970703" y="0.195312" width="797.386" height="499.791" rx="23.7948" fill="#F9FFE5"/>
<path d="M476.037 264.371H615.709" stroke="#8D9180" stroke-opacity="0.2" stroke-width="1.264"/>
<path d="M455.812 232.771H489.675C500.845 232.771 509.899 223.716 509.899 212.547V212.547C509.899 201.377 518.954 192.323 530.123 192.323H614.444" stroke="#8D9180" stroke-opacity="0.2" stroke-width="1.264"/>
<path d="M459.605 295.971H489.676C500.846 295.971 509.9 305.025 509.9 316.195V316.195C509.9 327.364 518.955 336.419 530.124 336.419H615.709" stroke="#8D9180" stroke-opacity="0.2" stroke-width="1.264"/>
<path d="M352.166 264.371H199.222" stroke="#8D9180" stroke-opacity="0.2" stroke-width="1.264"/>
<path d="M357.221 241.619H338.526C327.357 241.619 318.302 232.564 318.302 221.395V221.395C318.302 210.225 309.247 201.171 298.078 201.171H198.589" stroke="#8D9180" stroke-opacity="0.2" stroke-width="1.264"/>
<path d="M357.221 287.123H338.526C327.357 287.123 318.302 296.177 318.302 307.347V307.347C318.302 318.516 309.247 327.571 298.078 327.571H199.853" stroke="#8D9180" stroke-opacity="0.2" stroke-width="1.264"/>
<path d="M414.102 386.979L414.102 357.275L414.102 327.571" stroke="#8D9180" stroke-opacity="0.2" stroke-width="1.264"/>
<path d="M414.102 201.171L414.102 171.467L414.102 141.763" stroke="#8D9180" stroke-opacity="0.2" stroke-width="1.264"/>
<rect x="350.902" y="201.171" width="126.4" height="126.4" rx="63.1999" fill="#585E44"/>
<path d="M372.869 267.868L373.719 268.703C373.284 269.34 372.702 269.845 371.974 270.219C371.246 270.583 370.488 270.766 369.699 270.766C368.961 270.766 368.278 270.624 367.652 270.341C367.025 270.058 366.473 269.658 365.998 269.143C365.533 268.627 365.169 268.025 364.906 267.338C364.653 266.65 364.527 265.907 364.527 265.108C364.527 264.299 364.658 263.551 364.921 262.863C365.184 262.175 365.548 261.574 366.013 261.058C366.479 260.542 367.03 260.143 367.667 259.86C368.304 259.577 368.991 259.435 369.73 259.435C370.559 259.435 371.312 259.612 371.99 259.966C372.677 260.32 373.254 260.83 373.719 261.498L372.869 262.332C372.495 261.736 372.04 261.286 371.504 260.982C370.978 260.679 370.377 260.527 369.699 260.527C368.951 260.527 368.278 260.724 367.682 261.119C367.095 261.513 366.63 262.054 366.286 262.742C365.953 263.429 365.786 264.218 365.786 265.108C365.786 265.977 365.953 266.761 366.286 267.459C366.63 268.147 367.095 268.688 367.682 269.082C368.278 269.476 368.951 269.673 369.699 269.673C370.367 269.673 370.968 269.522 371.504 269.218C372.05 268.905 372.505 268.455 372.869 267.868ZM377.264 270.523H376.051V259.678H380.025C380.702 259.678 381.294 259.804 381.799 260.057C382.305 260.31 382.699 260.664 382.983 261.119C383.266 261.574 383.407 262.11 383.407 262.726C383.407 263.333 383.266 263.864 382.983 264.319C382.699 264.774 382.305 265.133 381.799 265.396C381.294 265.649 380.702 265.775 380.025 265.775H377.113V264.713H380.025C380.692 264.713 381.213 264.537 381.587 264.183C381.971 263.829 382.164 263.343 382.164 262.726C382.164 262.1 381.971 261.614 381.587 261.27C381.213 260.916 380.692 260.739 380.025 260.739H377.264V270.523ZM384.408 270.523H382.861L378.993 265.472H380.404L384.408 270.523ZM392.285 269.598H391.39L387.325 260.482H387.78V270.523H386.597V259.678H388.144L392.194 268.854H391.497L395.577 259.678H397.109V270.523H395.926V260.482H396.381L392.285 269.598Z" fill="#F9FFE5"/>
<path d="M424.42 263.996H409.456C408.958 263.996 408.625 263.722 408.625 263.311C408.625 262.901 408.958 262.627 409.456 262.627H424.42C424.919 262.627 425.252 262.901 425.252 263.311C425.252 263.722 424.919 263.996 424.42 263.996Z" fill="#F3FFC9"/>
<path d="M424.417 263.997C424.168 263.997 424.001 263.928 423.835 263.791L418.847 259.683C418.515 259.409 418.515 258.999 418.847 258.725C419.18 258.451 419.678 258.451 420.011 258.725L424.999 262.833C425.331 263.107 425.331 263.517 424.999 263.791C424.833 263.928 424.666 263.997 424.417 263.997Z" fill="#F3FFC9"/>
<path d="M424.754 267.419H409.79C409.292 267.419 408.959 267.145 408.959 266.734C408.959 266.324 409.292 266.05 409.79 266.05H424.754C425.253 266.05 425.586 266.324 425.586 266.734C425.586 267.145 425.253 267.419 424.754 267.419Z" fill="#F3FFC9"/>
<path d="M414.778 271.527C414.529 271.527 414.363 271.459 414.196 271.322L409.208 267.214C408.876 266.94 408.876 266.529 409.208 266.255C409.541 265.981 410.04 265.981 410.372 266.255L415.36 270.363C415.693 270.637 415.693 271.048 415.36 271.322C415.194 271.459 415.028 271.527 414.778 271.527Z" fill="#F3FFC9"/>
<path d="M443.063 270.523H436.268V259.678H443.063V260.739H437.481V269.461H443.063V270.523ZM442.79 265.502H437.33V264.44H442.79V265.502ZM446.665 270.523H445.452V259.678H449.426C450.103 259.678 450.695 259.804 451.2 260.057C451.706 260.31 452.1 260.664 452.383 261.119C452.667 261.574 452.808 262.11 452.808 262.726C452.808 263.333 452.667 263.864 452.383 264.319C452.1 264.774 451.706 265.133 451.2 265.396C450.695 265.649 450.103 265.775 449.426 265.775H446.513V264.713H449.426C450.093 264.713 450.614 264.537 450.988 264.183C451.372 263.829 451.564 263.343 451.564 262.726C451.564 262.1 451.372 261.614 450.988 261.27C450.614 260.916 450.093 260.739 449.426 260.739H446.665V270.523ZM453.809 270.523H452.262L448.394 265.472H449.805L453.809 270.523ZM457.212 270.523H455.998V259.678H459.972C460.65 259.678 461.241 259.804 461.747 260.057C462.252 260.31 462.647 260.664 462.93 261.119C463.213 261.574 463.355 262.11 463.355 262.726C463.355 263.333 463.213 263.864 462.93 264.319C462.647 264.774 462.252 265.133 461.747 265.396C461.241 265.649 460.65 265.775 459.972 265.775H457.06V264.713H459.972C460.64 264.713 461.16 264.537 461.535 264.183C461.919 263.829 462.111 263.343 462.111 262.726C462.111 262.1 461.919 261.614 461.535 261.27C461.16 260.916 460.64 260.739 459.972 260.739H457.212V270.523Z" fill="#F9FFE5"/>
<path d="M391.215 53.0183L392.206 53.9916C391.699 54.7348 391.02 55.3247 390.171 55.7612C389.321 56.1859 388.437 56.3982 387.516 56.3982C386.655 56.3982 385.859 56.2331 385.127 55.9028C384.396 55.5724 383.753 55.1064 383.199 54.5048C382.656 53.9031 382.231 53.2012 381.925 52.399C381.63 51.5967 381.482 50.7296 381.482 49.7976C381.482 48.8539 381.635 47.9809 381.942 47.1786C382.249 46.3764 382.674 45.6745 383.216 45.0728C383.759 44.4712 384.402 44.0052 385.145 43.6748C385.888 43.3445 386.691 43.1793 387.552 43.1793C388.519 43.1793 389.398 43.3858 390.189 43.7987C390.991 44.2116 391.663 44.8074 392.206 45.586L391.215 46.5593C390.778 45.8632 390.248 45.3383 389.622 44.9843C389.009 44.6304 388.307 44.4535 387.516 44.4535C386.643 44.4535 385.859 44.6835 385.163 45.1436C384.479 45.6037 383.936 46.2349 383.535 47.0371C383.146 47.8393 382.951 48.7595 382.951 49.7976C382.951 50.8122 383.146 51.7265 383.535 52.5405C383.936 53.3427 384.479 53.9739 385.163 54.434C385.859 54.8941 386.643 55.1241 387.516 55.1241C388.295 55.1241 388.997 54.9472 389.622 54.5933C390.259 54.2275 390.79 53.7026 391.215 53.0183ZM398.36 56.3982C397.522 56.3982 396.773 56.1977 396.112 55.7966C395.452 55.3955 394.933 54.8469 394.555 54.1509C394.189 53.4548 394.006 52.6585 394.006 51.7619C394.006 50.8653 394.189 50.069 394.555 49.3729C394.933 48.6769 395.452 48.1283 396.112 47.7272C396.773 47.3261 397.522 47.1256 398.36 47.1256C399.209 47.1256 399.964 47.3261 400.625 47.7272C401.285 48.1283 401.799 48.6769 402.164 49.3729C402.542 50.069 402.731 50.8653 402.731 51.7619C402.731 52.6585 402.542 53.4548 402.164 54.1509C401.799 54.8469 401.285 55.3955 400.625 55.7966C399.964 56.1977 399.209 56.3982 398.36 56.3982ZM398.36 55.2126C398.95 55.2126 399.463 55.0652 399.899 54.7702C400.336 54.4753 400.678 54.0683 400.926 53.5492C401.173 53.0301 401.297 52.4343 401.297 51.7619C401.297 51.0777 401.173 50.4819 400.926 49.9746C400.678 49.4555 400.336 49.0485 399.899 48.7536C399.463 48.4587 398.95 48.3112 398.36 48.3112C397.782 48.3112 397.274 48.4587 396.838 48.7536C396.401 49.0485 396.059 49.4555 395.811 49.9746C395.564 50.4819 395.44 51.0777 395.44 51.7619C395.44 52.4343 395.564 53.0301 395.811 53.5492C396.059 54.0683 396.401 54.4753 396.838 54.7702C397.274 55.0652 397.782 55.2126 398.36 55.2126ZM412.757 56.1151H411.394V51.1071C411.394 50.187 411.2 49.4968 410.81 49.0367C410.433 48.5648 409.92 48.3289 409.271 48.3289C408.799 48.3289 408.356 48.4645 407.944 48.7359C407.531 48.9954 407.194 49.4142 406.935 49.9923C406.675 50.5586 406.546 51.2959 406.546 52.2043V56.1151H405.183V47.4087H406.528V50.0631H406.298C406.428 49.3434 406.652 48.7713 406.97 48.3466C407.301 47.9101 407.69 47.5974 408.138 47.4087C408.587 47.2199 409.052 47.1256 409.536 47.1256C410.539 47.1256 411.323 47.4559 411.89 48.1165C412.468 48.7654 412.757 49.7092 412.757 50.9479V56.1151ZM420.134 56.1151H418.187C417.574 56.1151 417.108 55.9499 416.789 55.6196C416.471 55.2775 416.311 54.7938 416.311 54.1686V44.8605H417.674V54.0447C417.674 54.3278 417.745 54.552 417.886 54.7171C418.028 54.8705 418.24 54.9472 418.523 54.9472H420.134V56.1151ZM420.01 48.5766H414.648V47.4087H420.01V48.5766ZM429.069 56.1151H427.777V54.4163L427.759 53.9208V50.6824C427.759 49.951 427.535 49.3729 427.087 48.9482C426.65 48.5117 426.048 48.2935 425.282 48.2935C424.279 48.2935 423.429 48.7123 422.733 49.5499L421.849 48.6828C422.84 47.6446 424.013 47.1256 425.37 47.1256C426.113 47.1256 426.762 47.273 427.317 47.568C427.871 47.8511 428.302 48.2581 428.608 48.789C428.915 49.3081 429.069 49.9215 429.069 50.6294V56.1151ZM424.698 56.3982C424.084 56.3982 423.541 56.2803 423.07 56.0443C422.598 55.8084 422.226 55.484 421.955 55.071C421.695 54.6463 421.565 54.1686 421.565 53.6377C421.565 52.7529 421.902 52.0509 422.574 51.5319C423.258 51.0128 424.173 50.7532 425.317 50.7532H427.918V51.8504H425.476C424.686 51.8504 424.072 52.0037 423.636 52.3105C423.199 52.6054 422.981 53.0301 422.981 53.5846C422.981 54.0919 423.152 54.4989 423.494 54.8056C423.848 55.1123 424.314 55.2657 424.892 55.2657C425.459 55.2657 425.966 55.1477 426.414 54.9118C426.862 54.664 427.222 54.3278 427.494 53.9031C427.765 53.4666 427.918 52.9711 427.954 52.4167L428.467 52.7175C428.467 53.4253 428.302 54.0565 427.971 54.611C427.653 55.1654 427.21 55.6019 426.644 55.9205C426.078 56.239 425.429 56.3982 424.698 56.3982ZM438.235 53.7969L439.19 54.6994C438.789 55.2421 438.293 55.6609 437.704 55.9558C437.114 56.2508 436.453 56.3982 435.722 56.3982C434.872 56.3982 434.117 56.2036 433.457 55.8143C432.808 55.4132 432.295 54.8646 431.917 54.1686C431.551 53.4725 431.368 52.6703 431.368 51.7619C431.368 50.8535 431.557 50.0513 431.935 49.3552C432.312 48.6592 432.831 48.1165 433.492 47.7272C434.153 47.3261 434.908 47.1256 435.757 47.1256C437.232 47.1256 438.382 47.6918 439.208 48.8244L438.235 49.7269C437.987 49.2786 437.645 48.9305 437.208 48.6828C436.772 48.4351 436.276 48.3112 435.722 48.3112C434.86 48.3112 434.159 48.6238 433.616 49.2491C433.073 49.8743 432.802 50.7119 432.802 51.7619C432.802 52.8001 433.073 53.6377 433.616 54.2747C434.17 54.9 434.89 55.2126 435.775 55.2126C436.306 55.2126 436.778 55.0946 437.19 54.8587C437.603 54.611 437.951 54.257 438.235 53.7969ZM445.935 56.1151H443.988C443.375 56.1151 442.909 55.9499 442.59 55.6196C442.272 55.2775 442.112 54.7938 442.112 54.1686V44.8605H443.475V54.0447C443.475 54.3278 443.546 54.552 443.687 54.7171C443.829 54.8705 444.041 54.9472 444.324 54.9472H445.935V56.1151ZM445.811 48.5766H440.449V47.4087H445.811V48.5766ZM368.684 78.1151H367.268V65.4625H368.684V78.1151ZM379.637 78.1151H378.275V73.1071C378.275 72.187 378.08 71.4968 377.691 71.0367C377.313 70.5648 376.8 70.3289 376.151 70.3289C375.679 70.3289 375.237 70.4645 374.824 70.7359C374.411 70.9954 374.075 71.4142 373.815 71.9923C373.556 72.5586 373.426 73.2959 373.426 74.2043V78.1151H372.063V69.4087H373.408V72.0631H373.178C373.308 71.3434 373.532 70.7713 373.851 70.3466C374.181 69.9101 374.57 69.5974 375.019 69.4087C375.467 69.2199 375.933 69.1256 376.417 69.1256C377.419 69.1256 378.204 69.4559 378.77 70.1165C379.348 70.7654 379.637 71.7092 379.637 72.9479V78.1151ZM384.244 78.1151H382.882V67.4975C382.882 66.0818 383.554 65.374 384.899 65.374H386.616V66.5065H385.235C384.881 66.5065 384.628 66.595 384.474 66.772C384.321 66.9371 384.244 67.2085 384.244 67.586V78.1151ZM386.616 70.5766H381.218V69.4087H386.616V70.5766ZM391.853 78.3982C391.016 78.3982 390.267 78.1977 389.606 77.7966C388.945 77.3955 388.426 76.8469 388.049 76.1509C387.683 75.4548 387.5 74.6585 387.5 73.7619C387.5 72.8653 387.683 72.069 388.049 71.3729C388.426 70.6769 388.945 70.1283 389.606 69.7272C390.267 69.3261 391.016 69.1256 391.853 69.1256C392.703 69.1256 393.458 69.3261 394.118 69.7272C394.779 70.1283 395.292 70.6769 395.658 71.3729C396.035 72.069 396.224 72.8653 396.224 73.7619C396.224 74.6585 396.035 75.4548 395.658 76.1509C395.292 76.8469 394.779 77.3955 394.118 77.7966C393.458 78.1977 392.703 78.3982 391.853 78.3982ZM391.853 77.2126C392.443 77.2126 392.956 77.0652 393.393 76.7702C393.829 76.4753 394.171 76.0683 394.419 75.5492C394.667 75.0301 394.791 74.4343 394.791 73.7619C394.791 73.0777 394.667 72.4819 394.419 71.9746C394.171 71.4555 393.829 71.0485 393.393 70.7536C392.956 70.4587 392.443 70.3112 391.853 70.3112C391.275 70.3112 390.768 70.4587 390.331 70.7536C389.895 71.0485 389.553 71.4555 389.305 71.9746C389.057 72.4819 388.933 73.0777 388.933 73.7619C388.933 74.4343 389.057 75.0301 389.305 75.5492C389.553 76.0683 389.895 76.4753 390.331 76.7702C390.768 77.0652 391.275 77.2126 391.853 77.2126ZM403.401 69.2671V70.5766H403.101C402.558 70.5766 402.051 70.7182 401.579 71.0013C401.119 71.2727 400.747 71.6974 400.464 72.2754C400.181 72.8417 400.039 73.5731 400.039 74.4697V78.1151H398.677V69.4087H400.021V72.187H399.791C399.921 71.4673 400.157 70.8952 400.499 70.4704C400.853 70.0457 401.26 69.739 401.72 69.5503C402.18 69.3615 402.646 69.2671 403.118 69.2671H403.401ZM418.46 78.1151H417.098V73.0895C417.098 72.2165 416.927 71.5381 416.585 71.0544C416.242 70.5707 415.759 70.3289 415.133 70.3289C414.343 70.3289 413.718 70.6769 413.258 71.3729C412.798 72.069 412.568 73.0128 412.568 74.2043V78.1151H411.205V73.0895C411.205 72.2165 411.034 71.5381 410.692 71.0544C410.35 70.5707 409.866 70.3289 409.241 70.3289C408.462 70.3289 407.843 70.6769 407.383 71.3729C406.923 72.069 406.692 73.0128 406.692 74.2043V78.1151H405.33V69.4087H406.675V71.603L406.551 71.5853C406.681 71.0662 406.881 70.6238 407.153 70.2581C407.436 69.8924 407.778 69.6151 408.179 69.4264C408.58 69.2258 409.028 69.1256 409.524 69.1256C410.291 69.1256 410.91 69.3556 411.382 69.8157C411.866 70.2758 412.184 70.9305 412.337 71.78H412.125C412.255 71.2137 412.467 70.7359 412.762 70.3466C413.057 69.9455 413.423 69.6446 413.859 69.4441C414.296 69.2317 414.785 69.1256 415.328 69.1256C416.331 69.1256 417.104 69.4559 417.646 70.1165C418.189 70.7772 418.46 71.721 418.46 72.9479V78.1151ZM428.075 78.1151H426.783V76.4163L426.765 75.9208V72.6824C426.765 71.951 426.541 71.3729 426.093 70.9482C425.656 70.5117 425.055 70.2935 424.288 70.2935C423.285 70.2935 422.436 70.7123 421.74 71.5499L420.855 70.6828C421.846 69.6446 423.02 69.1256 424.376 69.1256C425.12 69.1256 425.768 69.273 426.323 69.568C426.877 69.8511 427.308 70.2581 427.615 70.789C427.922 71.3081 428.075 71.9215 428.075 72.6294V78.1151ZM423.704 78.3982C423.091 78.3982 422.548 78.2803 422.076 78.0443C421.604 77.8084 421.232 77.484 420.961 77.071C420.702 76.6463 420.572 76.1686 420.572 75.6377C420.572 74.7529 420.908 74.0509 421.58 73.5319C422.265 73.0128 423.179 72.7532 424.323 72.7532H426.925V73.8504H424.483C423.692 73.8504 423.079 74.0037 422.642 74.3105C422.206 74.6054 421.987 75.0301 421.987 75.5846C421.987 76.0919 422.159 76.4989 422.501 76.8056C422.855 77.1123 423.321 77.2657 423.899 77.2657C424.465 77.2657 424.972 77.1477 425.42 76.9118C425.869 76.664 426.229 76.3278 426.5 75.9031C426.771 75.4666 426.925 74.9711 426.96 74.4167L427.473 74.7175C427.473 75.4253 427.308 76.0565 426.978 76.611C426.659 77.1654 426.217 77.6019 425.651 77.9205C425.084 78.239 424.435 78.3982 423.704 78.3982ZM435.454 78.1151H433.507C432.894 78.1151 432.428 77.9499 432.109 77.6196C431.79 77.2775 431.631 76.7938 431.631 76.1686V66.8605H432.994V76.0447C432.994 76.3278 433.065 76.552 433.206 76.7171C433.348 76.8705 433.56 76.9472 433.843 76.9472H435.454V78.1151ZM435.33 70.5766H429.968V69.4087H435.33V70.5766ZM438.991 78.1151H437.628V69.4087H438.991V78.1151ZM439.257 66.1172C439.257 66.4004 439.162 66.6363 438.973 66.8251C438.796 67.002 438.572 67.0905 438.301 67.0905C438.03 67.0905 437.8 67.002 437.611 66.8251C437.434 66.6363 437.345 66.4004 437.345 66.1172C437.345 65.8341 437.434 65.6041 437.611 65.4271C437.8 65.2383 438.03 65.144 438.301 65.144C438.572 65.144 438.796 65.2383 438.973 65.4271C439.162 65.6041 439.257 65.8341 439.257 66.1172ZM445.805 78.3982C444.968 78.3982 444.219 78.1977 443.558 77.7966C442.897 77.3955 442.378 76.8469 442.001 76.1509C441.635 75.4548 441.452 74.6585 441.452 73.7619C441.452 72.8653 441.635 72.069 442.001 71.3729C442.378 70.6769 442.897 70.1283 443.558 69.7272C444.219 69.3261 444.968 69.1256 445.805 69.1256C446.655 69.1256 447.41 69.3261 448.07 69.7272C448.731 70.1283 449.244 70.6769 449.61 71.3729C449.987 72.069 450.176 72.8653 450.176 73.7619C450.176 74.6585 449.987 75.4548 449.61 76.1509C449.244 76.8469 448.731 77.3955 448.07 77.7966C447.41 78.1977 446.655 78.3982 445.805 78.3982ZM445.805 77.2126C446.395 77.2126 446.908 77.0652 447.345 76.7702C447.781 76.4753 448.123 76.0683 448.371 75.5492C448.619 75.0301 448.743 74.4343 448.743 73.7619C448.743 73.0777 448.619 72.4819 448.371 71.9746C448.123 71.4555 447.781 71.0485 447.345 70.7536C446.908 70.4587 446.395 70.3112 445.805 70.3112C445.227 70.3112 444.72 70.4587 444.283 70.7536C443.847 71.0485 443.505 71.4555 443.257 71.9746C443.009 72.4819 442.885 73.0777 442.885 73.7619C442.885 74.4343 443.009 75.0301 443.257 75.5492C443.505 76.0683 443.847 76.4753 444.283 76.7702C444.72 77.0652 445.227 77.2126 445.805 77.2126ZM460.202 78.1151H458.84V73.1071C458.84 72.187 458.645 71.4968 458.256 71.0367C457.878 70.5648 457.365 70.3289 456.716 70.3289C456.244 70.3289 455.802 70.4645 455.389 70.7359C454.976 70.9954 454.64 71.4142 454.38 71.9923C454.121 72.5586 453.991 73.2959 453.991 74.2043V78.1151H452.629V69.4087H453.973V72.0631H453.743C453.873 71.3434 454.097 70.7713 454.416 70.3466C454.746 69.9101 455.136 69.5974 455.584 69.4087C456.032 69.2199 456.498 69.1256 456.982 69.1256C457.985 69.1256 458.769 69.4559 459.335 70.1165C459.913 70.7654 460.202 71.7092 460.202 72.9479V78.1151Z" fill="#585E44"/>
<path d="M612.146 155.971H610.731V143.318H615.367C616.157 143.318 616.848 143.466 617.438 143.761C618.027 144.056 618.487 144.469 618.818 145C619.148 145.53 619.313 146.156 619.313 146.875C619.313 147.583 619.148 148.203 618.818 148.733C618.487 149.264 618.027 149.683 617.438 149.99C616.848 150.285 616.157 150.432 615.367 150.432H611.969V149.194H615.367C616.146 149.194 616.753 148.987 617.19 148.574C617.638 148.161 617.862 147.595 617.862 146.875C617.862 146.144 617.638 145.578 617.19 145.177C616.753 144.764 616.146 144.557 615.367 144.557H612.146V155.971ZM626.472 147.123V148.433H626.171C625.629 148.433 625.121 148.574 624.65 148.857C624.189 149.129 623.818 149.553 623.535 150.131C623.252 150.698 623.11 151.429 623.11 152.326V155.971H621.747V147.265H623.092V150.043H622.862C622.992 149.323 623.228 148.751 623.57 148.326C623.924 147.902 624.331 147.595 624.791 147.406C625.251 147.217 625.717 147.123 626.189 147.123H626.472ZM629.763 155.971H628.401V147.265H629.763V155.971ZM630.029 143.973C630.029 144.256 629.934 144.492 629.746 144.681C629.569 144.858 629.345 144.946 629.073 144.946C628.802 144.946 628.572 144.858 628.383 144.681C628.206 144.492 628.118 144.256 628.118 143.973C628.118 143.69 628.206 143.46 628.383 143.283C628.572 143.094 628.802 143 629.073 143C629.345 143 629.569 143.094 629.746 143.283C629.934 143.46 630.029 143.69 630.029 143.973ZM639.09 153.653L640.046 154.555C639.645 155.098 639.149 155.517 638.559 155.812C637.97 156.107 637.309 156.254 636.578 156.254C635.728 156.254 634.973 156.06 634.312 155.67C633.664 155.269 633.15 154.721 632.773 154.025C632.407 153.328 632.224 152.526 632.224 151.618C632.224 150.709 632.413 149.907 632.791 149.211C633.168 148.515 633.687 147.972 634.348 147.583C635.008 147.182 635.763 146.982 636.613 146.982C638.088 146.982 639.238 147.548 640.064 148.68L639.09 149.583C638.843 149.135 638.5 148.787 638.064 148.539C637.627 148.291 637.132 148.167 636.578 148.167C635.716 148.167 635.014 148.48 634.472 149.105C633.929 149.73 633.658 150.568 633.658 151.618C633.658 152.656 633.929 153.494 634.472 154.131C635.026 154.756 635.746 155.069 636.631 155.069C637.161 155.069 637.633 154.951 638.046 154.715C638.459 154.467 638.807 154.113 639.09 153.653ZM643.623 155.971H642.26V147.265H643.623V155.971ZM643.888 143.973C643.888 144.256 643.794 144.492 643.605 144.681C643.428 144.858 643.204 144.946 642.933 144.946C642.661 144.946 642.431 144.858 642.243 144.681C642.066 144.492 641.977 144.256 641.977 143.973C641.977 143.69 642.066 143.46 642.243 143.283C642.431 143.094 642.661 143 642.933 143C643.204 143 643.428 143.094 643.605 143.283C643.794 143.46 643.888 143.69 643.888 143.973ZM654.206 155.971H652.844V150.963C652.844 150.043 652.649 149.353 652.26 148.893C651.882 148.421 651.369 148.185 650.72 148.185C650.248 148.185 649.806 148.321 649.393 148.592C648.98 148.851 648.644 149.27 648.384 149.848C648.125 150.415 647.995 151.152 647.995 152.06V155.971H646.632V147.265H647.977V149.919H647.747C647.877 149.199 648.101 148.627 648.42 148.203C648.75 147.766 649.139 147.453 649.588 147.265C650.036 147.076 650.502 146.982 650.986 146.982C651.988 146.982 652.773 147.312 653.339 147.972C653.917 148.621 654.206 149.565 654.206 150.804V155.971ZM665.158 155.21C665.158 156.071 664.969 156.838 664.591 157.511C664.226 158.183 663.713 158.714 663.052 159.103C662.403 159.493 661.66 159.687 660.822 159.687C660.067 159.687 659.371 159.54 658.734 159.245C658.109 158.962 657.578 158.555 657.141 158.024L658.044 157.104C658.728 158.036 659.648 158.502 660.805 158.502C661.394 158.502 661.913 158.36 662.362 158.077C662.81 157.806 663.158 157.422 663.406 156.927C663.665 156.431 663.795 155.859 663.795 155.21V151.866C663.795 151.134 663.671 150.491 663.424 149.937C663.176 149.382 662.828 148.952 662.379 148.645C661.943 148.326 661.436 148.167 660.858 148.167C660.291 148.167 659.784 148.315 659.336 148.61C658.899 148.893 658.557 149.288 658.309 149.795C658.062 150.302 657.938 150.886 657.938 151.547C657.938 152.208 658.062 152.792 658.309 153.299C658.569 153.794 658.923 154.184 659.371 154.467C659.819 154.75 660.333 154.892 660.911 154.892C661.453 154.892 661.943 154.768 662.379 154.52C662.828 154.272 663.188 153.93 663.459 153.494C663.742 153.057 663.907 152.568 663.954 152.025L664.238 152.379C664.32 153.075 664.214 153.706 663.919 154.272C663.636 154.827 663.217 155.269 662.663 155.599C662.108 155.918 661.459 156.077 660.716 156.077C659.902 156.077 659.177 155.883 658.539 155.493C657.902 155.104 657.401 154.567 657.035 153.883C656.681 153.199 656.504 152.42 656.504 151.547C656.504 150.686 656.687 149.913 657.053 149.229C657.419 148.533 657.914 147.984 658.539 147.583C659.165 147.182 659.873 146.982 660.663 146.982C661.595 146.982 662.374 147.247 662.999 147.778C663.624 148.297 664.008 149.005 664.149 149.901H663.813V147.265H665.158V155.21Z" fill="#585E44"/>
<path d="M685.148 259.902C684.263 259.902 683.444 259.737 682.689 259.407C681.945 259.076 681.291 258.616 680.724 258.026C680.17 257.425 679.739 256.723 679.432 255.92C679.126 255.106 678.972 254.228 678.972 253.284C678.972 252.34 679.126 251.467 679.432 250.665C679.739 249.863 680.17 249.166 680.724 248.577C681.291 247.975 681.945 247.509 682.689 247.179C683.444 246.848 684.263 246.683 685.148 246.683C686.033 246.683 686.853 246.848 687.608 247.179C688.363 247.509 689.018 247.975 689.572 248.577C690.139 249.166 690.575 249.863 690.882 250.665C691.188 251.467 691.342 252.34 691.342 253.284C691.342 254.228 691.188 255.106 690.882 255.92C690.575 256.723 690.139 257.425 689.572 258.026C689.018 258.616 688.363 259.076 687.608 259.407C686.853 259.737 686.033 259.902 685.148 259.902ZM685.148 258.628C686.08 258.628 686.9 258.398 687.608 257.938C688.316 257.478 688.87 256.847 689.271 256.044C689.673 255.23 689.873 254.31 689.873 253.284C689.873 252.246 689.673 251.331 689.271 250.541C688.87 249.739 688.316 249.107 687.608 248.647C686.9 248.187 686.08 247.957 685.148 247.957C684.228 247.957 683.414 248.187 682.706 248.647C681.998 249.107 681.444 249.739 681.043 250.541C680.642 251.331 680.441 252.246 680.441 253.284C680.441 254.31 680.642 255.23 681.043 256.044C681.444 256.847 681.998 257.478 682.706 257.938C683.414 258.398 684.228 258.628 685.148 258.628ZM698.723 250.771V252.08H698.422C697.879 252.08 697.372 252.222 696.9 252.505C696.44 252.776 696.068 253.201 695.785 253.779C695.502 254.345 695.361 255.077 695.361 255.974V259.619H693.998V250.912H695.343V253.691H695.113C695.243 252.971 695.479 252.399 695.821 251.974C696.175 251.55 696.582 251.243 697.042 251.054C697.502 250.865 697.968 250.771 698.44 250.771H698.723ZM707.066 259.619V257.265L707.048 257.23V255.513C707.048 254.782 706.924 254.139 706.676 253.585C706.429 253.03 706.08 252.599 705.632 252.293C705.196 251.974 704.688 251.815 704.11 251.815C703.544 251.815 703.037 251.962 702.588 252.257C702.152 252.552 701.81 252.959 701.562 253.478C701.314 253.997 701.191 254.593 701.191 255.266C701.191 255.938 701.314 256.534 701.562 257.053C701.822 257.572 702.176 257.979 702.624 258.274C703.072 258.569 703.585 258.716 704.163 258.716C704.706 258.716 705.196 258.593 705.632 258.345C706.08 258.097 706.44 257.761 706.712 257.336C706.995 256.9 707.16 256.404 707.207 255.85L707.473 256.204C707.555 256.9 707.443 257.531 707.136 258.097C706.841 258.652 706.417 259.094 705.862 259.424C705.308 259.743 704.677 259.902 703.969 259.902C703.155 259.902 702.429 259.701 701.792 259.3C701.167 258.899 700.671 258.351 700.306 257.655C699.94 256.959 699.757 256.162 699.757 255.266C699.757 254.381 699.934 253.59 700.288 252.894C700.654 252.187 701.149 251.632 701.774 251.231C702.412 250.83 703.125 250.629 703.916 250.629C704.506 250.629 705.048 250.753 705.544 251.001C706.039 251.249 706.452 251.591 706.782 252.027C707.113 252.464 707.319 252.971 707.402 253.549H707.048V246.878H708.41V259.619H707.066ZM718.036 257.124L718.956 258.009C718.496 258.646 717.953 259.123 717.328 259.442C716.715 259.749 716.036 259.902 715.293 259.902C714.42 259.902 713.647 259.701 712.975 259.3C712.314 258.899 711.795 258.351 711.418 257.655C711.052 256.947 710.869 256.15 710.869 255.266C710.869 254.381 711.052 253.59 711.418 252.894C711.795 252.187 712.302 251.632 712.939 251.231C713.588 250.83 714.314 250.629 715.116 250.629C715.906 250.629 716.602 250.824 717.204 251.213C717.818 251.603 718.295 252.145 718.638 252.841C718.98 253.526 719.151 254.316 719.151 255.213V255.319H717.77V255.195C717.77 254.18 717.529 253.366 717.045 252.753C716.561 252.128 715.918 251.815 715.116 251.815C714.573 251.815 714.084 251.962 713.647 252.257C713.223 252.541 712.886 252.942 712.639 253.461C712.403 253.98 712.285 254.576 712.285 255.248C712.285 255.92 712.409 256.516 712.656 257.035C712.916 257.554 713.276 257.967 713.736 258.274C714.208 258.569 714.756 258.716 715.381 258.716C715.924 258.716 716.414 258.587 716.85 258.327C717.287 258.068 717.682 257.666 718.036 257.124ZM719.151 255.743H711.948V254.629H718.885L719.151 255.213V255.743ZM726.338 250.771V252.08H726.037C725.495 252.08 724.987 252.222 724.516 252.505C724.056 252.776 723.684 253.201 723.401 253.779C723.118 254.345 722.976 255.077 722.976 255.974V259.619H721.613V250.912H722.958V253.691H722.728C722.858 252.971 723.094 252.399 723.436 251.974C723.79 251.55 724.197 251.243 724.657 251.054C725.117 250.865 725.583 250.771 726.055 250.771H726.338ZM683.029 281.619H681.667V276.611C681.667 275.726 681.478 275.042 681.1 274.558C680.735 274.075 680.216 273.833 679.543 273.833C678.717 273.833 678.057 274.181 677.561 274.877C677.066 275.573 676.818 276.517 676.818 277.708V281.619H675.455V268.878H676.818V275.567H676.588C676.694 274.942 676.889 274.411 677.172 273.974C677.467 273.538 677.832 273.207 678.269 272.983C678.717 272.747 679.23 272.629 679.809 272.629C680.823 272.629 681.613 272.966 682.18 273.638C682.746 274.299 683.029 275.237 683.029 276.452V281.619ZM687.238 281.619H685.876V272.912H687.238V281.619ZM687.504 269.621C687.504 269.904 687.41 270.14 687.221 270.329C687.044 270.506 686.82 270.594 686.548 270.594C686.277 270.594 686.047 270.506 685.858 270.329C685.681 270.14 685.593 269.904 685.593 269.621C685.593 269.338 685.681 269.108 685.858 268.931C686.047 268.742 686.277 268.648 686.548 268.648C686.82 268.648 687.044 268.742 687.221 268.931C687.41 269.108 687.504 269.338 687.504 269.621ZM689.222 280.274L690.106 279.336C690.484 279.773 690.915 280.121 691.398 280.38C691.894 280.628 692.448 280.752 693.062 280.752C693.699 280.752 694.212 280.604 694.601 280.309C695.002 280.014 695.203 279.631 695.203 279.159C695.203 278.77 695.032 278.463 694.69 278.239C694.359 278.003 693.787 277.826 692.973 277.708C691.734 277.508 690.861 277.218 690.354 276.841C689.859 276.463 689.611 275.938 689.611 275.266C689.611 274.735 689.753 274.275 690.036 273.886C690.319 273.485 690.714 273.178 691.221 272.966C691.729 272.741 692.313 272.629 692.973 272.629C693.705 272.629 694.359 272.771 694.937 273.054C695.516 273.337 696.029 273.738 696.477 274.257L695.592 275.195C695.262 274.759 694.878 274.417 694.442 274.169C694.017 273.909 693.528 273.78 692.973 273.78C692.395 273.78 691.923 273.915 691.558 274.187C691.192 274.446 691.009 274.782 691.009 275.195C691.009 275.419 691.074 275.614 691.204 275.779C691.333 275.933 691.552 276.062 691.858 276.169C692.165 276.275 692.578 276.369 693.097 276.452C694.383 276.64 695.291 276.947 695.822 277.372C696.353 277.785 696.619 278.375 696.619 279.141C696.619 279.684 696.465 280.168 696.158 280.593C695.852 281.005 695.427 281.33 694.884 281.566C694.353 281.79 693.746 281.902 693.062 281.902C692.212 281.902 691.481 281.76 690.867 281.477C690.254 281.182 689.705 280.781 689.222 280.274ZM703.488 281.619H701.541C700.928 281.619 700.462 281.454 700.143 281.123C699.825 280.781 699.666 280.298 699.666 279.672V270.364H701.028V279.548C701.028 279.832 701.099 280.056 701.241 280.221C701.382 280.374 701.594 280.451 701.878 280.451H703.488V281.619ZM703.364 274.08H698.002V272.912H703.364V274.08ZM709.122 281.902C708.284 281.902 707.535 281.701 706.875 281.3C706.214 280.899 705.695 280.351 705.317 279.655C704.952 278.959 704.769 278.162 704.769 277.266C704.769 276.369 704.952 275.573 705.317 274.877C705.695 274.181 706.214 273.632 706.875 273.231C707.535 272.83 708.284 272.629 709.122 272.629C709.971 272.629 710.726 272.83 711.387 273.231C712.048 273.632 712.561 274.181 712.927 274.877C713.304 275.573 713.493 276.369 713.493 277.266C713.493 278.162 713.304 278.959 712.927 279.655C712.561 280.351 712.048 280.899 711.387 281.3C710.726 281.701 709.971 281.902 709.122 281.902ZM709.122 280.716C709.712 280.716 710.225 280.569 710.661 280.274C711.098 279.979 711.44 279.572 711.688 279.053C711.936 278.534 712.059 277.938 712.059 277.266C712.059 276.581 711.936 275.986 711.688 275.478C711.44 274.959 711.098 274.552 710.661 274.257C710.225 273.962 709.712 273.815 709.122 273.815C708.544 273.815 708.037 273.962 707.6 274.257C707.164 274.552 706.821 274.959 706.574 275.478C706.326 275.986 706.202 276.581 706.202 277.266C706.202 277.938 706.326 278.534 706.574 279.053C706.821 279.572 707.164 279.979 707.6 280.274C708.037 280.569 708.544 280.716 709.122 280.716ZM720.67 272.771V274.08H720.369C719.827 274.08 719.319 274.222 718.847 274.505C718.387 274.776 718.016 275.201 717.733 275.779C717.449 276.345 717.308 277.077 717.308 277.974V281.619H715.945V272.912H717.29V275.691H717.06C717.19 274.971 717.426 274.399 717.768 273.974C718.122 273.55 718.529 273.243 718.989 273.054C719.449 272.865 719.915 272.771 720.387 272.771H720.67ZM728.668 272.912H730.049L725.908 283.158C725.672 283.748 725.371 284.208 725.005 284.539C724.651 284.881 724.091 285.052 723.324 285.052H722.298V283.884H723.324C723.725 283.884 724.038 283.79 724.262 283.601C724.486 283.412 724.663 283.135 724.793 282.769L725.2 281.654L721.661 272.912H723.112L726.138 280.876H725.625L728.668 272.912Z" fill="#585E44"/>
<path d="M599.788 382.227V369.574H603.858C605.085 369.574 606.158 369.846 607.078 370.388C608.01 370.931 608.736 371.68 609.255 372.636C609.786 373.579 610.051 374.665 610.051 375.892C610.051 377.119 609.786 378.21 609.255 379.165C608.736 380.121 608.01 380.87 607.078 381.413C606.158 381.955 605.085 382.227 603.858 382.227H599.788ZM601.203 380.97H603.858C604.825 380.97 605.657 380.758 606.353 380.333C607.061 379.909 607.609 379.313 607.999 378.546C608.388 377.779 608.583 376.894 608.583 375.892C608.583 374.889 608.388 374.01 607.999 373.255C607.609 372.488 607.061 371.892 606.353 371.468C605.657 371.043 604.825 370.831 603.858 370.831H601.203V380.97ZM614.068 382.227H612.705V373.52H614.068V382.227ZM614.333 370.229C614.333 370.512 614.239 370.748 614.05 370.937C613.873 371.114 613.649 371.202 613.378 371.202C613.106 371.202 612.876 371.114 612.688 370.937C612.511 370.748 612.422 370.512 612.422 370.229C612.422 369.946 612.511 369.716 612.688 369.539C612.876 369.35 613.106 369.256 613.378 369.256C613.649 369.256 613.873 369.35 614.05 369.539C614.239 369.716 614.333 369.946 614.333 370.229ZM616.051 380.882L616.936 379.944C617.313 380.381 617.744 380.729 618.228 380.988C618.723 381.236 619.278 381.36 619.891 381.36C620.528 381.36 621.041 381.212 621.431 380.917C621.832 380.622 622.032 380.239 622.032 379.767C622.032 379.378 621.861 379.071 621.519 378.847C621.189 378.611 620.617 378.434 619.803 378.316C618.564 378.115 617.691 377.826 617.184 377.449C616.688 377.071 616.44 376.546 616.44 375.874C616.44 375.343 616.582 374.883 616.865 374.494C617.148 374.093 617.544 373.786 618.051 373.573C618.558 373.349 619.142 373.237 619.803 373.237C620.534 373.237 621.189 373.379 621.767 373.662C622.345 373.945 622.858 374.346 623.307 374.865L622.422 375.803C622.091 375.367 621.708 375.025 621.271 374.777C620.847 374.517 620.357 374.387 619.803 374.387C619.225 374.387 618.753 374.523 618.387 374.794C618.021 375.054 617.838 375.39 617.838 375.803C617.838 376.027 617.903 376.222 618.033 376.387C618.163 376.54 618.381 376.67 618.688 376.776C618.995 376.883 619.408 376.977 619.927 377.06C621.212 377.248 622.121 377.555 622.652 377.98C623.183 378.393 623.448 378.983 623.448 379.749C623.448 380.292 623.295 380.776 622.988 381.2C622.681 381.613 622.257 381.938 621.714 382.174C621.183 382.398 620.575 382.51 619.891 382.51C619.042 382.51 618.31 382.368 617.697 382.085C617.083 381.79 616.535 381.389 616.051 380.882ZM632.105 379.909L633.06 380.811C632.659 381.354 632.164 381.773 631.574 382.068C630.984 382.362 630.323 382.51 629.592 382.51C628.743 382.51 627.987 382.315 627.327 381.926C626.678 381.525 626.165 380.976 625.787 380.28C625.422 379.584 625.239 378.782 625.239 377.874C625.239 376.965 625.427 376.163 625.805 375.467C626.182 374.771 626.702 374.228 627.362 373.839C628.023 373.438 628.778 373.237 629.627 373.237C631.102 373.237 632.252 373.804 633.078 374.936L632.105 375.839C631.857 375.39 631.515 375.042 631.078 374.794C630.642 374.547 630.146 374.423 629.592 374.423C628.731 374.423 628.029 374.736 627.486 375.361C626.943 375.986 626.672 376.824 626.672 377.874C626.672 378.912 626.943 379.749 627.486 380.386C628.041 381.012 628.76 381.324 629.645 381.324C630.176 381.324 630.648 381.206 631.061 380.97C631.474 380.723 631.822 380.369 632.105 379.909ZM638.734 382.51C637.896 382.51 637.147 382.309 636.486 381.908C635.826 381.507 635.307 380.959 634.929 380.263C634.563 379.567 634.38 378.77 634.38 377.874C634.38 376.977 634.563 376.181 634.929 375.485C635.307 374.789 635.826 374.24 636.486 373.839C637.147 373.438 637.896 373.237 638.734 373.237C639.583 373.237 640.338 373.438 640.999 373.839C641.659 374.24 642.173 374.789 642.538 375.485C642.916 376.181 643.105 376.977 643.105 377.874C643.105 378.77 642.916 379.567 642.538 380.263C642.173 380.959 641.659 381.507 640.999 381.908C640.338 382.309 639.583 382.51 638.734 382.51ZM638.734 381.324C639.324 381.324 639.837 381.177 640.273 380.882C640.71 380.587 641.052 380.18 641.3 379.661C641.547 379.142 641.671 378.546 641.671 377.874C641.671 377.189 641.547 376.594 641.3 376.086C641.052 375.567 640.71 375.16 640.273 374.865C639.837 374.57 639.324 374.423 638.734 374.423C638.156 374.423 637.648 374.57 637.212 374.865C636.775 375.16 636.433 375.567 636.185 376.086C635.938 376.594 635.814 377.189 635.814 377.874C635.814 378.546 635.938 379.142 636.185 379.661C636.433 380.18 636.775 380.587 637.212 380.882C637.648 381.177 638.156 381.324 638.734 381.324ZM652.936 382.227H651.591V380.528L651.574 380.033V373.52H652.936V382.227ZM651.733 378.458L652.016 378.829C652.063 379.537 651.939 380.168 651.644 380.723C651.361 381.277 650.96 381.714 650.441 382.032C649.922 382.351 649.32 382.51 648.636 382.51C647.657 382.51 646.872 382.197 646.283 381.572C645.693 380.947 645.398 380.044 645.398 378.865V373.52H646.76V378.723C646.76 379.572 646.949 380.221 647.327 380.67C647.704 381.106 648.235 381.324 648.919 381.324C649.403 381.324 649.845 381.206 650.246 380.97C650.659 380.723 650.996 380.386 651.255 379.962C651.526 379.525 651.686 379.024 651.733 378.458ZM663.517 382.227H662.154V377.219C662.154 376.299 661.96 375.609 661.57 375.148C661.193 374.677 660.68 374.441 660.031 374.441C659.559 374.441 659.117 374.576 658.704 374.848C658.291 375.107 657.954 375.526 657.695 376.104C657.435 376.67 657.306 377.408 657.306 378.316V382.227H655.943V373.52H657.288V376.175H657.058C657.188 375.455 657.412 374.883 657.73 374.458C658.061 374.022 658.45 373.709 658.898 373.52C659.347 373.332 659.813 373.237 660.296 373.237C661.299 373.237 662.084 373.568 662.65 374.228C663.228 374.877 663.517 375.821 663.517 377.06V382.227ZM670.894 382.227H668.947C668.334 382.227 667.868 382.062 667.549 381.731C667.231 381.389 667.071 380.906 667.071 380.28V370.972H668.434V380.156C668.434 380.44 668.505 380.664 668.646 380.829C668.788 380.982 669 381.059 669.283 381.059H670.894V382.227ZM670.77 374.688H665.408V373.52H670.77V374.688ZM672.042 380.882L672.927 379.944C673.305 380.381 673.735 380.729 674.219 380.988C674.714 381.236 675.269 381.36 675.882 381.36C676.519 381.36 677.033 381.212 677.422 380.917C677.823 380.622 678.024 380.239 678.024 379.767C678.024 379.378 677.853 379.071 677.51 378.847C677.18 378.611 676.608 378.434 675.794 378.316C674.555 378.115 673.682 377.826 673.175 377.449C672.679 377.071 672.432 376.546 672.432 375.874C672.432 375.343 672.573 374.883 672.856 374.494C673.14 374.093 673.535 373.786 674.042 373.573C674.549 373.349 675.133 373.237 675.794 373.237C676.525 373.237 677.18 373.379 677.758 373.662C678.336 373.945 678.849 374.346 679.298 374.865L678.413 375.803C678.083 375.367 677.699 375.025 677.263 374.777C676.838 374.517 676.348 374.387 675.794 374.387C675.216 374.387 674.744 374.523 674.378 374.794C674.013 375.054 673.83 375.39 673.83 375.803C673.83 376.027 673.895 376.222 674.024 376.387C674.154 376.54 674.372 376.67 674.679 376.776C674.986 376.883 675.399 376.977 675.918 377.06C677.204 377.248 678.112 377.555 678.643 377.98C679.174 378.393 679.439 378.983 679.439 379.749C679.439 380.292 679.286 380.776 678.979 381.2C678.672 381.613 678.248 381.938 677.705 382.174C677.174 382.398 676.567 382.51 675.882 382.51C675.033 382.51 674.302 382.368 673.688 382.085C673.075 381.79 672.526 381.389 672.042 380.882Z" fill="#585E44"/>
<path d="M378.285 458.067H376.869V445.414H378.285V458.067ZM389.239 458.067H387.876V453.059C387.876 452.138 387.681 451.448 387.292 450.988C386.915 450.516 386.401 450.28 385.753 450.28C385.281 450.28 384.838 450.416 384.425 450.687C384.012 450.947 383.676 451.366 383.417 451.944C383.157 452.51 383.027 453.247 383.027 454.156V458.067H381.665V449.36H383.01V452.015H382.78C382.909 451.295 383.134 450.723 383.452 450.298C383.782 449.862 384.172 449.549 384.62 449.36C385.068 449.171 385.534 449.077 386.018 449.077C387.021 449.077 387.805 449.407 388.372 450.068C388.95 450.717 389.239 451.661 389.239 452.899V458.067ZM395.668 458.067H394.323L390.802 449.36H392.253L395.279 457.323H394.766L397.809 449.36H399.19L395.668 458.067ZM407.534 455.572L408.455 456.456C407.994 457.093 407.452 457.571 406.827 457.89C406.213 458.196 405.535 458.35 404.791 458.35C403.918 458.35 403.146 458.149 402.473 457.748C401.813 457.347 401.294 456.798 400.916 456.102C400.55 455.395 400.367 454.598 400.367 453.713C400.367 452.829 400.55 452.038 400.916 451.342C401.294 450.634 401.801 450.08 402.438 449.679C403.087 449.278 403.812 449.077 404.615 449.077C405.405 449.077 406.101 449.272 406.703 449.661C407.316 450.05 407.794 450.593 408.136 451.289C408.478 451.973 408.649 452.764 408.649 453.66V453.767H407.269V453.643C407.269 452.628 407.027 451.814 406.543 451.201C406.06 450.575 405.417 450.263 404.615 450.263C404.072 450.263 403.582 450.41 403.146 450.705C402.721 450.988 402.385 451.389 402.137 451.908C401.901 452.428 401.783 453.023 401.783 453.696C401.783 454.368 401.907 454.964 402.155 455.483C402.414 456.002 402.774 456.415 403.234 456.722C403.706 457.017 404.255 457.164 404.88 457.164C405.423 457.164 405.912 457.034 406.349 456.775C406.785 456.515 407.18 456.114 407.534 455.572ZM408.649 454.191H401.447V453.076H408.384L408.649 453.66V454.191ZM418.686 458.067H417.323V453.059C417.323 452.138 417.129 451.448 416.739 450.988C416.362 450.516 415.849 450.28 415.2 450.28C414.728 450.28 414.285 450.416 413.873 450.687C413.46 450.947 413.123 451.366 412.864 451.944C412.604 452.51 412.475 453.247 412.475 454.156V458.067H411.112V449.36H412.457V452.015H412.227C412.357 451.295 412.581 450.723 412.899 450.298C413.23 449.862 413.619 449.549 414.067 449.36C414.516 449.171 414.982 449.077 415.465 449.077C416.468 449.077 417.252 449.407 417.819 450.068C418.397 450.717 418.686 451.661 418.686 452.899V458.067ZM426.063 458.067H424.116C423.503 458.067 423.037 457.901 422.718 457.571C422.4 457.229 422.24 456.745 422.24 456.12V446.812H423.603V455.996C423.603 456.279 423.674 456.504 423.815 456.669C423.957 456.822 424.169 456.899 424.452 456.899H426.063V458.067ZM425.939 450.528H420.577V449.36H425.939V450.528ZM431.697 458.35C430.859 458.35 430.11 458.149 429.449 457.748C428.789 457.347 428.27 456.798 427.892 456.102C427.526 455.406 427.343 454.61 427.343 453.713C427.343 452.817 427.526 452.021 427.892 451.324C428.27 450.628 428.789 450.08 429.449 449.679C430.11 449.278 430.859 449.077 431.697 449.077C432.546 449.077 433.301 449.278 433.962 449.679C434.622 450.08 435.136 450.628 435.501 451.324C435.879 452.021 436.068 452.817 436.068 453.713C436.068 454.61 435.879 455.406 435.501 456.102C435.136 456.798 434.622 457.347 433.962 457.748C433.301 458.149 432.546 458.35 431.697 458.35ZM431.697 457.164C432.287 457.164 432.8 457.017 433.236 456.722C433.673 456.427 434.015 456.02 434.263 455.501C434.51 454.982 434.634 454.386 434.634 453.713C434.634 453.029 434.51 452.433 434.263 451.926C434.015 451.407 433.673 451 433.236 450.705C432.8 450.41 432.287 450.263 431.697 450.263C431.119 450.263 430.611 450.41 430.175 450.705C429.738 451 429.396 451.407 429.148 451.926C428.901 452.433 428.777 453.029 428.777 453.713C428.777 454.386 428.901 454.982 429.148 455.501C429.396 456.02 429.738 456.427 430.175 456.722C430.611 457.017 431.119 457.164 431.697 457.164ZM443.245 449.219V450.528H442.944C442.401 450.528 441.894 450.67 441.422 450.953C440.962 451.224 440.59 451.649 440.307 452.227C440.024 452.793 439.883 453.525 439.883 454.421V458.067H438.52V449.36H439.865V452.138H439.635C439.765 451.419 440.001 450.847 440.343 450.422C440.697 449.997 441.104 449.691 441.564 449.502C442.024 449.313 442.49 449.219 442.962 449.219H443.245ZM451.243 449.36H452.623L448.482 459.606C448.247 460.196 447.946 460.656 447.58 460.986C447.226 461.329 446.666 461.5 445.899 461.5H444.872V460.332H445.899C446.3 460.332 446.613 460.237 446.837 460.049C447.061 459.86 447.238 459.583 447.368 459.217L447.775 458.102L444.235 449.36H445.686L448.712 457.323H448.199L451.243 449.36Z" fill="#585E44"/>
<path d="M147.043 368.816L148.052 367.807C148.429 368.267 148.831 368.651 149.255 368.957C149.68 369.252 150.128 369.476 150.6 369.63C151.084 369.783 151.591 369.86 152.122 369.86C153.113 369.86 153.903 369.63 154.493 369.17C155.095 368.709 155.396 368.096 155.396 367.329C155.396 366.669 155.136 366.161 154.617 365.807C154.11 365.442 153.243 365.159 152.016 364.958C150.411 364.698 149.261 364.309 148.565 363.79C147.869 363.259 147.521 362.51 147.521 361.543C147.521 360.835 147.71 360.21 148.087 359.667C148.477 359.124 149.008 358.699 149.68 358.393C150.364 358.074 151.137 357.915 151.998 357.915C152.977 357.915 153.862 358.098 154.653 358.464C155.443 358.817 156.163 359.366 156.811 360.109L155.82 361.1C155.266 360.44 154.682 359.956 154.069 359.649C153.467 359.342 152.777 359.189 151.998 359.189C151.066 359.189 150.329 359.396 149.786 359.808C149.255 360.221 148.99 360.793 148.99 361.525C148.99 362.091 149.232 362.534 149.715 362.852C150.199 363.171 151.007 363.418 152.14 363.595C153.827 363.855 155.03 364.274 155.75 364.852C156.481 365.418 156.847 366.238 156.847 367.312C156.847 368.055 156.646 368.715 156.245 369.293C155.844 369.872 155.284 370.326 154.564 370.656C153.856 370.975 153.042 371.134 152.122 371.134C151.119 371.134 150.187 370.939 149.326 370.55C148.477 370.161 147.716 369.582 147.043 368.816ZM166.777 370.851H165.432V369.152L165.414 368.656V362.144H166.777V370.851ZM165.573 367.081L165.856 367.453C165.904 368.161 165.78 368.792 165.485 369.347C165.202 369.901 164.801 370.338 164.281 370.656C163.762 370.975 163.161 371.134 162.476 371.134C161.497 371.134 160.713 370.821 160.123 370.196C159.533 369.571 159.238 368.668 159.238 367.488V362.144H160.601V367.347C160.601 368.196 160.789 368.845 161.167 369.293C161.545 369.73 162.075 369.948 162.76 369.948C163.243 369.948 163.686 369.83 164.087 369.594C164.5 369.347 164.836 369.01 165.096 368.586C165.367 368.149 165.526 367.648 165.573 367.081ZM171.146 374.284H169.783V362.144H171.128V364.781H170.81C170.904 364.203 171.117 363.696 171.447 363.259C171.777 362.823 172.19 362.481 172.686 362.233C173.193 361.985 173.741 361.861 174.331 361.861C175.134 361.861 175.841 362.062 176.455 362.463C177.068 362.864 177.552 363.418 177.906 364.126C178.26 364.822 178.437 365.613 178.437 366.497C178.437 367.394 178.254 368.19 177.888 368.886C177.522 369.582 177.021 370.131 176.384 370.532C175.759 370.933 175.039 371.134 174.225 371.134C173.494 371.134 172.851 370.975 172.296 370.656C171.742 370.326 171.323 369.883 171.04 369.329C170.757 368.763 170.651 368.131 170.721 367.435L170.987 367.081C171.034 367.636 171.193 368.131 171.465 368.568C171.748 368.993 172.113 369.329 172.562 369.577C173.01 369.824 173.5 369.948 174.03 369.948C174.62 369.948 175.134 369.801 175.57 369.506C176.018 369.211 176.366 368.804 176.614 368.285C176.874 367.766 177.003 367.17 177.003 366.497C177.003 365.825 176.88 365.229 176.632 364.71C176.396 364.191 176.06 363.784 175.623 363.489C175.198 363.194 174.703 363.047 174.137 363.047C173.559 363.047 173.045 363.206 172.597 363.525C172.149 363.831 171.795 364.262 171.535 364.816C171.276 365.371 171.146 366.014 171.146 366.745V374.284ZM182.258 374.284H180.895V362.144H182.24V364.781H181.922C182.016 364.203 182.228 363.696 182.559 363.259C182.889 362.823 183.302 362.481 183.797 362.233C184.305 361.985 184.853 361.861 185.443 361.861C186.245 361.861 186.953 362.062 187.567 362.463C188.18 362.864 188.664 363.418 189.018 364.126C189.372 364.822 189.549 365.613 189.549 366.497C189.549 367.394 189.366 368.19 189 368.886C188.634 369.582 188.133 370.131 187.496 370.532C186.871 370.933 186.151 371.134 185.337 371.134C184.606 371.134 183.963 370.975 183.408 370.656C182.854 370.326 182.435 369.883 182.152 369.329C181.869 368.763 181.762 368.131 181.833 367.435L182.099 367.081C182.146 367.636 182.305 368.131 182.576 368.568C182.86 368.993 183.225 369.329 183.674 369.577C184.122 369.824 184.611 369.948 185.142 369.948C185.732 369.948 186.245 369.801 186.682 369.506C187.13 369.211 187.478 368.804 187.726 368.285C187.985 367.766 188.115 367.17 188.115 366.497C188.115 365.825 187.991 365.229 187.744 364.71C187.508 364.191 187.171 363.784 186.735 363.489C186.31 363.194 185.815 363.047 185.248 363.047C184.67 363.047 184.157 363.206 183.709 363.525C183.261 363.831 182.907 364.262 182.647 364.816C182.388 365.371 182.258 366.014 182.258 366.745V374.284ZM193.37 370.851H192.007V358.11H193.37V370.851ZM202.449 362.144H203.829L199.688 372.39C199.452 372.98 199.152 373.44 198.786 373.771C198.432 374.113 197.872 374.284 197.105 374.284H196.078V373.116H197.105C197.506 373.116 197.819 373.021 198.043 372.833C198.267 372.644 198.444 372.367 198.574 372.001L198.981 370.886L195.441 362.144H196.892L199.918 370.107H199.405L202.449 362.144ZM136.821 391.506L137.706 390.568C138.084 391.004 138.514 391.352 138.998 391.612C139.493 391.86 140.048 391.984 140.661 391.984C141.298 391.984 141.812 391.836 142.201 391.541C142.602 391.246 142.803 390.863 142.803 390.391C142.803 390.002 142.632 389.695 142.289 389.471C141.959 389.235 141.387 389.058 140.573 388.94C139.334 388.739 138.461 388.45 137.954 388.073C137.458 387.695 137.211 387.17 137.211 386.498C137.211 385.967 137.352 385.507 137.635 385.118C137.918 384.716 138.314 384.41 138.821 384.197C139.328 383.973 139.912 383.861 140.573 383.861C141.304 383.861 141.959 384.003 142.537 384.286C143.115 384.569 143.628 384.97 144.077 385.489L143.192 386.427C142.862 385.991 142.478 385.648 142.042 385.401C141.617 385.141 141.127 385.011 140.573 385.011C139.995 385.011 139.523 385.147 139.157 385.418C138.791 385.678 138.609 386.014 138.609 386.427C138.609 386.651 138.674 386.846 138.803 387.011C138.933 387.164 139.151 387.294 139.458 387.4C139.765 387.507 140.178 387.601 140.697 387.683C141.983 387.872 142.891 388.179 143.422 388.604C143.953 389.017 144.218 389.606 144.218 390.373C144.218 390.916 144.065 391.4 143.758 391.824C143.451 392.237 143.027 392.562 142.484 392.798C141.953 393.022 141.346 393.134 140.661 393.134C139.812 393.134 139.081 392.992 138.467 392.709C137.854 392.414 137.305 392.013 136.821 391.506ZM154.131 392.851H152.769V387.843C152.769 386.958 152.58 386.274 152.202 385.79C151.837 385.306 151.318 385.064 150.645 385.064C149.819 385.064 149.159 385.412 148.663 386.109C148.168 386.805 147.92 387.748 147.92 388.94V392.851H146.557V380.11H147.92V386.799H147.69C147.796 386.173 147.991 385.643 148.274 385.206C148.569 384.77 148.935 384.439 149.371 384.215C149.819 383.979 150.333 383.861 150.911 383.861C151.925 383.861 152.716 384.197 153.282 384.87C153.848 385.53 154.131 386.468 154.131 387.683V392.851ZM158.341 392.851H156.978V384.144H158.341V392.851ZM158.606 380.853C158.606 381.136 158.512 381.372 158.323 381.561C158.146 381.738 157.922 381.826 157.65 381.826C157.379 381.826 157.149 381.738 156.96 381.561C156.783 381.372 156.695 381.136 156.695 380.853C156.695 380.57 156.783 380.34 156.96 380.163C157.149 379.974 157.379 379.88 157.65 379.88C157.922 379.88 158.146 379.974 158.323 380.163C158.512 380.34 158.606 380.57 158.606 380.853ZM162.713 396.284H161.35V384.144H162.695V386.781H162.377C162.471 386.203 162.683 385.696 163.014 385.259C163.344 384.823 163.757 384.481 164.252 384.233C164.76 383.985 165.308 383.861 165.898 383.861C166.7 383.861 167.408 384.062 168.022 384.463C168.635 384.864 169.119 385.418 169.473 386.126C169.827 386.822 170.004 387.613 170.004 388.497C170.004 389.394 169.821 390.19 169.455 390.886C169.089 391.582 168.588 392.131 167.951 392.532C167.326 392.933 166.606 393.134 165.792 393.134C165.06 393.134 164.417 392.975 163.863 392.656C163.309 392.326 162.89 391.883 162.607 391.329C162.323 390.763 162.217 390.131 162.288 389.435L162.554 389.081C162.601 389.636 162.76 390.131 163.031 390.568C163.314 390.993 163.68 391.329 164.128 391.577C164.577 391.824 165.066 391.948 165.597 391.948C166.187 391.948 166.7 391.801 167.137 391.506C167.585 391.211 167.933 390.804 168.181 390.285C168.44 389.766 168.57 389.17 168.57 388.497C168.57 387.825 168.446 387.229 168.199 386.71C167.963 386.191 167.626 385.784 167.19 385.489C166.765 385.194 166.27 385.047 165.703 385.047C165.125 385.047 164.612 385.206 164.164 385.525C163.716 385.831 163.362 386.262 163.102 386.816C162.843 387.371 162.713 388.014 162.713 388.745V396.284ZM185.592 392.851H184.23V387.825C184.23 386.952 184.059 386.274 183.717 385.79C183.375 385.306 182.891 385.064 182.266 385.064C181.475 385.064 180.85 385.412 180.39 386.109C179.93 386.805 179.7 387.748 179.7 388.94V392.851H178.337V387.825C178.337 386.952 178.166 386.274 177.824 385.79C177.482 385.306 176.998 385.064 176.373 385.064C175.594 385.064 174.975 385.412 174.515 386.109C174.055 386.805 173.825 387.748 173.825 388.94V392.851H172.462V384.144H173.807V386.339L173.683 386.321C173.813 385.802 174.013 385.359 174.285 384.994C174.568 384.628 174.91 384.351 175.311 384.162C175.712 383.961 176.16 383.861 176.656 383.861C177.423 383.861 178.042 384.091 178.514 384.551C178.998 385.011 179.316 385.666 179.47 386.516H179.257C179.387 385.949 179.599 385.471 179.894 385.082C180.189 384.681 180.555 384.38 180.991 384.18C181.428 383.967 181.918 383.861 182.46 383.861C183.463 383.861 184.236 384.191 184.778 384.852C185.321 385.513 185.592 386.457 185.592 387.683V392.851ZM195.065 390.356L195.986 391.24C195.526 391.877 194.983 392.355 194.358 392.674C193.744 392.98 193.066 393.134 192.323 393.134C191.45 393.134 190.677 392.933 190.004 392.532C189.344 392.131 188.825 391.582 188.447 390.886C188.081 390.179 187.899 389.382 187.899 388.497C187.899 387.613 188.081 386.822 188.447 386.126C188.825 385.418 189.332 384.864 189.969 384.463C190.618 384.062 191.343 383.861 192.146 383.861C192.936 383.861 193.632 384.056 194.234 384.445C194.847 384.834 195.325 385.377 195.667 386.073C196.009 386.757 196.18 387.548 196.18 388.444V388.551H194.8V388.427C194.8 387.412 194.558 386.598 194.074 385.985C193.591 385.359 192.948 385.047 192.146 385.047C191.603 385.047 191.113 385.194 190.677 385.489C190.252 385.772 189.916 386.173 189.668 386.693C189.432 387.212 189.314 387.807 189.314 388.48C189.314 389.152 189.438 389.748 189.686 390.267C189.945 390.786 190.305 391.199 190.765 391.506C191.237 391.801 191.786 391.948 192.411 391.948C192.954 391.948 193.443 391.818 193.88 391.559C194.316 391.299 194.712 390.898 195.065 390.356ZM196.18 388.975H188.978V387.86H195.915L196.18 388.444V388.975ZM206.217 392.851H204.854V387.843C204.854 386.923 204.66 386.232 204.27 385.772C203.893 385.3 203.38 385.064 202.731 385.064C202.259 385.064 201.817 385.2 201.404 385.471C200.991 385.731 200.655 386.15 200.395 386.728C200.135 387.294 200.006 388.032 200.006 388.94V392.851H198.643V384.144H199.988V386.799H199.758C199.888 386.079 200.112 385.507 200.43 385.082C200.761 384.646 201.15 384.333 201.598 384.144C202.047 383.956 202.513 383.861 202.996 383.861C203.999 383.861 204.784 384.191 205.35 384.852C205.928 385.501 206.217 386.445 206.217 387.683V392.851ZM213.594 392.851H211.647C211.034 392.851 210.568 392.686 210.249 392.355C209.931 392.013 209.771 391.529 209.771 390.904V381.596H211.134V390.78C211.134 391.063 211.205 391.288 211.346 391.453C211.488 391.606 211.7 391.683 211.983 391.683H213.594V392.851ZM213.47 385.312H208.108V384.144H213.47V385.312Z" fill="#585E44"/>
<path d="M68.134 257.091V244.438H69.5496V257.091H68.134ZM61.3741 257.091H59.9584V244.438H61.3741V257.091ZM61.1971 251.145V249.889H68.2932V251.145H61.1971ZM74.2905 257.091H72.9279V248.384H74.2905V257.091ZM74.5559 245.093C74.5559 245.376 74.4616 245.612 74.2728 245.801C74.0959 245.978 73.8717 246.066 73.6004 246.066C73.329 246.066 73.099 245.978 72.9102 245.801C72.7333 245.612 72.6448 245.376 72.6448 245.093C72.6448 244.81 72.7333 244.58 72.9102 244.403C73.099 244.214 73.329 244.12 73.6004 244.12C73.8717 244.12 74.0959 244.214 74.2728 244.403C74.4616 244.58 74.5559 244.81 74.5559 245.093ZM76.2737 255.746L77.1585 254.808C77.536 255.245 77.9666 255.593 78.4503 255.852C78.9458 256.1 79.5003 256.224 80.1137 256.224C80.7508 256.224 81.264 256.076 81.6533 255.781C82.0544 255.486 82.2549 255.103 82.2549 254.631C82.2549 254.242 82.0839 253.935 81.7418 253.711C81.4114 253.475 80.8393 253.298 80.0253 253.18C78.7865 252.979 77.9135 252.69 77.4062 252.313C76.9108 251.935 76.663 251.41 76.663 250.738C76.663 250.207 76.8046 249.747 77.0877 249.358C77.3709 248.957 77.7661 248.65 78.2733 248.437C78.7806 248.213 79.3646 248.101 80.0253 248.101C80.7567 248.101 81.4114 248.243 81.9895 248.526C82.5676 248.809 83.0808 249.21 83.5291 249.729L82.6443 250.667C82.3139 250.231 81.9305 249.889 81.494 249.641C81.0693 249.381 80.5797 249.251 80.0253 249.251C79.4472 249.251 78.9753 249.387 78.6096 249.659C78.2439 249.918 78.061 250.254 78.061 250.667C78.061 250.891 78.1259 251.086 78.2557 251.251C78.3854 251.405 78.6037 251.534 78.9104 251.64C79.2171 251.747 79.63 251.841 80.1491 251.924C81.435 252.112 82.3434 252.419 82.8743 252.844C83.4052 253.257 83.6706 253.847 83.6706 254.613C83.6706 255.156 83.5173 255.64 83.2105 256.064C82.9038 256.477 82.4791 256.802 81.9364 257.038C81.4055 257.262 80.798 257.374 80.1137 257.374C79.2643 257.374 78.5329 257.232 77.9194 256.949C77.306 256.654 76.7574 256.253 76.2737 255.746ZM90.54 257.091H88.5934C87.98 257.091 87.514 256.926 87.1954 256.595C86.8769 256.253 86.7177 255.77 86.7177 255.144V245.836H88.0802V255.02C88.0802 255.304 88.151 255.528 88.2926 255.693C88.4342 255.846 88.6465 255.923 88.9296 255.923H90.54V257.091ZM90.4161 249.552H85.0542V248.384H90.4161V249.552ZM96.1739 257.374C95.3363 257.374 94.5872 257.173 93.9266 256.772C93.2659 256.371 92.7468 255.823 92.3693 255.127C92.0036 254.431 91.8207 253.634 91.8207 252.738C91.8207 251.841 92.0036 251.045 92.3693 250.349C92.7468 249.653 93.2659 249.104 93.9266 248.703C94.5872 248.302 95.3363 248.101 96.1739 248.101C97.0233 248.101 97.7784 248.302 98.439 248.703C99.0997 249.104 99.6129 249.653 99.9786 250.349C100.356 251.045 100.545 251.841 100.545 252.738C100.545 253.634 100.356 254.431 99.9786 255.127C99.6129 255.823 99.0997 256.371 98.439 256.772C97.7784 257.173 97.0233 257.374 96.1739 257.374ZM96.1739 256.188C96.7638 256.188 97.277 256.041 97.7135 255.746C98.15 255.451 98.4921 255.044 98.7399 254.525C98.9876 254.006 99.1115 253.41 99.1115 252.738C99.1115 252.053 98.9876 251.458 98.7399 250.95C98.4921 250.431 98.15 250.024 97.7135 249.729C97.277 249.434 96.7638 249.287 96.1739 249.287C95.5959 249.287 95.0886 249.434 94.6521 249.729C94.2156 250.024 93.8735 250.431 93.6257 250.95C93.378 251.458 93.2541 252.053 93.2541 252.738C93.2541 253.41 93.378 254.006 93.6257 254.525C93.8735 255.044 94.2156 255.451 94.6521 255.746C95.0886 256.041 95.5959 256.188 96.1739 256.188ZM107.722 248.243V249.552H107.421C106.879 249.552 106.371 249.694 105.899 249.977C105.439 250.248 105.068 250.673 104.785 251.251C104.501 251.817 104.36 252.549 104.36 253.445V257.091H102.997V248.384H104.342V251.163H104.112C104.242 250.443 104.478 249.871 104.82 249.446C105.174 249.021 105.581 248.715 106.041 248.526C106.501 248.337 106.967 248.243 107.439 248.243H107.722ZM111.013 257.091H109.651V248.384H111.013V257.091ZM111.279 245.093C111.279 245.376 111.184 245.612 110.995 245.801C110.818 245.978 110.594 246.066 110.323 246.066C110.052 246.066 109.822 245.978 109.633 245.801C109.456 245.612 109.367 245.376 109.367 245.093C109.367 244.81 109.456 244.58 109.633 244.403C109.822 244.214 110.052 244.12 110.323 244.12C110.594 244.12 110.818 244.214 110.995 244.403C111.184 244.58 111.279 244.81 111.279 245.093ZM120.34 254.773L121.296 255.675C120.895 256.218 120.399 256.637 119.809 256.932C119.219 257.226 118.559 257.374 117.827 257.374C116.978 257.374 116.223 257.179 115.562 256.79C114.913 256.389 114.4 255.84 114.023 255.144C113.657 254.448 113.474 253.646 113.474 252.738C113.474 251.829 113.663 251.027 114.04 250.331C114.418 249.635 114.937 249.092 115.598 248.703C116.258 248.302 117.013 248.101 117.863 248.101C119.337 248.101 120.488 248.668 121.313 249.8L120.34 250.703C120.092 250.254 119.75 249.906 119.314 249.659C118.877 249.411 118.382 249.287 117.827 249.287C116.966 249.287 116.264 249.6 115.722 250.225C115.179 250.85 114.907 251.688 114.907 252.738C114.907 253.776 115.179 254.613 115.722 255.25C116.276 255.876 116.996 256.188 117.88 256.188C118.411 256.188 118.883 256.07 119.296 255.834C119.709 255.587 120.057 255.233 120.34 254.773ZM130.27 257.091H128.978V255.392L128.96 254.897V251.658C128.96 250.927 128.736 250.349 128.288 249.924C127.852 249.487 127.25 249.269 126.483 249.269C125.48 249.269 124.631 249.688 123.935 250.526L123.05 249.659C124.041 248.62 125.215 248.101 126.571 248.101C127.315 248.101 127.964 248.249 128.518 248.544C129.073 248.827 129.503 249.234 129.81 249.765C130.117 250.284 130.27 250.897 130.27 251.605V257.091ZM125.899 257.374C125.286 257.374 124.743 257.256 124.271 257.02C123.799 256.784 123.428 256.46 123.156 256.047C122.897 255.622 122.767 255.144 122.767 254.613C122.767 253.729 123.103 253.027 123.776 252.508C124.46 251.988 125.374 251.729 126.518 251.729H129.12V252.826H126.678C125.887 252.826 125.274 252.979 124.837 253.286C124.401 253.581 124.183 254.006 124.183 254.56C124.183 255.068 124.354 255.475 124.696 255.781C125.05 256.088 125.516 256.241 126.094 256.241C126.66 256.241 127.167 256.123 127.616 255.887C128.064 255.64 128.424 255.304 128.695 254.879C128.966 254.442 129.12 253.947 129.155 253.392L129.668 253.693C129.668 254.401 129.503 255.032 129.173 255.587C128.854 256.141 128.412 256.578 127.846 256.896C127.279 257.215 126.63 257.374 125.899 257.374ZM134.481 257.091H133.118V244.35H134.481V257.091ZM75.5401 279.374C74.7025 279.374 73.9534 279.173 73.2928 278.772C72.6321 278.371 72.113 277.823 71.7355 277.127C71.3698 276.431 71.1869 275.634 71.1869 274.738C71.1869 273.841 71.3698 273.045 71.7355 272.349C72.113 271.653 72.6321 271.104 73.2928 270.703C73.9534 270.302 74.7025 270.101 75.5401 270.101C76.3896 270.101 77.1446 270.302 77.8052 270.703C78.4659 271.104 78.9791 271.653 79.3448 272.349C79.7223 273.045 79.9111 273.841 79.9111 274.738C79.9111 275.634 79.7223 276.431 79.3448 277.127C78.9791 277.823 78.4659 278.371 77.8052 278.772C77.1446 279.173 76.3896 279.374 75.5401 279.374ZM75.5401 278.188C76.13 278.188 76.6432 278.041 77.0797 277.746C77.5162 277.451 77.8583 277.044 78.1061 276.525C78.3538 276.006 78.4777 275.41 78.4777 274.738C78.4777 274.053 78.3538 273.458 78.1061 272.95C77.8583 272.431 77.5162 272.024 77.0797 271.729C76.6432 271.434 76.13 271.287 75.5401 271.287C74.9621 271.287 74.4548 271.434 74.0183 271.729C73.5818 272.024 73.2397 272.431 72.9919 272.95C72.7442 273.458 72.6203 274.053 72.6203 274.738C72.6203 275.41 72.7442 276.006 72.9919 276.525C73.2397 277.044 73.5818 277.451 74.0183 277.746C74.4548 278.041 74.9621 278.188 75.5401 278.188ZM87.0883 270.243V271.552H86.7875C86.2448 271.552 85.7375 271.694 85.2656 271.977C84.8055 272.248 84.4339 272.673 84.1508 273.251C83.8676 273.817 83.7261 274.549 83.7261 275.445V279.091H82.3635V270.384H83.7084V273.163H83.4783C83.6081 272.443 83.844 271.871 84.1862 271.446C84.5401 271.021 84.9471 270.715 85.4072 270.526C85.8673 270.337 86.3333 270.243 86.8052 270.243H87.0883ZM95.431 279.091V276.737L95.4133 276.702V274.985C95.4133 274.254 95.2894 273.611 95.0417 273.056C94.7939 272.502 94.4459 272.071 93.9976 271.765C93.5611 271.446 93.0538 271.287 92.4758 271.287C91.9095 271.287 91.4022 271.434 90.9539 271.729C90.5174 272.024 90.1753 272.431 89.9275 272.95C89.6798 273.469 89.5559 274.065 89.5559 274.738C89.5559 275.41 89.6798 276.006 89.9275 276.525C90.1871 277.044 90.541 277.451 90.9893 277.746C91.4376 278.041 91.9508 278.188 92.5288 278.188C93.0715 278.188 93.5611 278.064 93.9976 277.817C94.4459 277.569 94.8057 277.233 95.0771 276.808C95.3602 276.372 95.5254 275.876 95.5726 275.322L95.838 275.675C95.9206 276.372 95.8085 277.003 95.5018 277.569C95.2068 278.123 94.7821 278.566 94.2277 278.896C93.6732 279.215 93.042 279.374 92.3342 279.374C91.5202 279.374 90.7946 279.173 90.1576 278.772C89.5323 278.371 89.0368 277.823 88.6711 277.127C88.3054 276.431 88.1225 275.634 88.1225 274.738C88.1225 273.853 88.2995 273.062 88.6534 272.366C89.0191 271.659 89.5146 271.104 90.1399 270.703C90.7769 270.302 91.4907 270.101 92.2811 270.101C92.871 270.101 93.4136 270.225 93.9091 270.473C94.4046 270.721 94.8175 271.063 95.1479 271.499C95.4782 271.936 95.6846 272.443 95.7672 273.021H95.4133V266.35H96.7759V279.091H95.431ZM106.401 276.596L107.321 277.48C106.861 278.118 106.319 278.595 105.693 278.914C105.08 279.221 104.402 279.374 103.658 279.374C102.785 279.374 102.013 279.173 101.34 278.772C100.68 278.371 100.16 277.823 99.783 277.127C99.4172 276.419 99.2344 275.622 99.2344 274.738C99.2344 273.853 99.4172 273.062 99.783 272.366C100.16 271.659 100.668 271.104 101.305 270.703C101.954 270.302 102.679 270.101 103.481 270.101C104.272 270.101 104.968 270.296 105.57 270.685C106.183 271.075 106.661 271.617 107.003 272.313C107.345 272.998 107.516 273.788 107.516 274.685V274.791H106.136V274.667C106.136 273.652 105.894 272.838 105.41 272.225C104.927 271.6 104.284 271.287 103.481 271.287C102.939 271.287 102.449 271.434 102.013 271.729C101.588 272.012 101.252 272.414 101.004 272.933C100.768 273.452 100.65 274.047 100.65 274.72C100.65 275.392 100.774 275.988 101.022 276.507C101.281 277.026 101.641 277.439 102.101 277.746C102.573 278.041 103.122 278.188 103.747 278.188C104.29 278.188 104.779 278.059 105.216 277.799C105.652 277.539 106.047 277.138 106.401 276.596ZM107.516 275.215H100.314V274.101H107.251L107.516 274.685V275.215ZM114.704 270.243V271.552H114.403C113.86 271.552 113.353 271.694 112.881 271.977C112.421 272.248 112.049 272.673 111.766 273.251C111.483 273.817 111.341 274.549 111.341 275.445V279.091H109.979V270.384H111.324V273.163H111.094C111.223 272.443 111.459 271.871 111.802 271.446C112.155 271.021 112.562 270.715 113.023 270.526C113.483 270.337 113.949 270.243 114.421 270.243H114.704ZM115.606 277.746L116.491 276.808C116.868 277.245 117.299 277.593 117.782 277.852C118.278 278.1 118.832 278.224 119.446 278.224C120.083 278.224 120.596 278.076 120.985 277.781C121.386 277.486 121.587 277.103 121.587 276.631C121.587 276.242 121.416 275.935 121.074 275.711C120.744 275.475 120.171 275.298 119.357 275.18C118.119 274.979 117.246 274.69 116.738 274.313C116.243 273.935 115.995 273.41 115.995 272.738C115.995 272.207 116.137 271.747 116.42 271.358C116.703 270.957 117.098 270.65 117.605 270.437C118.113 270.213 118.697 270.101 119.357 270.101C120.089 270.101 120.744 270.243 121.322 270.526C121.9 270.809 122.413 271.21 122.861 271.729L121.976 272.667C121.646 272.231 121.263 271.889 120.826 271.641C120.401 271.381 119.912 271.251 119.357 271.251C118.779 271.251 118.307 271.387 117.942 271.659C117.576 271.918 117.393 272.254 117.393 272.667C117.393 272.891 117.458 273.086 117.588 273.251C117.718 273.405 117.936 273.534 118.242 273.64C118.549 273.747 118.962 273.841 119.481 273.924C120.767 274.112 121.676 274.419 122.206 274.844C122.737 275.257 123.003 275.847 123.003 276.613C123.003 277.156 122.849 277.64 122.543 278.064C122.236 278.477 121.811 278.802 121.269 279.038C120.738 279.262 120.13 279.374 119.446 279.374C118.596 279.374 117.865 279.232 117.252 278.949C116.638 278.654 116.089 278.253 115.606 277.746Z" fill="#585E44"/>
<path d="M154.276 141.091H147.746V139.852H154.276V141.091ZM156.612 144.595H155.125L150.736 132.809H151.32L146.932 144.595H145.498L150.294 131.942H151.816L156.612 144.595ZM164.745 142.277L165.7 143.179C165.299 143.722 164.804 144.141 164.214 144.436C163.624 144.731 162.963 144.878 162.232 144.878C161.383 144.878 160.628 144.683 159.967 144.294C159.318 143.893 158.805 143.344 158.427 142.648C158.062 141.952 157.879 141.15 157.879 140.242C157.879 139.333 158.068 138.531 158.445 137.835C158.823 137.139 159.342 136.596 160.002 136.207C160.663 135.806 161.418 135.605 162.267 135.605C163.742 135.605 164.892 136.172 165.718 137.304L164.745 138.207C164.497 137.758 164.155 137.41 163.719 137.163C163.282 136.915 162.787 136.791 162.232 136.791C161.371 136.791 160.669 137.104 160.126 137.729C159.584 138.354 159.312 139.192 159.312 140.242C159.312 141.28 159.584 142.118 160.126 142.755C160.681 143.38 161.4 143.692 162.285 143.692C162.816 143.692 163.288 143.575 163.701 143.339C164.114 143.091 164.462 142.737 164.745 142.277ZM173.887 142.277L174.842 143.179C174.441 143.722 173.946 144.141 173.356 144.436C172.766 144.731 172.105 144.878 171.374 144.878C170.524 144.878 169.769 144.683 169.109 144.294C168.46 143.893 167.947 143.344 167.569 142.648C167.203 141.952 167.021 141.15 167.021 140.242C167.021 139.333 167.209 138.531 167.587 137.835C167.964 137.139 168.483 136.596 169.144 136.207C169.805 135.806 170.56 135.605 171.409 135.605C172.884 135.605 174.034 136.172 174.86 137.304L173.887 138.207C173.639 137.758 173.297 137.41 172.86 137.163C172.424 136.915 171.928 136.791 171.374 136.791C170.513 136.791 169.811 137.104 169.268 137.729C168.725 138.354 168.454 139.192 168.454 140.242C168.454 141.28 168.725 142.118 169.268 142.755C169.822 143.38 170.542 143.692 171.427 143.692C171.958 143.692 172.43 143.575 172.843 143.339C173.256 143.091 173.604 142.737 173.887 142.277ZM180.516 144.878C179.678 144.878 178.929 144.678 178.268 144.276C177.608 143.875 177.088 143.327 176.711 142.631C176.345 141.935 176.162 141.138 176.162 140.242C176.162 139.345 176.345 138.549 176.711 137.853C177.088 137.157 177.608 136.608 178.268 136.207C178.929 135.806 179.678 135.605 180.516 135.605C181.365 135.605 182.12 135.806 182.781 136.207C183.441 136.608 183.955 137.157 184.32 137.853C184.698 138.549 184.887 139.345 184.887 140.242C184.887 141.138 184.698 141.935 184.32 142.631C183.955 143.327 183.441 143.875 182.781 144.276C182.12 144.678 181.365 144.878 180.516 144.878ZM180.516 143.692C181.105 143.692 181.619 143.545 182.055 143.25C182.492 142.955 182.834 142.548 183.082 142.029C183.329 141.51 183.453 140.914 183.453 140.242C183.453 139.558 183.329 138.962 183.082 138.454C182.834 137.935 182.492 137.528 182.055 137.233C181.619 136.939 181.105 136.791 180.516 136.791C179.938 136.791 179.43 136.939 178.994 137.233C178.557 137.528 178.215 137.935 177.967 138.454C177.72 138.962 177.596 139.558 177.596 140.242C177.596 140.914 177.72 141.51 177.967 142.029C178.215 142.548 178.557 142.955 178.994 143.25C179.43 143.545 179.938 143.692 180.516 143.692ZM194.718 144.595H193.373V142.896L193.356 142.401V135.889H194.718V144.595ZM193.515 140.826L193.798 141.197C193.845 141.905 193.721 142.536 193.426 143.091C193.143 143.645 192.742 144.082 192.223 144.4C191.704 144.719 191.102 144.878 190.418 144.878C189.439 144.878 188.654 144.565 188.064 143.94C187.475 143.315 187.18 142.412 187.18 141.233V135.889H188.542V141.091C188.542 141.941 188.731 142.589 189.109 143.038C189.486 143.474 190.017 143.692 190.701 143.692C191.185 143.692 191.627 143.575 192.028 143.339C192.441 143.091 192.777 142.755 193.037 142.33C193.308 141.893 193.468 141.392 193.515 140.826ZM205.299 144.595H203.936V139.587C203.936 138.667 203.742 137.977 203.352 137.517C202.975 137.045 202.462 136.809 201.813 136.809C201.341 136.809 200.898 136.944 200.486 137.216C200.073 137.475 199.736 137.894 199.477 138.472C199.217 139.038 199.088 139.776 199.088 140.684V144.595H197.725V135.889H199.07V138.543H198.84C198.97 137.823 199.194 137.251 199.512 136.826C199.843 136.39 200.232 136.077 200.68 135.889C201.128 135.7 201.594 135.605 202.078 135.605C203.081 135.605 203.865 135.936 204.432 136.596C205.01 137.245 205.299 138.189 205.299 139.428V144.595ZM212.676 144.595H210.729C210.116 144.595 209.65 144.43 209.331 144.099C209.013 143.757 208.853 143.274 208.853 142.648V133.34H210.216V142.525C210.216 142.808 210.287 143.032 210.428 143.197C210.57 143.35 210.782 143.427 211.065 143.427H212.676V144.595ZM212.552 137.056H207.19V135.889H212.552V137.056ZM159.994 166.595V164.241L159.977 164.206V162.49C159.977 161.758 159.853 161.115 159.605 160.561C159.357 160.006 159.009 159.576 158.561 159.269C158.124 158.95 157.617 158.791 157.039 158.791C156.473 158.791 155.965 158.939 155.517 159.233C155.081 159.528 154.739 159.935 154.491 160.454C154.243 160.974 154.119 161.569 154.119 162.242C154.119 162.914 154.243 163.51 154.491 164.029C154.75 164.548 155.104 164.955 155.553 165.25C156.001 165.545 156.514 165.692 157.092 165.692C157.635 165.692 158.124 165.569 158.561 165.321C159.009 165.073 159.369 164.737 159.64 164.312C159.924 163.876 160.089 163.38 160.136 162.826L160.401 163.18C160.484 163.876 160.372 164.507 160.065 165.073C159.77 165.628 159.345 166.07 158.791 166.4C158.236 166.719 157.605 166.878 156.897 166.878C156.083 166.878 155.358 166.678 154.721 166.276C154.096 165.875 153.6 165.327 153.234 164.631C152.869 163.935 152.686 163.138 152.686 162.242C152.686 161.357 152.863 160.567 153.217 159.87C153.582 159.163 154.078 158.608 154.703 158.207C155.34 157.806 156.054 157.605 156.844 157.605C157.434 157.605 157.977 157.729 158.472 157.977C158.968 158.225 159.381 158.567 159.711 159.003C160.041 159.44 160.248 159.947 160.331 160.525H159.977V153.854H161.339V166.595H159.994ZM170.965 164.1L171.885 164.985C171.425 165.622 170.882 166.099 170.257 166.418C169.643 166.725 168.965 166.878 168.222 166.878C167.349 166.878 166.576 166.678 165.903 166.276C165.243 165.875 164.724 165.327 164.346 164.631C163.981 163.923 163.798 163.127 163.798 162.242C163.798 161.357 163.981 160.567 164.346 159.87C164.724 159.163 165.231 158.608 165.868 158.207C166.517 157.806 167.242 157.605 168.045 157.605C168.835 157.605 169.531 157.8 170.133 158.189C170.746 158.579 171.224 159.121 171.566 159.817C171.908 160.502 172.079 161.292 172.079 162.189V162.295H170.699V162.171C170.699 161.156 170.457 160.342 169.974 159.729C169.49 159.104 168.847 158.791 168.045 158.791C167.502 158.791 167.012 158.939 166.576 159.233C166.151 159.517 165.815 159.918 165.567 160.437C165.331 160.956 165.213 161.552 165.213 162.224C165.213 162.897 165.337 163.492 165.585 164.011C165.845 164.53 166.204 164.943 166.664 165.25C167.136 165.545 167.685 165.692 168.31 165.692C168.853 165.692 169.342 165.563 169.779 165.303C170.215 165.044 170.611 164.643 170.965 164.1ZM172.079 162.72H164.877V161.605H171.814L172.079 162.189V162.72ZM178.727 166.595H176.78C176.167 166.595 175.701 166.43 175.382 166.099C175.064 165.757 174.904 165.274 174.904 164.648V155.34H176.267V164.525C176.267 164.808 176.338 165.032 176.479 165.197C176.621 165.35 176.833 165.427 177.116 165.427H178.727V166.595ZM178.603 159.056H173.241V157.889H178.603V159.056ZM187.662 166.595H186.37V164.896L186.352 164.401V161.162C186.352 160.431 186.128 159.853 185.68 159.428C185.243 158.992 184.641 158.773 183.875 158.773C182.872 158.773 182.022 159.192 181.326 160.03L180.442 159.163C181.433 158.124 182.606 157.605 183.963 157.605C184.706 157.605 185.355 157.753 185.91 158.048C186.464 158.331 186.895 158.738 187.201 159.269C187.508 159.788 187.662 160.401 187.662 161.109V166.595ZM183.291 166.878C182.677 166.878 182.134 166.76 181.663 166.524C181.191 166.288 180.819 165.964 180.548 165.551C180.288 165.126 180.158 164.648 180.158 164.118C180.158 163.233 180.495 162.531 181.167 162.012C181.851 161.493 182.766 161.233 183.91 161.233H186.511V162.33H184.069C183.279 162.33 182.665 162.484 182.229 162.79C181.792 163.085 181.574 163.51 181.574 164.064C181.574 164.572 181.745 164.979 182.087 165.285C182.441 165.592 182.907 165.746 183.485 165.746C184.052 165.746 184.559 165.628 185.007 165.392C185.455 165.144 185.815 164.808 186.087 164.383C186.358 163.946 186.511 163.451 186.547 162.897L187.06 163.197C187.06 163.905 186.895 164.536 186.564 165.091C186.246 165.645 185.803 166.082 185.237 166.4C184.671 166.719 184.022 166.878 183.291 166.878ZM191.873 166.595H190.51V157.889H191.873V166.595ZM192.138 154.597C192.138 154.88 192.044 155.116 191.855 155.305C191.678 155.482 191.454 155.57 191.182 155.57C190.911 155.57 190.681 155.482 190.492 155.305C190.315 155.116 190.227 154.88 190.227 154.597C190.227 154.314 190.315 154.084 190.492 153.907C190.681 153.718 190.911 153.624 191.182 153.624C191.454 153.624 191.678 153.718 191.855 153.907C192.044 154.084 192.138 154.314 192.138 154.597ZM196.245 166.595H194.882V153.854H196.245V166.595ZM198.228 165.25L199.113 164.312C199.49 164.749 199.921 165.097 200.405 165.356C200.9 165.604 201.455 165.728 202.068 165.728C202.705 165.728 203.218 165.58 203.608 165.285C204.009 164.991 204.209 164.607 204.209 164.135C204.209 163.746 204.038 163.439 203.696 163.215C203.366 162.979 202.794 162.802 201.98 162.684C200.741 162.484 199.868 162.195 199.361 161.817C198.865 161.44 198.617 160.915 198.617 160.242C198.617 159.711 198.759 159.251 199.042 158.862C199.325 158.461 199.72 158.154 200.228 157.942C200.735 157.717 201.319 157.605 201.98 157.605C202.711 157.605 203.366 157.747 203.944 158.03C204.522 158.313 205.035 158.714 205.483 159.233L204.599 160.171C204.268 159.735 203.885 159.393 203.448 159.145C203.024 158.885 202.534 158.756 201.98 158.756C201.401 158.756 200.93 158.891 200.564 159.163C200.198 159.422 200.015 159.758 200.015 160.171C200.015 160.395 200.08 160.59 200.21 160.755C200.34 160.909 200.558 161.038 200.865 161.145C201.171 161.251 201.584 161.345 202.103 161.428C203.389 161.617 204.298 161.923 204.829 162.348C205.359 162.761 205.625 163.351 205.625 164.118C205.625 164.66 205.472 165.144 205.165 165.569C204.858 165.982 204.433 166.306 203.891 166.542C203.36 166.766 202.752 166.878 202.068 166.878C201.219 166.878 200.487 166.737 199.874 166.453C199.26 166.158 198.712 165.757 198.228 165.25Z" fill="#585E44"/>
<circle cx="637.928" cy="192.323" r="24.016" fill="#8D9180" fill-opacity="0.16"/>
<path d="M647.543 182.212C647.417 182.215 647.298 182.267 647.21 182.357L645.145 184.424L644.522 183.802C644.176 183.456 643.778 183.264 643.385 183.254C643.15 183.247 642.931 183.282 642.671 183.318L639.301 183.786C638.062 183.958 637.432 184.489 636.633 185.234L628.343 192.959C628.34 192.962 628.337 192.965 628.334 192.968C627.975 193.322 627.82 193.806 627.815 194.282C627.809 194.758 627.959 195.262 628.359 195.603L628.331 195.577L634.673 201.918L634.647 201.891C634.988 202.29 635.492 202.441 635.968 202.435C636.444 202.43 636.928 202.274 637.281 201.916C637.285 201.913 637.288 201.91 637.291 201.906L637.86 201.295L640.127 202.14C640.62 202.323 641.124 202.289 641.555 202.087C641.986 201.884 642.361 201.542 642.535 201.069L645.023 193.609C645.764 192.814 646.292 192.184 646.464 190.948L646.932 187.578C646.968 187.319 647.002 187.1 646.996 186.864C646.985 186.472 646.794 186.074 646.448 185.728L645.825 185.105L647.892 183.038C648.207 182.732 647.981 182.199 647.543 182.212ZM643.359 184.217C643.548 184.222 643.586 184.227 643.841 184.483L644.464 185.105L643.359 186.211C643.17 186.12 642.96 186.067 642.738 186.067C641.946 186.067 641.293 186.72 641.293 187.512C641.293 188.304 641.946 188.957 642.738 188.957C643.53 188.957 644.183 188.304 644.183 187.512C644.183 187.29 644.13 187.08 644.039 186.892L645.145 185.786L645.767 186.408C646.023 186.664 646.028 186.702 646.033 186.891C646.036 187.004 646.015 187.186 645.979 187.446L645.51 190.816C645.365 191.86 645.052 192.166 644.311 192.961L636.595 201.241C636.471 201.367 636.213 201.469 635.957 201.472C635.7 201.475 635.48 201.383 635.379 201.265C635.371 201.256 635.362 201.247 635.353 201.238L629.012 194.896C629.003 194.887 628.994 194.879 628.984 194.87C628.866 194.77 628.774 194.549 628.777 194.293C628.78 194.036 628.883 193.779 629.009 193.654L629.01 193.654L637.289 185.939C638.084 185.198 638.389 184.885 639.434 184.739L642.804 184.271C643.064 184.235 643.246 184.214 643.359 184.217ZM642.738 187.03C643.01 187.03 643.219 187.241 643.219 187.512C643.219 187.784 643.01 187.994 642.738 187.994C642.467 187.994 642.257 187.784 642.257 187.512C642.257 187.241 642.467 187.03 642.738 187.03ZM634.549 192.322C634.117 192.322 633.904 192.847 634.213 193.148L637.102 196.037C637.557 196.491 638.237 195.809 637.783 195.355L634.893 192.468C634.803 192.375 634.678 192.322 634.549 192.322ZM633.104 193.765C632.67 193.764 632.456 194.291 632.768 194.593L635.658 197.48C636.111 197.965 636.823 197.253 636.338 196.799L633.45 193.912C633.36 193.818 633.235 193.765 633.104 193.765ZM643.442 195.305L641.63 200.738C641.569 200.905 641.378 201.106 641.145 201.216C640.913 201.325 640.679 201.322 640.534 201.267L638.57 200.533L643.442 195.305Z" fill="#585E44"/>
<circle cx="637.928" cy="264.371" r="24.016" fill="#8D9180" fill-opacity="0.16"/>
<path d="M646.017 274.483H634.25C633.714 274.483 633.199 274.27 632.82 273.891C632.441 273.511 632.227 272.997 632.227 272.461V272.13C630.973 271.839 629.853 271.132 629.052 270.124C628.251 269.115 627.814 267.865 627.814 266.577C627.814 265.289 628.251 264.039 629.052 263.031C629.853 262.023 630.973 261.316 632.227 261.025V256.281C632.227 255.745 632.441 255.231 632.82 254.851C633.199 254.472 633.714 254.259 634.25 254.259H642.464C642.731 254.259 642.995 254.311 643.241 254.413C643.487 254.515 643.711 254.666 643.899 254.855L647.443 258.399C647.637 258.592 647.79 258.821 647.892 259.074C647.994 259.327 648.044 259.598 648.039 259.87V272.461C648.039 272.997 647.826 273.511 647.447 273.891C647.067 274.27 646.553 274.483 646.017 274.483ZM633.331 272.277V272.461C633.331 272.704 633.427 272.938 633.6 273.111C633.772 273.283 634.006 273.38 634.25 273.38H646.017C646.26 273.38 646.494 273.283 646.667 273.111C646.839 272.938 646.936 272.704 646.936 272.461V260.51H643.81C643.274 260.51 642.76 260.297 642.38 259.918C642.001 259.538 641.788 259.024 641.788 258.488V255.362H634.25C634.006 255.362 633.772 255.459 633.6 255.631C633.427 255.804 633.331 256.038 633.331 256.281V260.878H633.514C635.026 260.878 636.476 261.478 637.545 262.547C638.613 263.616 639.214 265.066 639.214 266.577C639.214 268.089 638.613 269.539 637.545 270.607C636.476 271.676 635.026 272.277 633.514 272.277H633.331ZM633.514 261.981C632.605 261.981 631.717 262.25 630.961 262.756C630.205 263.261 629.616 263.978 629.268 264.818C628.92 265.658 628.829 266.582 629.006 267.474C629.184 268.366 629.622 269.185 630.264 269.827C630.907 270.47 631.726 270.908 632.618 271.085C633.509 271.263 634.434 271.172 635.273 270.824C636.113 270.476 636.831 269.887 637.336 269.131C637.841 268.375 638.111 267.486 638.111 266.577C638.111 265.358 637.627 264.189 636.765 263.327C635.903 262.465 634.733 261.981 633.514 261.981ZM642.891 255.465V258.488C642.891 258.731 642.988 258.965 643.16 259.138C643.333 259.31 643.567 259.407 643.81 259.407H646.833C646.787 259.323 646.73 259.247 646.664 259.179L643.119 255.634C643.051 255.568 642.975 255.511 642.891 255.465ZM644.546 269.335H640.869C640.722 269.335 640.582 269.277 640.479 269.174C640.375 269.07 640.317 268.93 640.317 268.784C640.317 268.637 640.375 268.497 640.479 268.394C640.582 268.29 640.722 268.232 640.869 268.232H644.546C644.692 268.232 644.832 268.29 644.936 268.394C645.039 268.497 645.097 268.637 645.097 268.784C645.097 268.93 645.039 269.07 644.936 269.174C644.832 269.277 644.692 269.335 644.546 269.335ZM632.411 268.232C632.269 268.221 632.137 268.155 632.044 268.048C631.953 267.947 631.903 267.816 631.903 267.68C631.903 267.545 631.953 267.414 632.044 267.313L632.985 266.371V264.371C632.985 264.225 633.043 264.084 633.147 263.981C633.25 263.878 633.39 263.819 633.537 263.819C633.683 263.819 633.823 263.878 633.927 263.981C634.03 264.084 634.088 264.225 634.088 264.371V266.577C634.088 266.724 634.03 266.864 633.926 266.967L632.779 268.048C632.685 268.155 632.553 268.221 632.411 268.232ZM644.546 266.393H641.604C641.458 266.393 641.317 266.335 641.214 266.232C641.111 266.128 641.052 265.988 641.052 265.842C641.052 265.696 641.111 265.555 641.214 265.452C641.317 265.348 641.458 265.29 641.604 265.29H644.546C644.692 265.29 644.832 265.348 644.936 265.452C645.039 265.555 645.097 265.696 645.097 265.842C645.097 265.988 645.039 266.128 644.936 266.232C644.832 266.335 644.692 266.393 644.546 266.393ZM644.546 263.452H640.869C640.722 263.452 640.582 263.394 640.479 263.29C640.375 263.187 640.317 263.046 640.317 262.9C640.317 262.754 640.375 262.614 640.479 262.51C640.582 262.407 640.722 262.349 640.869 262.349H644.546C644.692 262.349 644.832 262.407 644.936 262.51C645.039 262.614 645.097 262.754 645.097 262.9C645.097 263.046 645.039 263.187 644.936 263.29C644.832 263.394 644.692 263.452 644.546 263.452ZM639.398 260.51H637.192C637.045 260.51 636.905 260.452 636.802 260.349C636.698 260.245 636.64 260.105 636.64 259.959C636.64 259.812 636.698 259.672 636.802 259.569C636.905 259.465 637.045 259.407 637.192 259.407H639.398C639.544 259.407 639.684 259.465 639.788 259.569C639.891 259.672 639.949 259.812 639.949 259.959C639.949 260.105 639.891 260.245 639.788 260.349C639.684 260.452 639.544 260.51 639.398 260.51Z" fill="#585E44"/>
<circle cx="637.928" cy="335.155" r="24.016" fill="#8D9180" fill-opacity="0.16"/>
<path d="M647.687 332.909C647.312 332.522 647.14 331.995 647.216 331.46L647.285 330.971C647.492 329.509 646.516 328.163 645.061 327.909L644.576 327.823C644.046 327.729 643.595 327.404 643.343 326.928L643.111 326.494C642.419 325.19 640.838 324.675 639.512 325.326L639.068 325.54C638.585 325.777 638.028 325.777 637.545 325.54L637.103 325.323C635.777 324.675 634.197 325.188 633.504 326.492L633.272 326.926C633.018 327.402 632.569 327.729 632.039 327.821L631.554 327.907C630.099 328.161 629.123 329.507 629.33 330.969L629.399 331.457C629.475 331.992 629.303 332.52 628.928 332.907L628.585 333.259C627.557 334.319 627.557 335.983 628.585 337.044L628.928 337.399C629.303 337.786 629.475 338.313 629.399 338.848L629.33 339.336C629.123 340.798 630.099 342.144 631.554 342.398L632.039 342.485C632.569 342.578 633.021 342.904 633.272 343.379L633.504 343.813C633.994 344.735 634.926 345.263 635.903 345.263C636.305 345.263 636.716 345.172 637.103 344.982L637.545 344.77C638.028 344.533 638.585 344.533 639.068 344.77L639.509 344.987C640.836 345.635 642.416 345.122 643.109 343.818L643.341 343.384C643.595 342.909 644.043 342.581 644.573 342.489L645.059 342.403C646.514 342.149 647.49 340.803 647.283 339.341L647.214 338.853C647.137 338.318 647.31 337.791 647.685 337.403L648.027 337.051C649.055 335.991 649.055 334.327 648.027 333.267L647.687 332.909ZM647.32 336.363L646.977 336.716C646.39 337.322 646.119 338.153 646.237 338.989L646.306 339.477C646.44 340.409 645.816 341.267 644.889 341.429L644.403 341.516C643.57 341.661 642.865 342.174 642.47 342.921L642.239 343.355C641.797 344.186 640.789 344.516 639.943 344.102L639.502 343.885C638.743 343.513 637.87 343.513 637.111 343.885L636.669 344.102C635.824 344.516 634.815 344.188 634.374 343.355L634.142 342.921C633.745 342.174 633.04 341.661 632.21 341.516L631.724 341.429C630.797 341.267 630.173 340.409 630.306 339.477L630.375 338.989C630.494 338.15 630.225 337.322 629.636 336.716L629.293 336.361C628.637 335.683 628.637 334.625 629.293 333.947L629.636 333.595C630.222 332.988 630.494 332.157 630.375 331.321L630.306 330.833C630.173 329.901 630.797 329.043 631.724 328.881L632.21 328.794C633.043 328.649 633.748 328.136 634.142 327.389L634.374 326.955C634.687 326.366 635.281 326.031 635.903 326.031C636.159 326.031 636.42 326.088 636.669 326.208L637.111 326.425C637.87 326.798 638.743 326.798 639.502 326.425L639.943 326.208C640.789 325.794 641.797 326.122 642.239 326.955L642.47 327.389C642.867 328.136 643.572 328.649 644.403 328.794L644.889 328.881C645.816 329.043 646.44 329.901 646.306 330.833L646.237 331.321C646.119 332.16 646.388 332.988 646.977 333.595L647.32 333.95C647.975 334.625 647.975 335.685 647.32 336.363Z" fill="#585E44"/>
<path d="M642.229 331.233C642.037 331.04 641.724 331.04 641.532 331.233L634.384 338.38C634.192 338.572 634.192 338.885 634.384 339.077C634.481 339.173 634.606 339.223 634.732 339.223C634.858 339.223 634.984 339.173 635.08 339.077L642.227 331.93C642.421 331.738 642.421 331.425 642.229 331.233Z" fill="#585E44"/>
<path d="M636.303 333.851C636.84 333.851 637.375 333.647 637.784 333.238C638.6 332.422 638.6 331.09 637.784 330.274C636.968 329.458 635.637 329.458 634.821 330.274C634.424 330.669 634.207 331.196 634.207 331.756C634.207 332.316 634.424 332.843 634.821 333.238C635.23 333.647 635.765 333.851 636.303 333.851ZM635.519 330.972C635.736 330.755 636.019 330.647 636.303 330.647C636.586 330.647 636.87 330.755 637.087 330.972C637.518 331.403 637.518 332.108 637.087 332.54C636.653 332.971 635.95 332.971 635.519 332.54C635.309 332.33 635.193 332.052 635.193 331.756C635.193 331.46 635.309 331.182 635.519 330.972Z" fill="#585E44"/>
<path d="M638.831 337.074C638.015 337.89 638.015 339.221 638.831 340.037C639.24 340.446 639.775 340.651 640.312 340.651C640.85 340.651 641.385 340.446 641.794 340.037C642.191 339.64 642.408 339.115 642.408 338.555C642.408 337.996 642.191 337.468 641.794 337.074C640.978 336.255 639.649 336.255 638.831 337.074ZM641.096 339.339C640.665 339.771 639.96 339.771 639.528 339.339C639.097 338.908 639.097 338.203 639.528 337.771C639.745 337.554 640.029 337.446 640.312 337.446C640.596 337.446 640.879 337.554 641.096 337.771C641.306 337.981 641.422 338.26 641.422 338.555C641.422 338.851 641.306 339.13 641.096 339.339Z" fill="#585E44"/>
<circle cx="414.2" cy="410.995" r="24.016" fill="#8D9180" fill-opacity="0.16"/>
<path fill-rule="evenodd" clip-rule="evenodd" d="M408.128 402.305C407.63 402.305 407.174 402.587 406.951 403.033L405.998 404.938H422.401L421.449 403.033C421.226 402.587 420.77 402.305 420.271 402.305H408.128ZM422.89 406.518H405.51V418.368C405.51 419.096 406.099 419.685 406.826 419.685H421.573C422.3 419.685 422.89 419.096 422.89 418.368V406.518ZM405.537 402.326C406.028 401.345 407.031 400.725 408.128 400.725H420.271C421.368 400.725 422.371 401.345 422.862 402.326L424.386 405.375C424.441 405.485 424.47 405.606 424.47 405.728V418.368C424.47 419.968 423.173 421.265 421.573 421.265H406.826C405.227 421.265 403.93 419.968 403.93 418.368V405.728C403.93 405.606 403.958 405.485 404.013 405.375L405.537 402.326Z" fill="#585E44"/>
<path fill-rule="evenodd" clip-rule="evenodd" d="M410.775 416.261C410.775 415.825 411.129 415.471 411.565 415.471H416.832C417.268 415.471 417.622 415.825 417.622 416.261C417.622 416.698 417.268 417.051 416.832 417.051H411.565C411.129 417.051 410.775 416.698 410.775 416.261Z" fill="#585E44"/>
<circle cx="175.305" cy="327.571" r="24.016" fill="#8D9180" fill-opacity="0.16"/>
<g clip-path="url(#clip0_642_240)">
<path d="M168.589 334.681H166.377C166.072 334.681 165.824 334.433 165.824 334.128C165.824 333.823 166.072 333.575 166.377 333.575H168.589C168.894 333.575 169.142 333.823 169.142 334.128C169.142 334.433 168.894 334.681 168.589 334.681Z" fill="#585E44"/>
<path d="M186.561 334.681H185.179C184.873 334.681 184.626 334.433 184.626 334.128C184.626 333.823 184.873 333.575 185.179 333.575H186.102L186.848 329.602C186.838 327.57 185.101 325.833 182.967 325.833H179.336L177.576 333.575H180.755C181.06 333.575 181.308 333.823 181.308 334.128C181.308 334.433 181.06 334.681 180.755 334.681H176.884C176.716 334.681 176.556 334.605 176.451 334.473C176.346 334.343 176.306 334.17 176.344 334.007L178.355 325.159C178.412 324.905 178.636 324.727 178.894 324.727H182.967C185.711 324.727 187.944 326.96 187.944 329.704L187.104 334.23C187.056 334.492 186.828 334.681 186.561 334.681Z" fill="#585E44"/>
<path d="M182.968 336.893C181.444 336.893 180.203 335.653 180.203 334.128C180.203 332.603 181.444 331.363 182.968 331.363C184.492 331.363 185.733 332.603 185.733 334.128C185.733 335.653 184.492 336.893 182.968 336.893ZM182.968 332.469C182.053 332.469 181.309 333.213 181.309 334.128C181.309 335.043 182.053 335.787 182.968 335.787C183.883 335.787 184.627 335.043 184.627 334.128C184.627 333.213 183.883 332.469 182.968 332.469Z" fill="#585E44"/>
<path d="M170.802 336.893C169.278 336.893 168.037 335.653 168.037 334.128C168.037 332.603 169.278 331.363 170.802 331.363C172.326 331.363 173.567 332.603 173.567 334.128C173.567 335.653 172.326 336.893 170.802 336.893ZM170.802 332.469C169.887 332.469 169.143 333.213 169.143 334.128C169.143 335.043 169.887 335.787 170.802 335.787C171.717 335.787 172.461 335.043 172.461 334.128C172.461 333.213 171.717 332.469 170.802 332.469Z" fill="#585E44"/>
<path d="M168.59 324.727H164.166C163.861 324.727 163.613 324.479 163.613 324.174C163.613 323.869 163.861 323.621 164.166 323.621H168.59C168.896 323.621 169.143 323.869 169.143 324.174C169.143 324.479 168.896 324.727 168.59 324.727Z" fill="#585E44"/>
<path d="M168.589 328.045H163.059C162.754 328.045 162.506 327.797 162.506 327.492C162.506 327.187 162.754 326.939 163.059 326.939H168.589C168.894 326.939 169.142 327.187 169.142 327.492C169.142 327.797 168.894 328.045 168.589 328.045Z" fill="#585E44"/>
<path d="M168.589 331.363H161.953C161.648 331.363 161.4 331.115 161.4 330.81C161.4 330.505 161.648 330.257 161.953 330.257H168.589C168.895 330.257 169.142 330.505 169.142 330.81C169.142 331.115 168.895 331.363 168.589 331.363Z" fill="#585E44"/>
<path d="M176.884 334.681H173.013C172.708 334.681 172.46 334.433 172.46 334.128C172.46 333.823 172.708 333.575 173.013 333.575H176.443L178.956 322.515H166.377C166.072 322.515 165.824 322.267 165.824 321.962C165.824 321.657 166.072 321.409 166.377 321.409H179.649C179.817 321.409 179.977 321.485 180.082 321.617C180.187 321.748 180.227 321.92 180.189 322.084L177.424 334.25C177.366 334.503 177.142 334.681 176.884 334.681Z" fill="#585E44"/>
</g>
<circle cx="176.567" cy="263.107" r="24.016" fill="#8D9180" fill-opacity="0.16"/>
<g clip-path="url(#clip1_642_240)">
<path d="M185.294 258.577L185.279 258.551C185.258 258.508 185.234 258.467 185.208 258.427L182.394 253.563C182.192 253.213 181.814 252.995 181.409 252.995H171.727C171.321 252.995 170.944 253.213 170.741 253.565L167.882 258.525C167.856 258.57 167.837 258.617 167.824 258.664C167.784 258.773 167.762 258.89 167.762 259.013V271.825C167.762 272.594 168.387 273.219 169.155 273.219H183.98C184.749 273.219 185.374 272.594 185.374 271.825V258.966C185.374 258.949 185.373 258.932 185.372 258.915C185.38 258.801 185.356 258.683 185.294 258.577ZM177.181 254.181H181.382L183.595 258.007H177.181V254.181ZM171.754 254.181H175.995V258.007H169.548L171.754 254.181ZM184.188 271.825C184.188 271.94 184.095 272.034 183.98 272.034H169.155C169.041 272.034 168.947 271.94 168.947 271.825V259.192H184.188V271.825Z" fill="#585E44"/>
<path d="M179.258 263.661C179.027 263.43 178.652 263.43 178.42 263.661L175.774 266.308L174.756 265.29C174.525 265.059 174.149 265.059 173.918 265.29C173.686 265.522 173.686 265.897 173.918 266.128L175.355 267.565C175.47 267.681 175.622 267.739 175.774 267.739C175.925 267.739 176.077 267.681 176.193 267.565L179.258 264.5C179.49 264.268 179.49 263.893 179.258 263.661Z" fill="#585E44"/>
</g>
<circle cx="176.567" cy="201.171" r="24.016" fill="#8D9180" fill-opacity="0.16"/>
<path fill-rule="evenodd" clip-rule="evenodd" d="M180.783 196.958C180.783 194.049 178.425 191.691 175.517 191.691C172.608 191.691 170.25 194.049 170.25 196.958C170.25 199.867 172.608 202.225 175.517 202.225C178.425 202.225 180.783 199.867 180.783 196.958ZM171.303 196.958C171.303 194.631 173.19 192.745 175.517 192.745C177.844 192.745 179.73 194.631 179.73 196.958C179.73 199.285 177.844 201.171 175.517 201.171C173.19 201.171 171.303 199.285 171.303 196.958Z" fill="#585E44"/>
<path fill-rule="evenodd" clip-rule="evenodd" d="M167.613 209.598C167.326 209.598 167.087 209.362 167.087 209.079V207.228C167.087 204.627 170.418 202.225 175.513 202.225C178.461 202.225 180.809 202.988 182.327 204.273C182.55 204.46 182.882 204.433 183.07 204.211C183.258 203.989 183.23 203.656 183.008 203.468C181.288 202.013 178.698 201.171 175.513 201.171C169.897 201.171 166.033 203.958 166.033 207.228V209.079C166.033 209.946 166.747 210.651 167.613 210.651H179.764C180.054 210.651 180.29 210.416 180.29 210.125C180.29 209.834 180.054 209.598 179.764 209.598H167.613Z" fill="#585E44"/>
<path fill-rule="evenodd" clip-rule="evenodd" d="M188.154 208.018C188.154 205.4 186.032 203.278 183.414 203.278C180.796 203.278 178.674 205.4 178.674 208.018C178.674 210.636 180.796 212.758 183.414 212.758C186.032 212.758 188.154 210.636 188.154 208.018ZM179.727 208.018C179.727 205.982 181.378 204.331 183.414 204.331C185.45 204.331 187.1 205.982 187.1 208.018C187.1 210.054 185.45 211.704 183.414 211.704C181.378 211.704 179.727 210.054 179.727 208.018Z" fill="#585E44"/>
<path fill-rule="evenodd" clip-rule="evenodd" d="M182.889 210.125C182.889 210.416 183.124 210.651 183.415 210.651C183.706 210.651 183.942 210.416 183.942 210.125V208.018C183.942 207.727 183.706 207.491 183.415 207.491C183.124 207.491 182.889 207.727 182.889 208.018V210.125Z" fill="#585E44"/>
<path d="M183.415 206.438C183.706 206.438 183.942 206.202 183.942 205.912C183.942 205.621 183.706 205.385 183.415 205.385C183.124 205.385 182.889 205.621 182.889 205.912C182.889 206.202 183.124 206.438 183.415 206.438Z" fill="#585E44"/>
<circle cx="414.2" cy="117.747" r="24.016" fill="#8D9180" fill-opacity="0.16"/>
<path d="M411.993 124.692C410.456 124.692 408.943 124.308 407.611 123.581L403.727 124.226C403.482 124.267 403.237 124.185 403.065 124.006C402.894 123.826 402.82 123.581 402.869 123.343L403.654 119.354C403.065 118.079 402.787 116.713 402.828 115.291C402.959 110.337 407.096 106.339 412.05 106.372C414.478 106.388 416.751 107.344 418.467 109.061C420.184 110.778 421.133 113.059 421.149 115.487C421.165 117.931 420.217 120.245 418.476 121.994C416.742 123.736 414.437 124.692 411.993 124.692ZM407.856 122.232L408.06 122.346C409.254 123.033 410.611 123.401 412.001 123.401C414.102 123.401 416.08 122.575 417.576 121.071C419.072 119.566 419.89 117.58 419.874 115.479C419.849 111.195 416.342 107.68 412.058 107.655C412.042 107.655 412.017 107.655 412.001 107.655C407.766 107.655 404.242 111.08 404.128 115.315C404.095 116.599 404.357 117.833 404.921 118.978L405.019 119.174L404.3 122.82L407.856 122.232Z" fill="#585E44"/>
<path d="M419.064 129.124C416.031 129.124 413.333 127.08 412.507 124.153L412.303 123.442L413.039 123.344C416.644 122.862 419.505 119.878 419.832 116.256L419.898 115.512L420.617 115.684C423.626 116.395 425.784 119.052 425.866 122.134C425.89 123.156 425.686 124.178 425.277 125.102L425.833 127.938C425.882 128.167 425.808 128.413 425.645 128.576C425.481 128.748 425.244 128.821 425.007 128.789L422.252 128.331C421.287 128.846 420.184 129.124 419.064 129.124ZM413.987 124.472C414.853 126.483 416.848 127.832 419.064 127.832C420.037 127.832 420.993 127.579 421.827 127.088L422.031 126.974L424.427 127.366L423.944 124.914L424.042 124.717C424.435 123.916 424.623 123.05 424.598 122.15C424.541 119.894 423.102 117.915 421.026 117.131C420.364 120.744 417.559 123.671 413.987 124.472Z" fill="#585E44"/>
<defs>
<clipPath id="clip0_642_240">
<rect width="26.544" height="26.544" fill="white" transform="translate(161.4 313.667)"/>
</clipPath>
<clipPath id="clip1_642_240">
<rect width="20.224" height="20.224" fill="white" transform="translate(166.457 252.995)"/>
</clipPath>
</defs>
</svg>
