<svg width="752" height="501" viewBox="0 0 752 501" fill="none" xmlns="http://www.w3.org/2000/svg">
<rect x="0.404297" y="0.246826" width="751.405" height="500" rx="28.599" fill="#F9FFE5"/>
<path d="M226.602 85.2188H525.613C532.982 85.219 538.955 91.1927 538.955 98.5615V146.314C538.955 153.683 532.982 159.657 525.613 159.657H226.602C219.233 159.657 213.259 153.683 213.259 146.314V98.5615C213.259 91.1926 219.233 85.2188 226.602 85.2188Z" stroke="#8D9180" stroke-opacity="0.3" stroke-width="1.40449"/>
<rect x="222.389" y="94.3481" width="56.1798" height="56.1798" rx="7.39208" fill="#585E44"/>
<path d="M265.533 108.545C265.482 108.315 265.303 108.136 265.072 108.084C265.017 108.072 262.664 107.594 259.38 108.437C259.352 108.435 259.327 108.424 259.298 108.426C259.186 108.433 259.089 108.477 259.002 108.535C255.894 109.412 252.031 111.497 248.49 116.199C246.836 116.038 240.06 115.913 237.383 124.207C237.297 124.472 237.403 124.76 237.638 124.909C237.737 124.972 237.85 125.002 237.962 125.002C238.113 125.002 238.264 124.945 238.381 124.836C238.412 124.805 241.412 122.015 244.627 122.83C244.405 123.32 244.186 123.82 243.971 124.342C243.879 124.569 243.931 124.83 244.105 125.003L244.337 125.235L242.901 126.671C242.663 126.909 242.663 127.294 242.901 127.532L246.086 130.717C246.204 130.835 246.36 130.895 246.516 130.895C246.672 130.895 246.828 130.835 246.946 130.717L248.383 129.281L248.615 129.513C248.731 129.629 248.887 129.691 249.045 129.691C249.123 129.691 249.201 129.677 249.275 129.646C249.798 129.432 250.298 129.212 250.788 128.99C251.602 132.202 248.812 135.205 248.781 135.237C248.591 135.439 248.56 135.745 248.708 135.981C248.823 136.161 249.019 136.265 249.224 136.265C249.286 136.265 249.349 136.255 249.411 136.235C257.707 133.556 257.58 126.779 257.418 125.127C262.119 121.587 264.204 117.726 265.081 114.618C265.14 114.531 265.185 114.434 265.191 114.322C265.193 114.293 265.182 114.268 265.18 114.239C266.024 110.955 265.546 108.601 265.533 108.545ZM246.517 129.426L244.192 127.101L245.197 126.096L247.522 128.421L246.517 129.426ZM264.412 109.205C264.512 109.926 264.628 111.544 264.157 113.626C263.112 113.461 262.144 112.973 261.392 112.221C260.639 111.467 260.151 110.501 259.991 109.46C262.075 108.989 263.694 109.106 264.412 109.205ZM239.308 122.666C241.69 117.809 245.793 117.309 247.663 117.356C246.797 118.631 245.957 120.077 245.158 121.713C242.872 121.028 240.734 121.834 239.308 122.666ZM250.952 134.31C251.784 132.883 252.59 130.745 251.905 128.459C253.541 127.66 254.987 126.821 256.261 125.954C256.308 127.826 255.807 131.928 250.952 134.31ZM256.48 124.347C256.449 124.364 256.423 124.383 256.396 124.405C254.473 125.796 252.107 127.14 249.188 128.365L245.253 124.43C246.476 121.514 247.818 119.152 249.207 117.23C249.232 117.201 249.255 117.17 249.274 117.135C252.499 112.709 255.97 110.677 258.815 109.78C259.035 111.024 259.627 112.177 260.532 113.081C261.435 113.985 262.591 114.579 263.839 114.802C262.941 117.647 260.909 121.12 256.48 124.347Z" fill="#F3FFC9"/>
<path d="M253.716 115.605C252.532 116.789 252.532 118.717 253.716 119.902C254.309 120.495 255.087 120.79 255.864 120.79C256.642 120.79 257.421 120.495 258.013 119.902C258.013 119.902 258.013 119.902 258.013 119.902C259.197 118.717 259.197 116.789 258.013 115.604C256.829 114.421 254.9 114.42 253.716 115.605ZM257.153 119.041C256.443 119.751 255.287 119.751 254.577 119.041C253.867 118.331 253.867 117.175 254.577 116.465C254.932 116.11 255.399 115.932 255.865 115.932C256.331 115.932 256.798 116.11 257.153 116.464C257.862 117.175 257.863 118.331 257.153 119.041Z" fill="#F3FFC9"/>
<path d="M239.126 135.1C239.282 135.1 239.438 135.04 239.557 134.922L243.421 131.057C243.659 130.819 243.659 130.434 243.421 130.196C243.183 129.958 242.799 129.958 242.561 130.196L238.696 134.061C238.458 134.299 238.458 134.684 238.696 134.922C238.815 135.04 238.971 135.1 239.126 135.1Z" fill="#F3FFC9"/>
<path d="M240.113 138.346C240.268 138.346 240.424 138.286 240.543 138.168L244.408 134.303C244.646 134.065 244.646 133.681 244.408 133.443C244.17 133.205 243.785 133.205 243.547 133.443L239.682 137.307C239.444 137.545 239.444 137.93 239.682 138.168C239.801 138.286 239.957 138.346 240.113 138.346Z" fill="#F3FFC9"/>
<path d="M235.45 133.934C235.569 134.053 235.724 134.112 235.88 134.112C236.036 134.112 236.192 134.053 236.311 133.934L240.175 130.069C240.413 129.831 240.413 129.447 240.175 129.209C239.937 128.971 239.552 128.971 239.314 129.209L235.45 133.073C235.212 133.311 235.212 133.696 235.45 133.934Z" fill="#F3FFC9"/>
<path d="M306.745 131.938H295.116V113.862H306.745V116.112H297.72V129.688H306.745V131.938ZM306.29 123.848H297.467V121.598H306.29V123.848ZM319.851 131.938H317.551V129.46L317.475 128.879V124.177C317.475 123.199 317.18 122.432 316.59 121.876C316 121.303 315.191 121.017 314.163 121.017C312.815 121.017 311.635 121.573 310.624 122.685L309.158 121.118C310.624 119.685 312.36 118.969 314.366 118.969C315.478 118.969 316.439 119.18 317.248 119.601C318.073 120.022 318.714 120.621 319.169 121.396C319.624 122.154 319.851 123.056 319.851 124.101V131.938ZM313.304 132.342C312.41 132.342 311.618 132.174 310.927 131.837C310.253 131.483 309.722 131.003 309.335 130.396C308.947 129.789 308.753 129.098 308.753 128.323C308.753 127.025 309.25 126.014 310.245 125.289C311.256 124.548 312.613 124.177 314.315 124.177H317.703V125.972H314.542C313.531 125.972 312.739 126.174 312.166 126.578C311.61 126.966 311.332 127.514 311.332 128.222C311.332 128.862 311.551 129.385 311.989 129.789C312.444 130.177 313.051 130.371 313.809 130.371C314.534 130.371 315.183 130.21 315.756 129.89C316.329 129.57 316.792 129.132 317.146 128.576C317.5 128.019 317.703 127.379 317.753 126.654L318.537 127.084C318.537 128.112 318.309 129.022 317.854 129.814C317.416 130.607 316.801 131.23 316.009 131.685C315.233 132.123 314.332 132.342 313.304 132.342ZM322.045 130.042L323.461 128.399C324 128.989 324.616 129.46 325.307 129.814C326.014 130.168 326.807 130.345 327.683 130.345C328.509 130.345 329.175 130.168 329.68 129.814C330.203 129.444 330.464 128.972 330.464 128.399C330.464 127.91 330.245 127.522 329.807 127.236C329.368 126.932 328.602 126.705 327.506 126.553C325.736 126.283 324.472 125.862 323.714 125.289C322.972 124.699 322.602 123.899 322.602 122.887C322.602 122.095 322.812 121.413 323.234 120.84C323.655 120.25 324.236 119.795 324.978 119.475C325.736 119.137 326.604 118.969 327.582 118.969C328.661 118.969 329.638 119.171 330.514 119.576C331.391 119.963 332.158 120.528 332.815 121.269L331.349 122.913C330.877 122.306 330.329 121.834 329.705 121.497C329.082 121.143 328.382 120.966 327.607 120.966C326.866 120.966 326.259 121.135 325.787 121.472C325.315 121.792 325.079 122.213 325.079 122.736C325.079 123.022 325.163 123.267 325.332 123.469C325.5 123.671 325.787 123.84 326.191 123.975C326.596 124.092 327.161 124.21 327.885 124.328C329.739 124.615 331.045 125.07 331.804 125.694C332.579 126.3 332.967 127.177 332.967 128.323C332.967 129.115 332.739 129.814 332.284 130.421C331.846 131.028 331.222 131.5 330.413 131.837C329.621 132.174 328.703 132.342 327.658 132.342C326.461 132.342 325.391 132.14 324.447 131.736C323.52 131.331 322.72 130.767 322.045 130.042ZM345.406 128.247L346.897 129.84C346.24 130.682 345.456 131.314 344.546 131.736C343.653 132.14 342.675 132.342 341.613 132.342C340.299 132.342 339.144 132.056 338.15 131.483C337.172 130.91 336.406 130.118 335.849 129.107C335.293 128.095 335.015 126.949 335.015 125.668C335.015 124.387 335.285 123.241 335.824 122.23C336.38 121.219 337.122 120.427 338.049 119.854C338.993 119.264 340.054 118.969 341.234 118.969C342.38 118.969 343.391 119.255 344.268 119.828C345.144 120.385 345.827 121.16 346.316 122.154C346.821 123.149 347.074 124.286 347.074 125.567V125.719H344.571V125.466C344.571 124.118 344.268 123.048 343.661 122.255C343.071 121.463 342.254 121.067 341.209 121.067C340.501 121.067 339.877 121.253 339.338 121.623C338.799 121.994 338.377 122.525 338.074 123.216C337.771 123.907 337.619 124.708 337.619 125.618C337.619 126.545 337.779 127.354 338.099 128.045C338.436 128.719 338.908 129.258 339.515 129.663C340.139 130.05 340.88 130.244 341.74 130.244C342.498 130.244 343.181 130.076 343.788 129.739C344.394 129.401 344.934 128.904 345.406 128.247ZM347.074 126.477H336.81V124.657H346.695L347.074 125.567V126.477ZM362.413 131.938H359.556C358.562 131.938 357.812 131.677 357.306 131.154C356.817 130.632 356.573 129.865 356.573 128.854V115.859H359.101V128.525C359.101 128.946 359.202 129.267 359.404 129.486C359.607 129.705 359.91 129.814 360.315 129.814H362.413V131.938ZM362.261 121.497H354.348V119.373H362.261V121.497ZM370.353 132.342C369.122 132.342 368.019 132.056 367.041 131.483C366.08 130.91 365.322 130.118 364.766 129.107C364.226 128.095 363.957 126.949 363.957 125.668C363.957 124.371 364.226 123.216 364.766 122.205C365.322 121.194 366.08 120.401 367.041 119.828C368.019 119.255 369.122 118.969 370.353 118.969C371.617 118.969 372.729 119.255 373.69 119.828C374.667 120.401 375.426 121.194 375.965 122.205C376.521 123.216 376.799 124.362 376.799 125.643C376.799 126.941 376.521 128.095 375.965 129.107C375.426 130.118 374.667 130.91 373.69 131.483C372.729 132.056 371.617 132.342 370.353 132.342ZM370.378 130.194C371.137 130.194 371.794 130 372.35 129.612C372.906 129.225 373.344 128.694 373.665 128.019C373.985 127.328 374.145 126.545 374.145 125.668C374.145 124.758 373.985 123.975 373.665 123.317C373.361 122.643 372.923 122.112 372.35 121.725C371.794 121.337 371.137 121.143 370.378 121.143C369.62 121.143 368.954 121.337 368.381 121.725C367.825 122.112 367.387 122.643 367.066 123.317C366.763 123.975 366.611 124.758 366.611 125.668C366.611 126.545 366.763 127.328 367.066 128.019C367.387 128.694 367.825 129.225 368.381 129.612C368.954 130 369.62 130.194 370.378 130.194ZM394.749 131.938V128.727L394.724 128.626V125.896C394.724 124.952 394.564 124.126 394.243 123.418C393.923 122.694 393.477 122.137 392.904 121.75C392.347 121.345 391.699 121.143 390.957 121.143C390.215 121.143 389.558 121.337 388.985 121.725C388.412 122.112 387.965 122.643 387.645 123.317C387.325 123.991 387.165 124.775 387.165 125.668C387.165 126.545 387.325 127.328 387.645 128.019C387.982 128.694 388.437 129.225 389.01 129.612C389.6 130 390.274 130.194 391.033 130.194C391.707 130.194 392.322 130.042 392.878 129.739C393.451 129.418 393.915 128.989 394.269 128.449C394.64 127.91 394.859 127.286 394.926 126.578L395.457 127.059C395.541 128.053 395.373 128.955 394.951 129.764C394.547 130.556 393.957 131.188 393.182 131.66C392.423 132.115 391.53 132.342 390.502 132.342C389.373 132.342 388.353 132.056 387.443 131.483C386.55 130.91 385.833 130.126 385.294 129.132C384.772 128.121 384.51 126.966 384.51 125.668C384.51 124.371 384.772 123.216 385.294 122.205C385.833 121.194 386.55 120.401 387.443 119.828C388.353 119.255 389.364 118.969 390.477 118.969C391.353 118.969 392.137 119.154 392.828 119.525C393.519 119.879 394.083 120.376 394.522 121.017C394.977 121.657 395.255 122.39 395.356 123.216H394.724V113.736H397.252V131.938H394.749ZM410.646 128.247L412.138 129.84C411.48 130.682 410.697 131.314 409.786 131.736C408.893 132.14 407.916 132.342 406.854 132.342C405.539 132.342 404.385 132.056 403.39 131.483C402.413 130.91 401.646 130.118 401.09 129.107C400.534 128.095 400.256 126.949 400.256 125.668C400.256 124.387 400.525 123.241 401.065 122.23C401.621 121.219 402.362 120.427 403.289 119.854C404.233 119.264 405.295 118.969 406.475 118.969C407.621 118.969 408.632 119.255 409.508 119.828C410.385 120.385 411.067 121.16 411.556 122.154C412.062 123.149 412.315 124.286 412.315 125.567V125.719H409.812V125.466C409.812 124.118 409.508 123.048 408.902 122.255C408.312 121.463 407.494 121.067 406.449 121.067C405.742 121.067 405.118 121.253 404.579 121.623C404.039 121.994 403.618 122.525 403.315 123.216C403.011 123.907 402.86 124.708 402.86 125.618C402.86 126.545 403.02 127.354 403.34 128.045C403.677 128.719 404.149 129.258 404.756 129.663C405.379 130.05 406.121 130.244 406.98 130.244C407.739 130.244 408.421 130.076 409.028 129.739C409.635 129.401 410.174 128.904 410.646 128.247ZM412.315 126.477H402.051V124.657H411.935L412.315 125.567V126.477ZM417.88 136.842H415.351V119.373H417.854V123.216H417.298C417.416 122.39 417.694 121.666 418.132 121.042C418.587 120.401 419.16 119.896 419.851 119.525C420.559 119.154 421.343 118.969 422.203 118.969C423.332 118.969 424.335 119.255 425.211 119.828C426.087 120.401 426.787 121.194 427.309 122.205C427.832 123.216 428.093 124.371 428.093 125.668C428.093 126.966 427.823 128.121 427.284 129.132C426.762 130.126 426.045 130.91 425.135 131.483C424.242 132.056 423.231 132.342 422.101 132.342C421.057 132.342 420.146 132.115 419.371 131.66C418.613 131.188 418.031 130.556 417.627 129.764C417.239 128.955 417.087 128.053 417.172 127.059L417.677 126.578C417.762 127.286 417.981 127.91 418.335 128.449C418.689 128.989 419.144 129.418 419.7 129.739C420.273 130.042 420.896 130.194 421.571 130.194C422.346 130.194 423.02 130 423.593 129.612C424.183 129.225 424.638 128.694 424.958 128.019C425.295 127.328 425.464 126.545 425.464 125.668C425.464 124.775 425.304 123.991 424.983 123.317C424.68 122.626 424.25 122.087 423.694 121.699C423.138 121.312 422.481 121.118 421.722 121.118C420.981 121.118 420.323 121.32 419.75 121.725C419.177 122.129 418.722 122.694 418.385 123.418C418.048 124.126 417.88 124.952 417.88 125.896V136.842ZM433.625 131.938H431.097V113.736H433.625V131.938ZM443.025 132.342C441.794 132.342 440.69 132.056 439.713 131.483C438.752 130.91 437.994 130.118 437.437 129.107C436.898 128.095 436.628 126.949 436.628 125.668C436.628 124.371 436.898 123.216 437.437 122.205C437.994 121.194 438.752 120.401 439.713 119.828C440.69 119.255 441.794 118.969 443.025 118.969C444.289 118.969 445.401 119.255 446.362 119.828C447.339 120.401 448.098 121.194 448.637 122.205C449.193 123.216 449.471 124.362 449.471 125.643C449.471 126.941 449.193 128.095 448.637 129.107C448.098 130.118 447.339 130.91 446.362 131.483C445.401 132.056 444.289 132.342 443.025 132.342ZM443.05 130.194C443.808 130.194 444.466 130 445.022 129.612C445.578 129.225 446.016 128.694 446.336 128.019C446.657 127.328 446.817 126.545 446.817 125.668C446.817 124.758 446.657 123.975 446.336 123.317C446.033 122.643 445.595 122.112 445.022 121.725C444.466 121.337 443.808 121.143 443.05 121.143C442.291 121.143 441.626 121.337 441.053 121.725C440.496 122.112 440.058 122.643 439.738 123.317C439.435 123.975 439.283 124.758 439.283 125.668C439.283 126.545 439.435 127.328 439.738 128.019C440.058 128.694 440.496 129.225 441.053 129.612C441.626 130 442.291 130.194 443.05 130.194ZM460.645 119.373H463.198L457.384 133.809C456.996 134.786 456.499 135.536 455.892 136.059C455.302 136.581 454.434 136.842 453.288 136.842H451.721V134.719H453.212C453.785 134.719 454.224 134.592 454.527 134.34C454.83 134.087 455.066 133.708 455.235 133.202L455.69 131.989L450.608 119.373H453.263L457.358 130.472H456.499L460.645 119.373ZM484.628 131.938H482.1V124.632C482.1 123.519 481.881 122.66 481.443 122.053C481.004 121.446 480.398 121.143 479.622 121.143C478.645 121.143 477.861 121.573 477.271 122.432C476.681 123.292 476.386 124.497 476.386 126.048V131.938H473.858V124.632C473.858 123.519 473.639 122.66 473.201 122.053C472.78 121.446 472.181 121.143 471.406 121.143C470.445 121.143 469.67 121.573 469.08 122.432C468.49 123.292 468.195 124.497 468.195 126.048V131.938H465.667V119.373H468.17V122.357L467.993 122.331C468.179 121.573 468.474 120.949 468.878 120.46C469.283 119.972 469.754 119.601 470.294 119.348C470.85 119.095 471.44 118.969 472.063 118.969C473.125 118.969 473.993 119.289 474.667 119.93C475.342 120.553 475.788 121.455 476.007 122.635H475.679C475.881 121.809 476.201 121.126 476.639 120.587C477.077 120.048 477.6 119.643 478.207 119.373C478.813 119.104 479.471 118.969 480.179 118.969C481.577 118.969 482.665 119.441 483.44 120.385C484.232 121.328 484.628 122.677 484.628 124.43V131.938ZM497.835 128.247L499.326 129.84C498.669 130.682 497.885 131.314 496.975 131.736C496.082 132.14 495.104 132.342 494.042 132.342C492.728 132.342 491.573 132.056 490.579 131.483C489.601 130.91 488.835 130.118 488.278 129.107C487.722 128.095 487.444 126.949 487.444 125.668C487.444 124.387 487.714 123.241 488.253 122.23C488.809 121.219 489.551 120.427 490.478 119.854C491.422 119.264 492.483 118.969 493.663 118.969C494.809 118.969 495.82 119.255 496.697 119.828C497.573 120.385 498.256 121.16 498.745 122.154C499.25 123.149 499.503 124.286 499.503 125.567V125.719H497V125.466C497 124.118 496.697 123.048 496.09 122.255C495.5 121.463 494.683 121.067 493.638 121.067C492.93 121.067 492.306 121.253 491.767 121.623C491.228 121.994 490.806 122.525 490.503 123.216C490.2 123.907 490.048 124.708 490.048 125.618C490.048 126.545 490.208 127.354 490.528 128.045C490.865 128.719 491.337 129.258 491.944 129.663C492.568 130.05 493.309 130.244 494.169 130.244C494.927 130.244 495.61 130.076 496.217 129.739C496.823 129.401 497.363 128.904 497.835 128.247ZM499.503 126.477H489.239V124.657H499.124L499.503 125.567V126.477ZM513.739 131.938H511.211V124.708C511.211 123.528 510.967 122.643 510.478 122.053C510.006 121.446 509.357 121.143 508.532 121.143C507.925 121.143 507.36 121.312 506.838 121.649C506.315 121.986 505.885 122.525 505.548 123.267C505.228 123.991 505.068 124.935 505.068 126.098V131.938H502.54V119.373H505.043V123.241H504.689C504.841 122.163 505.144 121.312 505.599 120.688C506.071 120.064 506.619 119.626 507.242 119.373C507.866 119.104 508.506 118.969 509.164 118.969C510.579 118.969 511.692 119.441 512.501 120.385C513.326 121.312 513.739 122.66 513.739 124.43V131.938ZM524.051 131.938H521.194C520.2 131.938 519.45 131.677 518.944 131.154C518.455 130.632 518.211 129.865 518.211 128.854V115.859H520.739V128.525C520.739 128.946 520.84 129.267 521.042 129.486C521.244 129.705 521.548 129.814 521.952 129.814H524.051V131.938ZM523.899 121.497H515.986V119.373H523.899V121.497Z" fill="#8D9180"/>
<path d="M148.629 213.028H308.641C316.009 213.028 321.982 219.002 321.982 226.371V274.124C321.982 281.492 316.009 287.466 308.641 287.466H148.629C141.26 287.466 135.286 281.492 135.286 274.124V226.371C135.286 219.002 141.26 213.028 148.629 213.028Z" stroke="#8D9180" stroke-opacity="0.3" stroke-width="1.40449"/>
<rect x="144.416" y="222.157" width="56.1798" height="56.1798" rx="7.39208" fill="#585E44"/>
<path d="M161.796 264.643C161.646 264.643 161.498 264.614 161.359 264.556C161.221 264.499 161.095 264.415 160.989 264.309L158.707 262.026C158.499 261.811 158.384 261.523 158.387 261.224C158.389 260.924 158.509 260.638 158.721 260.427C158.933 260.215 159.219 260.095 159.518 260.092C159.817 260.09 160.105 260.205 160.321 260.413L161.796 261.888L165.554 258.13C165.769 257.923 166.057 257.807 166.357 257.81C166.656 257.813 166.942 257.933 167.154 258.144C167.365 258.356 167.485 258.642 167.488 258.941C167.49 259.24 167.375 259.529 167.168 259.744L162.603 264.309C162.497 264.415 162.371 264.499 162.233 264.556C162.094 264.614 161.946 264.643 161.796 264.643ZM188.043 262.361V263.502C188.043 263.804 187.922 264.095 187.708 264.309C187.494 264.523 187.204 264.643 186.901 264.643C186.599 264.643 186.309 264.523 186.095 264.309C185.881 264.095 185.76 263.804 185.76 263.502V262.361C185.765 260.492 185.307 258.651 184.426 257.003C183.546 255.355 182.271 253.95 180.715 252.915C179.012 254.583 176.724 255.516 174.341 255.514C171.958 255.512 169.672 254.575 167.972 252.905C166.061 254.196 164.582 256.032 163.73 258.175C163.618 258.457 163.4 258.683 163.122 258.804C162.844 258.924 162.53 258.93 162.249 258.818C161.967 258.707 161.741 258.489 161.62 258.211C161.5 257.933 161.494 257.619 161.606 257.337C162.606 254.82 164.327 252.653 166.551 251.108C165.708 249.723 165.249 248.138 165.221 246.517C165.193 244.895 165.598 243.296 166.393 241.882C167.189 240.469 168.346 239.293 169.747 238.476C171.147 237.658 172.74 237.228 174.362 237.231C175.983 237.233 177.575 237.667 178.973 238.489C180.372 239.31 181.526 240.489 182.317 241.905C183.109 243.32 183.509 244.921 183.476 246.542C183.444 248.164 182.98 249.747 182.133 251.13C183.947 252.39 185.431 254.068 186.46 256.023C187.489 257.978 188.031 260.152 188.043 262.361ZM181.196 246.384C181.196 245.03 180.794 243.707 180.042 242.581C179.289 241.455 178.22 240.577 176.969 240.059C175.718 239.541 174.341 239.405 173.013 239.669C171.685 239.933 170.465 240.585 169.507 241.543C168.55 242.501 167.898 243.721 167.633 245.049C167.369 246.377 167.505 247.754 168.023 249.005C168.541 250.256 169.419 251.325 170.545 252.077C171.671 252.83 172.995 253.231 174.349 253.231C176.164 253.229 177.905 252.507 179.188 251.224C180.472 249.94 181.194 248.2 181.196 246.384Z" fill="#F3FFC9"/>
<path d="M219.747 259.747H217.143V241.671H223.893C225.056 241.671 226.076 241.89 226.952 242.329C227.829 242.767 228.511 243.382 229 244.174C229.489 244.966 229.733 245.885 229.733 246.93C229.733 247.991 229.489 248.918 229 249.711C228.511 250.486 227.829 251.101 226.952 251.556C226.076 251.994 225.056 252.213 223.893 252.213H219.495V249.963H223.893C224.888 249.963 225.672 249.694 226.245 249.154C226.818 248.615 227.104 247.873 227.104 246.93C227.104 245.986 226.818 245.253 226.245 244.73C225.672 244.191 224.888 243.921 223.893 243.921H219.747V259.747ZM231.452 259.747H228.216L221.972 251.329H224.981L231.452 259.747ZM242.608 256.056L244.1 257.649C243.442 258.491 242.659 259.123 241.749 259.545C240.855 259.949 239.878 260.152 238.816 260.152C237.501 260.152 236.347 259.865 235.353 259.292C234.375 258.719 233.608 257.927 233.052 256.916C232.496 255.904 232.218 254.758 232.218 253.477C232.218 252.197 232.487 251.05 233.027 250.039C233.583 249.028 234.325 248.236 235.251 247.663C236.195 247.073 237.257 246.778 238.437 246.778C239.583 246.778 240.594 247.064 241.471 247.638C242.347 248.194 243.03 248.969 243.518 249.963C244.024 250.958 244.277 252.095 244.277 253.376V253.528H241.774V253.275C241.774 251.927 241.471 250.857 240.864 250.064C240.274 249.272 239.457 248.876 238.412 248.876C237.704 248.876 237.08 249.062 236.541 249.432C236.001 249.803 235.58 250.334 235.277 251.025C234.973 251.716 234.822 252.517 234.822 253.427C234.822 254.354 234.982 255.163 235.302 255.854C235.639 256.528 236.111 257.067 236.718 257.472C237.341 257.859 238.083 258.053 238.942 258.053C239.701 258.053 240.383 257.885 240.99 257.548C241.597 257.211 242.136 256.713 242.608 256.056ZM244.277 254.286H234.013V252.466H243.898L244.277 253.376V254.286ZM249.842 259.747H247.314V241.545H249.842V259.747ZM256.107 259.747H253.579V247.182H256.107V259.747ZM256.486 242.733C256.486 243.188 256.326 243.576 256.006 243.896C255.685 244.199 255.298 244.351 254.843 244.351C254.371 244.351 253.975 244.199 253.654 243.896C253.334 243.576 253.174 243.188 253.174 242.733C253.174 242.261 253.334 241.873 253.654 241.57C253.975 241.25 254.371 241.09 254.843 241.09C255.298 241.09 255.685 241.25 256.006 241.57C256.326 241.873 256.486 242.261 256.486 242.733ZM269.981 259.747H267.681V257.27L267.605 256.688V251.986C267.605 251.008 267.31 250.241 266.72 249.685C266.13 249.112 265.321 248.826 264.293 248.826C262.945 248.826 261.765 249.382 260.754 250.494L259.287 248.927C260.754 247.494 262.49 246.778 264.495 246.778C265.608 246.778 266.568 246.989 267.377 247.41C268.203 247.831 268.843 248.43 269.299 249.205C269.754 249.963 269.981 250.865 269.981 251.91V259.747ZM263.433 260.152C262.54 260.152 261.748 259.983 261.057 259.646C260.383 259.292 259.852 258.812 259.464 258.205C259.077 257.598 258.883 256.907 258.883 256.132C258.883 254.834 259.38 253.823 260.374 253.098C261.386 252.357 262.742 251.986 264.445 251.986H267.832V253.781H264.672C263.661 253.781 262.869 253.983 262.296 254.388C261.74 254.775 261.461 255.323 261.461 256.031C261.461 256.671 261.681 257.194 262.119 257.598C262.574 257.986 263.181 258.18 263.939 258.18C264.664 258.18 265.313 258.02 265.886 257.699C266.459 257.379 266.922 256.941 267.276 256.385C267.63 255.829 267.832 255.188 267.883 254.463L268.666 254.893C268.666 255.921 268.439 256.831 267.984 257.623C267.546 258.416 266.931 259.039 266.138 259.494C265.363 259.932 264.461 260.152 263.433 260.152ZM276.018 259.747H273.515V241.545H276.043V251.025H275.436C275.554 250.199 275.832 249.466 276.271 248.826C276.726 248.185 277.299 247.688 277.99 247.334C278.697 246.963 279.49 246.778 280.366 246.778C281.495 246.778 282.498 247.064 283.374 247.638C284.251 248.211 284.95 249.003 285.473 250.014C285.995 251.025 286.256 252.18 286.256 253.477C286.256 254.775 285.987 255.93 285.447 256.941C284.925 257.935 284.209 258.719 283.299 259.292C282.405 259.865 281.394 260.152 280.265 260.152C279.237 260.152 278.335 259.924 277.56 259.469C276.801 258.997 276.22 258.365 275.815 257.573C275.411 256.764 275.251 255.862 275.335 254.868L275.841 254.388C275.925 255.095 276.144 255.719 276.498 256.258C276.852 256.798 277.307 257.227 277.863 257.548C278.436 257.851 279.06 258.003 279.734 258.003C280.509 258.003 281.183 257.809 281.756 257.421C282.346 257.034 282.801 256.503 283.122 255.829C283.459 255.138 283.627 254.354 283.627 253.477C283.627 252.584 283.467 251.8 283.147 251.126C282.844 250.452 282.414 249.921 281.858 249.534C281.301 249.146 280.653 248.952 279.911 248.952C279.153 248.952 278.487 249.154 277.914 249.559C277.341 249.947 276.886 250.503 276.549 251.227C276.212 251.935 276.043 252.761 276.043 253.705V256.435L276.018 256.536V259.747ZM291.788 259.747H289.26V241.545H291.788V259.747ZM305.182 256.056L306.674 257.649C306.017 258.491 305.233 259.123 304.323 259.545C303.43 259.949 302.452 260.152 301.39 260.152C300.076 260.152 298.921 259.865 297.927 259.292C296.949 258.719 296.182 257.927 295.626 256.916C295.07 255.904 294.792 254.758 294.792 253.477C294.792 252.197 295.062 251.05 295.601 250.039C296.157 249.028 296.899 248.236 297.826 247.663C298.769 247.073 299.831 246.778 301.011 246.778C302.157 246.778 303.168 247.064 304.045 247.638C304.921 248.194 305.604 248.969 306.093 249.963C306.598 250.958 306.851 252.095 306.851 253.376V253.528H304.348V253.275C304.348 251.927 304.045 250.857 303.438 250.064C302.848 249.272 302.031 248.876 300.986 248.876C300.278 248.876 299.654 249.062 299.115 249.432C298.576 249.803 298.154 250.334 297.851 251.025C297.548 251.716 297.396 252.517 297.396 253.427C297.396 254.354 297.556 255.163 297.876 255.854C298.213 256.528 298.685 257.067 299.292 257.472C299.916 257.859 300.657 258.053 301.517 258.053C302.275 258.053 302.958 257.885 303.564 257.548C304.171 257.211 304.71 256.713 305.182 256.056ZM306.851 254.286H296.587V252.466H306.472L306.851 253.376V254.286Z" fill="#8D9180"/>
<path d="M412.572 213.028H603.584C610.953 213.028 616.926 219.002 616.926 226.371V274.124C616.926 281.492 610.953 287.466 603.584 287.466H412.572C405.203 287.466 399.23 281.492 399.229 274.124V226.371C399.23 219.002 405.203 213.028 412.572 213.028Z" stroke="#8D9180" stroke-opacity="0.3" stroke-width="1.40449"/>
<rect x="408.359" y="222.157" width="56.1798" height="56.1798" rx="7.39208" fill="#585E44"/>
<path d="M436.967 267.828C433.592 267.826 430.294 266.824 427.488 264.948C424.683 263.072 422.497 260.407 421.207 257.289C419.917 254.17 419.58 250.74 420.239 247.43C420.898 244.12 422.524 241.081 424.911 238.695C427.298 236.309 430.338 234.685 433.648 234.027C436.958 233.369 440.388 233.708 443.506 234.999C446.624 236.291 449.288 238.478 451.163 241.284C453.038 244.09 454.038 247.389 454.038 250.764C454.034 255.289 452.234 259.629 449.033 262.828C445.832 266.028 441.492 267.826 436.967 267.828ZM436.967 235.221C433.893 235.223 430.889 236.136 428.334 237.844C425.779 239.553 423.788 241.981 422.613 244.821C421.437 247.661 421.131 250.786 421.731 253.801C422.332 256.815 423.813 259.584 425.987 261.757C428.161 263.93 430.93 265.409 433.945 266.008C436.96 266.607 440.084 266.299 442.924 265.122C445.763 263.946 448.19 261.954 449.898 259.398C451.605 256.842 452.517 253.837 452.517 250.764C452.513 246.642 450.873 242.689 447.957 239.775C445.042 236.861 441.089 235.223 436.967 235.221Z" fill="#F3FFC9"/>
<path d="M436.965 251.525C433.481 251.525 430.75 249.547 430.75 247.029C430.75 244.511 433.481 242.533 436.965 242.533C440.153 242.533 442.808 244.252 443.143 246.534C443.158 246.633 443.153 246.734 443.13 246.831C443.106 246.929 443.063 247.02 443.003 247.101C442.944 247.181 442.869 247.249 442.784 247.301C442.698 247.353 442.603 247.387 442.504 247.402C442.404 247.417 442.303 247.412 442.205 247.387C442.108 247.363 442.016 247.319 441.935 247.259C441.855 247.199 441.787 247.124 441.735 247.037C441.684 246.95 441.651 246.855 441.637 246.755C441.416 245.233 439.354 244.054 436.965 244.054C434.417 244.054 432.272 245.416 432.272 247.029C432.272 248.642 434.417 250.003 436.965 250.003C437.167 250.003 437.361 250.084 437.503 250.226C437.646 250.369 437.726 250.562 437.726 250.764C437.726 250.966 437.646 251.159 437.503 251.302C437.361 251.445 437.167 251.525 436.965 251.525Z" fill="#F3FFC9"/>
<path d="M436.966 258.996C433.779 258.996 431.124 257.277 430.781 254.994C430.767 254.894 430.772 254.793 430.797 254.695C430.822 254.597 430.866 254.505 430.926 254.424C430.987 254.343 431.062 254.275 431.149 254.223C431.236 254.172 431.332 254.138 431.432 254.123C431.532 254.109 431.634 254.114 431.731 254.139C431.829 254.164 431.921 254.208 432.002 254.268C432.083 254.328 432.151 254.404 432.203 254.491C432.254 254.578 432.288 254.674 432.303 254.774C432.531 256.295 434.585 257.474 436.982 257.474C439.53 257.474 441.676 256.113 441.676 254.5C441.676 252.887 439.515 251.525 436.966 251.525C436.765 251.525 436.571 251.445 436.428 251.302C436.286 251.16 436.206 250.966 436.206 250.764C436.206 250.563 436.286 250.369 436.428 250.226C436.571 250.084 436.765 250.004 436.966 250.004C440.451 250.004 443.182 251.982 443.182 254.5C443.182 257.018 440.451 258.996 436.966 258.996Z" fill="#F3FFC9"/>
<path d="M436.966 261.909C436.764 261.909 436.571 261.829 436.428 261.687C436.285 261.544 436.205 261.35 436.205 261.149V240.38C436.205 240.178 436.285 239.984 436.428 239.842C436.571 239.699 436.764 239.619 436.966 239.619C437.168 239.619 437.361 239.699 437.504 239.842C437.646 239.984 437.727 240.178 437.727 240.38V261.149C437.727 261.35 437.646 261.544 437.504 261.687C437.361 261.829 437.168 261.909 436.966 261.909Z" fill="#F3FFC9"/>
<path d="M492.488 255.197H482.806V252.947H492.488V255.197ZM495.927 259.747H493.146L487.179 243.416H488.09L482.123 259.747H479.469L486.269 241.671H489.101L495.927 259.747ZM501.127 259.747H498.599V244.806C498.599 242.632 499.635 241.545 501.708 241.545H504.337V243.593H502.467C501.995 243.593 501.649 243.711 501.43 243.947C501.228 244.166 501.127 244.536 501.127 245.059V259.747ZM504.337 249.306H496.374V247.182H504.337V249.306ZM510.132 259.747H507.604V244.806C507.604 242.632 508.64 241.545 510.713 241.545H513.343V243.593H511.472C511 243.593 510.654 243.711 510.435 243.947C510.233 244.166 510.132 244.536 510.132 245.059V259.747ZM513.343 249.306H505.379V247.182H513.343V249.306ZM520.815 260.152C519.584 260.152 518.48 259.865 517.503 259.292C516.542 258.719 515.784 257.927 515.228 256.916C514.688 255.904 514.419 254.758 514.419 253.477C514.419 252.18 514.688 251.025 515.228 250.014C515.784 249.003 516.542 248.211 517.503 247.638C518.48 247.064 519.584 246.778 520.815 246.778C522.079 246.778 523.191 247.064 524.152 247.638C525.129 248.211 525.888 249.003 526.427 250.014C526.983 251.025 527.261 252.171 527.261 253.452C527.261 254.75 526.983 255.904 526.427 256.916C525.888 257.927 525.129 258.719 524.152 259.292C523.191 259.865 522.079 260.152 520.815 260.152ZM520.84 258.003C521.598 258.003 522.256 257.809 522.812 257.421C523.368 257.034 523.806 256.503 524.127 255.829C524.447 255.138 524.607 254.354 524.607 253.477C524.607 252.567 524.447 251.784 524.127 251.126C523.823 250.452 523.385 249.921 522.812 249.534C522.256 249.146 521.598 248.952 520.84 248.952C520.082 248.952 519.416 249.146 518.843 249.534C518.287 249.921 517.848 250.452 517.528 251.126C517.225 251.784 517.073 252.567 517.073 253.477C517.073 254.354 517.225 255.138 517.528 255.829C517.848 256.503 518.287 257.034 518.843 257.421C519.416 257.809 520.082 258.003 520.84 258.003ZM537.434 246.98V249.357H536.903C536.145 249.357 535.454 249.542 534.83 249.913C534.207 250.267 533.71 250.823 533.339 251.581C532.985 252.323 532.808 253.284 532.808 254.463V259.747H530.28V247.182H532.783V251.227H532.429C532.58 250.149 532.901 249.306 533.389 248.699C533.878 248.076 534.443 247.638 535.083 247.385C535.724 247.115 536.356 246.98 536.979 246.98H537.434ZM548.914 259.747V256.536L548.889 256.435V253.705C548.889 252.761 548.729 251.935 548.409 251.227C548.088 250.503 547.642 249.947 547.069 249.559C546.513 249.154 545.864 248.952 545.122 248.952C544.381 248.952 543.723 249.146 543.15 249.534C542.577 249.921 542.131 250.452 541.81 251.126C541.49 251.8 541.33 252.584 541.33 253.477C541.33 254.354 541.49 255.138 541.81 255.829C542.147 256.503 542.602 257.034 543.175 257.421C543.765 257.809 544.44 258.003 545.198 258.003C545.872 258.003 546.487 257.851 547.043 257.548C547.617 257.227 548.08 256.798 548.434 256.258C548.805 255.719 549.024 255.095 549.091 254.388L549.622 254.868C549.706 255.862 549.538 256.764 549.117 257.573C548.712 258.365 548.122 258.997 547.347 259.469C546.588 259.924 545.695 260.152 544.667 260.152C543.538 260.152 542.518 259.865 541.608 259.292C540.715 258.719 539.999 257.935 539.459 256.941C538.937 255.93 538.675 254.775 538.675 253.477C538.675 252.18 538.937 251.025 539.459 250.014C539.999 249.003 540.715 248.211 541.608 247.638C542.518 247.064 543.529 246.778 544.642 246.778C545.518 246.778 546.302 246.963 546.993 247.334C547.684 247.688 548.249 248.185 548.687 248.826C549.142 249.466 549.42 250.199 549.521 251.025H548.889V241.545H551.417V259.747H548.914ZM565.292 259.747H562.991V257.27L562.915 256.688V251.986C562.915 251.008 562.62 250.241 562.03 249.685C561.44 249.112 560.631 248.826 559.603 248.826C558.255 248.826 557.075 249.382 556.064 250.494L554.598 248.927C556.064 247.494 557.8 246.778 559.806 246.778C560.918 246.778 561.879 246.989 562.688 247.41C563.513 247.831 564.154 248.43 564.609 249.205C565.064 249.963 565.292 250.865 565.292 251.91V259.747ZM558.744 260.152C557.851 260.152 557.058 259.983 556.367 259.646C555.693 259.292 555.162 258.812 554.775 258.205C554.387 257.598 554.193 256.907 554.193 256.132C554.193 254.834 554.69 253.823 555.685 253.098C556.696 252.357 558.053 251.986 559.755 251.986H563.143V253.781H559.983C558.971 253.781 558.179 253.983 557.606 254.388C557.05 254.775 556.772 255.323 556.772 256.031C556.772 256.671 556.991 257.194 557.429 257.598C557.884 257.986 558.491 258.18 559.249 258.18C559.974 258.18 560.623 258.02 561.196 257.699C561.769 257.379 562.233 256.941 562.586 256.385C562.94 255.829 563.143 255.188 563.193 254.463L563.977 254.893C563.977 255.921 563.749 256.831 563.294 257.623C562.856 258.416 562.241 259.039 561.449 259.494C560.674 259.932 559.772 260.152 558.744 260.152ZM571.328 259.747H568.825V241.545H571.353V251.025H570.747C570.865 250.199 571.143 249.466 571.581 248.826C572.036 248.185 572.609 247.688 573.3 247.334C574.008 246.963 574.8 246.778 575.676 246.778C576.806 246.778 577.808 247.064 578.685 247.638C579.561 248.211 580.261 249.003 580.783 250.014C581.306 251.025 581.567 252.18 581.567 253.477C581.567 254.775 581.297 255.93 580.758 256.941C580.235 257.935 579.519 258.719 578.609 259.292C577.716 259.865 576.705 260.152 575.575 260.152C574.547 260.152 573.646 259.924 572.87 259.469C572.112 258.997 571.53 258.365 571.126 257.573C570.721 256.764 570.561 255.862 570.646 254.868L571.151 254.388C571.235 255.095 571.455 255.719 571.808 256.258C572.162 256.798 572.617 257.227 573.174 257.548C573.747 257.851 574.37 258.003 575.044 258.003C575.82 258.003 576.494 257.809 577.067 257.421C577.657 257.034 578.112 256.503 578.432 255.829C578.769 255.138 578.938 254.354 578.938 253.477C578.938 252.584 578.778 251.8 578.457 251.126C578.154 250.452 577.724 249.921 577.168 249.534C576.612 249.146 575.963 248.952 575.221 248.952C574.463 248.952 573.797 249.154 573.224 249.559C572.651 249.947 572.196 250.503 571.859 251.227C571.522 251.935 571.353 252.761 571.353 253.705V256.435L571.328 256.536V259.747ZM587.099 259.747H584.571V241.545H587.099V259.747ZM600.493 256.056L601.984 257.649C601.327 258.491 600.543 259.123 599.633 259.545C598.74 259.949 597.762 260.152 596.701 260.152C595.386 260.152 594.232 259.865 593.237 259.292C592.26 258.719 591.493 257.927 590.937 256.916C590.38 255.904 590.102 254.758 590.102 253.477C590.102 252.197 590.372 251.05 590.911 250.039C591.468 249.028 592.209 248.236 593.136 247.663C594.08 247.073 595.142 246.778 596.321 246.778C597.468 246.778 598.479 247.064 599.355 247.638C600.232 248.194 600.914 248.969 601.403 249.963C601.909 250.958 602.161 252.095 602.161 253.376V253.528H599.659V253.275C599.659 251.927 599.355 250.857 598.748 250.064C598.159 249.272 597.341 248.876 596.296 248.876C595.588 248.876 594.965 249.062 594.425 249.432C593.886 249.803 593.465 250.334 593.161 251.025C592.858 251.716 592.706 252.517 592.706 253.427C592.706 254.354 592.866 255.163 593.187 255.854C593.524 256.528 593.996 257.067 594.602 257.472C595.226 257.859 595.968 258.053 596.827 258.053C597.586 258.053 598.268 257.885 598.875 257.548C599.482 257.211 600.021 256.713 600.493 256.056ZM602.161 254.286H591.897V252.466H601.782L602.161 253.376V254.286Z" fill="#8D9180"/>
<path d="M254.102 340.837H498.113C505.482 340.837 511.455 346.811 511.455 354.179V401.932C511.455 409.301 505.482 415.275 498.113 415.275H254.102C246.733 415.275 240.759 409.301 240.759 401.932V354.179C240.759 346.81 246.733 340.837 254.102 340.837Z" stroke="#8D9180" stroke-opacity="0.3" stroke-width="1.40449"/>
<rect x="249.889" y="349.966" width="56.1798" height="56.1798" rx="7.39208" fill="#585E44"/>
<path d="M275.545 381.893C275.26 381.608 274.797 381.608 274.512 381.893L269.916 386.49V382.41C269.916 382.007 269.589 381.68 269.185 381.68C268.782 381.68 268.455 382.007 268.455 382.41V388.253C268.455 388.348 268.474 388.443 268.512 388.532C268.585 388.71 268.728 388.853 268.908 388.928C268.996 388.963 269.09 388.983 269.185 388.983H275.028C275.431 388.983 275.758 388.656 275.758 388.253C275.758 387.85 275.431 387.523 275.028 387.523H270.948L275.544 382.927C275.83 382.641 275.83 382.18 275.545 381.893Z" fill="#F3FFC9"/>
<path d="M288.456 368.589C288.366 368.554 288.271 368.533 288.177 368.533H282.334C281.931 368.533 281.604 368.86 281.604 369.264C281.604 369.667 281.931 369.994 282.334 369.994H286.414L281.818 374.589C281.533 374.874 281.533 375.337 281.818 375.622C281.96 375.765 282.147 375.837 282.334 375.837C282.521 375.837 282.708 375.765 282.851 375.623L287.446 371.027V375.106C287.446 375.509 287.773 375.837 288.177 375.837C288.58 375.837 288.907 375.509 288.907 375.106V369.264C288.907 369.169 288.888 369.074 288.85 368.985C288.777 368.806 288.634 368.663 288.456 368.589Z" fill="#F3FFC9"/>
<path d="M289.636 364.152H267.726C265.713 364.152 264.074 365.789 264.074 367.803V389.713C264.074 391.728 265.713 393.365 267.726 393.365H289.636C291.649 393.365 293.288 391.728 293.288 389.713V367.803C293.288 365.789 291.649 364.152 289.636 364.152ZM291.827 389.713C291.827 390.921 290.844 391.904 289.636 391.904H267.726C266.518 391.904 265.535 390.921 265.535 389.713V367.803C265.535 366.595 266.518 365.612 267.726 365.612H289.636C290.844 365.612 291.827 366.595 291.827 367.803V389.713Z" fill="#F3FFC9"/>
<path d="M334.094 387.556V369.48H336.698V387.556H334.094ZM325.22 387.556H322.616V369.48H325.22V387.556ZM324.967 379.34V377.064H334.321V379.34H324.967ZM343.47 387.556H340.942V374.991H343.47V387.556ZM343.849 370.542C343.849 370.997 343.689 371.385 343.369 371.705C343.049 372.008 342.661 372.16 342.206 372.16C341.734 372.16 341.338 372.008 341.018 371.705C340.697 371.385 340.537 370.997 340.537 370.542C340.537 370.07 340.697 369.682 341.018 369.379C341.338 369.059 341.734 368.899 342.206 368.899C342.661 368.899 343.049 369.059 343.369 369.379C343.689 369.682 343.849 370.07 343.849 370.542ZM359.215 386.267C359.215 387.564 358.937 388.702 358.381 389.68C357.825 390.674 357.049 391.449 356.055 392.005C355.077 392.578 353.957 392.865 352.693 392.865C351.597 392.865 350.577 392.663 349.634 392.258C348.707 391.871 347.923 391.314 347.283 390.59L348.774 388.871C349.768 390.101 351.041 390.716 352.592 390.716C353.417 390.716 354.134 390.531 354.74 390.16C355.364 389.806 355.844 389.3 356.181 388.643C356.519 387.986 356.687 387.219 356.687 386.342V381.514C356.687 380.553 356.527 379.719 356.207 379.011C355.903 378.303 355.465 377.747 354.892 377.342C354.319 376.938 353.662 376.736 352.92 376.736C352.179 376.736 351.521 376.93 350.948 377.317C350.375 377.705 349.929 378.227 349.608 378.885C349.288 379.542 349.128 380.3 349.128 381.16C349.128 382.019 349.288 382.778 349.608 383.435C349.945 384.076 350.401 384.581 350.974 384.952C351.563 385.323 352.238 385.508 352.996 385.508C353.67 385.508 354.285 385.356 354.842 385.053C355.415 384.733 355.878 384.303 356.232 383.764C356.603 383.208 356.822 382.592 356.889 381.918L357.42 382.399C357.504 383.376 357.344 384.269 356.94 385.078C356.552 385.871 355.971 386.503 355.195 386.974C354.437 387.43 353.527 387.657 352.465 387.657C351.336 387.657 350.316 387.387 349.406 386.848C348.496 386.292 347.78 385.525 347.257 384.547C346.735 383.553 346.474 382.424 346.474 381.16C346.474 379.913 346.743 378.792 347.283 377.797C347.822 376.803 348.538 376.019 349.431 375.446C350.325 374.873 351.327 374.587 352.44 374.587C353.788 374.587 354.884 374.974 355.726 375.75C356.586 376.525 357.108 377.553 357.294 378.834H356.712V374.991H359.215V386.267ZM374.127 387.556H371.599V380.326C371.599 379.18 371.363 378.303 370.891 377.696C370.419 377.073 369.762 376.761 368.919 376.761C367.891 376.761 367.056 377.199 366.416 378.076C365.776 378.935 365.455 380.149 365.455 381.716V387.556H362.927V369.354H365.455V378.859H365.101C365.236 377.882 365.514 377.081 365.936 376.458C366.357 375.817 366.871 375.345 367.478 375.042C368.101 374.738 368.792 374.587 369.551 374.587C370.983 374.587 372.104 375.059 372.913 376.003C373.722 376.946 374.127 378.295 374.127 380.047V387.556ZM380.188 387.556H377.66V369.354H380.188V387.556ZM392.698 374.991H395.251L389.436 389.427C389.049 390.404 388.552 391.154 387.945 391.677C387.355 392.199 386.487 392.46 385.341 392.46H383.774V390.337H385.265C385.838 390.337 386.276 390.21 386.58 389.958C386.883 389.705 387.119 389.326 387.288 388.82L387.743 387.606L382.661 374.991H385.316L389.411 386.09H388.552L392.698 374.991ZM401.806 385.66L403.221 384.017C403.761 384.606 404.376 385.078 405.067 385.432C405.775 385.786 406.567 385.963 407.443 385.963C408.269 385.963 408.935 385.786 409.441 385.432C409.963 385.062 410.224 384.59 410.224 384.017C410.224 383.528 410.005 383.14 409.567 382.854C409.129 382.55 408.362 382.323 407.266 382.171C405.497 381.901 404.233 381.48 403.474 380.907C402.733 380.317 402.362 379.517 402.362 378.505C402.362 377.713 402.573 377.031 402.994 376.458C403.415 375.868 403.997 375.413 404.738 375.092C405.497 374.755 406.365 374.587 407.342 374.587C408.421 374.587 409.398 374.789 410.275 375.194C411.151 375.581 411.918 376.146 412.575 376.887L411.109 378.531C410.637 377.924 410.089 377.452 409.466 377.115C408.842 376.761 408.143 376.584 407.368 376.584C406.626 376.584 406.019 376.753 405.547 377.09C405.075 377.41 404.839 377.831 404.839 378.354C404.839 378.64 404.924 378.885 405.092 379.087C405.261 379.289 405.547 379.458 405.952 379.592C406.356 379.71 406.921 379.828 407.646 379.946C409.5 380.233 410.806 380.688 411.564 381.312C412.339 381.918 412.727 382.795 412.727 383.941C412.727 384.733 412.5 385.432 412.045 386.039C411.606 386.646 410.983 387.118 410.174 387.455C409.382 387.792 408.463 387.96 407.418 387.96C406.221 387.96 405.151 387.758 404.207 387.354C403.28 386.949 402.48 386.385 401.806 385.66ZM424.66 383.89L426.304 385.508C425.714 386.283 424.98 386.89 424.104 387.328C423.228 387.75 422.259 387.96 421.197 387.96C419.95 387.96 418.837 387.674 417.86 387.101C416.899 386.528 416.141 385.744 415.584 384.75C415.045 383.738 414.775 382.584 414.775 381.286C414.775 379.972 415.054 378.817 415.61 377.823C416.166 376.812 416.924 376.019 417.885 375.446C418.863 374.873 419.975 374.587 421.222 374.587C423.379 374.587 425.082 375.404 426.329 377.039L424.635 378.657C424.264 378.05 423.792 377.587 423.219 377.267C422.646 376.93 421.997 376.761 421.273 376.761C420.143 376.761 419.216 377.174 418.492 378C417.784 378.809 417.43 379.904 417.43 381.286C417.43 382.635 417.792 383.73 418.517 384.573C419.242 385.399 420.177 385.812 421.323 385.812C422.031 385.812 422.663 385.651 423.219 385.331C423.775 384.994 424.256 384.514 424.66 383.89ZM439.071 387.556H436.77V385.078L436.694 384.497V379.795C436.694 378.817 436.399 378.05 435.81 377.494C435.22 376.921 434.411 376.635 433.383 376.635C432.034 376.635 430.854 377.191 429.843 378.303L428.377 376.736C429.843 375.303 431.579 374.587 433.585 374.587C434.697 374.587 435.658 374.797 436.467 375.219C437.293 375.64 437.933 376.238 438.388 377.014C438.843 377.772 439.071 378.674 439.071 379.719V387.556ZM432.523 387.96C431.63 387.96 430.838 387.792 430.147 387.455C429.472 387.101 428.942 386.621 428.554 386.014C428.166 385.407 427.972 384.716 427.972 383.941C427.972 382.643 428.47 381.632 429.464 380.907C430.475 380.165 431.832 379.795 433.534 379.795H436.922V381.59H433.762C432.751 381.59 431.958 381.792 431.385 382.196C430.829 382.584 430.551 383.132 430.551 383.84C430.551 384.48 430.77 385.003 431.208 385.407C431.663 385.795 432.27 385.988 433.029 385.988C433.753 385.988 434.402 385.828 434.975 385.508C435.548 385.188 436.012 384.75 436.366 384.194C436.72 383.637 436.922 382.997 436.972 382.272L437.756 382.702C437.756 383.73 437.529 384.64 437.074 385.432C436.635 386.224 436.02 386.848 435.228 387.303C434.453 387.741 433.551 387.96 432.523 387.96ZM445.133 387.556H442.605V369.354H445.133V387.556ZM459.007 387.556H456.707V385.078L456.631 384.497V379.795C456.631 378.817 456.336 378.05 455.746 377.494C455.156 376.921 454.347 376.635 453.319 376.635C451.971 376.635 450.791 377.191 449.78 378.303L448.313 376.736C449.78 375.303 451.516 374.587 453.521 374.587C454.634 374.587 455.594 374.797 456.403 375.219C457.229 375.64 457.869 376.238 458.325 377.014C458.78 377.772 459.007 378.674 459.007 379.719V387.556ZM452.459 387.96C451.566 387.96 450.774 387.792 450.083 387.455C449.409 387.101 448.878 386.621 448.49 386.014C448.103 385.407 447.909 384.716 447.909 383.941C447.909 382.643 448.406 381.632 449.4 380.907C450.412 380.165 451.768 379.795 453.471 379.795H456.858V381.59H453.698C452.687 381.59 451.895 381.792 451.322 382.196C450.766 382.584 450.487 383.132 450.487 383.84C450.487 384.48 450.707 385.003 451.145 385.407C451.6 385.795 452.207 385.988 452.965 385.988C453.69 385.988 454.339 385.828 454.912 385.508C455.485 385.188 455.948 384.75 456.302 384.194C456.656 383.637 456.858 382.997 456.909 382.272L457.693 382.702C457.693 383.73 457.465 384.64 457.01 385.432C456.572 386.224 455.957 386.848 455.164 387.303C454.389 387.741 453.487 387.96 452.459 387.96ZM465.044 387.556H462.541V369.354H465.069V378.834H464.462C464.58 378.008 464.858 377.275 465.297 376.635C465.752 375.994 466.325 375.497 467.016 375.143C467.724 374.772 468.516 374.587 469.392 374.587C470.521 374.587 471.524 374.873 472.4 375.446C473.277 376.019 473.976 376.812 474.499 377.823C475.021 378.834 475.282 379.988 475.282 381.286C475.282 382.584 475.013 383.738 474.474 384.75C473.951 385.744 473.235 386.528 472.325 387.101C471.431 387.674 470.42 387.96 469.291 387.96C468.263 387.96 467.361 387.733 466.586 387.278C465.827 386.806 465.246 386.174 464.841 385.382C464.437 384.573 464.277 383.671 464.361 382.677L464.867 382.196C464.951 382.904 465.17 383.528 465.524 384.067C465.878 384.606 466.333 385.036 466.889 385.356C467.462 385.66 468.086 385.812 468.76 385.812C469.535 385.812 470.209 385.618 470.782 385.23C471.372 384.842 471.827 384.312 472.148 383.637C472.485 382.946 472.653 382.163 472.653 381.286C472.653 380.393 472.493 379.609 472.173 378.935C471.87 378.261 471.44 377.73 470.884 377.342C470.327 376.955 469.679 376.761 468.937 376.761C468.179 376.761 467.513 376.963 466.94 377.368C466.367 377.755 465.912 378.312 465.575 379.036C465.238 379.744 465.069 380.57 465.069 381.514V384.244L465.044 384.345V387.556ZM480.814 387.556H478.286V369.354H480.814V387.556ZM494.208 383.865L495.7 385.458C495.043 386.3 494.259 386.932 493.349 387.354C492.456 387.758 491.478 387.96 490.416 387.96C489.102 387.96 487.947 387.674 486.953 387.101C485.975 386.528 485.208 385.736 484.652 384.724C484.096 383.713 483.818 382.567 483.818 381.286C483.818 380.005 484.088 378.859 484.627 377.848C485.183 376.837 485.925 376.045 486.852 375.472C487.795 374.882 488.857 374.587 490.037 374.587C491.183 374.587 492.194 374.873 493.071 375.446C493.947 376.003 494.63 376.778 495.119 377.772C495.624 378.767 495.877 379.904 495.877 381.185V381.337H493.374V381.084C493.374 379.736 493.071 378.665 492.464 377.873C491.874 377.081 491.057 376.685 490.012 376.685C489.304 376.685 488.68 376.871 488.141 377.241C487.602 377.612 487.18 378.143 486.877 378.834C486.574 379.525 486.422 380.326 486.422 381.236C486.422 382.163 486.582 382.972 486.902 383.663C487.239 384.337 487.711 384.876 488.318 385.281C488.942 385.668 489.683 385.862 490.543 385.862C491.301 385.862 491.984 385.694 492.59 385.356C493.197 385.019 493.737 384.522 494.208 383.865ZM495.877 382.095H485.613V380.275H495.498L495.877 381.185V382.095Z" fill="#8D9180"/>
</svg>
