<svg width="595" height="499" viewBox="0 0 595 499" fill="none" xmlns="http://www.w3.org/2000/svg">
<rect x="0.925781" y="0.896362" width="593.664" height="97.1747" rx="15.3895" fill="#585E44"/>
<path d="M48.023 55.7206L50.1576 57.8551C49.2428 59.1358 48.0434 60.1421 46.5594 60.8739C45.0957 61.6057 43.5609 61.9717 41.9549 61.9717C40.4302 61.9717 39.0174 61.6871 37.7163 61.1178C36.4356 60.5486 35.3175 59.7558 34.3621 58.7394C33.4066 57.7026 32.6646 56.493 32.1361 55.1107C31.6075 53.7283 31.3433 52.224 31.3433 50.5977C31.3433 48.9511 31.6075 47.4366 32.1361 46.0542C32.685 44.6719 33.4371 43.4725 34.3926 42.456C35.348 41.4193 36.4763 40.6163 37.7773 40.0471C39.0784 39.4779 40.4912 39.1933 42.0159 39.1933C43.7032 39.1933 45.238 39.549 46.6203 40.2605C48.023 40.972 49.2021 41.9885 50.1576 43.3098L48.023 45.4444C47.3115 44.3263 46.4374 43.4725 45.4006 42.8829C44.3842 42.2934 43.2458 41.9986 41.9854 41.9986C40.5624 41.9986 39.2918 42.3747 38.1737 43.1269C37.076 43.8587 36.212 44.865 35.5818 46.1457C34.9516 47.4264 34.6365 48.9104 34.6365 50.5977C34.6365 52.2443 34.9516 53.7182 35.5818 55.0192C36.212 56.2999 37.076 57.3164 38.1737 58.0685C39.2918 58.8004 40.5624 59.1663 41.9854 59.1663C43.2458 59.1663 44.3943 58.8715 45.4311 58.282C46.4679 57.6721 47.3319 56.8183 48.023 55.7206ZM66.8588 61.4838H63.8399V58.5564L63.8094 57.7026V46.3287H66.8588V61.4838ZM64.0534 55.0192L64.6633 55.6291C64.7242 56.8691 64.5108 57.9669 64.0229 58.9223C63.5553 59.8778 62.8845 60.63 62.0103 61.1788C61.1362 61.7074 60.1096 61.9717 58.9305 61.9717C57.2636 61.9717 55.9219 61.4329 54.9054 60.3555C53.9093 59.2781 53.4113 57.7229 53.4113 55.6901V46.3287H56.4606V55.3851C56.4606 56.6862 56.7452 57.6823 57.3144 58.3735C57.9039 59.0443 58.7069 59.3797 59.7234 59.3797C60.4755 59.3797 61.1565 59.1968 61.7664 58.8309C62.3763 58.4446 62.8845 57.9262 63.2911 57.2757C63.718 56.6252 63.9721 55.873 64.0534 55.0192ZM69.7189 59.1968L71.4265 57.2147C72.0771 57.9262 72.8191 58.4954 73.6525 58.9223C74.5064 59.3492 75.4618 59.5627 76.5189 59.5627C77.515 59.5627 78.318 59.3492 78.9279 58.9223C79.5581 58.4751 79.8732 57.9059 79.8732 57.2147C79.8732 56.6252 79.6089 56.1576 79.0803 55.812C78.5518 55.4461 77.6268 55.1717 76.3055 54.9887C74.1709 54.6635 72.6463 54.1552 71.7315 53.4641C70.837 52.7526 70.3898 51.7869 70.3898 50.5672C70.3898 49.6118 70.6439 48.7884 71.1521 48.0973C71.6603 47.3858 72.3617 46.8369 73.2561 46.4506C74.1709 46.0441 75.2179 45.8408 76.3969 45.8408C77.698 45.8408 78.877 46.0847 79.9341 46.5726C80.9912 47.0402 81.9162 47.7212 82.709 48.6156L80.9404 50.5977C80.3712 49.8659 79.7105 49.2967 78.9584 48.8901C78.2062 48.4632 77.3625 48.2497 76.4274 48.2497C75.533 48.2497 74.8011 48.453 74.2319 48.8596C73.6627 49.2458 73.3781 49.7541 73.3781 50.3842C73.3781 50.7298 73.4797 51.0246 73.683 51.2686C73.8863 51.5125 74.2319 51.7158 74.7198 51.8784C75.2077 52.0207 75.8887 52.163 76.7628 52.3053C78.999 52.6509 80.5745 53.1998 81.4893 53.952C82.4244 54.6838 82.892 55.7409 82.892 57.1232C82.892 58.0787 82.6175 58.9223 82.0687 59.6542C81.5401 60.386 80.7879 60.9552 79.8122 61.3618C78.8567 61.7684 77.7488 61.9717 76.4884 61.9717C75.0451 61.9717 73.7542 61.7277 72.6158 61.2398C71.4977 60.7519 70.5321 60.0709 69.7189 59.1968ZM94.6304 61.4838H91.1847C89.9853 61.4838 89.0807 61.1687 88.4708 60.5385C87.8813 59.9083 87.5865 58.9833 87.5865 57.7636V42.0901H90.6358V57.3672C90.6358 57.8754 90.7578 58.2617 91.0017 58.5259C91.2457 58.7902 91.6116 58.9223 92.0995 58.9223H94.6304V61.4838ZM94.4475 48.8901H84.9031V46.3287H94.4475V48.8901ZM104.207 61.9717C102.723 61.9717 101.392 61.6261 100.213 60.9349C99.0541 60.2437 98.1393 59.2883 97.4684 58.0685C96.8179 56.8488 96.4926 55.4664 96.4926 53.9215C96.4926 52.3561 96.8179 50.9636 97.4684 49.7439C98.1393 48.5242 99.0541 47.5687 100.213 46.8775C101.392 46.1864 102.723 45.8408 104.207 45.8408C105.732 45.8408 107.074 46.1864 108.233 46.8775C109.412 47.5687 110.326 48.5242 110.977 49.7439C111.648 50.9636 111.983 52.346 111.983 53.891C111.983 55.4563 111.648 56.8488 110.977 58.0685C110.326 59.2883 109.412 60.2437 108.233 60.9349C107.074 61.6261 105.732 61.9717 104.207 61.9717ZM104.238 59.3797C105.153 59.3797 105.946 59.146 106.616 58.6784C107.287 58.2108 107.816 57.5705 108.202 56.7573C108.588 55.9238 108.781 54.9786 108.781 53.9215C108.781 52.8237 108.588 51.8784 108.202 51.0856C107.836 50.2724 107.308 49.6321 106.616 49.1645C105.946 48.697 105.153 48.4632 104.238 48.4632C103.323 48.4632 102.52 48.697 101.829 49.1645C101.158 49.6321 100.63 50.2724 100.243 51.0856C99.8774 51.8784 99.6944 52.8237 99.6944 53.9215C99.6944 54.9786 99.8774 55.9238 100.243 56.7573C100.63 57.5705 101.158 58.2108 101.829 58.6784C102.52 59.146 103.323 59.3797 104.238 59.3797ZM138.494 61.4838H135.445V52.6712C135.445 51.3295 135.18 50.2928 134.652 49.5609C134.123 48.8291 133.391 48.4632 132.456 48.4632C131.277 48.4632 130.332 48.9816 129.62 50.0183C128.909 51.0551 128.553 52.5086 128.553 54.3789V61.4838H125.504V52.6712C125.504 51.3295 125.24 50.2928 124.711 49.5609C124.203 48.8291 123.481 48.4632 122.546 48.4632C121.387 48.4632 120.452 48.9816 119.741 50.0183C119.029 51.0551 118.673 52.5086 118.673 54.3789V61.4838H115.624V46.3287H118.643V49.9269L118.429 49.8964C118.653 48.9816 119.009 48.2294 119.497 47.6399C119.985 47.0503 120.554 46.6031 121.204 46.2982C121.875 45.9932 122.587 45.8408 123.339 45.8408C124.62 45.8408 125.666 46.227 126.48 46.9995C127.293 47.7517 127.831 48.8393 128.096 50.2623H127.699C127.943 49.2662 128.33 48.4428 128.858 47.7923C129.387 47.1418 130.017 46.6539 130.749 46.3287C131.48 46.0034 132.273 45.8408 133.127 45.8408C134.814 45.8408 136.126 46.41 137.061 47.5484C138.016 48.6868 138.494 50.3131 138.494 52.4273V61.4838ZM154.423 57.0318L156.222 58.9528C155.43 59.9693 154.484 60.7316 153.386 61.2398C152.309 61.7277 151.13 61.9717 149.849 61.9717C148.264 61.9717 146.871 61.6261 145.672 60.9349C144.493 60.2437 143.568 59.2883 142.897 58.0685C142.226 56.8488 141.891 55.4664 141.891 53.9215C141.891 52.3765 142.216 50.9941 142.866 49.7744C143.537 48.5547 144.432 47.5992 145.55 46.908C146.688 46.1965 147.969 45.8408 149.392 45.8408C150.774 45.8408 151.994 46.1864 153.051 46.8775C154.108 47.5484 154.931 48.4835 155.521 49.6829C156.131 50.8823 156.436 52.2545 156.436 53.7995V53.9824H153.417V53.6775C153.417 52.0512 153.051 50.7603 152.319 49.8049C151.608 48.8494 150.622 48.3717 149.361 48.3717C148.508 48.3717 147.755 48.5953 147.105 49.0425C146.454 49.4898 145.946 50.1301 145.58 50.9636C145.214 51.7971 145.031 52.7627 145.031 53.8605C145.031 54.9786 145.224 55.9543 145.611 56.7878C146.017 57.601 146.586 58.2515 147.318 58.7394C148.07 59.2069 148.965 59.4407 150.002 59.4407C150.917 59.4407 151.74 59.2374 152.472 58.8309C153.204 58.4243 153.854 57.8246 154.423 57.0318ZM156.436 54.8972H144.056V52.7017H155.978L156.436 53.7995V54.8972ZM168.728 46.0847V48.9511H168.088C167.173 48.9511 166.34 49.1747 165.588 49.6219C164.835 50.0488 164.236 50.7197 163.788 51.6345C163.362 52.5289 163.148 53.6877 163.148 55.1107V61.4838H160.099V46.3287H163.118V51.2076H162.691C162.874 49.9065 163.26 48.8901 163.849 48.1582C164.439 47.4061 165.12 46.8775 165.892 46.5726C166.665 46.2473 167.427 46.0847 168.179 46.0847H168.728ZM175.448 67.3994V64.8685H176.454C177.043 64.8685 177.46 64.7262 177.704 64.4416C177.968 64.157 178.1 63.6894 178.1 63.0389V46.3287H181.15V63.4658C181.15 66.0882 179.9 67.3994 177.399 67.3994H175.448ZM181.607 40.9619C181.607 41.5107 181.414 41.9783 181.028 42.3645C180.642 42.7305 180.174 42.9134 179.625 42.9134C179.056 42.9134 178.578 42.7305 178.192 42.3645C177.806 41.9783 177.613 41.5107 177.613 40.9619C177.613 40.3927 177.806 39.9251 178.192 39.5592C178.578 39.1729 179.056 38.9798 179.625 38.9798C180.174 38.9798 180.642 39.1729 181.028 39.5592C181.414 39.9251 181.607 40.3927 181.607 40.9619ZM192.488 61.9717C191.004 61.9717 189.672 61.6261 188.493 60.9349C187.334 60.2437 186.419 59.2883 185.749 58.0685C185.098 56.8488 184.773 55.4664 184.773 53.9215C184.773 52.3561 185.098 50.9636 185.749 49.7439C186.419 48.5242 187.334 47.5687 188.493 46.8775C189.672 46.1864 191.004 45.8408 192.488 45.8408C194.012 45.8408 195.354 46.1864 196.513 46.8775C197.692 47.5687 198.607 48.5242 199.257 49.7439C199.928 50.9636 200.263 52.346 200.263 53.891C200.263 55.4563 199.928 56.8488 199.257 58.0685C198.607 59.2883 197.692 60.2437 196.513 60.9349C195.354 61.6261 194.012 61.9717 192.488 61.9717ZM192.518 59.3797C193.433 59.3797 194.226 59.146 194.897 58.6784C195.567 58.2108 196.096 57.5705 196.482 56.7573C196.868 55.9238 197.062 54.9786 197.062 53.9215C197.062 52.8237 196.868 51.8784 196.482 51.0856C196.116 50.2724 195.588 49.6321 194.897 49.1645C194.226 48.697 193.433 48.4632 192.518 48.4632C191.603 48.4632 190.8 48.697 190.109 49.1645C189.438 49.6321 188.91 50.2724 188.523 51.0856C188.158 51.8784 187.975 52.8237 187.975 53.9215C187.975 54.9786 188.158 55.9238 188.523 56.7573C188.91 57.5705 189.438 58.2108 190.109 58.6784C190.8 59.146 191.603 59.3797 192.518 59.3797ZM217.169 61.4838H214.15V58.5564L214.119 57.7026V46.3287H217.169V61.4838ZM214.363 55.0192L214.973 55.6291C215.034 56.8691 214.821 57.9669 214.333 58.9223C213.865 59.8778 213.194 60.63 212.32 61.1788C211.446 61.7074 210.42 61.9717 209.24 61.9717C207.573 61.9717 206.232 61.4329 205.215 60.3555C204.219 59.2781 203.721 57.7229 203.721 55.6901V46.3287H206.77V55.3851C206.77 56.6862 207.055 57.6823 207.624 58.3735C208.214 59.0443 209.017 59.3797 210.033 59.3797C210.785 59.3797 211.466 59.1968 212.076 58.8309C212.686 58.4446 213.194 57.9262 213.601 57.2757C214.028 56.6252 214.282 55.873 214.363 55.0192ZM230.275 46.0847V48.9511H229.634C228.719 48.9511 227.886 49.1747 227.134 49.6219C226.382 50.0488 225.782 50.7197 225.335 51.6345C224.908 52.5289 224.694 53.6877 224.694 55.1107V61.4838H221.645V46.3287H224.664V51.2076H224.237C224.42 49.9065 224.806 48.8901 225.396 48.1582C225.985 47.4061 226.666 46.8775 227.439 46.5726C228.211 46.2473 228.973 46.0847 229.726 46.0847H230.275ZM246.611 61.4838H243.562V52.7627C243.562 51.3397 243.267 50.2724 242.677 49.5609C242.108 48.8291 241.326 48.4632 240.329 48.4632C239.598 48.4632 238.917 48.6665 238.286 49.073C237.656 49.4796 237.138 50.1301 236.731 51.0246C236.345 51.8987 236.152 53.0372 236.152 54.4398V61.4838H233.103V46.3287H236.121V50.9941H235.694C235.877 49.6931 236.243 48.6665 236.792 47.9143C237.361 47.1621 238.022 46.6336 238.774 46.3287C239.526 46.0034 240.299 45.8408 241.092 45.8408C242.799 45.8408 244.141 46.41 245.117 47.5484C246.113 48.6665 246.611 50.2928 246.611 52.4273V61.4838ZM262.551 57.0318L264.35 58.9528C263.558 59.9693 262.612 60.7316 261.515 61.2398C260.437 61.7277 259.258 61.9717 257.977 61.9717C256.392 61.9717 254.999 61.6261 253.8 60.9349C252.621 60.2437 251.696 59.2883 251.025 58.0685C250.354 56.8488 250.019 55.4664 250.019 53.9215C250.019 52.3765 250.344 50.9941 250.994 49.7744C251.665 48.5547 252.56 47.5992 253.678 46.908C254.816 46.1965 256.097 45.8408 257.52 45.8408C258.902 45.8408 260.122 46.1864 261.179 46.8775C262.236 47.5484 263.06 48.4835 263.649 49.6829C264.259 50.8823 264.564 52.2545 264.564 53.7995V53.9824H261.545V53.6775C261.545 52.0512 261.179 50.7603 260.447 49.8049C259.736 48.8494 258.75 48.3717 257.489 48.3717C256.636 48.3717 255.883 48.5953 255.233 49.0425C254.582 49.4898 254.074 50.1301 253.708 50.9636C253.342 51.7971 253.159 52.7627 253.159 53.8605C253.159 54.9786 253.353 55.9543 253.739 56.7878C254.145 57.601 254.715 58.2515 255.446 58.7394C256.199 59.2069 257.093 59.4407 258.13 59.4407C259.045 59.4407 259.868 59.2374 260.6 58.8309C261.332 58.4243 261.982 57.8246 262.551 57.0318ZM264.564 54.8972H252.184V52.7017H264.106L264.564 53.7995V54.8972ZM278.064 46.3287H281.143L274.13 63.7403C273.662 64.9193 273.063 65.824 272.331 66.4542C271.619 67.0843 270.572 67.3994 269.19 67.3994H267.299V64.838H269.099C269.79 64.838 270.318 64.6855 270.684 64.3806C271.05 64.0757 271.335 63.6183 271.538 63.0084L272.087 61.5448L265.958 46.3287H269.16L274.099 59.7152H273.063L278.064 46.3287ZM302.893 61.4838H300.118V58.4954L300.027 57.7941V52.1224C300.027 50.9433 299.671 50.0183 298.96 49.3475C298.248 48.6563 297.272 48.3107 296.032 48.3107C294.406 48.3107 292.983 48.9816 291.763 50.3233L289.995 48.4327C291.763 46.7047 293.857 45.8408 296.276 45.8408C297.618 45.8408 298.777 46.0949 299.753 46.6031C300.749 47.1113 301.521 47.833 302.07 48.7681C302.619 49.6829 302.893 50.7705 302.893 52.0309V61.4838ZM294.996 61.9717C293.918 61.9717 292.963 61.7684 292.129 61.3618C291.316 60.9349 290.676 60.3555 290.208 59.6237C289.741 58.8918 289.507 58.0584 289.507 57.1232C289.507 55.5579 290.107 54.3382 291.306 53.4641C292.526 52.5696 294.162 52.1224 296.215 52.1224H300.301V54.2874H296.49C295.27 54.2874 294.315 54.5313 293.623 55.0192C292.953 55.4868 292.617 56.1475 292.617 57.0013C292.617 57.7738 292.881 58.404 293.41 58.8918C293.959 59.3594 294.691 59.5932 295.605 59.5932C296.48 59.5932 297.262 59.4001 297.953 59.0138C298.645 58.6276 299.204 58.099 299.631 57.4282C300.057 56.7573 300.301 55.9848 300.362 55.1107L301.308 55.6291C301.308 56.8691 301.033 57.9669 300.484 58.9223C299.956 59.8778 299.214 60.63 298.258 61.1788C297.323 61.7074 296.236 61.9717 294.996 61.9717ZM320.664 61.4838H317.615V52.7627C317.615 51.3397 317.32 50.2724 316.731 49.5609C316.161 48.8291 315.379 48.4632 314.383 48.4632C313.651 48.4632 312.97 48.6665 312.34 49.073C311.709 49.4796 311.191 50.1301 310.784 51.0246C310.398 51.8987 310.205 53.0372 310.205 54.4398V61.4838H307.156V46.3287H310.175V50.9941H309.748C309.931 49.6931 310.296 48.6665 310.845 47.9143C311.415 47.1621 312.075 46.6336 312.827 46.3287C313.58 46.0034 314.352 45.8408 315.145 45.8408C316.853 45.8408 318.194 46.41 319.17 47.5484C320.166 48.6665 320.664 50.2928 320.664 52.4273V61.4838ZM337.184 61.4838H334.409V58.4954L334.317 57.7941V52.1224C334.317 50.9433 333.962 50.0183 333.25 49.3475C332.539 48.6563 331.563 48.3107 330.323 48.3107C328.697 48.3107 327.274 48.9816 326.054 50.3233L324.285 48.4327C326.054 46.7047 328.148 45.8408 330.567 45.8408C331.909 45.8408 333.067 46.0949 334.043 46.6031C335.039 47.1113 335.812 47.833 336.361 48.7681C336.909 49.6829 337.184 50.7705 337.184 52.0309V61.4838ZM329.286 61.9717C328.209 61.9717 327.253 61.7684 326.42 61.3618C325.607 60.9349 324.966 60.3555 324.499 59.6237C324.031 58.8918 323.797 58.0584 323.797 57.1232C323.797 55.5579 324.397 54.3382 325.596 53.4641C326.816 52.5696 328.453 52.1224 330.506 52.1224H334.592V54.2874H330.78C329.561 54.2874 328.605 54.5313 327.914 55.0192C327.243 55.4868 326.908 56.1475 326.908 57.0013C326.908 57.7738 327.172 58.404 327.7 58.8918C328.249 59.3594 328.981 59.5932 329.896 59.5932C330.77 59.5932 331.553 59.4001 332.244 59.0138C332.935 58.6276 333.494 58.099 333.921 57.4282C334.348 56.7573 334.592 55.9848 334.653 55.1107L335.598 55.6291C335.598 56.8691 335.324 57.9669 334.775 58.9223C334.246 59.8778 333.504 60.63 332.549 61.1788C331.614 61.7074 330.526 61.9717 329.286 61.9717ZM344.496 61.4838H341.446V39.5287H344.496V61.4838ZM359.584 46.3287H362.664L355.65 63.7403C355.183 64.9193 354.583 65.824 353.851 66.4542C353.14 67.0843 352.093 67.3994 350.71 67.3994H348.82V64.838H350.619C351.31 64.838 351.839 64.6855 352.205 64.3806C352.571 64.0757 352.855 63.6183 353.058 63.0084L353.607 61.5448L347.478 46.3287H350.68L355.62 59.7152H354.583L359.584 46.3287ZM373.936 61.4838H370.49C369.291 61.4838 368.386 61.1687 367.776 60.5385C367.187 59.9083 366.892 58.9833 366.892 57.7636V42.0901H369.941V57.3672C369.941 57.8754 370.063 58.2617 370.307 58.5259C370.551 58.7902 370.917 58.9223 371.405 58.9223H373.936V61.4838ZM373.753 48.8901H364.209V46.3287H373.753V48.8901ZM380.238 61.4838H377.189V46.3287H380.238V61.4838ZM380.695 40.9619C380.695 41.5107 380.502 41.9783 380.116 42.3645C379.73 42.7305 379.262 42.9134 378.713 42.9134C378.144 42.9134 377.666 42.7305 377.28 42.3645C376.894 41.9783 376.701 41.5107 376.701 40.9619C376.701 40.3927 376.894 39.9251 377.28 39.5592C377.666 39.1729 378.144 38.9798 378.713 38.9798C379.262 38.9798 379.73 39.1729 380.116 39.5592C380.502 39.9251 380.695 40.3927 380.695 40.9619ZM395.784 57.0623L397.766 59.0138C397.054 59.9489 396.17 60.6808 395.113 61.2093C394.056 61.7175 392.887 61.9717 391.606 61.9717C390.102 61.9717 388.76 61.6261 387.581 60.9349C386.422 60.2437 385.508 59.2984 384.837 58.099C384.186 56.8793 383.861 55.4868 383.861 53.9215C383.861 52.3358 384.196 50.9433 384.867 49.7439C385.538 48.5242 386.453 47.5687 387.612 46.8775C388.791 46.1864 390.132 45.8408 391.637 45.8408C394.239 45.8408 396.292 46.8267 397.796 48.7986L395.753 50.7502C395.306 50.0183 394.737 49.4593 394.046 49.073C393.355 48.6665 392.572 48.4632 391.698 48.4632C390.336 48.4632 389.218 48.9612 388.344 49.9573C387.49 50.9331 387.063 52.2545 387.063 53.9215C387.063 55.5478 387.5 56.8691 388.374 57.8856C389.248 58.8817 390.376 59.3797 391.759 59.3797C392.613 59.3797 393.375 59.1866 394.046 58.8004C394.717 58.3938 395.296 57.8144 395.784 57.0623ZM399.322 59.1968L401.029 57.2147C401.68 57.9262 402.422 58.4954 403.255 58.9223C404.109 59.3492 405.064 59.5627 406.122 59.5627C407.118 59.5627 407.921 59.3492 408.531 58.9223C409.161 58.4751 409.476 57.9059 409.476 57.2147C409.476 56.6252 409.212 56.1576 408.683 55.812C408.154 55.4461 407.229 55.1717 405.908 54.9887C403.774 54.6635 402.249 54.1552 401.334 53.4641C400.44 52.7526 399.992 51.7869 399.992 50.5672C399.992 49.6118 400.247 48.7884 400.755 48.0973C401.263 47.3858 401.964 46.8369 402.859 46.4506C403.774 46.0441 404.821 45.8408 406 45.8408C407.301 45.8408 408.48 46.0847 409.537 46.5726C410.594 47.0402 411.519 47.7212 412.312 48.6156L410.543 50.5977C409.974 49.8659 409.313 49.2967 408.561 48.8901C407.809 48.4632 406.965 48.2497 406.03 48.2497C405.136 48.2497 404.404 48.453 403.835 48.8596C403.265 49.2458 402.981 49.7541 402.981 50.3842C402.981 50.7298 403.082 51.0246 403.286 51.2686C403.489 51.5125 403.835 51.7158 404.322 51.8784C404.81 52.0207 405.491 52.163 406.365 52.3053C408.602 52.6509 410.177 53.1998 411.092 53.952C412.027 54.6838 412.495 55.7409 412.495 57.1232C412.495 58.0787 412.22 58.9223 411.671 59.6542C411.143 60.386 410.391 60.9552 409.415 61.3618C408.459 61.7684 407.351 61.9717 406.091 61.9717C404.648 61.9717 403.357 61.7277 402.218 61.2398C401.1 60.7519 400.135 60.0709 399.322 59.1968Z" fill="#F9FFE5"/>
<rect x="0.925781" y="117.129" width="593.664" height="381.66" rx="15.3895" fill="#F9FFE5"/>
<path d="M45.9935 169.236V170.13L41.471 178.775H40.3637L44.8862 170.13H39.8834V169.236H45.9935ZM53.6109 178.775H47.5942V177.921L50.756 174.679C51.2006 174.226 51.552 173.83 51.8099 173.492C52.0678 173.154 52.2501 172.838 52.3568 172.545C52.4636 172.242 52.5169 171.931 52.5169 171.611C52.5169 171.086 52.3613 170.673 52.05 170.37C51.7387 170.068 51.3118 169.917 50.7693 169.917C50.2357 169.917 49.7687 170.046 49.3685 170.303C48.9683 170.561 48.6036 170.975 48.2746 171.544L47.5408 170.877C47.9322 170.255 48.3991 169.792 48.9416 169.49C49.4841 169.178 50.0978 169.023 50.7826 169.023C51.3341 169.023 51.8143 169.129 52.2234 169.343C52.6414 169.556 52.9661 169.859 53.1973 170.25C53.4374 170.633 53.5575 171.077 53.5575 171.584C53.5575 171.975 53.4953 172.349 53.3707 172.705C53.2462 173.052 53.0239 173.434 52.7037 173.852C52.3835 174.261 51.9344 174.764 51.3563 175.36L48.9016 177.881H53.6109V178.775ZM58.3464 178.094C59.0579 178.094 59.6049 177.739 59.9873 177.027C60.3698 176.316 60.561 175.306 60.561 173.999C60.561 172.691 60.3698 171.686 59.9873 170.984C59.6049 170.272 59.0579 169.917 58.3464 169.917C57.6438 169.917 57.0968 170.272 56.7055 170.984C56.3231 171.686 56.1319 172.691 56.1319 173.999C56.1319 175.306 56.3231 176.316 56.7055 177.027C57.0968 177.739 57.6438 178.094 58.3464 178.094ZM58.3464 178.988C57.6527 178.988 57.0613 178.788 56.5721 178.388C56.0829 177.988 55.705 177.419 55.4381 176.68C55.1802 175.933 55.0513 175.039 55.0513 173.999C55.0513 172.958 55.1802 172.069 55.4381 171.331C55.705 170.584 56.0829 170.014 56.5721 169.623C57.0613 169.223 57.6527 169.023 58.3464 169.023C59.0401 169.023 59.6316 169.223 60.1208 169.623C60.6099 170.014 60.9835 170.584 61.2414 171.331C61.5082 172.069 61.6416 172.958 61.6416 173.999C61.6416 175.039 61.5082 175.933 61.2414 176.68C60.9835 177.419 60.6099 177.988 60.1208 178.388C59.6316 178.788 59.0401 178.988 58.3464 178.988Z" fill="#8D9180"/>
<path d="M43.0852 217.105C42.4449 217.105 41.8801 216.958 41.3909 216.665C40.9107 216.371 40.5327 215.962 40.257 215.437C39.9902 214.904 39.8568 214.281 39.8568 213.569C39.8568 212.911 39.9857 212.244 40.2436 211.568C40.5105 210.892 40.924 210.203 41.4843 209.501C42.0446 208.789 42.7695 208.073 43.6589 207.353H45.0997C44.237 208.046 43.5255 208.682 42.9652 209.26C42.4137 209.83 41.9824 210.372 41.6711 210.888C41.3598 211.395 41.1375 211.906 41.0041 212.422L40.8973 212.289C41.0574 211.782 41.342 211.377 41.7511 211.075C42.1692 210.772 42.6761 210.621 43.272 210.621C43.8323 210.621 44.3481 210.755 44.8195 211.021C45.2909 211.288 45.6689 211.662 45.9535 212.142C46.2381 212.622 46.3804 213.178 46.3804 213.81C46.3804 214.432 46.2381 214.992 45.9535 215.491C45.6778 215.989 45.2909 216.384 44.7928 216.678C44.3037 216.962 43.7345 217.105 43.0852 217.105ZM43.1119 216.211C43.5388 216.211 43.9168 216.109 44.2459 215.904C44.5749 215.7 44.8329 215.419 45.0196 215.064C45.2153 214.708 45.3131 214.303 45.3131 213.85C45.3131 213.387 45.2153 212.982 45.0196 212.636C44.8329 212.28 44.5749 212.004 44.2459 211.808C43.9168 211.604 43.5388 211.502 43.1119 211.502C42.7028 211.502 42.3292 211.599 41.9913 211.795C41.6622 211.982 41.3954 212.253 41.1908 212.609C40.9952 212.956 40.8973 213.369 40.8973 213.85C40.8973 214.303 40.9907 214.708 41.1775 215.064C41.3732 215.419 41.64 215.7 41.9779 215.904C42.3159 216.109 42.6939 216.211 43.1119 216.211ZM51.4806 216.211C52.1921 216.211 52.7391 215.855 53.1215 215.144C53.504 214.432 53.6952 213.423 53.6952 212.115C53.6952 210.808 53.504 209.803 53.1215 209.1C52.7391 208.389 52.1921 208.033 51.4806 208.033C50.778 208.033 50.231 208.389 49.8397 209.1C49.4573 209.803 49.2661 210.808 49.2661 212.115C49.2661 213.423 49.4573 214.432 49.8397 215.144C50.231 215.855 50.778 216.211 51.4806 216.211ZM51.4806 217.105C50.7869 217.105 50.1955 216.905 49.7063 216.504C49.2171 216.104 48.8392 215.535 48.5723 214.797C48.3144 214.05 48.1855 213.156 48.1855 212.115C48.1855 211.075 48.3144 210.185 48.5723 209.447C48.8392 208.7 49.2171 208.131 49.7063 207.74C50.1955 207.339 50.7869 207.139 51.4806 207.139C52.1743 207.139 52.7658 207.339 53.2549 207.74C53.7441 208.131 54.1177 208.7 54.3756 209.447C54.6424 210.185 54.7758 211.075 54.7758 212.115C54.7758 213.156 54.6424 214.05 54.3756 214.797C54.1177 215.535 53.7441 216.104 53.2549 216.504C52.7658 216.905 52.1743 217.105 51.4806 217.105ZM60.014 216.211C60.7255 216.211 61.2725 215.855 61.6549 215.144C62.0374 214.432 62.2286 213.423 62.2286 212.115C62.2286 210.808 62.0374 209.803 61.6549 209.1C61.2725 208.389 60.7255 208.033 60.014 208.033C59.3114 208.033 58.7644 208.389 58.3731 209.1C57.9907 209.803 57.7995 210.808 57.7995 212.115C57.7995 213.423 57.9907 214.432 58.3731 215.144C58.7644 215.855 59.3114 216.211 60.014 216.211ZM60.014 217.105C59.3203 217.105 58.7289 216.905 58.2397 216.504C57.7505 216.104 57.3726 215.535 57.1057 214.797C56.8478 214.05 56.7189 213.156 56.7189 212.115C56.7189 211.075 56.8478 210.185 57.1057 209.447C57.3726 208.7 57.7505 208.131 58.2397 207.74C58.7289 207.339 59.3203 207.139 60.014 207.139C60.7077 207.139 61.2992 207.339 61.7883 207.74C62.2775 208.131 62.651 208.7 62.909 209.447C63.1758 210.185 63.3092 211.075 63.3092 212.115C63.3092 213.156 63.1758 214.05 62.909 214.797C62.651 215.535 62.2775 216.104 61.7883 216.504C61.2992 216.905 60.7077 217.105 60.014 217.105Z" fill="#8D9180"/>
<path d="M45.6333 252.95H44.5927V250.575H39.6833V249.681L44.5927 243.411H45.6333V249.681H47.0074V250.575H45.6333V252.95ZM44.5927 244.745L40.7773 249.681H44.5927V244.745ZM51.6323 253.163C50.9919 253.163 50.4227 253.043 49.9247 252.803C49.4355 252.563 49.0486 252.234 48.764 251.816C48.4794 251.389 48.3371 250.904 48.3371 250.361C48.3371 249.837 48.4794 249.37 48.764 248.961C49.0486 248.552 49.4355 248.231 49.9247 248C50.4227 247.76 50.9919 247.64 51.6323 247.64C52.2726 247.64 52.8374 247.76 53.3266 248C53.8246 248.231 54.2159 248.552 54.5005 248.961C54.7851 249.37 54.9274 249.837 54.9274 250.361C54.9274 250.904 54.7851 251.389 54.5005 251.816C54.2159 252.234 53.8246 252.563 53.3266 252.803C52.8374 253.043 52.2726 253.163 51.6323 253.163ZM51.6323 252.269C52.0503 252.269 52.4238 252.185 52.7529 252.016C53.0909 251.847 53.3577 251.62 53.5533 251.335C53.749 251.042 53.8468 250.713 53.8468 250.348C53.8468 249.983 53.749 249.659 53.5533 249.374C53.3577 249.081 53.0909 248.854 52.7529 248.694C52.4238 248.525 52.0503 248.44 51.6323 248.44C51.2232 248.44 50.8496 248.525 50.5116 248.694C50.1737 248.854 49.9069 249.081 49.7112 249.374C49.5155 249.659 49.4177 249.983 49.4177 250.348C49.4177 250.713 49.5155 251.042 49.7112 251.335C49.9069 251.62 50.1737 251.847 50.5116 252.016C50.8496 252.185 51.2232 252.269 51.6323 252.269ZM51.6323 248.2C51.0631 248.2 50.5561 248.098 50.1114 247.893C49.6667 247.689 49.3154 247.409 49.0575 247.053C48.7996 246.688 48.6706 246.284 48.6706 245.839C48.6706 245.323 48.7951 244.869 49.0442 244.478C49.3021 244.078 49.6534 243.767 50.0981 243.544C50.5517 243.313 51.0631 243.197 51.6323 243.197C52.2104 243.197 52.7218 243.313 53.1665 243.544C53.6112 243.767 53.958 244.078 54.207 244.478C54.465 244.869 54.5939 245.323 54.5939 245.839C54.5939 246.284 54.465 246.688 54.207 247.053C53.9491 247.409 53.5978 247.689 53.1531 247.893C52.7084 248.098 52.2015 248.2 51.6323 248.2ZM51.6323 247.547C51.988 247.547 52.3082 247.471 52.5928 247.32C52.8774 247.169 53.1042 246.968 53.2732 246.719C53.4422 246.461 53.5267 246.172 53.5267 245.852C53.5267 245.514 53.4422 245.216 53.2732 244.958C53.1042 244.692 52.8774 244.483 52.5928 244.331C52.3082 244.171 51.988 244.091 51.6323 244.091C51.2854 244.091 50.9652 244.171 50.6717 244.331C50.3871 244.483 50.1603 244.692 49.9914 244.958C49.8224 245.216 49.7379 245.514 49.7379 245.852C49.7379 246.172 49.8224 246.461 49.9914 246.719C50.1603 246.968 50.3871 247.169 50.6717 247.32C50.9652 247.471 51.2854 247.547 51.6323 247.547ZM59.9749 252.269C60.6865 252.269 61.2334 251.913 61.6159 251.202C61.9983 250.49 62.1895 249.481 62.1895 248.174C62.1895 246.866 61.9983 245.861 61.6159 245.159C61.2334 244.447 60.6865 244.091 59.9749 244.091C59.2723 244.091 58.7254 244.447 58.334 245.159C57.9516 245.861 57.7604 246.866 57.7604 248.174C57.7604 249.481 57.9516 250.49 58.334 251.202C58.7254 251.913 59.2723 252.269 59.9749 252.269ZM59.9749 253.163C59.2812 253.163 58.6898 252.963 58.2006 252.563C57.7115 252.162 57.3335 251.593 57.0667 250.855C56.8087 250.108 56.6798 249.214 56.6798 248.174C56.6798 247.133 56.8087 246.244 57.0667 245.505C57.3335 244.758 57.7115 244.189 58.2006 243.798C58.6898 243.398 59.2812 243.197 59.9749 243.197C60.6687 243.197 61.2601 243.398 61.7493 243.798C62.2384 244.189 62.612 244.758 62.8699 245.505C63.1367 246.244 63.2701 247.133 63.2701 248.174C63.2701 249.214 63.1367 250.108 62.8699 250.855C62.612 251.593 62.2384 252.162 61.7493 252.563C61.2601 252.963 60.6687 253.163 59.9749 253.163Z" fill="#8D9180"/>
<path d="M39.6566 287.407L40.377 286.74C40.7239 287.3 41.0974 287.705 41.4977 287.954C41.8979 288.203 42.347 288.327 42.8451 288.327C43.2097 288.327 43.5521 288.256 43.8723 288.114C44.1925 287.972 44.4504 287.754 44.6461 287.46C44.8418 287.167 44.9396 286.802 44.9396 286.366C44.9396 285.797 44.7395 285.339 44.3393 284.992C43.939 284.645 43.4143 284.472 42.765 284.472H41.8979V283.578H42.765C43.3342 283.578 43.7967 283.418 44.1525 283.098C44.5171 282.778 44.6995 282.373 44.6995 281.884C44.6995 281.368 44.5305 280.95 44.1925 280.63C43.8545 280.31 43.4187 280.15 42.8851 280.15C42.4226 280.15 41.9957 280.279 41.6044 280.536C41.222 280.785 40.8707 281.163 40.5505 281.67L39.8301 280.99C40.2392 280.421 40.7017 279.989 41.2175 279.696C41.7334 279.402 42.2892 279.256 42.8851 279.256C43.4454 279.256 43.9435 279.371 44.3793 279.603C44.8151 279.825 45.1575 280.136 45.4065 280.536C45.6555 280.937 45.7801 281.39 45.7801 281.897C45.7801 282.351 45.6511 282.751 45.3932 283.098C45.1353 283.445 44.7795 283.72 44.3259 283.925C43.8723 284.121 43.3476 284.218 42.7517 284.218L42.7784 283.725C43.4276 283.725 43.9924 283.836 44.4727 284.058C44.9618 284.272 45.3398 284.574 45.6066 284.966C45.8823 285.357 46.0202 285.819 46.0202 286.353C46.0202 286.904 45.8823 287.398 45.6066 287.834C45.3398 288.261 44.9663 288.599 44.486 288.848C44.0146 289.097 43.4721 289.221 42.8584 289.221C42.2003 289.221 41.5911 289.07 41.0307 288.768C40.4793 288.456 40.0213 288.003 39.6566 287.407ZM50.8369 289.221C50.1966 289.221 49.6318 289.075 49.1427 288.781C48.6624 288.488 48.2844 288.078 48.0087 287.554C47.7419 287.02 47.6085 286.397 47.6085 285.686C47.6085 285.028 47.7374 284.361 47.9954 283.685C48.2622 283.009 48.6757 282.32 49.236 281.617C49.7964 280.906 50.5212 280.19 51.4106 279.469H52.8514C51.9887 280.163 51.2772 280.799 50.7169 281.377C50.1654 281.946 49.7341 282.489 49.4228 283.004C49.1115 283.511 48.8892 284.023 48.7558 284.539L48.649 284.405C48.8091 283.898 49.0937 283.494 49.5029 283.191C49.9209 282.889 50.4278 282.738 51.0237 282.738C51.584 282.738 52.0999 282.871 52.5712 283.138C53.0426 283.405 53.4206 283.778 53.7052 284.259C53.9898 284.739 54.1321 285.295 54.1321 285.926C54.1321 286.549 53.9898 287.109 53.7052 287.607C53.4295 288.105 53.0426 288.501 52.5446 288.794C52.0554 289.079 51.4862 289.221 50.8369 289.221ZM50.8636 288.327C51.2905 288.327 51.6685 288.225 51.9976 288.021C52.3267 287.816 52.5846 287.536 52.7713 287.18C52.967 286.824 53.0648 286.42 53.0648 285.966C53.0648 285.504 52.967 285.099 52.7713 284.752C52.5846 284.396 52.3267 284.121 51.9976 283.925C51.6685 283.72 51.2905 283.618 50.8636 283.618C50.4545 283.618 50.081 283.716 49.743 283.912C49.4139 284.098 49.1471 284.37 48.9425 284.725C48.7469 285.072 48.649 285.486 48.649 285.966C48.649 286.42 48.7424 286.824 48.9292 287.18C49.1249 287.536 49.3917 287.816 49.7297 288.021C50.0676 288.225 50.4456 288.327 50.8636 288.327ZM59.2323 288.327C59.9438 288.327 60.4908 287.972 60.8733 287.26C61.2557 286.549 61.4469 285.539 61.4469 284.232C61.4469 282.924 61.2557 281.919 60.8733 281.217C60.4908 280.505 59.9438 280.15 59.2323 280.15C58.5297 280.15 57.9828 280.505 57.5914 281.217C57.209 281.919 57.0178 282.924 57.0178 284.232C57.0178 285.539 57.209 286.549 57.5914 287.26C57.9828 287.972 58.5297 288.327 59.2323 288.327ZM59.2323 289.221C58.5386 289.221 57.9472 289.021 57.458 288.621C56.9689 288.221 56.5909 287.652 56.3241 286.913C56.0661 286.166 55.9372 285.272 55.9372 284.232C55.9372 283.191 56.0661 282.302 56.3241 281.564C56.5909 280.817 56.9689 280.247 57.458 279.856C57.9472 279.456 58.5386 279.256 59.2323 279.256C59.9261 279.256 60.5175 279.456 61.0067 279.856C61.4958 280.247 61.8694 280.817 62.1273 281.564C62.3941 282.302 62.5275 283.191 62.5275 284.232C62.5275 285.272 62.3941 286.166 62.1273 286.913C61.8694 287.652 61.4958 288.221 61.0067 288.621C60.5175 289.021 59.9261 289.221 59.2323 289.221Z" fill="#8D9180"/>
<path d="M45.8201 325.066H39.8034V324.212L42.9652 320.97C43.4098 320.517 43.7612 320.121 44.0191 319.783C44.277 319.445 44.4593 319.129 44.566 318.836C44.6728 318.534 44.7261 318.222 44.7261 317.902C44.7261 317.377 44.5705 316.964 44.2592 316.661C43.9479 316.359 43.521 316.208 42.9785 316.208C42.4449 316.208 41.9779 316.337 41.5777 316.595C41.1775 316.853 40.8128 317.266 40.4838 317.835L39.75 317.168C40.1414 316.546 40.6083 316.083 41.1508 315.781C41.6933 315.47 42.307 315.314 42.9918 315.314C43.5433 315.314 44.0235 315.421 44.4326 315.634C44.8506 315.848 45.1753 316.15 45.4065 316.541C45.6466 316.924 45.7667 317.368 45.7667 317.875C45.7667 318.267 45.7045 318.64 45.5799 318.996C45.4554 319.343 45.2331 319.725 44.9129 320.143C44.5927 320.552 44.1436 321.055 43.5655 321.651L41.1108 324.172H45.8201V325.066ZM52.6164 325.066H51.5758V322.691H46.6664V321.798L51.5758 315.527H52.6164V321.798H53.9905V322.691H52.6164V325.066ZM51.5758 316.861L47.7603 321.798H51.5758V316.861ZM58.8154 324.386C59.5269 324.386 60.0739 324.03 60.4564 323.318C60.8388 322.607 61.03 321.597 61.03 320.29C61.03 318.983 60.8388 317.978 60.4564 317.275C60.0739 316.564 59.5269 316.208 58.8154 316.208C58.1128 316.208 57.5659 316.564 57.1745 317.275C56.7921 317.978 56.6009 318.983 56.6009 320.29C56.6009 321.597 56.7921 322.607 57.1745 323.318C57.5659 324.03 58.1128 324.386 58.8154 324.386ZM58.8154 325.279C58.1217 325.279 57.5303 325.079 57.0411 324.679C56.552 324.279 56.174 323.71 55.9072 322.972C55.6492 322.224 55.5203 321.331 55.5203 320.29C55.5203 319.249 55.6492 318.36 55.9072 317.622C56.174 316.875 56.552 316.306 57.0411 315.914C57.5303 315.514 58.1217 315.314 58.8154 315.314C59.5092 315.314 60.1006 315.514 60.5898 315.914C61.0789 316.306 61.4525 316.875 61.7104 317.622C61.9772 318.36 62.1106 319.249 62.1106 320.29C62.1106 321.331 61.9772 322.224 61.7104 322.972C61.4525 323.71 61.0789 324.279 60.5898 324.679C60.1006 325.079 59.5092 325.279 58.8154 325.279Z" fill="#8D9180"/>
<path d="M42.4982 351.586H43.5255V361.124H42.4582V352.733L40.1769 354.654V353.507L42.4982 351.586ZM52.2038 361.124H46.1872V360.27L49.3489 357.029C49.7936 356.575 50.1449 356.179 50.4028 355.841C50.6608 355.503 50.8431 355.188 50.9498 354.894C51.0565 354.592 51.1099 354.28 51.1099 353.96C51.1099 353.436 50.9543 353.022 50.643 352.72C50.3317 352.417 49.9048 352.266 49.3623 352.266C48.8286 352.266 48.3617 352.395 47.9615 352.653C47.5613 352.911 47.1966 353.324 46.8675 353.894L46.1338 353.227C46.5251 352.604 46.992 352.141 47.5346 351.839C48.0771 351.528 48.6908 351.372 49.3756 351.372C49.927 351.372 50.4073 351.479 50.8164 351.692C51.2344 351.906 51.559 352.208 51.7903 352.6C52.0304 352.982 52.1505 353.427 52.1505 353.934C52.1505 354.325 52.0882 354.698 51.9637 355.054C51.8392 355.401 51.6168 355.784 51.2967 356.202C50.9765 356.611 50.5274 357.113 49.9493 357.709L47.4946 360.23H52.2038V361.124ZM56.9394 360.444C57.6509 360.444 58.1979 360.088 58.5803 359.377C58.9627 358.665 59.154 357.656 59.154 356.348C59.154 355.041 58.9627 354.036 58.5803 353.333C58.1979 352.622 57.6509 352.266 56.9394 352.266C56.2368 352.266 55.6898 352.622 55.2985 353.333C54.916 354.036 54.7248 355.041 54.7248 356.348C54.7248 357.656 54.916 358.665 55.2985 359.377C55.6898 360.088 56.2368 360.444 56.9394 360.444ZM56.9394 361.338C56.2457 361.338 55.6542 361.138 55.1651 360.737C54.6759 360.337 54.2979 359.768 54.0311 359.03C53.7732 358.283 53.6442 357.389 53.6442 356.348C53.6442 355.308 53.7732 354.418 54.0311 353.68C54.2979 352.933 54.6759 352.364 55.1651 351.973C55.6542 351.572 56.2457 351.372 56.9394 351.372C57.6331 351.372 58.2246 351.572 58.7137 351.973C59.2029 352.364 59.5764 352.933 59.8343 353.68C60.1012 354.418 60.2346 355.308 60.2346 356.348C60.2346 357.389 60.1012 358.283 59.8343 359.03C59.5764 359.768 59.2029 360.337 58.7137 360.737C58.2246 361.138 57.6331 361.338 56.9394 361.338Z" fill="#8D9180"/>
<path d="M43.312 397.607C44.0235 397.607 44.5705 397.252 44.9529 396.54C45.3354 395.829 45.5266 394.819 45.5266 393.512C45.5266 392.204 45.3354 391.199 44.9529 390.497C44.5705 389.785 44.0235 389.43 43.312 389.43C42.6094 389.43 42.0624 389.785 41.6711 390.497C41.2887 391.199 41.0974 392.204 41.0974 393.512C41.0974 394.819 41.2887 395.829 41.6711 396.54C42.0624 397.252 42.6094 397.607 43.312 397.607ZM43.312 398.501C42.6183 398.501 42.0269 398.301 41.5377 397.901C41.0485 397.501 40.6705 396.931 40.4037 396.193C40.1458 395.446 40.0168 394.552 40.0168 393.512C40.0168 392.471 40.1458 391.582 40.4037 390.844C40.6705 390.097 41.0485 389.527 41.5377 389.136C42.0269 388.736 42.6183 388.536 43.312 388.536C44.0057 388.536 44.5972 388.736 45.0863 389.136C45.5755 389.527 45.949 390.097 46.207 390.844C46.4738 391.582 46.6072 392.471 46.6072 393.512C46.6072 394.552 46.4738 395.446 46.207 396.193C45.949 396.931 45.5755 397.501 45.0863 397.901C44.5972 398.301 44.0057 398.501 43.312 398.501Z" fill="#8D9180"/>
<path d="M63.4004 393.474H546.945" stroke="#8D9180" stroke-opacity="0.5" stroke-width="0.952912"/>
<path d="M63.4004 357.263H546.945" stroke="#8D9180" stroke-opacity="0.1" stroke-width="0.952912"/>
<path d="M63.4004 321.052H546.945" stroke="#8D9180" stroke-opacity="0.1" stroke-width="0.952912"/>
<path d="M63.4004 284.842H546.945" stroke="#8D9180" stroke-opacity="0.1" stroke-width="0.952912"/>
<path d="M63.4004 248.631H546.945" stroke="#8D9180" stroke-opacity="0.1" stroke-width="0.952912"/>
<path d="M63.4004 212.42H546.945" stroke="#8D9180" stroke-opacity="0.1" stroke-width="0.952912"/>
<path d="M63.4004 176.21H546.945" stroke="#8D9180" stroke-opacity="0.1" stroke-width="0.952912"/>
<path d="M108.282 412.238H107.215V402.7H112.938V403.633H108.282V412.238ZM112.698 407.822H108.149V406.889H112.698V407.822ZM117.19 412.452C116.558 412.452 115.994 412.301 115.496 411.998C114.998 411.696 114.606 411.282 114.322 410.757C114.046 410.233 113.908 409.632 113.908 408.956C113.908 408.281 114.046 407.68 114.322 407.155C114.606 406.631 114.998 406.217 115.496 405.915C115.994 405.612 116.558 405.461 117.19 405.461C117.83 405.461 118.4 405.612 118.898 405.915C119.396 406.217 119.782 406.631 120.058 407.155C120.343 407.68 120.485 408.281 120.485 408.956C120.485 409.632 120.343 410.233 120.058 410.757C119.782 411.282 119.396 411.696 118.898 411.998C118.4 412.301 117.83 412.452 117.19 412.452ZM117.19 411.558C117.635 411.558 118.022 411.447 118.351 411.224C118.68 411.002 118.938 410.695 119.124 410.304C119.311 409.913 119.405 409.463 119.405 408.956C119.405 408.441 119.311 407.991 119.124 407.609C118.938 407.218 118.68 406.911 118.351 406.689C118.022 406.466 117.635 406.355 117.19 406.355C116.754 406.355 116.372 406.466 116.043 406.689C115.714 406.911 115.456 407.218 115.269 407.609C115.082 407.991 114.989 408.441 114.989 408.956C114.989 409.463 115.082 409.913 115.269 410.304C115.456 410.695 115.714 411.002 116.043 411.224C116.372 411.447 116.754 411.558 117.19 411.558ZM125.896 405.568V406.555H125.669C125.26 406.555 124.878 406.662 124.522 406.875C124.175 407.08 123.895 407.4 123.681 407.836C123.468 408.263 123.361 408.814 123.361 409.49V412.238H122.334V405.675H123.348V407.769H123.174C123.272 407.227 123.45 406.795 123.708 406.475C123.975 406.155 124.282 405.924 124.629 405.781C124.975 405.639 125.327 405.568 125.682 405.568H125.896ZM137.249 412.238H136.221V408.45C136.221 407.791 136.092 407.28 135.834 406.915C135.577 406.551 135.212 406.368 134.741 406.368C134.145 406.368 133.673 406.631 133.326 407.155C132.98 407.68 132.806 408.392 132.806 409.29V412.238H131.779V408.45C131.779 407.791 131.65 407.28 131.392 406.915C131.134 406.551 130.769 406.368 130.298 406.368C129.711 406.368 129.244 406.631 128.897 407.155C128.55 407.68 128.377 408.392 128.377 409.29V412.238H127.35V405.675H128.364V407.329L128.27 407.316C128.368 406.924 128.519 406.591 128.724 406.315C128.937 406.039 129.195 405.83 129.498 405.688C129.8 405.537 130.138 405.461 130.512 405.461C131.09 405.461 131.557 405.635 131.912 405.981C132.277 406.328 132.517 406.822 132.633 407.462H132.473C132.57 407.035 132.731 406.675 132.953 406.382C133.175 406.079 133.451 405.853 133.78 405.701C134.109 405.541 134.478 405.461 134.887 405.461C135.643 405.461 136.226 405.71 136.635 406.208C137.044 406.706 137.249 407.418 137.249 408.343V412.238ZM109.896 429.238H108.882L106.228 422.675H107.322L109.603 428.678H109.216L111.511 422.675H112.551L109.896 429.238ZM115.14 429.238H114.113V422.675H115.14V429.238ZM115.341 420.193C115.341 420.407 115.269 420.585 115.127 420.727C114.994 420.86 114.825 420.927 114.62 420.927C114.416 420.927 114.242 420.86 114.1 420.727C113.966 420.585 113.9 420.407 113.9 420.193C113.9 419.98 113.966 419.806 114.1 419.673C114.242 419.531 114.416 419.459 114.62 419.459C114.825 419.459 114.994 419.531 115.127 419.673C115.269 419.806 115.341 419.98 115.341 420.193ZM122.399 427.357L123.092 428.024C122.746 428.505 122.337 428.865 121.865 429.105C121.403 429.336 120.891 429.452 120.331 429.452C119.673 429.452 119.09 429.301 118.583 428.998C118.085 428.696 117.694 428.282 117.409 427.757C117.134 427.224 116.996 426.623 116.996 425.956C116.996 425.289 117.134 424.694 117.409 424.169C117.694 423.635 118.076 423.217 118.557 422.915C119.046 422.612 119.593 422.461 120.198 422.461C120.793 422.461 121.318 422.608 121.772 422.901C122.234 423.195 122.594 423.604 122.852 424.129C123.11 424.645 123.239 425.24 123.239 425.916V425.996H122.199V425.903C122.199 425.138 122.016 424.525 121.652 424.062C121.287 423.591 120.802 423.355 120.198 423.355C119.788 423.355 119.419 423.466 119.09 423.689C118.77 423.902 118.517 424.204 118.33 424.596C118.152 424.987 118.063 425.436 118.063 425.943C118.063 426.45 118.156 426.899 118.343 427.291C118.539 427.682 118.81 427.993 119.157 428.224C119.513 428.447 119.926 428.558 120.398 428.558C120.807 428.558 121.176 428.46 121.505 428.264C121.834 428.069 122.132 427.766 122.399 427.357ZM123.239 426.317H117.81V425.476H123.039L123.239 425.916V426.317ZM131.726 429.238H130.579L128.951 423.542H129.192L127.577 429.238H126.417L124.469 422.675H125.523L127.204 428.825H126.817L128.565 422.675H129.605L131.339 428.825H130.979L132.687 422.675H133.701L131.726 429.238Z" fill="#8D9180"/>
<path d="M463.868 413.191H458.145V403.653H459.212V412.244H463.868V413.191ZM470.241 411.31L470.935 411.977C470.588 412.457 470.179 412.818 469.707 413.058C469.245 413.289 468.733 413.405 468.173 413.405C467.515 413.405 466.932 413.253 466.425 412.951C465.927 412.649 465.536 412.235 465.251 411.71C464.976 411.177 464.838 410.576 464.838 409.909C464.838 409.242 464.976 408.646 465.251 408.122C465.536 407.588 465.918 407.17 466.399 406.868C466.888 406.565 467.435 406.414 468.04 406.414C468.635 406.414 469.16 406.561 469.614 406.854C470.076 407.148 470.436 407.557 470.694 408.082C470.952 408.598 471.081 409.193 471.081 409.869V409.949H470.041V409.856C470.041 409.091 469.858 408.477 469.494 408.015C469.129 407.544 468.644 407.308 468.04 407.308C467.63 407.308 467.261 407.419 466.932 407.641C466.612 407.855 466.359 408.157 466.172 408.549C465.994 408.94 465.905 409.389 465.905 409.896C465.905 410.403 465.998 410.852 466.185 411.243C466.381 411.635 466.652 411.946 466.999 412.177C467.355 412.4 467.768 412.511 468.24 412.511C468.649 412.511 469.018 412.413 469.347 412.217C469.676 412.022 469.974 411.719 470.241 411.31ZM471.081 410.27H465.652V409.429H470.881L471.081 409.869V410.27ZM478.034 413.191H477.06V411.911L477.047 411.537V409.096C477.047 408.544 476.878 408.108 476.54 407.788C476.211 407.459 475.757 407.295 475.179 407.295C474.423 407.295 473.783 407.61 473.258 408.242L472.591 407.588C473.338 406.805 474.223 406.414 475.246 406.414C475.806 406.414 476.295 406.525 476.713 406.748C477.131 406.961 477.456 407.268 477.687 407.668C477.918 408.059 478.034 408.522 478.034 409.056V413.191ZM474.739 413.405C474.276 413.405 473.867 413.316 473.512 413.138C473.156 412.96 472.876 412.715 472.671 412.404C472.475 412.084 472.378 411.724 472.378 411.324C472.378 410.656 472.631 410.127 473.138 409.736C473.654 409.345 474.343 409.149 475.206 409.149H477.167V409.976H475.326C474.73 409.976 474.268 410.092 473.938 410.323C473.609 410.545 473.445 410.865 473.445 411.283C473.445 411.666 473.574 411.973 473.832 412.204C474.099 412.435 474.45 412.551 474.886 412.551C475.313 412.551 475.695 412.462 476.033 412.284C476.371 412.097 476.642 411.844 476.847 411.524C477.051 411.195 477.167 410.821 477.194 410.403L477.581 410.63C477.581 411.163 477.456 411.639 477.207 412.057C476.967 412.475 476.633 412.804 476.206 413.044C475.78 413.285 475.29 413.405 474.739 413.405ZM485.278 413.191V411.417L485.264 411.39V410.096C485.264 409.545 485.171 409.06 484.984 408.642C484.797 408.224 484.535 407.899 484.197 407.668C483.868 407.428 483.486 407.308 483.05 407.308C482.623 407.308 482.24 407.419 481.903 407.641C481.573 407.864 481.316 408.171 481.129 408.562C480.942 408.953 480.849 409.402 480.849 409.909C480.849 410.416 480.942 410.865 481.129 411.257C481.324 411.648 481.591 411.955 481.929 412.177C482.267 412.4 482.654 412.511 483.09 412.511C483.499 412.511 483.868 412.417 484.197 412.231C484.535 412.044 484.806 411.79 485.011 411.47C485.224 411.141 485.349 410.768 485.384 410.35L485.585 410.616C485.647 411.141 485.562 411.617 485.331 412.044C485.109 412.462 484.789 412.795 484.371 413.044C483.953 413.285 483.477 413.405 482.943 413.405C482.329 413.405 481.782 413.253 481.302 412.951C480.831 412.649 480.457 412.235 480.182 411.71C479.906 411.186 479.768 410.585 479.768 409.909C479.768 409.242 479.901 408.646 480.168 408.122C480.444 407.588 480.817 407.17 481.289 406.868C481.769 406.565 482.307 406.414 482.903 406.414C483.348 406.414 483.757 406.507 484.13 406.694C484.504 406.881 484.815 407.139 485.064 407.468C485.313 407.797 485.469 408.18 485.531 408.615H485.264V403.586H486.292V413.191H485.278Z" fill="#8D9180"/>
<path d="M291.422 413.191H290.355V403.653H296.078V404.586H291.422V413.191ZM295.838 408.775H291.289V407.842H295.838V408.775ZM300.33 413.405C299.699 413.405 299.134 413.253 298.636 412.951C298.138 412.649 297.746 412.235 297.462 411.71C297.186 411.186 297.048 410.585 297.048 409.909C297.048 409.233 297.186 408.633 297.462 408.108C297.746 407.584 298.138 407.17 298.636 406.868C299.134 406.565 299.699 406.414 300.33 406.414C300.97 406.414 301.54 406.565 302.038 406.868C302.536 407.17 302.923 407.584 303.198 408.108C303.483 408.633 303.625 409.233 303.625 409.909C303.625 410.585 303.483 411.186 303.198 411.71C302.923 412.235 302.536 412.649 302.038 412.951C301.54 413.253 300.97 413.405 300.33 413.405ZM300.33 412.511C300.775 412.511 301.162 412.4 301.491 412.177C301.82 411.955 302.078 411.648 302.264 411.257C302.451 410.865 302.545 410.416 302.545 409.909C302.545 409.394 302.451 408.944 302.264 408.562C302.078 408.171 301.82 407.864 301.491 407.641C301.162 407.419 300.775 407.308 300.33 407.308C299.894 407.308 299.512 407.419 299.183 407.641C298.854 407.864 298.596 408.171 298.409 408.562C298.222 408.944 298.129 409.394 298.129 409.909C298.129 410.416 298.222 410.865 298.409 411.257C298.596 411.648 298.854 411.955 299.183 412.177C299.512 412.4 299.894 412.511 300.33 412.511ZM309.036 406.521V407.508H308.809C308.4 407.508 308.018 407.615 307.662 407.828C307.315 408.033 307.035 408.353 306.821 408.789C306.608 409.216 306.501 409.767 306.501 410.443V413.191H305.474V406.628H306.488V408.722H306.314C306.412 408.18 306.59 407.748 306.848 407.428C307.115 407.108 307.422 406.877 307.769 406.734C308.115 406.592 308.467 406.521 308.823 406.521H309.036ZM320.389 413.191H319.361V409.402C319.361 408.744 319.232 408.233 318.975 407.868C318.717 407.504 318.352 407.321 317.881 407.321C317.285 407.321 316.813 407.584 316.466 408.108C316.12 408.633 315.946 409.345 315.946 410.243V413.191H314.919V409.402C314.919 408.744 314.79 408.233 314.532 407.868C314.274 407.504 313.91 407.321 313.438 407.321C312.851 407.321 312.384 407.584 312.037 408.108C311.69 408.633 311.517 409.345 311.517 410.243V413.191H310.49V406.628H311.504V408.282L311.41 408.268C311.508 407.877 311.659 407.544 311.864 407.268C312.077 406.992 312.335 406.783 312.638 406.641C312.94 406.49 313.278 406.414 313.652 406.414C314.23 406.414 314.697 406.588 315.052 406.934C315.417 407.281 315.657 407.775 315.773 408.415H315.613C315.711 407.988 315.871 407.628 316.093 407.335C316.315 407.032 316.591 406.805 316.92 406.654C317.249 406.494 317.618 406.414 318.027 406.414C318.783 406.414 319.366 406.663 319.775 407.161C320.184 407.659 320.389 408.371 320.389 409.296V413.191ZM270.326 429.177L270.993 428.47C271.277 428.799 271.602 429.062 271.967 429.257C272.34 429.444 272.758 429.538 273.221 429.538C273.701 429.538 274.088 429.426 274.381 429.204C274.684 428.982 274.835 428.693 274.835 428.337C274.835 428.043 274.706 427.812 274.448 427.643C274.199 427.465 273.768 427.332 273.154 427.243C272.22 427.092 271.562 426.874 271.179 426.589C270.806 426.305 270.619 425.909 270.619 425.402C270.619 425.002 270.726 424.655 270.939 424.361C271.153 424.059 271.451 423.828 271.833 423.668C272.216 423.499 272.656 423.414 273.154 423.414C273.705 423.414 274.199 423.521 274.635 423.734C275.071 423.948 275.457 424.25 275.795 424.641L275.128 425.349C274.879 425.019 274.59 424.762 274.261 424.575C273.941 424.379 273.572 424.281 273.154 424.281C272.718 424.281 272.362 424.384 272.087 424.588C271.811 424.784 271.673 425.037 271.673 425.349C271.673 425.518 271.722 425.664 271.82 425.789C271.918 425.904 272.082 426.002 272.313 426.082C272.545 426.162 272.856 426.233 273.247 426.296C274.217 426.438 274.902 426.669 275.302 426.989C275.702 427.301 275.902 427.745 275.902 428.324C275.902 428.733 275.786 429.097 275.555 429.417C275.324 429.729 275.004 429.973 274.595 430.151C274.194 430.32 273.736 430.405 273.221 430.405C272.58 430.405 272.029 430.298 271.566 430.084C271.104 429.862 270.69 429.56 270.326 429.177ZM283.229 430.191H282.215V428.911L282.201 428.537V423.628H283.229V430.191ZM282.321 427.35L282.535 427.63C282.571 428.163 282.477 428.639 282.255 429.057C282.041 429.475 281.739 429.804 281.348 430.044C280.956 430.285 280.503 430.405 279.987 430.405C279.249 430.405 278.657 430.169 278.213 429.698C277.768 429.226 277.545 428.546 277.545 427.656V423.628H278.573V427.55C278.573 428.19 278.715 428.679 279 429.017C279.284 429.346 279.684 429.511 280.2 429.511C280.565 429.511 280.898 429.422 281.201 429.244C281.512 429.057 281.766 428.804 281.961 428.484C282.166 428.155 282.286 427.777 282.321 427.35ZM286.509 430.191H285.495V420.586H286.523V425.615H286.269C286.34 425.18 286.5 424.797 286.749 424.468C286.998 424.139 287.31 423.881 287.683 423.694C288.066 423.507 288.479 423.414 288.924 423.414C289.529 423.414 290.062 423.565 290.525 423.868C290.987 424.17 291.352 424.588 291.619 425.122C291.886 425.646 292.019 426.242 292.019 426.909C292.019 427.585 291.881 428.186 291.606 428.71C291.33 429.235 290.952 429.649 290.472 429.951C290 430.253 289.458 430.405 288.844 430.405C288.31 430.405 287.835 430.285 287.417 430.044C286.998 429.795 286.678 429.462 286.456 429.044C286.234 428.617 286.149 428.141 286.203 427.616L286.403 427.35C286.438 427.768 286.558 428.141 286.763 428.47C286.976 428.79 287.252 429.044 287.59 429.231C287.928 429.417 288.297 429.511 288.697 429.511C289.142 429.511 289.529 429.4 289.858 429.177C290.196 428.955 290.458 428.648 290.645 428.257C290.841 427.865 290.938 427.416 290.938 426.909C290.938 426.402 290.845 425.953 290.658 425.562C290.48 425.171 290.227 424.864 289.898 424.641C289.578 424.419 289.204 424.308 288.777 424.308C288.341 424.308 287.955 424.428 287.617 424.668C287.279 424.899 287.012 425.224 286.816 425.642C286.621 426.06 286.523 426.545 286.523 427.096V428.39L286.509 428.417V430.191ZM303.771 430.191H302.744V426.402C302.744 425.744 302.615 425.233 302.357 424.868C302.099 424.504 301.735 424.321 301.263 424.321C300.667 424.321 300.196 424.584 299.849 425.108C299.502 425.633 299.329 426.345 299.329 427.243V430.191H298.302V426.402C298.302 425.744 298.173 425.233 297.915 424.868C297.657 424.504 297.292 424.321 296.821 424.321C296.234 424.321 295.767 424.584 295.42 425.108C295.073 425.633 294.9 426.345 294.9 427.243V430.191H293.873V423.628H294.886V425.282L294.793 425.268C294.891 424.877 295.042 424.544 295.247 424.268C295.46 423.992 295.718 423.783 296.02 423.641C296.323 423.49 296.661 423.414 297.034 423.414C297.612 423.414 298.079 423.588 298.435 423.934C298.8 424.281 299.04 424.775 299.155 425.415H298.995C299.093 424.988 299.253 424.628 299.476 424.335C299.698 424.032 299.974 423.805 300.303 423.654C300.632 423.494 301.001 423.414 301.41 423.414C302.166 423.414 302.749 423.663 303.158 424.161C303.567 424.659 303.771 425.371 303.771 426.296V430.191ZM306.951 430.191H305.923V423.628H306.951V430.191ZM307.151 421.146C307.151 421.36 307.08 421.538 306.937 421.68C306.804 421.813 306.635 421.88 306.43 421.88C306.226 421.88 306.052 421.813 305.91 421.68C305.777 421.538 305.71 421.36 305.71 421.146C305.71 420.933 305.777 420.759 305.91 420.626C306.052 420.484 306.226 420.412 306.43 420.412C306.635 420.412 306.804 420.484 306.937 420.626C307.08 420.759 307.151 420.933 307.151 421.146ZM308.446 429.177L309.113 428.47C309.397 428.799 309.722 429.062 310.087 429.257C310.46 429.444 310.878 429.538 311.341 429.538C311.821 429.538 312.208 429.426 312.501 429.204C312.804 428.982 312.955 428.693 312.955 428.337C312.955 428.043 312.826 427.812 312.568 427.643C312.319 427.465 311.888 427.332 311.274 427.243C310.34 427.092 309.682 426.874 309.3 426.589C308.926 426.305 308.739 425.909 308.739 425.402C308.739 425.002 308.846 424.655 309.06 424.361C309.273 424.059 309.571 423.828 309.953 423.668C310.336 423.499 310.776 423.414 311.274 423.414C311.825 423.414 312.319 423.521 312.755 423.734C313.191 423.948 313.578 424.25 313.916 424.641L313.249 425.349C312.999 425.019 312.71 424.762 312.381 424.575C312.061 424.379 311.692 424.281 311.274 424.281C310.838 424.281 310.483 424.384 310.207 424.588C309.931 424.784 309.793 425.037 309.793 425.349C309.793 425.518 309.842 425.664 309.94 425.789C310.038 425.904 310.202 426.002 310.434 426.082C310.665 426.162 310.976 426.233 311.367 426.296C312.337 426.438 313.022 426.669 313.422 426.989C313.822 427.301 314.022 427.745 314.022 428.324C314.022 428.733 313.907 429.097 313.675 429.417C313.444 429.729 313.124 429.973 312.715 430.151C312.315 430.32 311.857 430.405 311.341 430.405C310.7 430.405 310.149 430.298 309.687 430.084C309.224 429.862 308.81 429.56 308.446 429.177ZM315.012 429.177L315.679 428.47C315.964 428.799 316.288 429.062 316.653 429.257C317.026 429.444 317.444 429.538 317.907 429.538C318.387 429.538 318.774 429.426 319.068 429.204C319.37 428.982 319.521 428.693 319.521 428.337C319.521 428.043 319.392 427.812 319.134 427.643C318.885 427.465 318.454 427.332 317.84 427.243C316.906 427.092 316.248 426.874 315.866 426.589C315.492 426.305 315.305 425.909 315.305 425.402C315.305 425.002 315.412 424.655 315.626 424.361C315.839 424.059 316.137 423.828 316.519 423.668C316.902 423.499 317.342 423.414 317.84 423.414C318.392 423.414 318.885 423.521 319.321 423.734C319.757 423.948 320.144 424.25 320.482 424.641L319.815 425.349C319.566 425.019 319.277 424.762 318.948 424.575C318.627 424.379 318.258 424.281 317.84 424.281C317.404 424.281 317.049 424.384 316.773 424.588C316.497 424.784 316.359 425.037 316.359 425.349C316.359 425.518 316.408 425.664 316.506 425.789C316.604 425.904 316.769 426.002 317 426.082C317.231 426.162 317.542 426.233 317.934 426.296C318.903 426.438 319.588 426.669 319.988 426.989C320.388 427.301 320.588 427.745 320.588 428.324C320.588 428.733 320.473 429.097 320.242 429.417C320.01 429.729 319.69 429.973 319.281 430.151C318.881 430.32 318.423 430.405 317.907 430.405C317.267 430.405 316.715 430.298 316.253 430.084C315.79 429.862 315.377 429.56 315.012 429.177ZM323.379 430.191H322.352V423.628H323.379V430.191ZM323.579 421.146C323.579 421.36 323.508 421.538 323.366 421.68C323.232 421.813 323.063 421.88 322.859 421.88C322.654 421.88 322.481 421.813 322.339 421.68C322.205 421.538 322.138 421.36 322.138 421.146C322.138 420.933 322.205 420.759 322.339 420.626C322.481 420.484 322.654 420.412 322.859 420.412C323.063 420.412 323.232 420.484 323.366 420.626C323.508 420.759 323.579 420.933 323.579 421.146ZM328.516 430.405C327.885 430.405 327.32 430.253 326.822 429.951C326.324 429.649 325.933 429.235 325.648 428.71C325.372 428.186 325.234 427.585 325.234 426.909C325.234 426.233 325.372 425.633 325.648 425.108C325.933 424.584 326.324 424.17 326.822 423.868C327.32 423.565 327.885 423.414 328.516 423.414C329.157 423.414 329.726 423.565 330.224 423.868C330.722 424.17 331.109 424.584 331.385 425.108C331.669 425.633 331.811 426.233 331.811 426.909C331.811 427.585 331.669 428.186 331.385 428.71C331.109 429.235 330.722 429.649 330.224 429.951C329.726 430.253 329.157 430.405 328.516 430.405ZM328.516 429.511C328.961 429.511 329.348 429.4 329.677 429.177C330.006 428.955 330.264 428.648 330.451 428.257C330.637 427.865 330.731 427.416 330.731 426.909C330.731 426.394 330.637 425.944 330.451 425.562C330.264 425.171 330.006 424.864 329.677 424.641C329.348 424.419 328.961 424.308 328.516 424.308C328.08 424.308 327.698 424.419 327.369 424.641C327.04 424.864 326.782 425.171 326.595 425.562C326.408 425.944 326.315 426.394 326.315 426.909C326.315 427.416 326.408 427.865 326.595 428.257C326.782 428.648 327.04 428.955 327.369 429.177C327.698 429.4 328.08 429.511 328.516 429.511ZM339.37 430.191H338.343V426.416C338.343 425.722 338.196 425.202 337.903 424.855C337.618 424.499 337.231 424.321 336.742 424.321C336.386 424.321 336.053 424.424 335.741 424.628C335.43 424.824 335.177 425.14 334.981 425.575C334.785 426.002 334.688 426.558 334.688 427.243V430.191H333.66V423.628H334.674V425.629H334.501C334.599 425.086 334.768 424.655 335.008 424.335C335.257 424.006 335.55 423.77 335.888 423.628C336.226 423.485 336.577 423.414 336.942 423.414C337.698 423.414 338.29 423.663 338.716 424.161C339.152 424.65 339.37 425.362 339.37 426.296V430.191Z" fill="#8D9180"/>
<path d="M277.872 448.144H276.845V438.606H277.992L283.395 446.997H283.128V438.606H284.156V448.144H283.008L277.605 439.753H277.872V448.144ZM291.69 446.263L292.384 446.93C292.037 447.41 291.628 447.771 291.156 448.011C290.694 448.242 290.182 448.358 289.622 448.358C288.964 448.358 288.381 448.206 287.875 447.904C287.376 447.602 286.985 447.188 286.701 446.663C286.425 446.13 286.287 445.529 286.287 444.862C286.287 444.195 286.425 443.599 286.701 443.075C286.985 442.541 287.368 442.123 287.848 441.821C288.337 441.518 288.884 441.367 289.489 441.367C290.085 441.367 290.609 441.514 291.063 441.807C291.525 442.101 291.886 442.51 292.144 443.035C292.401 443.55 292.53 444.146 292.53 444.822V444.902H291.49V444.809C291.49 444.044 291.308 443.43 290.943 442.968C290.578 442.497 290.094 442.261 289.489 442.261C289.08 442.261 288.711 442.372 288.381 442.594C288.061 442.808 287.808 443.11 287.621 443.502C287.443 443.893 287.354 444.342 287.354 444.849C287.354 445.356 287.448 445.805 287.634 446.196C287.83 446.588 288.101 446.899 288.448 447.13C288.804 447.353 289.217 447.464 289.689 447.464C290.098 447.464 290.467 447.366 290.796 447.17C291.125 446.975 291.423 446.672 291.69 446.263ZM292.53 445.223H287.101V444.382H292.33L292.53 444.822V445.223ZM294.327 448.144H293.113L295.554 444.742L293.339 441.581H294.54L296.208 444.142L297.902 441.581H299.076L296.875 444.742L299.316 448.144H298.089L296.208 445.369L294.327 448.144ZM303.991 448.144H302.523C302.061 448.144 301.709 448.02 301.469 447.771C301.229 447.513 301.109 447.148 301.109 446.677V439.659H302.136V446.583C302.136 446.797 302.19 446.966 302.296 447.09C302.403 447.206 302.563 447.264 302.777 447.264H303.991V448.144ZM303.897 442.461H299.855V441.581H303.897V442.461ZM307.853 447.13L308.52 446.423C308.805 446.752 309.129 447.015 309.494 447.21C309.868 447.397 310.286 447.49 310.748 447.49C311.228 447.49 311.615 447.379 311.909 447.157C312.211 446.935 312.362 446.646 312.362 446.29C312.362 445.996 312.233 445.765 311.975 445.596C311.726 445.418 311.295 445.285 310.681 445.196C309.747 445.045 309.089 444.827 308.707 444.542C308.333 444.258 308.147 443.862 308.147 443.355C308.147 442.955 308.253 442.608 308.467 442.314C308.68 442.012 308.978 441.781 309.361 441.621C309.743 441.452 310.183 441.367 310.681 441.367C311.233 441.367 311.726 441.474 312.162 441.687C312.598 441.901 312.985 442.203 313.323 442.594L312.656 443.301C312.407 442.972 312.118 442.714 311.789 442.528C311.468 442.332 311.099 442.234 310.681 442.234C310.245 442.234 309.89 442.336 309.614 442.541C309.338 442.737 309.2 442.99 309.2 443.301C309.2 443.47 309.249 443.617 309.347 443.742C309.445 443.857 309.61 443.955 309.841 444.035C310.072 444.115 310.383 444.186 310.775 444.249C311.744 444.391 312.429 444.622 312.829 444.942C313.229 445.254 313.429 445.698 313.429 446.276C313.429 446.686 313.314 447.05 313.083 447.37C312.851 447.682 312.531 447.926 312.122 448.104C311.722 448.273 311.264 448.358 310.748 448.358C310.108 448.358 309.556 448.251 309.094 448.037C308.631 447.815 308.218 447.513 307.853 447.13ZM318.608 448.144H317.141C316.678 448.144 316.327 448.02 316.087 447.771C315.847 447.513 315.727 447.148 315.727 446.677V439.659H316.754V446.583C316.754 446.797 316.807 446.966 316.914 447.09C317.021 447.206 317.181 447.264 317.394 447.264H318.608V448.144ZM318.515 442.461H314.473V441.581H318.515V442.461ZM324.977 446.263L325.67 446.93C325.324 447.41 324.915 447.771 324.443 448.011C323.981 448.242 323.469 448.358 322.909 448.358C322.251 448.358 321.668 448.206 321.161 447.904C320.663 447.602 320.272 447.188 319.987 446.663C319.712 446.13 319.574 445.529 319.574 444.862C319.574 444.195 319.712 443.599 319.987 443.075C320.272 442.541 320.654 442.123 321.135 441.821C321.624 441.518 322.171 441.367 322.776 441.367C323.371 441.367 323.896 441.514 324.35 441.807C324.812 442.101 325.172 442.51 325.43 443.035C325.688 443.55 325.817 444.146 325.817 444.822V444.902H324.777V444.809C324.777 444.044 324.594 443.43 324.23 442.968C323.865 442.497 323.38 442.261 322.776 442.261C322.366 442.261 321.997 442.372 321.668 442.594C321.348 442.808 321.095 443.11 320.908 443.502C320.73 443.893 320.641 444.342 320.641 444.849C320.641 445.356 320.734 445.805 320.921 446.196C321.117 446.588 321.388 446.899 321.735 447.13C322.091 447.353 322.504 447.464 322.976 447.464C323.385 447.464 323.754 447.366 324.083 447.17C324.412 446.975 324.71 446.672 324.977 446.263ZM325.817 445.223H320.388V444.382H325.617L325.817 444.822V445.223ZM328.701 450.732H327.674V441.581H328.688V443.568H328.448C328.519 443.132 328.679 442.75 328.928 442.421C329.177 442.092 329.488 441.834 329.862 441.647C330.244 441.46 330.658 441.367 331.102 441.367C331.707 441.367 332.241 441.518 332.703 441.821C333.166 442.123 333.53 442.541 333.797 443.075C334.064 443.599 334.198 444.195 334.198 444.862C334.198 445.538 334.06 446.139 333.784 446.663C333.508 447.188 333.13 447.602 332.65 447.904C332.179 448.206 331.636 448.358 331.022 448.358C330.471 448.358 329.986 448.238 329.568 447.997C329.15 447.748 328.835 447.415 328.621 446.997C328.408 446.57 328.328 446.094 328.381 445.569L328.581 445.303C328.617 445.721 328.737 446.094 328.941 446.423C329.155 446.743 329.43 446.997 329.768 447.184C330.106 447.37 330.475 447.464 330.876 447.464C331.32 447.464 331.707 447.353 332.036 447.13C332.374 446.908 332.637 446.601 332.823 446.21C333.019 445.818 333.117 445.369 333.117 444.862C333.117 444.355 333.024 443.906 332.837 443.515C332.659 443.124 332.405 442.817 332.076 442.594C331.756 442.372 331.383 442.261 330.956 442.261C330.52 442.261 330.133 442.381 329.795 442.621C329.457 442.852 329.19 443.177 328.995 443.595C328.799 444.013 328.701 444.498 328.701 445.049V450.732Z" fill="#585E44"/>
<rect x="101.291" y="216.232" width="69.4644" height="177.242" fill="#E8EDD5"/>
<rect x="269.088" y="266.736" width="69.4644" height="126.737" fill="#585E44"/>
<rect x="436.883" y="328.675" width="69.4644" height="64.798" fill="#E8EDD5"/>
<path d="M125.344 206.647L126.065 205.98C126.349 206.523 126.696 206.936 127.105 207.221C127.523 207.497 127.99 207.635 128.506 207.635C129.164 207.635 129.689 207.408 130.08 206.954C130.472 206.501 130.667 205.909 130.667 205.18C130.667 204.753 130.579 204.37 130.401 204.032C130.223 203.686 129.978 203.414 129.667 203.219C129.356 203.014 128.991 202.912 128.573 202.912C128.191 202.912 127.804 203.014 127.412 203.219C127.03 203.414 126.741 203.73 126.545 204.166L126.198 204.126C126.261 203.699 126.403 203.33 126.625 203.019C126.856 202.698 127.15 202.454 127.506 202.285C127.861 202.107 128.257 202.018 128.693 202.018C129.271 202.018 129.787 202.165 130.241 202.458C130.703 202.743 131.068 203.13 131.334 203.619C131.601 204.099 131.735 204.637 131.735 205.233C131.735 205.874 131.597 206.443 131.321 206.941C131.054 207.43 130.676 207.817 130.187 208.101C129.698 208.386 129.133 208.528 128.493 208.528C127.817 208.528 127.203 208.373 126.652 208.061C126.109 207.741 125.674 207.27 125.344 206.647ZM131.254 199.67H126.679L127.052 199.39L126.545 204.166H125.598L126.185 198.776H131.254V199.67ZM136.58 198.563C137.229 198.563 137.794 198.71 138.274 199.003C138.755 199.297 139.128 199.71 139.395 200.244C139.671 200.768 139.808 201.387 139.808 202.098C139.808 202.747 139.675 203.414 139.408 204.099C139.15 204.775 138.741 205.464 138.181 206.167C137.621 206.87 136.896 207.586 136.006 208.315H134.566C135.437 207.621 136.149 206.99 136.7 206.42C137.251 205.842 137.683 205.3 137.994 204.793C138.305 204.277 138.528 203.761 138.661 203.245L138.768 203.379C138.608 203.886 138.323 204.29 137.914 204.593C137.505 204.895 136.998 205.046 136.393 205.046C135.833 205.046 135.317 204.913 134.846 204.646C134.374 204.379 133.996 204.006 133.712 203.526C133.427 203.045 133.285 202.489 133.285 201.858C133.285 201.235 133.423 200.675 133.698 200.177C133.983 199.679 134.37 199.288 134.859 199.003C135.357 198.71 135.931 198.563 136.58 198.563ZM136.553 199.457C136.135 199.457 135.757 199.559 135.419 199.763C135.09 199.968 134.828 200.248 134.632 200.604C134.445 200.951 134.352 201.355 134.352 201.818C134.352 202.272 134.445 202.676 134.632 203.032C134.828 203.388 135.09 203.668 135.419 203.872C135.757 204.068 136.135 204.166 136.553 204.166C136.962 204.166 137.332 204.073 137.661 203.886C137.999 203.69 138.265 203.414 138.461 203.059C138.666 202.703 138.768 202.289 138.768 201.818C138.768 201.355 138.67 200.951 138.474 200.604C138.288 200.248 138.025 199.968 137.687 199.763C137.358 199.559 136.98 199.457 136.553 199.457ZM131.521 225.315H125.505V224.461L128.666 221.219C129.111 220.766 129.462 220.37 129.72 220.032C129.978 219.694 130.16 219.378 130.267 219.085C130.374 218.782 130.427 218.471 130.427 218.151C130.427 217.626 130.272 217.213 129.96 216.91C129.649 216.608 129.222 216.457 128.68 216.457C128.146 216.457 127.679 216.586 127.279 216.843C126.879 217.101 126.514 217.515 126.185 218.084L125.451 217.417C125.843 216.795 126.309 216.332 126.852 216.03C127.395 215.718 128.008 215.563 128.693 215.563C129.244 215.563 129.725 215.67 130.134 215.883C130.552 216.096 130.876 216.399 131.108 216.79C131.348 217.173 131.468 217.617 131.468 218.124C131.468 218.516 131.406 218.889 131.281 219.245C131.157 219.592 130.934 219.974 130.614 220.392C130.294 220.801 129.845 221.304 129.267 221.9L126.812 224.421H131.521V225.315Z" fill="#585E44"/>
<path d="M300.034 257.866H298.993V255.492H294.084V254.598L298.993 248.328H300.034V254.598H301.408V255.492H300.034V257.866ZM298.993 249.662L295.178 254.598H298.993V249.662ZM308.741 257.866H302.724V257.013L305.886 253.771C306.331 253.317 306.682 252.921 306.94 252.583C307.198 252.245 307.38 251.93 307.487 251.636C307.594 251.334 307.647 251.023 307.647 250.702C307.647 250.178 307.491 249.764 307.18 249.462C306.869 249.159 306.442 249.008 305.899 249.008C305.366 249.008 304.899 249.137 304.498 249.395C304.098 249.653 303.734 250.066 303.405 250.636L302.671 249.969C303.062 249.346 303.529 248.884 304.072 248.581C304.614 248.27 305.228 248.114 305.913 248.114C306.464 248.114 306.944 248.221 307.353 248.434C307.771 248.648 308.096 248.95 308.327 249.342C308.567 249.724 308.687 250.169 308.687 250.676C308.687 251.067 308.625 251.441 308.501 251.796C308.376 252.143 308.154 252.526 307.834 252.944C307.513 253.353 307.064 253.855 306.486 254.451L304.032 256.973H308.741V257.866ZM294.044 273.199L294.764 272.532C295.049 273.074 295.396 273.488 295.805 273.772C296.223 274.048 296.69 274.186 297.205 274.186C297.864 274.186 298.388 273.959 298.78 273.506C299.171 273.052 299.367 272.461 299.367 271.731C299.367 271.304 299.278 270.922 299.1 270.584C298.922 270.237 298.677 269.966 298.366 269.77C298.055 269.566 297.69 269.463 297.272 269.463C296.89 269.463 296.503 269.566 296.112 269.77C295.729 269.966 295.44 270.282 295.244 270.717L294.898 270.677C294.96 270.25 295.102 269.881 295.324 269.57C295.556 269.25 295.849 269.005 296.205 268.836C296.561 268.658 296.956 268.569 297.392 268.569C297.97 268.569 298.486 268.716 298.94 269.01C299.402 269.294 299.767 269.681 300.034 270.17C300.301 270.651 300.434 271.189 300.434 271.785C300.434 272.425 300.296 272.994 300.02 273.492C299.754 273.981 299.376 274.368 298.886 274.653C298.397 274.937 297.832 275.08 297.192 275.08C296.516 275.08 295.903 274.924 295.351 274.613C294.809 274.293 294.373 273.821 294.044 273.199ZM299.954 266.222H295.378L295.751 265.941L295.244 270.717H294.297L294.884 265.328H299.954V266.222Z" fill="#585E44"/>
<path d="M467.117 321.711H461.1V320.858L464.262 317.616C464.707 317.162 465.058 316.766 465.316 316.428C465.574 316.09 465.756 315.775 465.863 315.481C465.97 315.179 466.023 314.868 466.023 314.547C466.023 314.023 465.867 313.609 465.556 313.307C465.245 313.004 464.818 312.853 464.275 312.853C463.742 312.853 463.275 312.982 462.875 313.24C462.474 313.498 462.11 313.911 461.781 314.481L461.047 313.814C461.438 313.191 461.905 312.729 462.448 312.426C462.99 312.115 463.604 311.959 464.289 311.959C464.84 311.959 465.32 312.066 465.73 312.279C466.148 312.493 466.472 312.795 466.703 313.187C466.944 313.569 467.064 314.014 467.064 314.521C467.064 314.912 467.001 315.286 466.877 315.641C466.752 315.988 466.53 316.371 466.21 316.789C465.89 317.198 465.44 317.7 464.862 318.296L462.408 320.818H467.117V321.711ZM474.361 321.711H468.344V320.858L471.506 317.616C471.95 317.162 472.302 316.766 472.56 316.428C472.817 316.09 473 315.775 473.107 315.481C473.213 315.179 473.267 314.868 473.267 314.547C473.267 314.023 473.111 313.609 472.8 313.307C472.488 313.004 472.062 312.853 471.519 312.853C470.985 312.853 470.518 312.982 470.118 313.24C469.718 313.498 469.353 313.911 469.024 314.481L468.291 313.814C468.682 313.191 469.149 312.729 469.691 312.426C470.234 312.115 470.848 311.959 471.532 311.959C472.084 311.959 472.564 312.066 472.973 312.279C473.391 312.493 473.716 312.795 473.947 313.187C474.187 313.569 474.307 314.014 474.307 314.521C474.307 314.912 474.245 315.286 474.12 315.641C473.996 315.988 473.774 316.371 473.453 316.789C473.133 317.198 472.684 317.7 472.106 318.296L469.651 320.818H474.361V321.711ZM464.609 338.031C465.32 338.031 465.867 337.675 466.25 336.964C466.632 336.252 466.823 335.243 466.823 333.935C466.823 332.628 466.632 331.623 466.25 330.92C465.867 330.209 465.32 329.853 464.609 329.853C463.906 329.853 463.359 330.209 462.968 330.92C462.586 331.623 462.394 332.628 462.394 333.935C462.394 335.243 462.586 336.252 462.968 336.964C463.359 337.675 463.906 338.031 464.609 338.031ZM464.609 338.925C463.915 338.925 463.324 338.725 462.835 338.324C462.345 337.924 461.967 337.355 461.701 336.617C461.443 335.87 461.314 334.976 461.314 333.935C461.314 332.895 461.443 332.005 461.701 331.267C461.967 330.52 462.345 329.951 462.835 329.56C463.324 329.159 463.915 328.959 464.609 328.959C465.303 328.959 465.894 329.159 466.383 329.56C466.872 329.951 467.246 330.52 467.504 331.267C467.771 332.005 467.904 332.895 467.904 333.935C467.904 334.976 467.771 335.87 467.504 336.617C467.246 337.355 466.872 337.924 466.383 338.324C465.894 338.725 465.303 338.925 464.609 338.925Z" fill="#585E44"/>
<path d="M202.964 284.538V285.432L198.442 294.077H197.334L201.857 285.432H196.854V284.538H202.964ZM207.539 293.397C208.251 293.397 208.798 293.041 209.18 292.329C209.563 291.618 209.754 290.608 209.754 289.301C209.754 287.994 209.563 286.989 209.18 286.286C208.798 285.574 208.251 285.219 207.539 285.219C206.837 285.219 206.29 285.574 205.898 286.286C205.516 286.989 205.325 287.994 205.325 289.301C205.325 290.608 205.516 291.618 205.898 292.329C206.29 293.041 206.837 293.397 207.539 293.397ZM207.539 294.29C206.846 294.29 206.254 294.09 205.765 293.69C205.276 293.29 204.898 292.721 204.631 291.982C204.373 291.235 204.244 290.342 204.244 289.301C204.244 288.26 204.373 287.371 204.631 286.633C204.898 285.886 205.276 285.317 205.765 284.925C206.254 284.525 206.846 284.325 207.539 284.325C208.233 284.325 208.825 284.525 209.314 284.925C209.803 285.317 210.176 285.886 210.434 286.633C210.701 287.371 210.835 288.26 210.835 289.301C210.835 290.342 210.701 291.235 210.434 291.982C210.176 292.721 209.803 293.29 209.314 293.69C208.825 294.09 208.233 294.29 207.539 294.29ZM213.418 294.237C213.196 294.237 213.009 294.161 212.858 294.01C212.715 293.859 212.644 293.672 212.644 293.45C212.644 293.228 212.715 293.041 212.858 292.89C213.009 292.738 213.196 292.663 213.418 292.663C213.64 292.663 213.823 292.738 213.965 292.89C214.116 293.041 214.192 293.228 214.192 293.45C214.192 293.672 214.116 293.859 213.965 294.01C213.823 294.161 213.64 294.237 213.418 294.237ZM202.964 301.538V302.432L198.442 311.077H197.334L201.857 302.432H196.854V301.538H202.964ZM204.405 309.409L205.125 308.742C205.41 309.285 205.757 309.698 206.166 309.983C206.584 310.259 207.051 310.397 207.567 310.397C208.225 310.397 208.749 310.17 209.141 309.716C209.532 309.263 209.728 308.671 209.728 307.942C209.728 307.515 209.639 307.133 209.461 306.795C209.283 306.448 209.038 306.176 208.727 305.981C208.416 305.776 208.051 305.674 207.633 305.674C207.251 305.674 206.864 305.776 206.473 305.981C206.09 306.176 205.801 306.492 205.605 306.928L205.259 306.888C205.321 306.461 205.463 306.092 205.686 305.781C205.917 305.461 206.21 305.216 206.566 305.047C206.922 304.869 207.318 304.78 207.753 304.78C208.331 304.78 208.847 304.927 209.301 305.22C209.763 305.505 210.128 305.892 210.395 306.381C210.662 306.861 210.795 307.399 210.795 307.995C210.795 308.636 210.657 309.205 210.381 309.703C210.115 310.192 209.737 310.579 209.248 310.864C208.758 311.148 208.194 311.29 207.553 311.29C206.877 311.29 206.264 311.135 205.712 310.823C205.17 310.503 204.734 310.032 204.405 309.409ZM210.315 302.432H205.739L206.112 302.152L205.605 306.928H204.658L205.245 301.538H210.315V302.432ZM214.28 311.077H213.159L219.136 301.538H220.256L214.28 311.077ZM219.509 311.157C219.136 311.157 218.793 311.068 218.482 310.89C218.171 310.703 217.922 310.454 217.735 310.143C217.557 309.823 217.468 309.467 217.468 309.076C217.468 308.676 217.557 308.32 217.735 308.009C217.922 307.697 218.171 307.453 218.482 307.275C218.793 307.088 219.136 306.995 219.509 306.995C219.892 306.995 220.234 307.088 220.536 307.275C220.848 307.453 221.092 307.697 221.27 308.009C221.457 308.32 221.55 308.676 221.55 309.076C221.55 309.467 221.457 309.823 221.27 310.143C221.092 310.454 220.848 310.703 220.536 310.89C220.234 311.068 219.892 311.157 219.509 311.157ZM219.509 310.33C219.838 310.33 220.109 310.214 220.323 309.983C220.536 309.743 220.643 309.44 220.643 309.076C220.643 308.711 220.536 308.413 220.323 308.182C220.109 307.942 219.838 307.822 219.509 307.822C219.18 307.822 218.909 307.942 218.695 308.182C218.482 308.413 218.375 308.711 218.375 309.076C218.375 309.44 218.482 309.743 218.695 309.983C218.909 310.214 219.18 310.33 219.509 310.33ZM213.946 305.634C213.573 305.634 213.23 305.545 212.919 305.367C212.608 305.18 212.359 304.931 212.172 304.62C211.994 304.3 211.905 303.944 211.905 303.553C211.905 303.153 211.994 302.797 212.172 302.486C212.359 302.174 212.608 301.93 212.919 301.752C213.23 301.565 213.573 301.472 213.946 301.472C214.328 301.472 214.671 301.565 214.973 301.752C215.285 301.93 215.529 302.174 215.707 302.486C215.894 302.797 215.987 303.153 215.987 303.553C215.987 303.944 215.894 304.3 215.707 304.62C215.529 304.931 215.285 305.18 214.973 305.367C214.671 305.545 214.328 305.634 213.946 305.634ZM213.946 304.807C214.275 304.807 214.546 304.691 214.76 304.46C214.973 304.22 215.08 303.917 215.08 303.553C215.08 303.188 214.973 302.89 214.76 302.659C214.546 302.419 214.275 302.299 213.946 302.299C213.617 302.299 213.346 302.419 213.132 302.659C212.919 302.89 212.812 303.188 212.812 303.553C212.812 303.917 212.919 304.22 213.132 304.46C213.346 304.691 213.617 304.807 213.946 304.807Z" fill="black"/>
<path d="M235.181 322.037C235.367 321.851 235.367 321.549 235.181 321.363L232.148 318.331C231.962 318.145 231.661 318.145 231.475 318.331C231.289 318.517 231.289 318.819 231.475 319.005L234.17 321.7L231.475 324.396C231.289 324.582 231.289 324.883 231.475 325.069C231.661 325.255 231.962 325.255 232.148 325.069L235.181 322.037ZM199.586 321.7L199.586 322.177L234.844 322.177L234.844 321.7L234.844 321.224L199.586 321.224L199.586 321.7Z" fill="#2F3126"/>
<path d="M369.825 292.409L370.545 291.742C370.83 292.285 371.177 292.698 371.586 292.983C372.004 293.259 372.471 293.397 372.987 293.397C373.645 293.397 374.17 293.17 374.561 292.716C374.952 292.263 375.148 291.671 375.148 290.942C375.148 290.515 375.059 290.133 374.881 289.795C374.703 289.448 374.459 289.176 374.147 288.981C373.836 288.776 373.471 288.674 373.053 288.674C372.671 288.674 372.284 288.776 371.893 288.981C371.51 289.176 371.221 289.492 371.026 289.928L370.679 289.888C370.741 289.461 370.883 289.092 371.106 288.781C371.337 288.461 371.63 288.216 371.986 288.047C372.342 287.869 372.738 287.78 373.173 287.78C373.752 287.78 374.267 287.927 374.721 288.22C375.183 288.505 375.548 288.892 375.815 289.381C376.082 289.861 376.215 290.399 376.215 290.995C376.215 291.636 376.077 292.205 375.802 292.703C375.535 293.192 375.157 293.579 374.668 293.864C374.178 294.148 373.614 294.29 372.973 294.29C372.297 294.29 371.684 294.135 371.132 293.823C370.59 293.503 370.154 293.032 369.825 292.409ZM375.735 285.432H371.159L371.533 285.152L371.026 289.928H370.078L370.665 284.538H375.735V285.432ZM383.675 294.077H377.659V293.223L380.82 289.981C381.265 289.528 381.616 289.132 381.874 288.794C382.132 288.456 382.315 288.14 382.421 287.847C382.528 287.544 382.581 287.233 382.581 286.913C382.581 286.388 382.426 285.975 382.114 285.672C381.803 285.37 381.376 285.219 380.834 285.219C380.3 285.219 379.833 285.348 379.433 285.606C379.033 285.864 378.668 286.277 378.339 286.846L377.605 286.179C377.997 285.557 378.463 285.094 379.006 284.792C379.549 284.481 380.162 284.325 380.847 284.325C381.398 284.325 381.879 284.432 382.288 284.645C382.706 284.858 383.03 285.161 383.262 285.552C383.502 285.935 383.622 286.379 383.622 286.886C383.622 287.278 383.56 287.651 383.435 288.007C383.311 288.354 383.088 288.736 382.768 289.154C382.448 289.563 381.999 290.066 381.421 290.662L378.966 293.183H383.675V294.077ZM385.756 294.237C385.534 294.237 385.347 294.161 385.196 294.01C385.053 293.859 384.982 293.672 384.982 293.45C384.982 293.228 385.053 293.041 385.196 292.89C385.347 292.738 385.534 292.663 385.756 292.663C385.978 292.663 386.161 292.738 386.303 292.89C386.454 293.041 386.53 293.228 386.53 293.45C386.53 293.672 386.454 293.859 386.303 294.01C386.161 294.161 385.978 294.237 385.756 294.237ZM375.815 311.077H374.774V308.702H369.865V307.808L374.774 301.538H375.815V307.808H377.189V308.702H375.815V311.077ZM374.774 302.872L370.959 307.808H374.774V302.872ZM380.94 301.538H381.967V311.077H380.9V302.686L378.618 304.607V303.459L380.94 301.538ZM386.67 311.077H385.549L391.526 301.538H392.646L386.67 311.077ZM391.899 311.157C391.526 311.157 391.183 311.068 390.872 310.89C390.561 310.703 390.312 310.454 390.125 310.143C389.947 309.823 389.858 309.467 389.858 309.076C389.858 308.676 389.947 308.32 390.125 308.009C390.312 307.697 390.561 307.453 390.872 307.275C391.183 307.088 391.526 306.995 391.899 306.995C392.282 306.995 392.624 307.088 392.927 307.275C393.238 307.453 393.482 307.697 393.66 308.009C393.847 308.32 393.94 308.676 393.94 309.076C393.94 309.467 393.847 309.823 393.66 310.143C393.482 310.454 393.238 310.703 392.927 310.89C392.624 311.068 392.282 311.157 391.899 311.157ZM391.899 310.33C392.228 310.33 392.5 310.214 392.713 309.983C392.927 309.743 393.033 309.44 393.033 309.076C393.033 308.711 392.927 308.413 392.713 308.182C392.5 307.942 392.228 307.822 391.899 307.822C391.57 307.822 391.299 307.942 391.086 308.182C390.872 308.413 390.765 308.711 390.765 309.076C390.765 309.44 390.872 309.743 391.086 309.983C391.299 310.214 391.57 310.33 391.899 310.33ZM386.336 305.634C385.963 305.634 385.62 305.545 385.309 305.367C384.998 305.18 384.749 304.931 384.562 304.62C384.384 304.3 384.295 303.944 384.295 303.553C384.295 303.153 384.384 302.797 384.562 302.486C384.749 302.174 384.998 301.93 385.309 301.752C385.62 301.565 385.963 301.472 386.336 301.472C386.719 301.472 387.061 301.565 387.363 301.752C387.675 301.93 387.919 302.174 388.097 302.486C388.284 302.797 388.377 303.153 388.377 303.553C388.377 303.944 388.284 304.3 388.097 304.62C387.919 304.931 387.675 305.18 387.363 305.367C387.061 305.545 386.719 305.634 386.336 305.634ZM386.336 304.807C386.665 304.807 386.937 304.691 387.15 304.46C387.363 304.22 387.47 303.917 387.47 303.553C387.47 303.188 387.363 302.89 387.15 302.659C386.937 302.419 386.665 302.299 386.336 302.299C386.007 302.299 385.736 302.419 385.522 302.659C385.309 302.89 385.202 303.188 385.202 303.553C385.202 303.917 385.309 304.22 385.522 304.46C385.736 304.691 386.007 304.807 386.336 304.807Z" fill="black"/>
<path d="M408.392 322.037C408.578 321.851 408.578 321.549 408.392 321.363L405.359 318.331C405.173 318.145 404.872 318.145 404.686 318.331C404.499 318.517 404.499 318.819 404.686 319.005L407.381 321.7L404.686 324.396C404.499 324.582 404.499 324.883 404.686 325.069C404.872 325.255 405.173 325.255 405.359 325.069L408.392 322.037ZM372.797 321.7L372.797 322.177L408.055 322.177L408.055 321.7L408.055 321.224L372.797 321.224L372.797 321.7Z" fill="#2F3126"/>
</svg>
