<svg width="25" height="24" viewBox="0 0 25 24" fill="none" xmlns="http://www.w3.org/2000/svg">
<path d="M21.767 15.3539C22.7568 11.0588 18.7798 7.27431 14.5391 8.47609C15.4764 7.49107 16.414 6.50587 17.3514 5.52073C21.5922 4.31889 25.569 8.10323 24.5793 12.3984C23.6418 13.3837 22.7045 14.3687 21.767 15.3539Z" fill="#F9FFE5"/>
<path d="M14.2285 21.8262C18.4361 20.5131 19.6965 15.1699 16.5188 12.1152C17.8423 12.4275 19.1659 12.7396 20.4897 13.0519C23.6672 16.1066 22.4072 21.4495 18.1995 22.7625C16.8755 22.4505 15.5522 22.1384 14.2285 21.8262Z" fill="#F9FFE5"/>
<path d="M4.83594 18.5819C8.09308 21.5518 13.3421 19.9432 14.3755 15.6582C14.7738 16.9586 15.1724 18.2588 15.5708 19.5594C14.5371 23.844 9.28866 25.4525 6.03157 22.4826C5.63281 21.1821 5.23434 19.8821 4.83594 18.5819Z" fill="#F9FFE5"/>
<path d="M2.89641 8.83594C1.97608 13.1466 6.01372 16.8665 10.2347 15.5963C9.31296 16.5962 8.39145 17.5968 7.46993 18.597C3.24929 19.8669 -0.788053 16.1473 0.13222 11.8367C1.0535 10.8362 1.97484 9.83609 2.89641 8.83594Z" fill="#F9FFE5"/>
<path d="M10.3315 2.24513C6.14552 3.62613 4.97176 8.98895 8.1984 11.9923C6.86996 11.7011 5.54129 11.4104 4.21261 11.1196C0.986394 8.11658 2.16003 2.75411 6.34602 1.37305C7.67458 1.66372 9.00314 1.95434 10.3315 2.24513Z" fill="#F9FFE5"/>
<path d="M19.7747 5.33617C16.4701 2.4192 11.2479 4.11228 10.2833 8.41351C9.86448 7.11961 9.44479 5.82587 9.02539 4.53197C9.98977 0.231383 15.2116 -1.46163 18.5163 1.45523C18.9358 2.74884 19.3554 4.04274 19.7747 5.33617Z" fill="#F9FFE5"/>
</svg>
