<svg width="24" height="24" viewBox="0 0 24 24" fill="none" xmlns="http://www.w3.org/2000/svg">
<path d="M4.32422 0C4.32422 0 12.0007 4.16477 19.6773 0C12.2908 15.3119 12.0008 14.6992 12.0008 14.6992L4.32422 0Z" fill="#F9FFE5"/>
<path d="M4.32422 23.9995C4.32422 23.9995 12.0007 19.8347 19.6773 23.9995C12.2908 8.68765 12.0008 9.30024 12.0008 9.30024L4.32422 23.9995Z" fill="#F9FFE5"/>
<path d="M23.9993 4.32422C23.9993 4.32422 19.8345 12.0009 23.9993 19.6774C8.68746 12.2909 9.30024 12.0009 9.30024 12.0009L23.9993 4.32422Z" fill="#F9FFE5"/>
<path d="M0 4.32422C0 4.32422 4.16477 12.0009 0 19.6774C15.3118 12.2909 14.6994 12.0009 14.6994 12.0009L0 4.32422Z" fill="#F9FFE5"/>
</svg>
