<svg width="30" height="30" viewBox="0 0 30 30" fill="none" xmlns="http://www.w3.org/2000/svg">
<path d="M27.4796 12.0699C23.2428 10.0517 17.6968 11.0835 14.9883 14.9528C15.1173 10.6965 18.5996 7.21423 22.8558 6.69831C25.8222 6.31138 28.6597 7.98808 29.8881 10.7531C30.3605 12.4451 29.3008 12.9532 27.4796 12.0699Z" fill="#F9FFE5"/>
<path d="M12.053 2.52373C10.2165 6.69849 10.8614 12.5023 14.9885 14.9529C11.8931 14.9529 9.31361 13.0183 7.76591 10.4387C5.83129 6.82741 6.47615 1.5394 10.7278 0.113563C12.415 -0.362224 12.9268 0.698207 12.053 2.52373Z" fill="#F9FFE5"/>
<path d="M2.53163 17.9216C6.73151 19.7252 12.5354 19.2093 14.9859 14.9531C15.1149 19.2093 11.5036 22.6917 7.37636 23.3365C4.40989 23.7234 1.05658 22.1757 0.10958 19.2322C-0.362033 17.5476 0.70289 17.0426 2.53163 17.9216Z" fill="#F9FFE5"/>
<path d="M17.9039 27.4695C19.6314 23.2075 19.1154 17.5327 14.9883 14.9531C17.1809 15.0821 19.2445 15.9849 20.7922 17.5327C22.8558 19.5963 23.6297 22.4337 23.2428 25.2712C22.8558 27.4638 21.3081 29.1404 19.2062 29.89C17.5169 30.3582 17.0155 29.2939 17.9039 27.4695Z" fill="#F9FFE5"/>
</svg>
