<svg width="31" height="30" viewBox="0 0 31 30" fill="none" xmlns="http://www.w3.org/2000/svg">
<path d="M27.9559 17.9427C26.3308 17.9427 15.8984 15.0002 15.8984 15.0002C15.8984 15.0002 26.3308 12.0576 27.9559 12.0576C29.581 12.0576 30.8984 13.3751 30.8984 15.0002C30.8984 16.6253 29.581 17.9427 27.9559 17.9427Z" fill="#F9FFE5"/>
<path d="M18.8422 2.94256C18.8422 4.56767 15.8996 15 15.8996 15C15.8996 15 12.957 4.56767 12.957 2.94256C12.957 1.31746 14.2745 0 15.8996 0C17.5247 0 18.8422 1.31746 18.8422 2.94256Z" fill="#F9FFE5"/>
<path d="M3.84101 12.0576C5.46611 12.0576 15.8984 15.0002 15.8984 15.0002C15.8984 15.0002 5.46611 17.9427 3.84101 17.9427C2.21591 17.9427 0.898438 16.6253 0.898438 15.0002C0.898437 13.3751 2.21583 12.0576 3.84101 12.0576Z" fill="#F9FFE5"/>
<path d="M12.957 27.0574C12.957 25.4323 15.8996 15 15.8996 15C15.8996 15 18.8422 25.4323 18.8422 27.0574C18.8422 28.6825 17.5248 30 15.8996 30C14.2744 30 12.957 28.6826 12.957 27.0574Z" fill="#F9FFE5"/>
</svg>
