<svg width="31" height="30" viewBox="0 0 31 30" fill="none" xmlns="http://www.w3.org/2000/svg">
<path d="M28.0402 15.0681C23.9586 13.6777 19.5511 13.5518 15.5215 14.937C18.6697 11.4111 23.4549 7.88508 28.3661 9.89993C29.4994 10.4037 30.255 11.663 30.4995 12.9205C30.7253 14.5691 29.6232 15.4929 28.0402 15.0681Z" fill="#F9FFE5"/>
<path d="M15.5883 2.48915C14.2649 6.49965 14.139 10.9071 15.5242 14.9368C12.2501 12.4183 10.2352 8.64046 9.85742 4.61083C9.60559 2.59598 11.1167 0.329295 13.4372 0.0298142C15.0836 -0.197951 16.009 0.904038 15.5883 2.48915Z" fill="#F9FFE5"/>
<path d="M3.02387 14.9322C7.08477 16.4479 11.4923 16.1961 15.5219 15.0627C13.0033 18.3369 9.09954 20.4776 4.94396 20.6035C2.9291 20.6035 0.914248 19.2184 0.55857 17.0751C0.332842 15.4302 1.43711 14.5086 3.02387 14.9322Z" fill="#F9FFE5"/>
<path d="M15.4502 27.5061C16.781 23.5001 17.0329 18.9667 15.5217 14.937C18.7959 17.7074 21.4404 21.7371 21.1885 26.1446C21.0626 27.9076 19.4255 29.7966 17.5895 29.9713C15.9424 30.1952 15.0223 29.0908 15.4502 27.5061Z" fill="#F9FFE5"/>
</svg>
