<svg width="62" height="62" viewBox="0 0 62 62" fill="none" xmlns="http://www.w3.org/2000/svg">
<path d="M30.6128 30.509C57.2415 64.2667 4.75965 64.2667 31.3883 30.509C0.879694 64.2667 -2.26559 61.1214 31.4921 30.6128C-2.26559 57.2415 -2.26559 4.75963 31.4921 31.3883C-2.26559 0.879677 0.879694 -2.26559 31.3883 31.4921C4.75965 -2.26559 57.2415 -2.26559 30.6128 31.4921C61.1214 -2.26559 64.2667 0.879677 30.509 31.3883C64.2667 4.75963 64.2667 57.2415 30.509 30.6128C64.2666 61.1214 61.1213 64.2667 30.6128 30.509Z" fill="#F9FFE5"/>
<path d="M30.7903 30.41C45.1932 70.9222 -4.51946 54.0994 31.525 30.6587C-8.19471 52.8558 -10.1658 48.8683 31.59 30.7903C-8.92219 45.1932 7.90059 -4.51947 31.3413 31.525C9.14419 -8.19472 13.1317 -10.1658 31.2097 31.59C16.8069 -8.92219 66.5195 7.9006 30.475 31.3413C70.1947 9.14421 72.1658 13.1317 30.41 31.2097C70.9222 16.8068 54.0994 66.5195 30.6587 30.475C52.8558 70.1947 48.8683 72.1658 30.7903 30.41Z" stroke="#F9FFE5" stroke-width="0.2" stroke-miterlimit="10"/>
</svg>
