<svg width="60" height="60" viewBox="0 0 60 60" fill="none" xmlns="http://www.w3.org/2000/svg">
<path d="M29.2344 0.706169C29.4527 0.341828 29.712 0.123596 29.9996 0.123358C30.2872 0.12336 30.5463 0.341831 30.7647 0.706169C30.986 1.07553 31.1833 1.6223 31.3392 2.33997C31.6512 3.77674 31.8045 5.92378 31.6444 8.77851C31.4863 11.5971 31.0199 15.1085 30.1011 19.314C30.5742 21.4747 31.1673 23.8194 31.902 26.3478C32.7145 26.0731 33.5433 25.7869 34.3872 25.4853L34.5861 25.4135L34.515 25.613C34.2134 26.4568 33.9264 27.2851 33.6518 28.0976C36.1798 28.8322 38.5243 29.4247 40.6849 29.8978C44.8908 28.9789 48.403 28.5139 51.2217 28.3558C54.0766 28.1957 56.2235 28.349 57.6603 28.6611C58.3778 28.8169 58.924 29.0137 59.2934 29.2349C59.6579 29.4533 59.8762 29.7123 59.8762 30C59.8762 30.2877 59.6579 30.5467 59.2934 30.7651C58.924 30.9864 58.3778 31.1831 57.6603 31.3389C56.2235 31.651 54.0766 31.8043 51.2217 31.6442C48.4027 31.4861 44.89 31.0213 40.6835 30.1022C38.5233 30.5753 36.1793 31.168 33.6518 31.9024C33.9264 32.7149 34.2134 33.5432 34.515 34.387L34.5861 34.5865L34.3872 34.5147C33.5433 34.2131 32.7145 33.9269 31.902 33.6522C31.1675 36.1801 30.5741 38.5242 30.1011 40.6846C31.02 44.8907 31.4863 48.4026 31.6444 51.2215C31.8045 54.0762 31.6512 56.2233 31.3392 57.66C31.1833 58.3777 30.986 58.9245 30.7647 59.2938C30.5463 59.6582 30.2872 59.8766 29.9996 59.8766C29.712 59.8764 29.4527 59.6582 29.2344 59.2938C29.0132 58.9245 28.8165 58.3783 28.6606 57.6607C28.3485 56.224 28.196 54.0765 28.3561 51.2215C28.5142 48.4028 28.9778 44.8905 29.8967 40.6846C29.4236 38.5243 28.8316 36.18 28.0971 33.6522C27.2847 33.9268 26.4563 34.2139 25.6126 34.5154L25.4137 34.5858L25.4848 34.3877C25.7864 33.5439 26.0727 32.7149 26.3473 31.9024C23.8195 31.1679 21.4753 30.5746 19.3149 30.1015C15.1092 31.0204 11.5974 31.4861 8.77876 31.6442C5.92384 31.8043 3.77629 31.6517 2.33953 31.3396C1.62186 31.1838 1.07508 30.9864 0.705726 30.7651C0.341443 30.5468 0.122916 30.2876 0.122915 30C0.122917 29.7124 0.341445 29.4532 0.705726 29.2349C1.07509 29.0136 1.62186 28.8162 2.33953 28.6604C3.77629 28.3483 5.92383 28.1957 8.77876 28.3558C11.5974 28.5139 15.1092 28.9796 19.3149 29.8985C21.4753 29.4254 23.8195 28.8321 26.3473 28.0976C26.0727 27.2851 25.7864 26.4561 25.4848 25.6123L25.4137 25.4142L25.6126 25.4846C26.4563 25.7861 27.2847 26.0732 28.0971 26.3478C28.8316 23.82 29.4236 21.4757 29.8967 19.3154C28.9778 15.1095 28.5142 11.5972 28.3561 8.77851C28.196 5.92348 28.3485 3.77604 28.6606 2.33928C28.8165 1.62173 29.0132 1.0755 29.2344 0.706169Z" stroke="#F9FFE5" stroke-width="0.2"/>
<path d="M23.748 30.0003C67.5137 50.7183 50.7183 67.5137 30.0003 23.7481C9.28228 67.5137 -7.5131 50.7183 36.2525 30.0003C-7.5131 9.2822 9.28228 -7.51307 30.0003 36.2526C50.7184 -7.51307 67.5137 9.28233 23.748 30.0003Z" fill="#F9FFE5"/>
</svg>
