<svg width="62" height="62" viewBox="0 0 62 62" fill="none" xmlns="http://www.w3.org/2000/svg">
<path d="M31.369 31.7228C31.5166 33.1983 31.6641 34.6737 32.1068 36.1492C32.1068 36.2967 32.4019 36.4443 32.4019 36.5918C33.1396 39.1001 34.6151 41.1658 36.2381 43.0839C37.4184 44.4118 38.7464 45.4446 40.2218 46.4775C41.9924 47.5103 43.763 48.5431 45.6811 49.2809C47.5992 50.0186 49.5173 50.4612 51.2878 51.3465C51.4354 51.4941 51.7305 51.6416 51.878 51.9367C52.0256 52.3793 51.7305 52.5269 51.4354 52.9695C51.4354 52.9695 51.2878 52.9695 51.1403 52.9695C47.8943 54.445 44.0581 54.0024 40.6645 52.9695C38.8939 52.3793 37.2709 51.6416 35.7954 50.4612C35.6479 50.3137 35.5003 50.4612 35.3528 50.3137C31.6641 47.5103 29.1558 43.6741 28.7132 39.1001C28.5656 36.4443 29.0083 33.7884 30.3362 31.4277C28.5656 31.2802 26.9426 31.8703 25.3196 32.313C25.1721 32.313 25.0245 32.6081 24.877 32.6081C21.7785 33.6409 19.2702 35.8541 17.057 38.2149C16.1717 39.3952 15.434 40.4281 14.6962 41.6084C14.4012 42.1986 14.1061 42.6413 13.811 43.2314C12.6306 45.8873 11.8929 48.5431 10.7125 51.199C10.5649 51.6416 10.1223 52.2318 9.53211 51.9367C9.38456 51.7892 9.23701 51.6416 9.08947 51.4941C8.20419 50.1661 8.20419 48.5431 8.05664 47.0677C8.05664 45.1496 8.35173 43.2314 8.79437 41.3133C9.67966 38.3624 11.1551 35.8541 13.2208 33.6409C14.1061 32.7556 14.9913 31.7228 16.1717 31.1326C16.9094 30.8375 17.6472 30.2473 18.3849 29.9522C18.9751 29.6571 19.7128 29.5096 20.303 29.362C22.3687 28.6243 24.5819 28.6243 26.7951 28.9194C28.123 29.2145 29.4509 29.6571 30.6313 30.3949C30.6313 29.5096 30.4837 28.4768 30.1887 27.5915C30.1887 27.4439 30.1887 27.1488 30.1887 27.0013C29.0083 22.7224 26.5 19.3289 23.1064 16.5255C22.9589 16.3779 22.8113 16.5255 22.6638 16.3779C19.1226 13.427 14.6962 12.5417 10.5649 10.6236C10.4174 10.4761 10.1223 10.3285 10.1223 10.181C10.1223 9.88587 9.97475 9.59078 10.2698 9.29568C10.5649 9.00059 11.0076 8.85304 11.3027 8.7055C14.2536 7.67267 17.2045 8.11531 20.303 8.7055C23.1064 9.44323 25.4672 10.6236 27.6804 12.5417C28.123 12.9844 28.5656 13.427 29.0083 13.8696C29.8936 14.9025 30.6313 15.9353 31.369 16.9681C32.2543 18.5911 32.697 20.0666 33.1396 21.8372C33.7298 24.9356 32.992 27.8866 31.6641 30.69C35.3528 30.3949 38.8939 29.067 41.9924 26.7062C44.9433 24.1979 46.8614 21.247 48.632 17.8534C48.632 17.7058 48.632 17.5583 48.632 17.4108C49.2222 16.2304 49.6648 15.05 50.1075 13.7221C50.1075 13.5745 50.255 13.427 50.4026 13.2794C50.5501 12.5417 50.8452 11.804 51.1403 11.0662C51.2878 10.7712 51.4354 10.4761 51.5829 10.3285C51.878 10.181 52.0256 9.88587 52.3207 10.0334C52.7633 10.181 53.0584 10.6236 53.206 11.0662C54.3863 14.1647 54.0912 17.4108 53.206 20.6568C51.7305 25.5258 48.632 29.6571 44.0581 31.8703C40.2218 33.6409 35.7954 33.936 31.9592 31.8703C31.8117 31.7228 31.5166 31.7228 31.369 31.7228Z" fill="#F9FFE5"/>
<path d="M31.7778 31.2656C32.9254 32.2046 34.073 33.1436 35.4294 33.874C35.5338 33.9783 35.8467 33.874 35.951 33.9783C38.2462 35.2302 40.7503 35.6476 43.2543 35.8563C45.0279 35.9606 46.6971 35.7519 48.4708 35.439C50.4531 34.9174 52.4354 34.3957 54.3134 33.561C56.1913 32.7264 57.8607 31.6831 59.7387 31.057C59.9473 31.057 60.2602 30.9527 60.5733 31.057C60.9906 31.2656 60.8863 31.5787 60.9906 32.1003C60.9906 32.1003 60.8863 32.2046 60.7819 32.3089C59.53 35.6475 56.5044 38.0472 53.3744 39.7165C51.705 40.5512 50.0358 41.1772 48.1579 41.3859C47.9492 41.3859 47.9492 41.5945 47.7406 41.5945C43.15 42.2205 38.6638 41.2816 35.1165 38.3603C33.1342 36.5866 31.5692 34.3957 30.839 31.7874C29.4827 32.935 28.7524 34.5 27.9177 35.9606C27.8134 36.0649 27.9177 36.3778 27.8134 36.4822C26.3528 39.4034 26.144 42.742 26.2485 45.9763C26.4571 47.4369 26.6658 48.689 26.9789 50.0452C27.1875 50.6713 27.2918 51.1929 27.5004 51.8189C28.5437 54.5316 29.9 56.9311 30.9433 59.6438C31.1519 60.061 31.2562 60.7914 30.6304 61C30.4217 61 30.2129 61 30.0043 61C28.4393 60.6871 27.2917 59.5393 26.144 58.6003C24.7878 57.2441 23.6401 55.679 22.5967 54.0097C21.1361 51.297 20.4058 48.4801 20.3015 45.4545C20.3015 44.2025 20.1972 42.8461 20.6144 41.5942C20.9274 40.8639 21.0317 39.9249 21.3448 39.1947C21.5534 38.5686 21.9708 37.9427 22.2838 37.421C23.2228 35.4387 24.7876 33.8737 26.5613 32.5174C27.7089 31.7871 28.961 31.1612 30.3172 30.8481C29.6912 30.222 28.8565 29.5962 28.022 29.1787C27.9177 29.0744 27.7091 28.8658 27.6047 28.7615C23.7445 26.5706 19.5713 25.9445 15.1893 26.3619C14.9806 26.3619 14.9806 26.5706 14.7718 26.5706C10.1812 26.9878 6.42545 29.4918 2.14777 31.0569C1.93914 31.0569 1.62617 31.1612 1.52171 31.0569C1.31308 30.8482 1 30.7439 1 30.3265C1 29.9091 1.20861 29.4918 1.31307 29.1789C2.66932 26.3619 5.06902 24.5883 7.67736 22.8148C10.1812 21.354 12.6852 20.5195 15.6065 20.3107C16.2326 20.3107 16.8585 20.3107 17.4845 20.3107C18.8409 20.4151 20.0928 20.6237 21.3448 20.8325C23.1184 21.354 24.4747 22.0844 26.0397 23.0234C28.6479 24.797 30.2129 27.4052 31.2562 30.3265C33.6559 27.5095 35.2208 24.0667 35.7425 20.2064C36.0555 16.3462 35.3253 12.9033 34.1775 9.25166C34.0732 9.14735 33.9689 9.04303 33.8646 8.93872C33.4473 7.68678 32.9256 6.53916 32.2997 5.28708C32.1954 5.18277 32.1954 4.97414 32.1954 4.76536C31.7781 4.13932 31.465 3.40911 31.1521 2.67875C31.0477 2.3658 30.9434 2.05271 30.9434 1.84408C31.0477 1.53113 30.9434 1.21804 31.2564 1.11372C31.6736 0.905091 32.1954 1.00941 32.6126 1.21804C35.6382 2.57429 37.7248 5.0783 39.3942 7.99958C41.7939 12.4859 42.5241 17.5981 40.8549 22.3973C39.3942 26.3619 36.4731 29.7005 32.2997 30.9526C32.0909 30.9527 31.8821 31.1613 31.7778 31.2656Z" stroke="#F9FFE5" stroke-width="0.2" stroke-miterlimit="10"/>
</svg>
